<?xml version="1.0" encoding="UTF-8" standalone="no"?>
<svg
   xmlns:dc="http://purl.org/dc/elements/1.1/"
   xmlns:cc="http://creativecommons.org/ns#"
   xmlns:rdf="http://www.w3.org/1999/02/22-rdf-syntax-ns#"
   xmlns:svg="http://www.w3.org/2000/svg"
   xmlns="http://www.w3.org/2000/svg"
   id="svg2"
   height="1402"
   width="1402"
   version="1.2">
  <defs
     id="defs4" />
  <metadata
     id="metadata7">
    <rdf:RDF>
      <cc:Work
         rdf:about="">
        <dc:format>image/svg+xml</dc:format>
        <dc:type
           rdf:resource="http://purl.org/dc/dcmitype/StillImage" />
        <dc:title></dc:title>
      </cc:Work>
    </rdf:RDF>
  </metadata>
  <flowRoot
     transform="translate(50.999997,51)"
     id="flowRoot3924"
     xml:space="preserve"
     style="font-style:normal;font-weight:normal;font-size:100px;line-height:125%;font-family:Sans;letter-spacing:0px;word-spacing:0px;fill:#000000;fill-opacity:1;stroke:none"><flowRegion
       id="flowRegion3926"><rect
         width="636.39612"
         height="130.10765"
         x="1320.8755"
         y="799.36841"
         id="rect3928" /></flowRegion><flowPara
       id="flowPara3930" /></flowRoot>  <g
     id="g4698">
    <path
       style="fill:#ffffff;fill-opacity:1;stroke:#000000;stroke-width:2.51353002;stroke-opacity:1"
       id="path4143"
       d="M 1399.7432,701 A 698.74325,698.74326 0 0 1 2.256745,701 698.74325,698.74326 0 1 1 1399.7432,701 Z" />
    <rect
       style="opacity:0;fill:#ffffff;fill-opacity:1;stroke:none"
       id="rect4112"
       y="2.6171874e-06"
       x="8.1469727e-07"
       ry="5"
       rx="5"
       height="1402"
       width="1402" />
    <path
       style="color:#000000;font-style:normal;font-variant:normal;font-weight:normal;font-stretch:normal;font-size:medium;line-height:normal;font-family:sans-serif;text-indent:0;text-align:start;text-decoration:none;text-decoration-line:none;text-decoration-style:solid;text-decoration-color:#000000;letter-spacing:normal;word-spacing:normal;text-transform:none;direction:ltr;block-progression:tb;writing-mode:lr-tb;baseline-shift:baseline;text-anchor:start;white-space:normal;clip-rule:nonzero;display:inline;overflow:visible;visibility:visible;opacity:1;isolation:auto;mix-blend-mode:normal;color-interpolation:sRGB;color-interpolation-filters:linearRGB;solid-color:#000000;solid-opacity:1;fill:#000000;fill-opacity:1;fill-rule:nonzero;stroke:none;stroke-width:10;stroke-linecap:butt;stroke-linejoin:miter;stroke-miterlimit:4;stroke-dasharray:none;stroke-dashoffset:0;stroke-opacity:1;color-rendering:auto;image-rendering:auto;shape-rendering:auto;text-rendering:auto;enable-background:accumulate"
       d="m 388.06445,753.38281 c -5.45351,0 -10,4.54649 -10,10 l 0,185.8711 c 0,5.45351 4.54649,10 10,10 l 185.8711,0 c 5.45351,0 10,-4.54649 10,-10 l 0,-185.8711 c 0,-5.45351 -4.54649,-10 -10,-10 l -185.8711,0 z m 0,10 185.8711,0 0,185.8711 -185.8711,0 0,-185.8711 z"
       id="rect2987" />
    <path
       style="color:#000000;font-style:normal;font-variant:normal;font-weight:normal;font-stretch:normal;font-size:medium;line-height:normal;font-family:sans-serif;text-indent:0;text-align:start;text-decoration:none;text-decoration-line:none;text-decoration-style:solid;text-decoration-color:#000000;letter-spacing:normal;word-spacing:normal;text-transform:none;direction:ltr;block-progression:tb;writing-mode:lr-tb;baseline-shift:baseline;text-anchor:start;white-space:normal;clip-rule:nonzero;display:inline;overflow:visible;visibility:visible;opacity:1;isolation:auto;mix-blend-mode:normal;color-interpolation:sRGB;color-interpolation-filters:linearRGB;solid-color:#000000;solid-opacity:1;fill:#000000;fill-opacity:1;fill-rule:nonzero;stroke:none;stroke-width:10;stroke-linecap:butt;stroke-linejoin:miter;stroke-miterlimit:4;stroke-dasharray:none;stroke-dashoffset:0;stroke-opacity:1;color-rendering:auto;image-rendering:auto;shape-rendering:auto;text-rendering:auto;enable-background:accumulate"
       d="m 608.06445,753.38281 c -5.45351,0 -10,4.54649 -10,10 l 0,185.8711 c 0,5.45351 4.54649,10 10,10 l 185.8711,0 c 5.45351,0 10,-4.54649 10,-10 l 0,-185.8711 c 0,-5.45351 -4.54649,-10 -10,-10 l -185.8711,0 z m 0,10 185.8711,0 0,185.8711 -185.8711,0 0,-185.8711 z"
       id="rect2987-5" />
    <path
       style="color:#000000;font-style:normal;font-variant:normal;font-weight:normal;font-stretch:normal;font-size:medium;line-height:normal;font-family:sans-serif;text-indent:0;text-align:start;text-decoration:none;text-decoration-line:none;text-decoration-style:solid;text-decoration-color:#000000;letter-spacing:normal;word-spacing:normal;text-transform:none;direction:ltr;block-progression:tb;writing-mode:lr-tb;baseline-shift:baseline;text-anchor:start;white-space:normal;clip-rule:nonzero;display:inline;overflow:visible;visibility:visible;opacity:1;isolation:auto;mix-blend-mode:normal;color-interpolation:sRGB;color-interpolation-filters:linearRGB;solid-color:#000000;solid-opacity:1;fill:#000000;fill-opacity:1;fill-rule:nonzero;stroke:none;stroke-width:10;stroke-linecap:butt;stroke-linejoin:miter;stroke-miterlimit:4;stroke-dasharray:none;stroke-dashoffset:0;stroke-opacity:1;color-rendering:auto;image-rendering:auto;shape-rendering:auto;text-rendering:auto;enable-background:accumulate"
       d="m 828.06445,753.38281 c -5.45351,0 -10,4.54649 -10,10 l 0,185.8711 c 0,5.45351 4.54649,10 10,10 l 185.87105,0 c 5.4536,0 10,-4.54649 10,-10 l 0,-185.8711 c 0,-5.45351 -4.5464,-10 -10,-10 l -185.87105,0 z m 0,10 185.87105,0 0,185.8711 -185.87105,0 0,-185.8711 z"
       id="rect2987-5-4" />
    <path
       style="color:#000000;font-style:normal;font-variant:normal;font-weight:normal;font-stretch:normal;font-size:medium;line-height:normal;font-family:sans-serif;text-indent:0;text-align:start;text-decoration:none;text-decoration-line:none;text-decoration-style:solid;text-decoration-color:#000000;letter-spacing:normal;word-spacing:normal;text-transform:none;direction:ltr;block-progression:tb;writing-mode:lr-tb;baseline-shift:baseline;text-anchor:start;white-space:normal;clip-rule:nonzero;display:inline;overflow:visible;visibility:visible;opacity:1;isolation:auto;mix-blend-mode:normal;color-interpolation:sRGB;color-interpolation-filters:linearRGB;solid-color:#000000;solid-opacity:1;fill:#000000;fill-opacity:1;fill-rule:nonzero;stroke:none;stroke-width:10;stroke-linecap:butt;stroke-linejoin:miter;stroke-miterlimit:4;stroke-dasharray:none;stroke-dashoffset:0;stroke-opacity:1;color-rendering:auto;image-rendering:auto;shape-rendering:auto;text-rendering:auto;enable-background:accumulate"
       d="m 828.06445,533.38281 c -5.45351,0 -10,4.54649 -10,10 l 0,185.8711 c 0,5.45351 4.54649,10 10,10 l 185.87105,0 c 5.4536,0 10,-4.54649 10,-10 l 0,-185.8711 c 0,-5.45351 -4.5464,-10 -10,-10 l -185.87105,0 z m 0,10 185.87105,0 0,185.8711 -185.87105,0 0,-185.8711 z"
       id="rect2987-5-4-4" />
    <path
       style="color:#000000;font-style:normal;font-variant:normal;font-weight:normal;font-stretch:normal;font-size:medium;line-height:normal;font-family:sans-serif;text-indent:0;text-align:start;text-decoration:none;text-decoration-line:none;text-decoration-style:solid;text-decoration-color:#000000;letter-spacing:normal;word-spacing:normal;text-transform:none;direction:ltr;block-progression:tb;writing-mode:lr-tb;baseline-shift:baseline;text-anchor:start;white-space:normal;clip-rule:nonzero;display:inline;overflow:visible;visibility:visible;opacity:1;isolation:auto;mix-blend-mode:normal;color-interpolation:sRGB;color-interpolation-filters:linearRGB;solid-color:#000000;solid-opacity:1;fill:#000000;fill-opacity:1;fill-rule:nonzero;stroke:none;stroke-width:10;stroke-linecap:butt;stroke-linejoin:miter;stroke-miterlimit:4;stroke-dasharray:none;stroke-dashoffset:0;stroke-opacity:1;color-rendering:auto;image-rendering:auto;shape-rendering:auto;text-rendering:auto;enable-background:accumulate"
       d="m 618.06445,313.38281 c -5.45351,0 -10,4.54649 -10,10 l 0,185.8711 c 0,5.45351 4.54649,10 10,10 l 185.8711,0 c 5.45351,0 10,-4.54649 10,-10 l 0,-185.8711 c 0,-5.45351 -4.54649,-10 -10,-10 l -185.8711,0 z m 0,10 185.8711,0 0,185.8711 -185.8711,0 0,-185.8711 z"
       id="rect2987-5-4-4-6" />
    <path
       style="opacity:0;fill:#ffdf00;fill-opacity:0;stroke:#000000;stroke-width:6.61740017;stroke-miterlimit:4;stroke-dasharray:none;stroke-opacity:1"
       id="path3945"
       d="m 278.08279,686.6228 a 496.69131,496.6913 0 1 0 993.38261,0 496.69131,496.6913 0 1 0 -993.38261,0 z" />
    <path
       style="opacity:0;fill:#ffffff;fill-opacity:0;stroke:#000000;stroke-width:14.14213562;stroke-miterlimit:4;stroke-dasharray:none;stroke-opacity:1"
       id="path3965"
       d="m 363.63621,1075.9283 -8.9628,-9.2473 14.72045,-4.7074 c 8.09625,-2.5891 14.9292,-4.4265 15.18434,-4.0831 0.25512,0.3434 -2.33581,6.623 -5.75766,13.9547 l -6.22153,13.3304 -8.9628,-9.2473 z" />
    <path
       style="opacity:0;fill:#ffffff;fill-opacity:0;stroke:#000000;stroke-width:14.14213562;stroke-miterlimit:4;stroke-dasharray:none;stroke-opacity:1"
       id="path3967"
       d="m 617.31683,238.20284 c -15.81373,-8.58918 -24.63581,-32.6296 -19.27704,-52.53053 12.10518,-44.95522 68.9907,-36.68061 72.91206,10.60586 1.48941,17.96025 -2.70723,29.57429 -14.17241,39.2216 -9.65394,8.12326 -27.26272,9.32941 -39.46261,2.70307 l 0,0 z" />
    <path
       style="opacity:0;fill:#ffffff;fill-opacity:0;stroke:#000000;stroke-width:14.14213562;stroke-miterlimit:4;stroke-dasharray:none;stroke-opacity:1"
       id="path3969"
       d="m 784.64254,205.43159 c -20.20852,-3.90296 -19.59118,-2.96592 -15.01216,-22.7866 2.27088,-9.8297 4.40942,-18.15272 4.7523,-18.49561 0.34288,-0.34288 7.37438,1.15744 15.62555,3.33406 18.89385,4.9841 25.74701,11.05186 25.74701,22.79627 0,14.49338 -9.80311,19.26749 -31.1127,15.15188 z" />
    <path
       style="opacity:0;fill:#ffffff;fill-opacity:1;stroke:#000000;stroke-width:14.14213562;stroke-miterlimit:4;stroke-dasharray:none;stroke-opacity:1"
       id="path3975"
       d="m 784.64254,205.43159 c -20.20852,-3.90296 -19.59118,-2.96592 -15.01216,-22.7866 2.27088,-9.8297 4.40942,-18.15272 4.7523,-18.49561 0.34288,-0.34288 7.37438,1.15744 15.62555,3.33406 18.89385,4.9841 25.74701,11.05186 25.74701,22.79627 0,14.49338 -9.80311,19.26749 -31.1127,15.15188 z" />
    <path
       style="opacity:0;fill:#ffffff;fill-opacity:1;stroke:#000000;stroke-width:14.14213562;stroke-miterlimit:4;stroke-dasharray:none;stroke-opacity:1"
       id="path3977"
       d="m 617.31683,238.20284 c -15.81373,-8.58918 -24.63581,-32.6296 -19.27704,-52.53053 12.10518,-44.95522 68.9907,-36.68061 72.91206,10.60586 1.48941,17.96025 -2.70723,29.57429 -14.17241,39.2216 -9.65394,8.12326 -27.26272,9.32941 -39.46261,2.70307 l 0,0 z" />
    <path
       style="opacity:0;fill:#ffffff;fill-opacity:1;stroke:#000000;stroke-width:14.14213562;stroke-miterlimit:4;stroke-dasharray:none;stroke-opacity:1"
       id="path3979"
       d="m 363.63621,1075.9283 -8.9628,-9.2473 14.72045,-4.7074 c 8.09625,-2.5891 14.9292,-4.4265 15.18434,-4.0831 0.25512,0.3434 -2.33581,6.623 -5.75766,13.9547 l -6.22153,13.3304 -8.9628,-9.2473 z" />
    <path
       style="opacity:0;fill:none;stroke:#000000;stroke-width:5.39458895;stroke-miterlimit:4;stroke-dasharray:none;stroke-opacity:1"
       id="path3991"
       d="m 1198.3027,700.99999 a 497.30269,497.3027 0 1 1 -994.60538,0 497.30269,497.3027 0 1 1 994.60538,0 z" />
    <g
       style="font-style:normal;font-variant:normal;font-weight:bold;font-stretch:normal;font-size:220px;line-height:125%;font-family:TlwgMono;-inkscape-font-specification:'TlwgMono Bold';letter-spacing:30px;word-spacing:0px;fill:#000000;fill-opacity:1;stroke:none"
       id="text3993"
       transform="translate(52.004729,312.63782)">
      <path
         style="letter-spacing:30px"
         id="path3336"
         d="m 291.3976,42.116335 c 5.16284,5.207965 4.30706,11.219422 -2.56735,18.034388 l -23.43562,23.232983 c -3.5414,3.51077 -6.40124,5.313275 -8.57956,5.40752 -3.73619,0.606043 -6.895,-0.392917 -9.47645,-2.996883 -2.99446,-3.020579 -3.9646,-6.499072 -2.91042,-10.435489 0.42295,-1.864921 2.24887,-4.397885 5.47777,-7.598898 l 2.34356,-2.323298 -59.32155,-59.8389622 -2.34356,2.3232983 c -3.43716,3.4075889 -6.24538,5.2621719 -8.42466,5.5637569 -3.83938,0.501961 -7.04982,-0.549078 -9.63134,-3.153119 -2.99439,-3.0205037 -3.96453,-6.4989967 -2.91042,-10.43549001 0.42302,-1.86484549 2.24894,-4.39780879 5.47777,-7.59889769 l 23.43562,-23.2329833 c 3.43728,-3.407374 6.2455,-5.261958 8.42467,-5.563757 3.83949,-0.501746 7.04993,0.549293 9.63133,3.15312 2.99451,3.020717 3.96465,6.49921 2.91043,10.43549 -0.42291,1.865059 -2.24883,4.398023 -5.47777,7.598897 l -5.46832,5.4210295 23.0781,23.2793875 4.11263,-51.474144 c -4.46798,1.951221 -8.40572,1.208153 -11.81325,-2.229204 -5.26611,-5.311934 -4.46196,-11.375469 2.41246,-18.190625 L 241.96542,-73.9942 c 3.43723,-3.407331 6.29753,-5.313544 8.5809,-5.718644 3.83855,-0.294287 6.99691,0.808381 9.4751,3.308006 5.16287,5.208084 4.51541,11.013025 -1.9424,17.414841 l -3.80016,51.1643708 c 15.36949,-4.7038138 36.04548,-1.4508848 62.02805,9.7587972 l 4.9996,-4.9563697 c 3.33299,-3.3041445 6.14121,-5.1587284 8.42466,-5.5637574 3.83937,-0.5017737 7.04981,0.5492652 9.63134,3.1531199 5.16279,5.20801241 4.30701,11.2194689 -2.56735,18.0343872 l -17.18612,17.037521 c -14.69417,-7.530849 -27.99925,-12.51484 -39.91527,-14.951989 -11.81192,-2.540245 -20.83631,-2.164591 -27.0732,1.126964 l -1.47503,17.261306 16.72774,16.873649 5.46832,-5.421029 c 3.33304,-3.304192 6.14126,-5.158776 8.42466,-5.563757 3.83942,-0.501822 7.04986,0.549217 9.63134,3.153119" />
      <path
         style="letter-spacing:30px"
         id="path3338"
         d="m 429.65787,-161.94824 26.93814,54.90795 c 6.91209,14.089166 6.87278,27.994613 -0.11793,41.716381 -5.26181,10.586443 -13.22545,18.49593 -23.89095,23.728486 -10.66562,5.232608 -21.79465,6.690089 -33.38712,4.372447 -15.2596,-3.13238 -26.28087,-11.611445 -33.06385,-25.43722 l -26.93814,-54.907944 c -8.16126,3.67734 -13.7923,2.35579 -16.89313,-3.96465 -1.87335,-3.81842 -1.68216,-7.4246 0.57356,-10.81855 0.86459,-1.56759 3.40363,-3.38504 7.61715,-5.45236 l 25.67637,-12.59697 c 4.47692,-2.19626 7.79611,-3.08952 9.95759,-2.67979 3.73167,0.94659 6.3727,2.9999 7.9231,6.15994 1.87339,3.81866 1.6822,7.42484 -0.57356,10.81855 -0.99622,1.63243 -3.53526,3.44988 -7.61715,5.45236 l -6.91287,3.39149 27.81023,56.685542 c 2.97158,6.057041 7.99277,9.964915 15.06359,11.723635 7.07076,1.758807 14.0955,0.926295 21.07425,-2.49754 6.97865,-3.423742 11.93621,-8.46981 14.87268,-15.138218 2.93633,-6.668285 2.91874,-13.030951 -0.0528,-19.088017 l -27.81024,-56.685542 -6.91287,3.39149 c -4.34526,2.13193 -7.59861,2.99289 -9.76007,2.5829 -3.79877,-0.75005 -6.50563,-2.77106 -8.12062,-6.06304 -1.8734,-3.8184 -1.68221,-7.42458 0.57357,-10.81855 0.86452,-1.56757 3.40357,-3.38502 7.61714,-5.45237 l 25.67638,-12.59697 c 4.21351,-2.06702 7.5327,-2.96029 9.95759,-2.67979 3.60241,0.68328 6.24344,2.73659 7.9231,6.15994 3.22992,6.58384 0.82887,11.84597 -7.20316,15.78641" />
      <path
         style="letter-spacing:30px"
         id="path3340"
         d="m 568.68479,-221.05513 c 14.98103,-1.9436 29.16146,1.91053 42.54132,11.56241 15.37038,11.3165 24.40491,27.37417 27.10362,48.17307 2.32104,17.8901 -1.71467,34.09068 -12.10715,48.60179 -10.24725,14.492288 -23.66133,22.814081 -40.24226,24.9654 -16.87197,2.189072 -32.11103,-2.415082 -45.71724,-13.81248 -13.47967,-11.56167 -21.41782,-26.57842 -23.81448,-45.05031 -2.37777,-18.3263 1.55691,-34.73562 11.80406,-49.228 10.22827,-14.63759 23.70563,-23.04154 40.43213,-25.21188 m 2.83069,21.81713 c -10.61771,1.37772 -19.20532,7.00276 -25.76286,16.87513 -6.57646,9.72712 -9.07209,20.69942 -7.48688,32.91693 1.60403,12.3631 6.76327,22.4901 15.47771,30.38105 8.84096,7.7267 18.64301,10.8918 29.40618,9.4953 10.61759,-1.37758 19.21464,-6.92989 25.79116,-16.65695 6.57635,-9.72698 9.08141,-20.62655 7.51519,-32.69876 -1.62302,-12.5084 -6.86442,-22.6987 -15.72419,-30.57092 -8.7145,-7.89088 -18.45326,-11.13813 -29.21631,-9.74178" />
      <path
         style="letter-spacing:30px"
         id="path3342"
         d="m 761.57566,-93.823269 c -1.41886,7.194768 -6.8768,9.855762 -16.37383,7.982991 l -46.19049,-9.108546 c -4.89246,-0.964771 -7.98823,-2.322697 -9.28732,-4.073783 -2.59617,-2.754313 -3.53957,-5.930163 -2.83017,-9.527563 0.82288,-4.17296 3.1597,-6.9262 7.01046,-8.25975 1.78147,-0.69512 4.90258,-0.60286 9.36336,0.27676 l 3.23765,0.63845 16.30175,-82.66802 -3.23765,-0.63845 c -4.74859,-0.93629 -7.85855,-2.22227 -9.32988,-3.85794 -2.56783,-2.8981 -3.49703,-6.1459 -2.78762,-9.7434 0.82286,-4.17286 3.15968,-6.9261 7.01046,-8.25975 1.78145,-0.69502 4.90257,-0.60276 9.36337,0.27675 l 50.29151,9.91725 c 13.66997,2.69579 24.14187,8.72231 31.41571,18.07958 7.2736,9.35746 9.73287,20.0078 7.37784,31.95106 -2.07155,10.50443 -7.48496,19.00435 -16.24028,25.49979 -5.79855,4.38777 -11.9324,7.06497 -18.40154,8.03161 -6.44096,0.82279 -14.69774,0.24103 -24.77035,-1.74529 l -21.15265,-4.1712 -4.25633,21.58434 21.3685,4.21376 c 4.60458,0.90803 7.71454,2.19401 9.32988,3.85794 2.56772,2.89822 3.49692,6.146021 2.78762,9.743411 m -17.18425,-100.483131 -7.78909,39.49934 25.46952,5.02247 c 7.48249,1.47558 13.65076,0.89804 18.50484,-1.73261 5.02615,-2.74607 8.13516,-7.14094 9.32704,-13.18461 1.22004,-6.18744 0.0122,-11.43357 -3.62356,-15.73841 -3.46369,-4.42019 -8.93676,-7.36809 -16.41923,-8.84371 l -25.46952,-5.02247" />
      <path
         style="letter-spacing:30px"
         id="path3344"
         d="m 960.16524,-115.61458 -42.00656,73.042432 19.26184,11.077448 c 4.06841,2.339758 6.60004,4.557056 7.59491,6.651899 1.57308,3.44256 1.40913,6.816688 -0.49185,10.122395 -3.65602,6.3569897 -9.67962,7.1226011 -18.07083,2.296836 l -57.59481,-33.122666 c -4.06853,-2.339805 -6.56361,-4.620673 -7.48523,-6.84261 -1.5732,-3.442607 -1.44581,-6.753165 0.38217,-9.931684 2.12041,-3.687081 5.21815,-5.543186 9.29321,-5.568321 1.91035,-0.08568 4.83622,1.004817 8.77762,3.271484 l 19.26184,11.077449 42.00656,-73.042432 -19.26184,-11.07745 c -4.19573,-2.41283 -6.72736,-4.63012 -7.59491,-6.65189 -1.50013,-3.56966 -1.33618,-6.94379 0.49185,-10.1224 2.12036,-3.68699 5.21809,-5.54309 9.29321,-5.56832 1.9103,-0.0856 4.83617,1.00491 8.77762,3.27148 l 57.59481,33.12267 c 4.06836,2.33985 6.59999,4.55715 7.59491,6.6519 1.57303,3.44265 1.40908,6.81678 -0.49184,10.12239 -2.12059,3.68713 -5.21833,5.54324 -9.29322,5.56833 -1.91052,0.0857 -4.83639,-1.00478 -8.77762,-3.27149 l -19.26184,-11.07745" />
      <path
         style="letter-spacing:30px"
         id="path3346"
         d="m 1120.9079,-14.104674 c 10.0114,11.312836 14.7738,25.214577 14.2872,41.705263 -0.7483,19.07227 -8.9755,35.558186 -24.6815,49.457796 -13.5096,11.955509 -29.1857,17.700607 -47.0283,17.235312 -17.7456,-0.355604 -32.1587,-6.793851 -43.2394,-19.314761 -11.2753,-12.740679 -16.0105,-27.939532 -14.2057,-45.596605 2.0118,-17.644451 9.9921,-32.6388548 23.9409,-44.983255 13.8389,-12.247123 29.6312,-18.192937 47.3768,-17.837461 17.8552,0.25839 32.3719,6.702954 43.55,19.333711 m -16.475,14.57996864 c -7.0957,-8.01778574 -16.5692,-11.97267364 -28.4205,-11.86467664 -11.7416,0.01087 -22.2254,4.098672 -31.4513,12.26342377 -9.3359,8.26199673 -14.8265,18.21323223 -16.4719,29.85373723 -1.4384,11.653123 1.4388,21.543509 8.6316,29.671188 7.0955,8.017772 16.5141,12.02126 28.2558,12.010476 11.7414,-0.01088 22.1703,-4.050086 31.2865,-12.117624 9.4456,-8.35921 14.9425,-18.413962 16.4909,-30.164286 1.6453,-11.640504 -1.1284,-21.5245735 -8.3211,-29.65223836" />
    </g>
    <path
       style="opacity:0;fill:none;stroke:#000000;stroke-width:5.96684933;stroke-miterlimit:4;stroke-dasharray:none;stroke-opacity:1"
       id="path4000"
       d="m 103.9834,701.00001 a 597.01658,597.01659 0 0 0 1194.0331,0 597.01658,597.01659 0 1 0 -1194.0331,0 z" />
    <g
       style="font-style:normal;font-variant:normal;font-weight:bold;font-stretch:normal;font-size:220px;line-height:125%;font-family:'Tlwg Typo';-inkscape-font-specification:'Tlwg Typo Bold';letter-spacing:70px;word-spacing:0px;fill:#000000;fill-opacity:1;stroke:none"
       id="text4002"
       transform="translate(47.721142,310.63782)">
      <path
         style="font-style:normal;font-variant:normal;font-weight:bold;font-stretch:normal;font-size:220px;font-family:'Tlwg Typo';-inkscape-font-specification:'Tlwg Typo Bold';letter-spacing:70px"
         id="path3321"
         d="m 204.87997,716.10205 -25.43686,-39.61682 -26.10267,16.7598 1.78295,2.77688 c 2.61496,4.07273 3.84254,7.2062 3.68275,9.40042 -0.31062,3.85959 -2.00862,6.77994 -5.094,8.76105 -3.57912,2.29798 -7.18349,2.5207 -10.81312,0.66814 -1.73561,-0.80294 -3.83167,-3.11734 -6.28816,-6.94322 l -14.38252,-22.40016 c -2.61502,-4.07277 -3.88222,-7.26795 -3.80161,-9.58554 0.51322,-3.81547 2.25084,-6.67411 5.21286,-8.57593 3.57907,-2.29803 7.18344,-2.52074 10.81312,-0.66814 1.73556,0.80289 3.83161,3.1173 6.28816,6.94322 l 0.71318,1.11075 70.903,-45.52486 c -3.50363,-6.81384 -2.47852,-12.00374 3.07534,-15.56971 3.57898,-2.29797 7.18335,-2.52069 10.81312,-0.66813 1.73547,0.80294 3.83152,3.11734 6.28816,6.94321 l 12.00525,18.69766 c 2.61487,4.07278 3.84245,7.20625 3.68275,9.40041 -0.31071,3.85966 -2.00871,6.78 -5.094,8.76105 -3.57922,2.29805 -7.18359,2.52076 -10.81312,0.66814 -1.89419,-1.04971 -3.99024,-3.36411 -6.28816,-6.94321 l -1.78296,-2.77688 -26.28779,16.87866 25.43686,39.61682 26.2878,-16.87867 -1.78296,-2.77688 c -2.5359,-3.94935 -3.76348,-7.08282 -3.68274,-9.40041 0.31044,-3.85964 2.00844,-6.77999 5.09399,-8.76105 3.57895,-2.29803 7.18332,-2.52074 10.81312,-0.66814 1.6562,0.67947 3.75225,2.99388 6.28816,6.94322 l 12.00525,18.69765 c 2.61484,4.07274 3.88204,7.26791 3.80161,9.58554 -0.5134,3.81543 -2.25102,6.67407 -5.21286,8.57593 -5.55392,3.56587 -10.69964,2.3381 -15.43719,-3.68333 l -70.90299,45.52486 0.71318,1.11075 c 2.61492,4.07267 3.8425,7.20614 3.68275,9.40042 -0.31066,3.85954 -2.00866,6.77988 -5.094,8.76105 -3.57916,2.29793 -7.18353,2.52064 -10.81312,0.66814 -1.73565,-0.80299 -3.8317,-3.1174 -6.28816,-6.94322 l -14.38253,-22.40016 c -2.5358,-3.94941 -3.76338,-7.08288 -3.68274,-9.40042 0.31053,-3.85969 2.00853,-6.78004 5.09399,-8.76105 3.57904,-2.29808 7.18341,-2.5208 10.81313,-0.66813 1.65628,0.67941 3.75233,2.99381 6.28815,6.94321 l 1.78296,2.77688 26.10267,-16.7598" />
      <path
         style="font-style:normal;font-variant:normal;font-weight:bold;font-stretch:normal;font-size:220px;font-family:'Tlwg Typo';-inkscape-font-specification:'Tlwg Typo Bold';letter-spacing:70px"
         id="path3323"
         d="m 302.82401,888.77987 c -7.62751,-5.96028 -9.18357,-11.82958 -4.66818,-17.60791 2.61882,-3.35149 5.94721,-4.75251 9.9852,-4.20306 1.78774,0.0941 4.53073,1.58601 8.22897,4.47585 l 3.98707,3.11558 3.8696,-13.16995 -41.25759,-32.23943 -11.84375,6.93879 3.98708,3.11558 c 3.69811,2.8898 5.892,5.44174 6.58167,7.65585 0.98196,3.7455 0.34413,7.06285 -1.91348,9.95205 -2.61894,3.35143 -5.94733,4.75245 -9.9852,4.20307 -1.90343,-0.18443 -4.64641,-1.67638 -8.22897,-4.47585 l -23.05571,-18.01616 c -7.62745,-5.96023 -9.18352,-11.82953 -4.66819,-17.60791 2.61888,-3.35144 5.94728,-4.75246 9.9852,-4.20306 1.90337,0.18441 4.70415,1.72151 8.40232,4.61131 l 78.75055,-45.39724 -10.92113,-8.53397 c -3.81381,-2.98004 -6.06548,-5.57715 -6.75502,-7.79131 -0.98209,-3.74544 -0.34426,-7.06279 1.91348,-9.95205 2.43819,-3.12024 5.76659,-4.52126 9.9852,-4.20307 1.90329,0.18449 4.70406,1.72159 8.40232,4.61131 l 37.44386,29.25932 -30.9302,110.68514 c 4.04475,3.16066 6.30905,5.8607 6.79291,8.10012 1.0722,3.62988 0.47953,6.88944 -1.77802,9.7787 -2.619,3.35138 -5.9474,4.7524 -9.9852,4.20307 -1.90349,-0.18448 -4.64648,-1.67643 -8.22897,-4.47585 l -24.09582,-18.82892 m 27.84124,-50.27846 12.48689,-43.8493 -39.70303,22.58211 27.21614,21.26719" />
      <path
         style="font-style:normal;font-variant:normal;font-weight:bold;font-stretch:normal;font-size:220px;font-family:'Tlwg Typo';-inkscape-font-specification:'Tlwg Typo Bold';letter-spacing:70px"
         id="path3325"
         d="m 529.75253,861.28986 1.80477,1.53533 c 3.4851,-2.5416 6.96543,-3.22809 10.441,-2.05948 4.03134,1.35578 6.45923,4.02907 7.28366,8.01987 0.45873,1.8565 -0.0364,4.93947 -1.48546,9.24893 l -5.89027,17.51613 c -1.54283,4.58761 -3.22024,7.50512 -5.03223,8.75255 -3.20612,2.17143 -6.54682,2.67277 -10.02211,1.50402 -2.91949,-0.98167 -5.02505,-2.77288 -6.31668,-5.37364 -0.83055,-1.67183 -0.89207,-4.7099 -0.18459,-9.1142 0.28528,-2.68924 -0.01,-5.03222 -0.88581,-7.02895 -0.6903,-2.08887 -2.21457,-4.4583 -4.57283,-7.10828 -4.85589,-5.3465 -11.03722,-9.28199 -18.54403,-11.80647 -10.56538,-3.55278 -20.53889,-2.88348 -29.92057,2.00791 -9.33507,4.75253 -15.84912,12.61992 -19.54217,23.6022 l -4.48783,13.34563 c -3.50615,10.4263 -2.62709,20.00614 2.63718,28.73953 5.40319,8.78017 14.36057,15.27392 26.87216,19.48126 3.61436,1.21544 6.95138,2.1055 10.01106,2.67017 3.24528,0.47238 5.8417,0.80392 7.78925,0.9946 1.99412,0.0517 4.08183,-0.17473 6.26313,-0.67913 2.36687,-0.59668 3.89851,-1.01005 4.59493,-1.2401 0.74295,-0.36908 1.9738,-1.03834 3.69254,-2.00777 l 2.50783,-1.24563 c 2.97213,-1.4763 5.84842,-1.74697 8.62887,-0.812 2.78022,0.93496 4.8624,2.79568 6.24656,5.58216 1.3839,2.78647 1.60844,5.56987 0.6736,8.35023 -1.96355,5.83869 -8.56066,10.04182 -19.79135,12.60942 -11.18416,2.42851 -23.93556,1.23526 -38.25422,-3.57977 -17.65521,-5.93704 -30.5918,-16.0126 -38.80983,-30.22669 -8.03231,-14.30635 -9.38381,-29.38349 -4.0545,-45.23146 l 4.62807,-13.76268 c 5.60975,-16.68196 15.7296,-28.82997 30.35957,-36.44408 14.62985,-7.61391 30.00779,-8.70952 46.13384,-3.28684 9.73108,3.27248 18.80655,8.95488 27.22646,17.04723" />
      <path
         style="font-style:normal;font-variant:normal;font-weight:bold;font-stretch:normal;font-size:220px;font-family:'Tlwg Typo';-inkscape-font-specification:'Tlwg Typo Bold';letter-spacing:70px"
         id="path3327"
         d="m 656.92986,988.33974 c 0.0987,7.33267 -4.69141,11.06421 -14.37047,11.19464 l -32.99701,0.44464 c -9.67913,0.13038 -14.56809,-3.47069 -14.66689,-10.80336 -0.0573,-4.25293 1.66004,-7.42969 5.15205,-9.53028 1.59935,-1.04829 4.67215,-1.60308 9.21842,-1.66436 l 3.2997,-0.0445 -1.13532,-84.25235 -3.2997,0.0445 c -4.83957,0.0653 -8.14816,-0.55015 -9.92578,-1.84642 -3.11134,-2.30485 -4.69171,-5.29049 -4.74111,-8.95694 -0.0573,-4.25282 1.66004,-7.42958 5.15205,-9.53028 1.59935,-1.04818 4.67215,-1.60297 9.21842,-1.66436 l 32.997,-0.44464 c 4.83951,-0.0651 8.1481,0.55039 9.92578,1.84643 3.11128,2.30508 4.69165,5.29072 4.74112,8.95693 0.0572,4.25306 -1.66011,7.42982 -5.15206,9.53029 -1.59941,1.04841 -4.67221,1.6032 -9.21841,1.66436 l -7.6993,0.10374 0.44167,32.77703 38.70291,-34.18458 c -4.57004,-1.69847 -6.88763,-4.96754 -6.95277,-9.80721 -0.10086,-7.4792 4.68831,-11.28407 14.36751,-11.41463 l 21.998,-0.29642 c 4.83944,-0.0651 8.22136,0.5494 10.14576,1.84346 2.96654,2.45371 4.47358,5.44034 4.52113,8.9599 0.0987,7.33278 -4.39816,11.06037 -13.49055,11.18278 l -38.26295,34.17866 c 14.32608,7.2877 26.94553,23.98583 37.85841,50.09444 l 7.03936,-0.0948 c 4.69278,-0.0632 8.00137,0.55226 9.92578,1.84643 3.11121,2.30497 4.69158,5.29061 4.74111,8.95693 0.0987,7.33267 -4.69147,11.06421 -14.37046,11.19464 l -24.19781,0.32607 c -5.3444,-15.62273 -11.45776,-28.44817 -18.34009,-38.47638 -6.73583,-10.0301 -13.49056,-16.0263 -20.26422,-17.9886 l -13.04762,11.39684 0.32014,23.75785 7.6993,-0.10375 c 4.69285,-0.0632 8.00144,0.55226 9.92578,1.84642 3.11128,2.30498 4.69165,5.29062 4.74112,8.95694" />
      <path
         style="font-style:normal;font-variant:normal;font-weight:bold;font-stretch:normal;font-size:220px;font-family:'Tlwg Typo';-inkscape-font-specification:'Tlwg Typo Bold';letter-spacing:70px"
         id="path3329"
         d="m 814.29751,978.19535 c -9.08702,3.33598 -14.89414,1.56192 -17.42139,-5.32218 -1.46581,-3.99276 -0.90034,-7.55946 1.6964,-10.7001 1.16067,-1.51975 3.87508,-3.06308 8.14323,-4.63 l 11.77181,-4.3216 -29.03813,-79.09826 -11.77181,4.3216 c -4.54348,1.66809 -7.86877,2.18578 -9.97588,1.55308 -3.70002,-1.14135 -6.18185,-3.43311 -7.44551,-6.87527 -1.46577,-3.99265 -0.9003,-7.55935 1.6964,-10.7001 1.16071,-1.51964 3.87512,-3.06298 8.14324,-4.63 l 44.19589,-16.22496 c 4.4058,-1.61729 7.73109,-2.13499 9.97589,-1.55308 3.7,1.14161 6.18183,3.43336 7.4455,6.87526 1.46576,3.99291 0.9003,7.55961 -1.6964,10.70011 -1.16072,1.5199 -3.87513,3.06323 -8.14323,4.63 l -11.77181,4.3216 29.03813,79.09826 44.40242,-16.30078 -6.97522,-19.0001 c -1.66806,-4.54343 -2.21103,-7.93756 -1.6289,-10.18241 1.0037,-3.64941 3.29546,-6.13124 6.87527,-7.4455 3.71732,-1.36463 7.28402,-0.79916 10.7001,1.69639 1.51967,1.16077 3.08828,3.94403 4.70582,8.34976 l 14.55697,39.65239 -97.47879,35.78589" />
      <path
         style="font-style:normal;font-variant:normal;font-weight:bold;font-stretch:normal;font-size:220px;font-family:'Tlwg Typo';-inkscape-font-specification:'Tlwg Typo Bold';letter-spacing:70px"
         id="path3331"
         d="m 1049.7088,846.5684 c -7.463,6.16502 -13.5297,6.42064 -18.2001,0.76684 -2.7089,-3.27911 -3.3603,-6.83112 -1.9542,-10.65604 0.4769,-1.72554 2.5245,-4.08289 6.143,-7.07204 l 3.901,-3.2226 -12.0276,-6.61491 -40.36773,33.34689 4.22547,13.06012 3.90108,-3.2226 c 3.61838,-2.98903 6.58288,-4.58189 8.89358,-4.77858 3.8691,-0.15233 6.9712,1.18491 9.3065,4.01174 2.7088,3.27921 3.3602,6.83122 1.9541,10.65604 -0.59,1.81905 -2.6376,4.17639 -6.1429,7.07203 l -22.55842,18.63503 c -7.46294,6.16497 -13.52963,6.42059 -18.20006,0.76684 -2.70884,-3.27916 -3.36023,-6.83117 -1.95417,-10.65604 0.58998,-1.819 2.69415,-4.22305 6.31254,-7.21214 l -27.37337,-86.67905 -10.68557,8.82712 c -3.73143,3.08259 -6.75249,4.72215 -9.06319,4.91869 -3.86905,0.15248 -6.97121,-1.18476 -9.30649,-4.01173 -2.52197,-3.05292 -3.17336,-6.60493 -1.95416,-10.65605 0.59002,-1.8189 2.6942,-4.22295 6.31254,-7.21214 l 36.63626,-30.26441 101.42739,54.04027 c 3.9576,-3.2692 7.0819,-4.89893 9.373,-4.88919 3.7756,-0.26535 6.831,1.01535 9.1663,3.84212 2.7088,3.27927 3.3602,6.83128 1.9542,10.65605 -0.5901,1.8191 -2.6377,4.17644 -6.1429,7.07203 l -23.5761,19.47571 m -43.1033,-38.01535 -40.13146,-21.63676 13.50232,43.6345 26.62914,-21.99774" />
      <path
         style="font-style:normal;font-variant:normal;font-weight:bold;font-stretch:normal;font-size:220px;font-family:'Tlwg Typo';-inkscape-font-specification:'Tlwg Typo Bold';letter-spacing:70px"
         id="path3333"
         d="m 1136.1962,752.30167 c -5.0061,8.28497 -10.6475,10.53117 -16.9239,6.73861 -3.6404,-2.19968 -5.4291,-5.33683 -5.3661,-9.41147 -0.044,-1.91177 1.1092,-4.81337 3.4606,-8.70481 l 1.7066,-2.82442 -72.1168,-43.57648 -1.7067,2.82441 c -2.503,4.14255 -4.7745,6.62564 -6.8146,7.44927 -3.6012,1.42257 -6.971,1.18568 -10.1093,-0.71066 -3.5148,-2.12376 -5.3034,-5.26092 -5.3661,-9.41147 -0.044,-1.91171 1.1093,-4.81331 3.4606,-8.70481 l 28.7855,-47.63853 c 6.4474,-10.66989 14.7069,-17.67446 24.7786,-21.01374 10.1476,-3.46451 19.6777,-2.50413 28.5902,2.88115 8.034,4.85462 12.7371,13.09438 14.1094,24.71933 14.6933,-9.28591 27.8143,-10.43978 39.3631,-3.4616 9.038,5.4614 14.2708,13.25006 15.6982,23.366 1.4273,10.11615 -1.2344,20.76024 -7.9851,31.93231 l -33.5642,55.54691 m -51.3124,-60.56552 12.8568,-21.27729 c 4.096,-6.7785 6.0774,-13.03548 5.9444,-18.77094 -0.1827,-5.93662 -2.4081,-10.19445 -6.6761,-12.77351 -3.7659,-2.27541 -7.7398,-2.36326 -11.9218,-0.26356 -4.182,2.09996 -8.0555,6.09983 -11.6205,11.9996 l -15.1323,25.04318 26.5495,16.04252 m 66.9155,-30.76758 c -4.0169,-2.42713 -9.0723,-2.56866 -15.166,-0.42459 -6.0938,2.14428 -11.9472,7.86097 -17.5602,17.15007 l -15.3598,25.41977 26.7378,16.1563 19.9109,-32.95156 c 7.7368,-12.80394 8.2159,-21.25393 1.4373,-25.34999" />
    </g>
    <path
       style="color:#000000;font-style:normal;font-variant:normal;font-weight:normal;font-stretch:normal;font-size:medium;line-height:normal;font-family:sans-serif;text-indent:0;text-align:start;text-decoration:none;text-decoration-line:none;text-decoration-style:solid;text-decoration-color:#000000;letter-spacing:normal;word-spacing:normal;text-transform:none;direction:ltr;block-progression:tb;writing-mode:lr-tb;baseline-shift:baseline;text-anchor:start;white-space:normal;clip-rule:nonzero;display:inline;overflow:visible;visibility:visible;opacity:0;isolation:auto;mix-blend-mode:normal;color-interpolation:sRGB;color-interpolation-filters:linearRGB;solid-color:#000000;solid-opacity:1;fill:#000000;fill-opacity:1;fill-rule:nonzero;stroke:none;stroke-width:28.28427124;stroke-linecap:butt;stroke-linejoin:miter;stroke-miterlimit:4;stroke-dasharray:none;stroke-dashoffset:0;stroke-opacity:1;color-rendering:auto;image-rendering:auto;shape-rendering:auto;text-rendering:auto;enable-background:accumulate"
       d="m 592.30859,327.36719 0,108.89453 0,108.89258 108.89453,0 108.89454,0 0,-108.89258 0,-108.89453 -108.89454,0 -108.89453,0 z m 28.28516,28.2832 80.60937,0 80.61133,0 0,80.61133 0,80.60937 -80.61133,0 -80.60937,0 0,-80.60937 0,-80.61133 z"
       id="path4028" />
    <path
       style="color:#000000;font-style:normal;font-variant:normal;font-weight:normal;font-stretch:normal;font-size:medium;line-height:normal;font-family:sans-serif;text-indent:0;text-align:start;text-decoration:none;text-decoration-line:none;text-decoration-style:solid;text-decoration-color:#000000;letter-spacing:normal;word-spacing:normal;text-transform:none;direction:ltr;block-progression:tb;writing-mode:lr-tb;baseline-shift:baseline;text-anchor:start;white-space:normal;clip-rule:nonzero;display:inline;overflow:visible;visibility:visible;opacity:0;isolation:auto;mix-blend-mode:normal;color-interpolation:sRGB;color-interpolation-filters:linearRGB;solid-color:#000000;solid-opacity:1;fill:#000000;fill-opacity:1;fill-rule:nonzero;stroke:none;stroke-width:28.28427124;stroke-linecap:butt;stroke-linejoin:miter;stroke-miterlimit:4;stroke-dasharray:none;stroke-dashoffset:0;stroke-opacity:1;color-rendering:auto;image-rendering:auto;shape-rendering:auto;text-rendering:auto;enable-background:accumulate"
       d="m 592.30859,327.36719 0,108.89453 0,108.89258 108.89453,0 108.89454,0 0,-108.89258 0,-108.89453 -108.89454,0 -108.89453,0 z m 28.28516,28.2832 80.60937,0 80.61133,0 0,80.61133 0,80.60937 -80.61133,0 -80.60937,0 0,-80.60937 0,-80.61133 z"
       id="path4030" />
    <path
       style="color:#000000;font-style:normal;font-variant:normal;font-weight:normal;font-stretch:normal;font-size:medium;line-height:normal;font-family:sans-serif;text-indent:0;text-align:start;text-decoration:none;text-decoration-line:none;text-decoration-style:solid;text-decoration-color:#000000;letter-spacing:normal;word-spacing:normal;text-transform:none;direction:ltr;block-progression:tb;writing-mode:lr-tb;baseline-shift:baseline;text-anchor:start;white-space:normal;clip-rule:nonzero;display:inline;overflow:visible;visibility:visible;opacity:0;isolation:auto;mix-blend-mode:normal;color-interpolation:sRGB;color-interpolation-filters:linearRGB;solid-color:#000000;solid-opacity:1;fill:#000000;fill-opacity:1;fill-rule:nonzero;stroke:none;stroke-width:28.28427124;stroke-linecap:butt;stroke-linejoin:miter;stroke-miterlimit:4;stroke-dasharray:none;stroke-dashoffset:0;stroke-opacity:1;color-rendering:auto;image-rendering:auto;shape-rendering:auto;text-rendering:auto;enable-background:accumulate"
       d="m 592.30859,327.36719 0,108.89453 0,108.89258 108.89453,0 108.89454,0 0,-108.89258 0,-108.89453 -108.89454,0 -108.89453,0 z m 28.28516,28.2832 80.60937,0 80.61133,0 0,80.61133 0,80.60937 -80.61133,0 -80.60937,0 0,-80.60937 0,-80.61133 z"
       id="path4032" />
    <path
       style="color:#000000;font-style:normal;font-variant:normal;font-weight:normal;font-stretch:normal;font-size:medium;line-height:normal;font-family:sans-serif;text-indent:0;text-align:start;text-decoration:none;text-decoration-line:none;text-decoration-style:solid;text-decoration-color:#000000;letter-spacing:normal;word-spacing:normal;text-transform:none;direction:ltr;block-progression:tb;writing-mode:lr-tb;baseline-shift:baseline;text-anchor:start;white-space:normal;clip-rule:nonzero;display:inline;overflow:visible;visibility:visible;opacity:0;isolation:auto;mix-blend-mode:normal;color-interpolation:sRGB;color-interpolation-filters:linearRGB;solid-color:#000000;solid-opacity:1;fill:#000000;fill-opacity:1;fill-rule:nonzero;stroke:none;stroke-width:28.28427124;stroke-linecap:butt;stroke-linejoin:miter;stroke-miterlimit:4;stroke-dasharray:none;stroke-dashoffset:0;stroke-opacity:1;color-rendering:auto;image-rendering:auto;shape-rendering:auto;text-rendering:auto;enable-background:accumulate"
       d="m 592.30859,327.36719 0,108.89453 0,108.89258 108.89453,0 108.89454,0 0,-108.89258 0,-108.89453 -108.89454,0 -108.89453,0 z m 28.28516,28.2832 80.60937,0 80.61133,0 0,80.61133 0,80.60937 -80.61133,0 -80.60937,0 0,-80.60937 0,-80.61133 z"
       id="path4034" />
    <path
       style="color:#000000;font-style:normal;font-variant:normal;font-weight:normal;font-stretch:normal;font-size:medium;line-height:normal;font-family:sans-serif;text-indent:0;text-align:start;text-decoration:none;text-decoration-line:none;text-decoration-style:solid;text-decoration-color:#000000;letter-spacing:normal;word-spacing:normal;text-transform:none;direction:ltr;block-progression:tb;writing-mode:lr-tb;baseline-shift:baseline;text-anchor:start;white-space:normal;clip-rule:nonzero;display:inline;overflow:visible;visibility:visible;opacity:0;isolation:auto;mix-blend-mode:normal;color-interpolation:sRGB;color-interpolation-filters:linearRGB;solid-color:#000000;solid-opacity:1;fill:#000000;fill-opacity:1;fill-rule:nonzero;stroke:none;stroke-width:28.28427124;stroke-linecap:butt;stroke-linejoin:miter;stroke-miterlimit:4;stroke-dasharray:none;stroke-dashoffset:0;stroke-opacity:1;color-rendering:auto;image-rendering:auto;shape-rendering:auto;text-rendering:auto;enable-background:accumulate"
       d="m 592.30859,327.36719 0,108.89453 0,108.89258 108.89453,0 108.89454,0 0,-108.89258 0,-108.89453 -108.89454,0 -108.89453,0 z m 28.28516,28.2832 80.60937,0 80.61133,0 0,80.61133 0,80.60937 -80.61133,0 -80.60937,0 0,-80.60937 0,-80.61133 z"
       id="path4036" />
    <path
       style="color:#000000;font-style:normal;font-variant:normal;font-weight:normal;font-stretch:normal;font-size:medium;line-height:normal;font-family:sans-serif;text-indent:0;text-align:start;text-decoration:none;text-decoration-line:none;text-decoration-style:solid;text-decoration-color:#000000;letter-spacing:normal;word-spacing:normal;text-transform:none;direction:ltr;block-progression:tb;writing-mode:lr-tb;baseline-shift:baseline;text-anchor:start;white-space:normal;clip-rule:nonzero;display:inline;overflow:visible;visibility:visible;opacity:0;isolation:auto;mix-blend-mode:normal;color-interpolation:sRGB;color-interpolation-filters:linearRGB;solid-color:#000000;solid-opacity:1;fill:#000000;fill-opacity:1;fill-rule:nonzero;stroke:none;stroke-width:28.28427124;stroke-linecap:butt;stroke-linejoin:miter;stroke-miterlimit:4;stroke-dasharray:none;stroke-dashoffset:0;stroke-opacity:1;color-rendering:auto;image-rendering:auto;shape-rendering:auto;text-rendering:auto;enable-background:accumulate"
       d="m 592.30859,327.36719 0,108.89453 0,108.89258 108.89453,0 108.89454,0 0,-108.89258 0,-108.89453 -108.89454,0 -108.89453,0 z m 28.28516,28.2832 80.60937,0 80.61133,0 0,80.61133 0,80.60937 -80.61133,0 -80.60937,0 0,-80.60937 0,-80.61133 z"
       id="path4038" />
    <path
       style="color:#000000;font-style:normal;font-variant:normal;font-weight:normal;font-stretch:normal;font-size:medium;line-height:normal;font-family:sans-serif;text-indent:0;text-align:start;text-decoration:none;text-decoration-line:none;text-decoration-style:solid;text-decoration-color:#000000;letter-spacing:normal;word-spacing:normal;text-transform:none;direction:ltr;block-progression:tb;writing-mode:lr-tb;baseline-shift:baseline;text-anchor:start;white-space:normal;clip-rule:nonzero;display:inline;overflow:visible;visibility:visible;opacity:1;isolation:auto;mix-blend-mode:normal;color-interpolation:sRGB;color-interpolation-filters:linearRGB;solid-color:#000000;solid-opacity:1;fill:#000000;fill-opacity:1;fill-rule:nonzero;stroke:none;stroke-width:11.51141453;stroke-linecap:butt;stroke-linejoin:miter;stroke-miterlimit:4;stroke-dasharray:none;stroke-dashoffset:0;stroke-opacity:1;color-rendering:auto;image-rendering:auto;shape-rendering:auto;text-rendering:auto;enable-background:accumulate"
       d="M 701,0.75585938 C 515.30792,0.75585938 337.21849,74.539978 205.9375,205.86719 74.65743,337.19347 0.93556754,515.30739 1,700.99805 c -2.3e-7,6.5e-4 2e-7,0.001 0,0.002 2e-7,6.5e-4 -2.3e-7,0.001 0,0.002 -0.0644325,185.69066 73.65743,363.80455 204.9375,495.13085 131.28099,131.3272 309.37042,205.1113 495.0625,205.1113 185.69208,0 363.7815,-73.7841 495.0625,-205.1113 C 1327.343,1064.8061 1401.065,886.69137 1401,701 1401.065,515.30863 1327.343,337.19394 1196.0625,205.86719 1064.7815,74.539978 886.69208,0.75585937 701,0.75585938 Z m 0,11.51171862 c 182.64279,0 357.7947,72.567629 486.9199,201.738282 129.1252,129.17065 201.6328,304.34941 201.5684,486.99219 l 0,0.002 0,0.002 c 0.064,182.64278 -72.4432,357.82155 -201.5684,486.99215 -129.1252,129.1707 -304.27711,201.7383 -486.9199,201.7383 -182.64279,0 -357.79473,-72.5676 -486.91992,-201.7383 C 84.954885,1058.8235 12.447324,883.64473 12.511719,701.00195 l 0,-0.002 0,-0.002 C 12.447324,518.35527 84.954885,343.17651 214.08008,214.00586 343.20527,84.835207 518.35721,12.267578 701,12.267578 Z"
       id="path4110" />
  </g>
</svg>
