<?xml version="1.0" encoding="UTF-8" standalone="no"?>
<!-- Created with Inkscape (http://www.inkscape.org/) -->

<svg
   xmlns:dc="http://purl.org/dc/elements/1.1/"
   xmlns:cc="http://creativecommons.org/ns#"
   xmlns:rdf="http://www.w3.org/1999/02/22-rdf-syntax-ns#"
   xmlns:svg="http://www.w3.org/2000/svg"
   xmlns="http://www.w3.org/2000/svg"
   xmlns:sodipodi="http://sodipodi.sourceforge.net/DTD/sodipodi-0.dtd"
   xmlns:inkscape="http://www.inkscape.org/namespaces/inkscape"
   width="207cm"
   height="82cm"
   viewBox="0 0 7334.6458 2905.5117"
   id="svg4633"
   version="1.1"
   inkscape:version="0.91 r13725"
   sodipodi:docname="Hacklab-fi-logo-kaanteinen-leimasin.svg">
  <defs
     id="defs4635">
    <style
       type="text/css"
       id="style6">
   
    .str3 {stroke:#C7C7A2;stroke-width:0.797991}
    .str1 {stroke:#8C8C60;stroke-width:1.70998}
    .str2 {stroke:#636347;stroke-width:2.27997}
    .str0 {stroke:#1F1A17;stroke-width:3.98996}
    .fil1 {fill:none}
    .fil0 {fill:#EEEED4}
   
  </style>
  </defs>
  <sodipodi:namedview
     id="base"
     pagecolor="#ffffff"
     bordercolor="#666666"
     borderopacity="1.0"
     inkscape:pageopacity="0.0"
     inkscape:pageshadow="2"
     inkscape:zoom="0.11313708"
     inkscape:cx="2954.8325"
     inkscape:cy="1983.4676"
     inkscape:document-units="cm"
     inkscape:current-layer="layer1"
     showgrid="false"
     inkscape:window-width="1680"
     inkscape:window-height="952"
     inkscape:window-x="39"
     inkscape:window-y="5"
     inkscape:window-maximized="0"
     units="cm"
     showguides="true"
     inkscape:guide-bbox="true">
    <sodipodi:guide
       position="0,212.59842"
       orientation="0,1"
       id="guide6598"
       inkscape:label=""
       inkscape:color="rgb(0,0,255)" />
    <sodipodi:guide
       position="0,2692.9134"
       orientation="0,1"
       id="guide6600"
       inkscape:label=""
       inkscape:color="rgb(0,0,255)" />
    <sodipodi:guide
       position="35.433072,0"
       orientation="1,0"
       id="guide6602"
       inkscape:label=""
       inkscape:color="rgb(0,0,255)" />
    <sodipodi:guide
       position="7299.2129,0"
       orientation="1,0"
       id="guide6604"
       inkscape:label=""
       inkscape:color="rgb(0,0,255)" />
    <sodipodi:guide
       position="0,106.29921"
       orientation="0,1"
       id="guide4175"
       inkscape:label=""
       inkscape:color="rgb(0,0,255)" />
    <sodipodi:guide
       position="0,2799.2126"
       orientation="0,1"
       id="guide4177"
       inkscape:label=""
       inkscape:color="rgb(0,0,255)" />
  </sodipodi:namedview>
  <metadata
     id="metadata4638">
    <rdf:RDF>
      <cc:Work
         rdf:about="">
        <dc:format>image/svg+xml</dc:format>
        <dc:type
           rdf:resource="http://purl.org/dc/dcmitype/StillImage" />
        <dc:title></dc:title>
      </cc:Work>
    </rdf:RDF>
  </metadata>
  <g
     inkscape:label="Taso 1"
     inkscape:groupmode="layer"
     id="layer1"
     transform="translate(0,1853.1497)">
    <path
       style="opacity:1;fill:#ff0009;fill-opacity:1;stroke:#000000;stroke-width:0.61938822;stroke-linecap:butt;stroke-linejoin:miter;stroke-miterlimit:10;stroke-dasharray:none;stroke-dashoffset:0;stroke-opacity:1"
       d="M -70.800781 85.833984 L -70.800781 2817.2129 L 7405.3691 2817.2129 L 7405.3691 85.833984 L -70.800781 85.833984 z M 35.433594 212.59766 L 7299.2129 212.59766 L 7299.2129 2692.9141 L 35.433594 2692.9141 L 35.433594 212.59766 z M 5528.7227 477.33789 L 5528.7227 546.73242 L 5528.7227 616.12695 L 5357.3535 616.12695 L 5185.9824 616.12695 L 5185.9824 578.46875 L 5185.9824 540.80859 L 5081.4688 540.80859 L 4976.9531 540.80859 L 4976.9531 630.9375 L 4976.9531 721.06445 L 4976.9531 726.15234 L 4971.877 726.14258 L 4890.6348 726.14258 L 4809.3926 726.14258 L 4809.3926 680.01953 L 4809.3926 633.89844 L 4693.0312 633.89844 L 4576.668 633.89844 L 4576.668 596.24023 L 4576.668 558.58008 L 4527.584 558.58008 L 4478.5 558.58008 L 4478.5 622.05078 L 4478.5 685.52148 L 4368.0625 685.52148 L 4257.623 685.52148 L 4257.623 761.26172 L 4257.623 837.00391 L 4144.6465 837.00391 L 4031.668 837.00391 L 4031.668 709.2168 L 4031.668 581.42969 L 3982.1621 581.42969 L 3932.6543 581.42969 L 3932.6543 639.39844 L 3932.6543 697.36914 L 3880.6094 697.36914 L 3828.5625 697.36914 L 3828.5625 630.51367 L 3828.5625 563.6582 L 3799.3672 563.6582 L 3770.1699 563.6582 L 3770.1699 613.16406 L 3770.1699 662.67188 L 3715.1621 662.67188 L 3660.1543 662.67188 L 3660.1543 714.7168 L 3660.1543 766.76367 L 3660.1641 772.67383 L 3654.2344 772.6875 L 3523.9082 772.6875 L 3393.582 772.6875 L 3393.582 659.71094 L 3393.582 546.73242 L 3364.3867 546.73242 L 3335.1895 546.73242 L 3335.1895 619.08984 L 3335.1895 691.44531 L 3274.2578 691.44531 L 3213.3262 691.44531 L 3213.3262 607.24219 L 3213.3262 523.03711 L 3163.8203 523.03711 L 3114.3125 523.03711 L 3114.3125 607.24219 L 3114.3125 691.44531 L 3033.0703 691.44531 L 2951.8281 691.44531 L 2951.8281 650.82422 L 2951.8281 610.20312 L 2926.0176 610.20312 L 2900.2051 610.20312 L 2900.2051 549.27148 L 2900.2051 488.33984 L 2813.0391 488.33984 L 2725.873 488.33984 L 2725.873 607.24219 L 2725.873 726.14258 L 2572.2754 726.14258 L 2418.6758 726.14258 L 2418.6758 636.4375 L 2418.6191 540.87695 L 2366.1992 540.79883 L 2313.752 540.78906 L 2313.7324 578.45508 L 2313.7324 610.19141 L 2224.0273 610.19141 L 2134.3223 610.19141 L 2134.3223 650.8125 L 2134.3223 691.43359 L 2064.5059 691.43359 L 1994.6875 691.43359 L 1994.6875 650.8125 L 1994.6875 610.19141 L 1942.6426 610.19141 L 1890.5957 610.19141 L 1890.5957 671.12305 L 1890.5957 732.05469 L 1835.166 732.05469 L 1779.7344 732.05469 L 1779.7344 653.77344 L 1779.7344 575.49414 L 1730.6504 575.49414 L 1681.5664 575.49414 L 1681.5664 691.43359 L 1681.5664 807.37305 L 1637.9844 807.37305 L 1594.4004 807.37305 L 1594.4004 708.78125 L 1594.4004 610.19141 L 1565.2051 610.19141 L 1536.0078 610.19141 L 1536.0078 650.8125 L 1536.0078 691.43359 L 1492.8477 691.43359 L 1449.6895 691.43359 L 1449.6895 586.91797 L 1449.6895 482.4043 L 1420.4922 482.4043 L 1391.2949 482.4043 L 1391.2949 569.57031 L 1391.2949 656.73633 L 1344.75 656.73633 L 1298.2051 656.73633 L 1298.2051 587.3418 L 1298.2051 517.94727 L 1153.0703 517.94727 L 1007.9336 517.94727 L 1007.9336 604.68945 L 1007.9336 691.43359 L 770.13086 691.43359 L 532.32812 691.43359 L 532.32812 767.17383 L 532.32812 842.91602 L 770.13086 842.91602 L 1007.9336 842.91602 L 1007.9336 863.22656 L 1007.9336 883.53711 L 860.25977 883.53711 L 712.58398 883.53711 L 712.58398 984.66602 L 712.58398 1085.7969 L 628.38086 1085.7969 L 544.17578 1085.7969 L 544.17578 1178.8867 L 544.17578 1271.9766 L 683.38867 1271.9766 L 822.59961 1271.9766 L 822.59961 1318.5215 L 822.59961 1365.0664 L 680.42578 1365.0664 L 538.25195 1365.0664 L 538.25195 1437.4219 L 538.25195 1509.7793 L 506.51758 1509.7793 L 474.7832 1509.7793 L 474.7832 1582.1348 L 474.7832 1654.4902 L 622.45703 1654.4902 L 770.13086 1654.4902 L 770.13086 1692.5742 L 770.11523 1735.8027 L 677.46484 1735.7246 L 590.7207 1735.7246 L 590.7207 1788.1953 L 590.7207 1840.6641 L 512.44141 1840.6641 L 434.16211 1840.6641 L 434.16211 1907.5195 L 434.16211 1974.375 L 622.43359 1974.373 L 810.72852 1974.373 L 810.72852 1991.7207 L 810.72852 2009.0703 L 741.33398 2009.0703 L 671.94141 2009.0703 L 671.94141 2081.4258 L 671.94141 2153.7832 L 613.9707 2153.7832 L 549.875 2153.7246 L 550.07617 2191.4453 L 550.07617 2223.1816 L 666.01562 2223.1816 L 781.95508 2223.1816 L 781.95508 2295.9609 L 781.95508 2368.7402 L 894.93359 2368.7402 L 1007.9102 2368.7402 L 1007.9102 2400.4746 L 1007.9102 2432.2109 L 1153.0469 2432.2109 L 1298.1816 2432.2109 L 1298.1816 2342.5059 L 1298.1816 2252.8008 L 1344.7266 2252.8008 L 1391.2715 2252.8008 L 1391.2715 2319.2324 L 1391.2715 2385.666 L 1420.4688 2385.666 L 1449.6641 2385.666 L 1449.6641 2356.8926 L 1449.6641 2328.1191 L 1472.5137 2328.1191 L 1495.3633 2328.1191 L 1495.3633 2275.6504 L 1495.3633 2223.1816 L 1515.6738 2223.1816 L 1535.9844 2223.1816 L 1535.9844 2345.0449 L 1535.9844 2466.9082 L 1565.1816 2466.9082 L 1594.377 2466.9082 L 1594.377 2365.3555 L 1594.377 2263.8027 L 1637.9609 2263.8027 L 1681.543 2263.8027 L 1681.543 2339.543 L 1681.543 2415.2852 L 1730.627 2415.2852 L 1779.7109 2415.2852 L 1779.7109 2359.8535 L 1779.7109 2304.4238 L 1835.1426 2304.4238 L 1890.5723 2304.4238 L 1890.5723 2377.2031 L 1890.5723 2449.9824 L 1942.6191 2449.9824 L 1994.6641 2449.9824 L 1994.6641 2336.582 L 1994.6641 2223.1816 L 2090.293 2223.1816 L 2185.9219 2223.1816 L 2185.9219 2275.6504 L 2185.9219 2328.1191 L 2249.8164 2328.1191 L 2313.709 2328.1191 L 2313.709 2354.3535 L 2313.8066 2385.5879 L 2366.1738 2385.6641 L 2418.6289 2385.6055 L 2418.6426 2342.498 L 2418.6426 2304.416 L 2572.2422 2304.416 L 2725.8398 2304.416 L 2725.8398 2394.5449 L 2725.8398 2484.6719 L 2833.3164 2484.6719 L 2940.793 2484.6719 L 2940.793 2336.5742 L 2940.793 2188.4766 L 3027.5371 2188.4766 L 3114.2793 2188.4766 L 3114.2793 2275.6426 L 3114.2793 2362.8086 L 3163.7871 2362.8086 L 3213.293 2362.8086 L 3213.293 2292.9922 L 3213.293 2223.1738 L 3274.2246 2223.1738 L 3335.1562 2223.1738 L 3335.1562 2316.2637 L 3335.1562 2409.3535 L 3364.3535 2409.3535 L 3393.5488 2409.3535 L 3393.5488 2298.916 L 3393.5488 2188.4766 L 3581.8457 2188.4766 L 3770.1406 2188.4766 L 3770.1406 2304.8398 L 3770.1406 2421.2031 L 3799.3379 2421.2031 L 3828.5332 2421.2031 L 3828.5332 2342.498 L 3828.5332 2263.7949 L 3880.5801 2263.7949 L 3932.625 2263.7949 L 3932.625 2342.498 L 3932.625 2421.2031 L 3982.1328 2421.2031 L 4031.6387 2421.2031 L 4031.6387 2322.1875 L 4031.6387 2223.1738 L 4153.502 2223.1738 L 4275.3652 2223.1738 L 4275.3652 2258.2949 L 4275.3652 2293.416 L 4376.918 2293.416 L 4478.4707 2293.416 L 4478.4707 2345.4609 L 4478.4707 2397.5059 L 4527.5547 2397.5059 L 4576.6387 2397.5059 L 4576.6387 2304.8398 L 4576.6387 2212.1738 L 4774.2441 2212.1738 L 4971.8477 2212.1738 L 4971.8477 2215.1348 L 4974.3867 2218.0977 L 4976.9258 2218.0977 L 4976.9258 2319.6504 L 4976.9258 2421.2031 L 5081.4395 2421.2031 L 5185.9551 2421.2031 L 5185.9551 2284.5293 L 5185.9551 2147.8555 L 5337.0156 2147.8555 L 5488.0742 2147.8555 L 5488.0742 2217.6738 L 5488.0742 2287.4902 L 5491.0371 2287.4902 L 5493.998 2290.4531 L 5493.998 2293.416 L 5638.7109 2293.416 L 5783.4238 2293.416 L 5783.4238 2319.2266 L 5783.4238 2345.0371 L 5887.9375 2345.0371 L 5992.4531 2345.0371 L 5992.4531 2319.2266 L 5992.4531 2293.416 L 6085.543 2293.416 L 6178.6328 2293.416 L 6178.6328 2377.6191 L 6178.6328 2461.8242 L 6323.7695 2461.8242 L 6468.9043 2461.8242 L 6468.9043 2342.498 L 6468.9043 2223.1738 L 6631.3887 2223.1738 L 6793.873 2223.1738 L 6793.873 2188.4766 L 6793.873 2153.7793 L 6851.8438 2153.7793 L 6909.8125 2153.7793 L 6909.8125 2081.4238 L 6909.8125 2009.0684 L 6750.2891 2009.0684 L 6590.7676 2009.0684 L 6590.7676 1976.9082 L 6590.7676 1944.75 L 6631.3887 1944.75 L 6672.0098 1944.75 L 6672.0098 1913.0156 L 6672.0098 1881.2793 L 6750.2891 1881.2793 L 6834.541 1881.2031 L 6834.502 1805.541 L 6834.502 1735.7246 L 6732.9492 1735.7246 L 6625.4863 1735.8594 L 6625.4727 1692.5645 L 6625.4727 1654.4824 L 6669.0547 1654.4824 L 6712.6387 1654.4824 L 6712.6387 1582.125 L 6712.6387 1509.7695 L 6744.373 1509.7695 L 6781.9824 1509.8086 L 6782.0391 1434.4512 L 6782.0391 1365.0566 L 6651.291 1365.0566 L 6520.541 1365.0566 L 6520.541 1318.5117 L 6520.541 1271.9668 L 6601.7832 1271.9668 L 6683.0254 1271.9668 L 6683.0059 1085.834 L 6950.4512 1085.7949 L 6950.4512 984.66602 L 6950.4512 883.53516 L 6709.6875 883.53516 L 6468.9219 883.53516 L 6468.9219 863.22461 L 6468.9219 842.91406 L 6599.248 842.91406 L 6735.4609 842.92578 L 6735.5 767.17773 L 6735.4805 691.40625 L 6599.2578 691.44531 L 6468.9316 691.44531 L 6468.9316 636.4375 L 6468.9316 581.42969 L 6323.7969 581.42969 L 6178.6602 581.42969 L 6178.6602 636.4375 L 6178.6602 691.44531 L 6085.5703 691.44531 L 5992.4805 691.44531 L 5992.4805 595.81641 L 5992.4805 500.1875 L 5887.9668 500.1875 L 5783.4512 500.1875 L 5783.4512 595.81641 L 5783.4512 691.44531 L 5679.3594 691.44531 L 5575.2695 691.44531 L 5575.2695 584.39258 L 5575.2695 477.33789 L 5551.9961 477.33789 L 5528.7227 477.33789 z M 5722.793 1042.5684 C 5753.9694 1042.5684 5780.2309 1045.1102 5801.5801 1050.1934 C 5822.9291 1054.9376 5841.0602 1060.3593 5855.9707 1066.459 L 5819.3711 1180.3223 C 5808.866 1176.5947 5797.8538 1173.2061 5786.332 1170.1562 C 5774.8103 1167.1065 5761.2543 1165.5801 5745.666 1165.5801 C 5725.3336 1165.5801 5710.9308 1172.1882 5702.459 1185.4043 C 5694.326 1198.2815 5690.2598 1214.8863 5690.2598 1235.2188 L 5690.2598 1270.8008 L 5805.6465 1270.8008 L 5805.6465 1387.2051 L 5690.2598 1387.2051 L 5690.2598 1839.0938 L 5535.2246 1839.0938 L 5535.2246 1387.2051 L 5449.8281 1387.2051 L 5449.8281 1312.4824 L 5535.2246 1270.8008 L 5535.2246 1229.1191 C 5535.2246 1192.8596 5539.6307 1162.8696 5548.4414 1139.1484 C 5557.2521 1115.0884 5569.7907 1095.9417 5586.0566 1081.709 C 5602.3226 1067.4763 5621.978 1057.4795 5645.0215 1051.7188 C 5668.0649 1045.619 5693.9886 1042.5684 5722.793 1042.5684 z M 1283.2012 1048.1602 L 1438.2363 1048.1602 L 1438.2363 1209.2949 C 1438.2363 1223.5276 1437.8964 1238.6081 1437.2188 1254.5352 C 1436.541 1270.1234 1435.6943 1284.5261 1434.6777 1297.7422 C 1433.3222 1313.3304 1432.1357 1328.5798 1431.1191 1343.4902 L 1439.252 1343.4902 C 1455.8568 1314.0082 1477.0366 1292.8284 1502.791 1279.9512 C 1528.5454 1266.7351 1557.6888 1260.127 1590.2207 1260.127 C 1618.3472 1260.127 1643.7642 1264.1932 1666.4688 1272.3262 C 1689.5121 1280.1203 1709.1656 1292.4879 1725.4316 1309.4316 C 1741.6976 1326.3753 1754.2361 1348.0639 1763.0469 1374.4961 C 1771.8576 1400.5894 1776.2637 1431.9348 1776.2637 1468.5332 L 1776.2637 1839.0938 L 1621.2285 1839.0938 L 1621.2285 1507.166 C 1621.2285 1466.1622 1614.7893 1435.4946 1601.9121 1415.1621 C 1589.3738 1394.4908 1569.8893 1384.1543 1543.457 1384.1543 C 1523.4635 1384.1543 1506.6878 1388.2205 1493.1328 1396.3535 C 1479.5779 1404.4865 1468.7346 1416.5163 1460.6016 1432.4434 C 1452.4686 1448.3704 1446.7072 1468.0259 1443.3184 1491.4082 C 1439.9296 1514.7905 1438.2363 1541.5609 1438.2363 1571.7207 L 1438.2363 1839.0938 L 1283.2012 1839.0938 L 1283.2012 1048.1602 z M 3052.125 1048.1602 L 3207.1602 1048.1602 L 3207.1602 1400.9277 L 3199.0273 1530.0391 L 3201.0605 1530.0391 L 3257.9902 1443.627 L 3396.7598 1270.8008 L 3571.6191 1270.8008 L 3366.2617 1517.332 L 3584.834 1839.0938 L 3405.9102 1839.0938 L 3267.6484 1620.5195 L 3207.1602 1662.2012 L 3207.1602 1839.0938 L 3052.125 1839.0938 L 3052.125 1048.1602 z M 3666.1641 1048.1602 L 3821.1992 1048.1602 L 3821.1992 1839.0938 L 3666.1641 1839.0938 L 3666.1641 1048.1602 z M 4581.125 1048.1602 L 4736.1602 1048.1602 L 4736.1602 1232.1699 C 4736.1602 1243.3528 4735.8204 1255.5515 4735.1426 1268.7676 C 4734.4647 1281.6448 4733.787 1293.6746 4733.1094 1304.8574 C 4732.0927 1318.0735 4731.0771 1331.2898 4730.0605 1344.5059 L 4736.1602 1344.5059 C 4743.2765 1332.6453 4751.4089 1321.633 4760.5586 1311.4668 C 4769.7081 1301.3006 4780.2136 1292.4884 4792.0742 1285.0332 C 4804.2737 1277.2391 4817.9987 1271.1397 4833.248 1266.7344 C 4848.4974 1262.329 4865.4401 1260.127 4884.0781 1260.127 C 4913.2213 1260.127 4939.8227 1266.3952 4963.8828 1278.9336 C 4987.9429 1291.4719 5008.6139 1310.1098 5025.8965 1334.8477 C 5043.179 1359.5855 5056.5662 1390.2531 5066.0547 1426.8516 C 5075.882 1463.45 5080.7949 1505.8095 5080.7949 1553.9297 C 5080.7949 1602.7275 5075.882 1645.5959 5066.0547 1682.5332 C 5056.5662 1719.1316 5043.0101 1749.7993 5025.3887 1774.5371 C 5007.7673 1799.2749 4986.5875 1817.9128 4961.8496 1830.4512 C 4937.1118 1842.9895 4909.8326 1849.2598 4880.0117 1849.2598 C 4861.0347 1849.2598 4844.0922 1847.2266 4829.1816 1843.1602 C 4814.6102 1839.0937 4801.5627 1833.6701 4790.041 1826.8926 C 4778.5192 1820.1151 4768.3536 1812.4914 4759.543 1804.0195 C 4751.071 1795.2088 4743.2765 1786.0588 4736.1602 1776.5703 L 4725.4863 1776.5703 L 4699.5605 1839.0938 L 4581.125 1839.0938 L 4581.125 1048.1602 z M 5990.6719 1048.1602 C 6002.1935 1048.1602 6013.0388 1049.3466 6023.2051 1051.7188 C 6033.3713 1054.0908 6042.1815 1058.326 6049.6367 1064.4258 C 6057.4309 1070.1866 6063.5302 1077.9812 6067.9355 1087.8086 C 6072.6798 1097.2971 6075.0527 1109.3268 6075.0527 1123.8984 C 6075.0527 1138.1311 6072.6798 1150.1609 6067.9355 1159.9883 C 6063.5302 1169.8156 6057.4309 1177.7792 6049.6367 1183.8789 C 6042.1815 1189.6398 6033.3713 1193.8769 6023.2051 1196.5879 C 6013.0388 1198.96 6002.1935 1200.1465 5990.6719 1200.1465 C 5979.1501 1200.1465 5968.1379 1198.96 5957.6328 1196.5879 C 5947.4665 1193.8769 5938.4855 1189.6398 5930.6914 1183.8789 C 5923.2361 1177.7792 5917.3057 1169.8156 5912.9004 1159.9883 C 5908.495 1150.1609 5906.293 1138.1311 5906.293 1123.8984 C 5906.293 1109.3268 5908.495 1097.2971 5912.9004 1087.8086 C 5917.3057 1077.9812 5923.2361 1070.1866 5930.6914 1064.4258 C 5938.4855 1058.326 5947.4665 1054.0908 5957.6328 1051.7188 C 5968.1379 1049.3466 5979.1501 1048.1602 5990.6719 1048.1602 z M 2154.4473 1259.1094 C 2225.272 1259.1094 2279.4905 1275.7142 2317.1055 1308.9238 C 2355.0593 1342.1335 2374.0371 1392.6255 2374.0371 1460.4004 L 2374.0371 1839.0938 L 2265.7676 1839.0938 L 2235.7773 1761.8301 L 2231.2012 1761.8301 C 2220.0184 1777.0794 2208.8352 1790.2957 2197.6523 1801.4785 C 2186.4695 1812.3225 2174.2708 1821.3016 2161.0547 1828.418 C 2147.8386 1835.5344 2132.9291 1840.7871 2116.3242 1844.1758 C 2100.0584 1847.5645 2081.0806 1849.2598 2059.3926 1849.2598 C 2036.3492 1849.2598 2015.0004 1845.7003 1995.3457 1838.584 C 1975.691 1831.1287 1958.5775 1820.1164 1944.0059 1805.5449 C 1929.7732 1790.6344 1918.59 1771.9966 1910.457 1749.6309 C 1902.324 1726.9263 1898.2578 1700.154 1898.2578 1669.3164 C 1898.2578 1608.9968 1917.5734 1564.6041 1956.2051 1536.1387 C 1994.8367 1507.3344 2052.6145 1491.4073 2129.5391 1488.3574 L 2220.0195 1485.3086 L 2220.0195 1442.6094 C 2220.0195 1419.227 2213.2405 1401.9446 2199.6855 1390.7617 C 2186.1306 1379.5789 2167.1548 1373.9883 2142.7559 1373.9883 C 2118.3569 1373.9883 2094.4663 1377.5457 2071.084 1384.6621 C 2048.0405 1391.7785 2024.8276 1401.2683 2001.4453 1413.1289 L 1951.123 1310.4492 C 1979.5885 1294.5221 2011.1028 1281.9836 2045.668 1272.834 C 2080.2332 1263.6844 2116.4933 1259.1094 2154.4473 1259.1094 z M 4201.9238 1259.1094 C 4272.7486 1259.1094 4326.969 1275.7142 4364.584 1308.9238 C 4402.5379 1342.1335 4421.5156 1392.6255 4421.5156 1460.4004 L 4421.5156 1839.0938 L 4313.2441 1839.0938 L 4283.2539 1761.8301 L 4278.6797 1761.8301 C 4267.4969 1777.0794 4256.3137 1790.2957 4245.1309 1801.4785 C 4233.9479 1812.3225 4221.7492 1821.3016 4208.5332 1828.418 C 4195.3171 1835.5344 4180.4056 1840.7871 4163.8008 1844.1758 C 4147.5349 1847.5645 4128.5591 1849.2598 4106.8711 1849.2598 C 4083.8276 1849.2598 4062.4789 1845.7003 4042.8242 1838.584 C 4023.1695 1831.1287 4006.056 1820.1164 3991.4844 1805.5449 C 3977.2517 1790.6344 3966.0685 1771.9966 3957.9355 1749.6309 C 3949.8025 1726.9263 3945.7363 1700.154 3945.7363 1669.3164 C 3945.7363 1608.9968 3965.0519 1564.6041 4003.6836 1536.1387 C 4042.3152 1507.3344 4100.093 1491.4073 4177.0176 1488.3574 L 4267.4961 1485.3086 L 4267.4961 1442.6094 C 4267.4961 1419.227 4260.719 1401.9446 4247.1641 1390.7617 C 4233.6091 1379.5789 4214.6333 1373.9883 4190.2344 1373.9883 C 4165.8354 1373.9883 4141.9448 1377.5457 4118.5625 1384.6621 C 4095.519 1391.7785 4072.3062 1401.2683 4048.9238 1413.1289 L 3998.5996 1310.4492 C 4027.0651 1294.5221 4058.5814 1281.9836 4093.1465 1272.834 C 4127.7117 1263.6844 4163.9699 1259.1094 4201.9238 1259.1094 z M 2770.0117 1260.127 C 2799.1549 1260.127 2828.1293 1263.6844 2856.9336 1270.8008 C 2885.7379 1277.9171 2912.8481 1287.9138 2938.2637 1300.791 L 2893.5312 1418.7188 C 2871.1657 1408.8914 2849.6478 1400.9279 2828.9766 1394.8281 C 2808.3052 1388.3895 2788.6499 1385.1719 2770.0117 1385.1719 C 2732.3967 1385.1719 2705.1175 1399.5726 2688.1738 1428.377 C 2671.2301 1456.8424 2662.7578 1499.7107 2662.7578 1556.9805 C 2662.7578 1613.9113 2671.2301 1655.931 2688.1738 1683.041 C 2705.1175 1710.1509 2731.7189 1723.707 2767.9785 1723.707 C 2797.4605 1723.707 2824.2309 1719.9787 2848.291 1712.5234 C 2872.3511 1704.7293 2896.9194 1694.9016 2921.9961 1683.041 L 2921.9961 1812.1523 C 2909.4578 1818.2521 2897.2591 1823.6738 2885.3984 1828.418 C 2873.5378 1833.1623 2861.5081 1837.0595 2849.3086 1840.1094 C 2837.4481 1843.1592 2824.9095 1845.3612 2811.6934 1846.7168 C 2798.8162 1848.4111 2784.9223 1849.2598 2770.0117 1849.2598 C 2729.3469 1849.2598 2692.5798 1843.6672 2659.709 1832.4844 C 2627.1771 1821.3015 2599.2183 1804.019 2575.8359 1780.6367 C 2552.7925 1756.9155 2535.0031 1726.7566 2522.4648 1690.1582 C 2510.2653 1653.2209 2504.1641 1609.1661 2504.1641 1557.9961 C 2504.1641 1501.4041 2510.4343 1454.1316 2522.9727 1416.1777 C 2535.8499 1377.885 2553.8101 1347.2173 2576.8535 1324.1738 C 2600.2358 1301.1304 2628.1927 1284.6945 2660.7246 1274.8672 C 2693.5954 1265.0398 2730.0246 1260.127 2770.0117 1260.127 z M 5912.9004 1270.8008 L 6067.9355 1270.8008 L 6067.9355 1839.0938 L 5912.9004 1839.0938 L 5912.9004 1270.8008 z M 4831.7227 1384.1543 C 4814.4401 1384.1543 4799.6995 1387.3739 4787.5 1393.8125 C 4775.6393 1399.9122 4765.9805 1409.2312 4758.5254 1421.7695 C 4751.0701 1434.3079 4745.6485 1450.2349 4742.2598 1469.5508 C 4738.871 1488.5277 4736.8379 1510.7231 4736.1602 1536.1387 L 4736.1602 1552.9141 C 4736.1602 1580.3629 4737.6845 1604.7623 4740.7344 1626.1113 C 4744.1231 1647.4604 4749.5447 1665.4207 4757 1679.9922 C 4764.4553 1694.225 4774.283 1705.0683 4786.4824 1712.5234 C 4799.0207 1719.9787 4814.439 1723.707 4832.7383 1723.707 C 4863.5757 1723.707 4886.111 1709.1354 4900.3438 1679.9922 C 4914.9152 1650.5101 4922.2012 1607.8108 4922.2012 1551.8965 C 4922.2012 1495.9823 4914.9152 1454.1313 4900.3438 1426.3438 C 4886.111 1398.2172 4863.2379 1384.1543 4831.7227 1384.1543 z M 2220.0195 1575.7871 L 2168.6797 1577.8203 C 2148.0084 1578.4981 2130.557 1581.209 2116.3242 1585.9531 C 2102.0916 1590.6974 2090.5685 1597.1366 2081.7578 1605.2695 C 2073.2859 1613.0636 2067.0177 1622.5515 2062.9512 1633.7344 C 2059.2236 1644.5783 2057.3594 1656.779 2057.3594 1670.334 C 2057.3594 1694.0552 2063.1208 1710.9978 2074.6426 1721.1641 C 2086.1643 1730.9915 2101.2428 1735.9063 2119.8809 1735.9062 C 2134.1135 1735.9063 2147.3298 1733.5333 2159.5293 1728.7891 C 2171.7288 1723.7059 2182.2342 1716.4201 2191.0449 1706.9316 C 2200.1946 1697.1042 2207.3114 1685.2435 2212.3945 1671.3496 C 2217.4776 1657.1169 2220.0195 1640.852 2220.0195 1622.5527 L 2220.0195 1575.7871 z M 4267.4961 1575.7871 L 4216.1582 1577.8203 C 4195.4869 1578.4981 4178.0335 1581.209 4163.8008 1585.9531 C 4149.5681 1590.6974 4138.0471 1597.1366 4129.2363 1605.2695 C 4120.7645 1613.0636 4114.4943 1622.5515 4110.4277 1633.7344 C 4106.7001 1644.5783 4104.8379 1656.779 4104.8379 1670.334 C 4104.8379 1694.0552 4110.5974 1710.9978 4122.1191 1721.1641 C 4133.6409 1730.9915 4148.7213 1735.9063 4167.3594 1735.9062 C 4181.592 1735.9063 4194.8083 1733.5333 4207.0078 1728.7891 C 4219.2073 1723.7059 4229.7127 1716.4201 4238.5234 1706.9316 C 4247.673 1697.1042 4254.79 1685.2435 4259.873 1671.3496 C 4264.9562 1657.1169 4267.4961 1640.852 4267.4961 1622.5527 L 4267.4961 1575.7871 z M 5281.0703 1679.9922 C 5292.9308 1679.9922 5304.1139 1681.5165 5314.6191 1684.5664 C 5325.4631 1687.6163 5334.951 1692.5291 5343.084 1699.3066 C 5351.2169 1706.0841 5357.6561 1715.0652 5362.4004 1726.248 C 5367.1446 1737.092 5369.5156 1750.4772 5369.5156 1766.4043 C 5369.5156 1781.6536 5367.1446 1794.7009 5362.4004 1805.5449 C 5357.6561 1816.3889 5351.2169 1825.368 5343.084 1832.4844 C 5334.951 1839.6007 5325.4631 1844.6845 5314.6191 1847.7344 C 5304.1139 1851.1231 5292.9308 1852.8184 5281.0703 1852.8184 C 5268.5319 1852.8184 5256.84 1851.1231 5245.9961 1847.7344 C 5235.1521 1844.6845 5225.6642 1839.6007 5217.5312 1832.4844 C 5209.3984 1825.368 5202.9591 1816.3889 5198.2148 1805.5449 C 5193.8095 1794.7009 5191.6074 1781.6536 5191.6074 1766.4043 C 5191.6074 1750.4772 5193.8095 1737.092 5198.2148 1726.248 C 5202.9591 1715.0652 5209.3984 1706.0841 5217.5312 1699.3066 C 5225.6642 1692.5291 5235.1521 1687.6163 5245.9961 1684.5664 C 5256.84 1681.5165 5268.5319 1679.9922 5281.0703 1679.9922 z "
       transform="translate(0,-1853.1498)"
       id="rect4177" />
  </g>
</svg>
