  0
SECTION
  2
HEADER
  9
$ACADVER
  1
AC1014
  9
$HANDSEED
  5
FFFF
  9
$MEASUREMENT
 70
     1
  0
ENDSEC
  0
SECTION
  2
TABLES
  0
TABLE
  2
VPORT
  5
8
330
0
100
AcDbSymbolTable
 70
     4
  0
VPORT
  5
2E
330
8
100
AcDbSymbolTableRecord
100
AcDbViewportTableRecord
  2
*ACTIVE
 70
     0
 10
0.0
 20
0.0
 11
1.0
 21
1.0
 12
210.0
 22
148.5
 13
0.0
 23
0.0
 14
10.0
 24
10.0
 15
10.0
 25
10.0
 16
0.0
 26
0.0
 36
1.0
 17
0.0
 27
0.0
 37
0.0
 40
341.0
 41
1.24
 42
50.0
 43
0.0
 44
0.0
 50
0.0
 51
0.0
 71
     0
 72
   100
 73
     1
 74
     3
 75
     0
 76
     0
 77
     0
 78
     0
  0
ENDTAB
  0
TABLE
  2
LTYPE
  5
5
330
0
100
AcDbSymbolTable
 70
     1
  0
LTYPE
  5
14
330
5
100
AcDbSymbolTableRecord
100
AcDbLinetypeTableRecord
  2
BYBLOCK
 70
     0
  3

 72
    65
 73
     0
 40
0.0
  0
LTYPE
  5
15
330
5
100
AcDbSymbolTableRecord
100
AcDbLinetypeTableRecord
  2
BYLAYER
 70
     0
  3

 72
    65
 73
     0
 40
0.0
  0
LTYPE
  5
16
330
5
100
AcDbSymbolTableRecord
100
AcDbLinetypeTableRecord
  2
CONTINUOUS
 70
     0
  3
Solid line
 72
    65
 73
     0
 40
0.0
  0
ENDTAB
  0
TABLE
  2
LAYER
  5
2
100
AcDbSymbolTable
 70
2
  0
LAYER
  5
50
100
AcDbSymbolTableRecord
100
AcDbLayerTableRecord
  2
0
 70
0
  6
CONTINUOUS
  0
LAYER
  5
51
100
AcDbSymbolTableRecord
100
AcDbLayerTableRecord
  2
Taso_1
 70
0
  6
CONTINUOUS
  0
ENDTAB
  0
TABLE
  2
STYLE
  5
3
330
0
100
AcDbSymbolTable
 70
     1
  0
STYLE
  5
11
330
3
100
AcDbSymbolTableRecord
100
AcDbTextStyleTableRecord
  2
STANDARD
 70
     0
 40
0.0
 41
1.0
 50
0.0
 71
     0
 42
2.5
  3
txt
  4

  0
ENDTAB
  0
TABLE
  2
VIEW
  5
6
330
0
100
AcDbSymbolTable
 70
     0
  0
ENDTAB
  0
TABLE
  2
UCS
  5
7
330
0
100
AcDbSymbolTable
 70
     0
  0
ENDTAB
  0
TABLE
  2
APPID
  5
9
330
0
100
AcDbSymbolTable
 70
     2
  0
APPID
  5
12
330
9
100
AcDbSymbolTableRecord
100
AcDbRegAppTableRecord
  2
ACAD
 70
     0
  0
ENDTAB
  0
TABLE
  2
DIMSTYLE
  5
A
330
0
100
AcDbSymbolTable
 70
     1
  0
DIMSTYLE
105
27
330
A
100
AcDbSymbolTableRecord
100
AcDbDimStyleTableRecord
  2
ISO-25
 70
     0
  3

  4

  5

  6

  7

 40
1.0
 41
2.5
 42
0.625
 43
3.75
 44
1.25
 45
0.0
 46
0.0
 47
0.0
 48
0.0
140
2.5
141
2.5
142
0.0
143
0.03937007874016
144
1.0
145
0.0
146
1.0
147
0.625
 71
     0
 72
     0
 73
     0
 74
     0
 75
     0
 76
     0
 77
     1
 78
     8
170
     0
171
     3
172
     1
173
     0
174
     0
175
     0
176
     0
177
     0
178
     0
270
     2
271
     2
272
     2
273
     2
274
     3
340
11
275
     0
280
     0
281
     0
282
     0
283
     0
284
     8
285
     0
286
     0
287
     3
288
     0
  0
ENDTAB
  0
TABLE
  2
BLOCK_RECORD
  5
1
330
0
100
AcDbSymbolTable
 70
     1
  0
BLOCK_RECORD
  5
1F
330
1
100
AcDbSymbolTableRecord
100
AcDbBlockTableRecord
  2
*MODEL_SPACE
  0
BLOCK_RECORD
  5
1B
330
1
100
AcDbSymbolTableRecord
100
AcDbBlockTableRecord
  2
*PAPER_SPACE
  0
ENDTAB
  0
ENDSEC
  0
SECTION
  2
BLOCKS
  0
BLOCK
  5
20
330
1F
100
AcDbEntity
  8
0
100
AcDbBlockBegin
  2
*MODEL_SPACE
 70
     0
 10
0.0
 20
0.0
 30
0.0
  3
*MODEL_SPACE
  1

  0
ENDBLK
  5
21
330
1F
100
AcDbEntity
  8
0
100
AcDbBlockEnd
  0
BLOCK
  5
1C
330
1B
100
AcDbEntity
 67
     1
  8
0
100
AcDbBlockBegin
  2
*PAPER_SPACE
  1

  0
ENDBLK
  5
1D
330
1B
100
AcDbEntity
 67
     1
  8
0
100
AcDbBlockEnd
  0
ENDSEC
  0
SECTION
  2
ENTITIES
  0
LWPOLYLINE
  5
100
100
AcDbEntity
  8
Taso_1
 62
7
100
AcDbPolyline
 90
6
 70
0
 10
-56.640625
 20
2255.742342
 30
0.0
 10
-56.640625
 20
70.639209
 30
0.0
 10
5924.295280
 20
70.639209
 30
0.0
 10
5924.295280
 20
2255.742342
 30
0.0
 10
-56.640625
 20
2255.742342
 30
0.0
 10
-56.640625
 20
2255.742342
 30
0.0
  0
LWPOLYLINE
  5
101
100
AcDbEntity
  8
Taso_1
 62
7
100
AcDbPolyline
 90
6
 70
0
 10
28.346875
 20
2154.331401
 30
0.0
 10
5839.370320
 20
2154.331401
 30
0.0
 10
5839.370320
 20
170.078249
 30
0.0
 10
28.346875
 20
170.078249
 30
0.0
 10
28.346875
 20
2154.331401
 30
0.0
 10
28.346875
 20
2154.331401
 30
0.0
  0
SPLINE
  5
102
100
AcDbEntity
  8
Taso_1
 62
7
100
AcDbSpline
 70
8
 71
3
 72
8
 73
4
 74
0
 40
0
 40
0
 40
0
 40
0
 40
1
 40
1
 40
1
 40
1
 10
4578.234400
 20
1490.354809
 30
0.0
 10
4603.175520
 20
1490.354809
 30
0.0
 10
4624.184720
 20
1488.321369
 30
0.0
 10
4641.264080
 20
1484.254809
 30
0.0
  0
SPLINE
  5
103
100
AcDbEntity
  8
Taso_1
 62
7
100
AcDbSpline
 70
8
 71
3
 72
8
 73
4
 74
0
 40
0
 40
0
 40
0
 40
0
 40
1
 40
1
 40
1
 40
1
 10
4641.264080
 20
1484.254809
 30
0.0
 10
4658.343280
 20
1480.459449
 30
0.0
 10
4672.848160
 20
1476.122089
 30
0.0
 10
4684.776560
 20
1471.242329
 30
0.0
  0
LWPOLYLINE
  5
104
100
AcDbEntity
  8
Taso_1
 62
7
100
AcDbPolyline
 90
402
 70
0
 10
4422.978160
 20
1942.539217
 30
0.0
 10
4422.978160
 20
1887.023593
 30
0.0
 10
4422.978160
 20
1831.507969
 30
0.0
 10
4285.882800
 20
1831.507969
 30
0.0
 10
4148.785920
 20
1831.507969
 30
0.0
 10
4148.785920
 20
1861.634529
 30
0.0
 10
4148.785920
 20
1891.762657
 30
0.0
 10
4065.175040
 20
1891.762657
 30
0.0
 10
3981.562480
 20
1891.762657
 30
0.0
 10
3981.562480
 20
1819.659529
 30
0.0
 10
3981.562480
 20
1747.557969
 30
0.0
 10
3981.562480
 20
1743.487657
 30
0.0
 10
3977.501600
 20
1743.495465
 30
0.0
 10
3912.507840
 20
1743.495465
 30
0.0
 10
3847.514080
 20
1743.495465
 30
0.0
 10
3847.514080
 20
1780.393905
 30
0.0
 10
3847.514080
 20
1817.290777
 30
0.0
 10
3754.424960
 20
1817.290777
 30
0.0
 10
3661.334400
 20
1817.290777
 30
0.0
 10
3661.334400
 20
1847.417345
 30
0.0
 10
3661.334400
 20
1877.545465
 30
0.0
 10
3622.067200
 20
1877.545465
 30
0.0
 10
3582.800000
 20
1877.545465
 30
0.0
 10
3582.800000
 20
1826.768905
 30
0.0
 10
3582.800000
 20
1775.992345
 30
0.0
 10
3494.450000
 20
1775.992345
 30
0.0
 10
3406.098400
 20
1775.992345
 30
0.0
 10
3406.098400
 20
1715.400153
 30
0.0
 10
3406.098400
 20
1654.806401
 30
0.0
 10
3315.717200
 20
1654.806401
 30
0.0
 10
3225.334400
 20
1654.806401
 30
0.0
 10
3225.334400
 20
1757.036089
 30
0.0
 10
3225.334400
 20
1859.265777
 30
0.0
 10
3185.729680
 20
1859.265777
 30
0.0
 10
3146.123440
 20
1859.265777
 30
0.0
 10
3146.123440
 20
1812.890777
 30
0.0
 10
3146.123440
 20
1766.514217
 30
0.0
 10
3104.487520
 20
1766.514217
 30
0.0
 10
3062.850000
 20
1766.514217
 30
0.0
 10
3062.850000
 20
1819.998593
 30
0.0
 10
3062.850000
 20
1873.482969
 30
0.0
 10
3039.493760
 20
1873.482969
 30
0.0
 10
3016.135920
 20
1873.482969
 30
0.0
 10
3016.135920
 20
1833.878281
 30
0.0
 10
3016.135920
 20
1794.272025
 30
0.0
 10
2972.129680
 20
1794.272025
 30
0.0
 10
2928.123440
 20
1794.272025
 30
0.0
 10
2928.123440
 20
1752.636089
 30
0.0
 10
2928.123440
 20
1710.998593
 30
0.0
 10
2928.131280
 20
1706.270465
 30
0.0
 10
2923.387520
 20
1706.259529
 30
0.0
 10
2819.126560
 20
1706.259529
 30
0.0
 10
2714.865600
 20
1706.259529
 30
0.0
 10
2714.865600
 20
1796.640777
 30
0.0
 10
2714.865600
 20
1887.023593
 30
0.0
 10
2691.509360
 20
1887.023593
 30
0.0
 10
2668.151600
 20
1887.023593
 30
0.0
 10
2668.151600
 20
1829.137657
 30
0.0
 10
2668.151600
 20
1771.253281
 30
0.0
 10
2619.406240
 20
1771.253281
 30
0.0
 10
2570.660960
 20
1771.253281
 30
0.0
 10
2570.660960
 20
1838.615777
 30
0.0
 10
2570.660960
 20
1905.979841
 30
0.0
 10
2531.056240
 20
1905.979841
 30
0.0
 10
2491.450000
 20
1905.979841
 30
0.0
 10
2491.450000
 20
1838.615777
 30
0.0
 10
2491.450000
 20
1771.253281
 30
0.0
 10
2426.456240
 20
1771.253281
 30
0.0
 10
2361.462480
 20
1771.253281
 30
0.0
 10
2361.462480
 20
1803.750153
 30
0.0
 10
2361.462480
 20
1836.247033
 30
0.0
 10
2340.814080
 20
1836.247033
 30
0.0
 10
2320.164080
 20
1836.247033
 30
0.0
 10
2320.164080
 20
1884.992345
 30
0.0
 10
2320.164080
 20
1933.737657
 30
0.0
 10
2250.431280
 20
1933.737657
 30
0.0
 10
2180.698400
 20
1933.737657
 30
0.0
 10
2180.698400
 20
1838.615777
 30
0.0
 10
2180.698400
 20
1743.495465
 30
0.0
 10
2057.820320
 20
1743.495465
 30
0.0
 10
1934.940640
 20
1743.495465
 30
0.0
 10
1934.940640
 20
1815.259529
 30
0.0
 10
1934.895280
 20
1891.707969
 30
0.0
 10
1892.959360
 20
1891.770465
 30
0.0
 10
1851.001600
 20
1891.778281
 30
0.0
 10
1850.985920
 20
1861.645465
 30
0.0
 10
1850.985920
 20
1836.256401
 30
0.0
 10
1779.221840
 20
1836.256401
 30
0.0
 10
1707.457840
 20
1836.256401
 30
0.0
 10
1707.457840
 20
1803.759529
 30
0.0
 10
1707.457840
 20
1771.262657
 30
0.0
 10
1651.604720
 20
1771.262657
 30
0.0
 10
1595.750000
 20
1771.262657
 30
0.0
 10
1595.750000
 20
1803.759529
 30
0.0
 10
1595.750000
 20
1836.256401
 30
0.0
 10
1554.114080
 20
1836.256401
 30
0.0
 10
1512.476560
 20
1836.256401
 30
0.0
 10
1512.476560
 20
1787.511089
 30
0.0
 10
1512.476560
 20
1738.765777
 30
0.0
 10
1468.132800
 20
1738.765777
 30
0.0
 10
1423.787520
 20
1738.765777
 30
0.0
 10
1423.787520
 20
1801.390777
 30
0.0
 10
1423.787520
 20
1864.014217
 30
0.0
 10
1384.520320
 20
1864.014217
 30
0.0
 10
1345.253120
 20
1864.014217
 30
0.0
 10
1345.253120
 20
1771.262657
 30
0.0
 10
1345.253120
 20
1678.511089
 30
0.0
 10
1310.387520
 20
1678.511089
 30
0.0
 10
1275.520320
 20
1678.511089
 30
0.0
 10
1275.520320
 20
1757.384529
 30
0.0
 10
1275.520320
 20
1836.256401
 30
0.0
 10
1252.164080
 20
1836.256401
 30
0.0
 10
1228.806240
 20
1836.256401
 30
0.0
 10
1228.806240
 20
1803.759529
 30
0.0
 10
1228.806240
 20
1771.262657
 30
0.0
 10
1194.278160
 20
1771.262657
 30
0.0
 10
1159.751600
 20
1771.262657
 30
0.0
 10
1159.751600
 20
1854.875153
 30
0.0
 10
1159.751600
 20
1938.486089
 30
0.0
 10
1136.393760
 20
1938.486089
 30
0.0
 10
1113.035920
 20
1938.486089
 30
0.0
 10
1113.035920
 20
1868.753281
 30
0.0
 10
1113.035920
 20
1799.020465
 30
0.0
 10
1075.800000
 20
1799.020465
 30
0.0
 10
1038.564080
 20
1799.020465
 30
0.0
 10
1038.564080
 20
1854.536089
 30
0.0
 10
1038.564080
 20
1910.051713
 30
0.0
 10
922.456240
 20
1910.051713
 30
0.0
 10
806.346880
 20
1910.051713
 30
0.0
 10
806.346880
 20
1840.657969
 30
0.0
 10
806.346880
 20
1771.262657
 30
0.0
 10
616.104688
 20
1771.262657
 30
0.0
 10
425.862496
 20
1771.262657
 30
0.0
 10
425.862496
 20
1710.670465
 30
0.0
 10
425.862496
 20
1650.076713
 30
0.0
 10
616.104688
 20
1650.076713
 30
0.0
 10
806.346880
 20
1650.076713
 30
0.0
 10
806.346880
 20
1633.828281
 30
0.0
 10
806.346880
 20
1617.579841
 30
0.0
 10
688.207816
 20
1617.579841
 30
0.0
 10
570.067184
 20
1617.579841
 30
0.0
 10
570.067184
 20
1536.676713
 30
0.0
 10
570.067184
 20
1455.772009
 30
0.0
 10
502.704688
 20
1455.772009
 30
0.0
 10
435.340624
 20
1455.772009
 30
0.0
 10
435.340624
 20
1381.300169
 30
0.0
 10
435.340624
 20
1306.828249
 30
0.0
 10
546.710936
 20
1306.828249
 30
0.0
 10
658.079688
 20
1306.828249
 30
0.0
 10
658.079688
 20
1269.592329
 30
0.0
 10
658.079688
 20
1232.356409
 30
0.0
 10
544.340624
 20
1232.356409
 30
0.0
 10
430.601560
 20
1232.356409
 30
0.0
 10
430.601560
 20
1174.472009
 30
0.0
 10
430.601560
 20
1116.586089
 30
0.0
 10
405.214064
 20
1116.586089
 30
0.0
 10
379.826560
 20
1116.586089
 30
0.0
 10
379.826560
 20
1058.701689
 30
0.0
 10
379.826560
 20
1000.817369
 30
0.0
 10
497.965624
 20
1000.817369
 30
0.0
 10
616.104688
 20
1000.817369
 30
0.0
 10
616.104688
 20
970.350169
 30
0.0
 10
616.092184
 20
935.767369
 30
0.0
 10
541.971872
 20
935.829849
 30
0.0
 10
472.576560
 20
935.829849
 30
0.0
 10
472.576560
 20
893.853289
 30
0.0
 10
472.576560
 20
851.878249
 30
0.0
 10
409.953128
 20
851.878249
 30
0.0
 10
347.329688
 20
851.878249
 30
0.0
 10
347.329688
 20
798.393929
 30
0.0
 10
347.329688
 20
744.909529
 30
0.0
 10
497.946872
 20
744.911129
 30
0.0
 10
648.582816
 20
744.911129
 30
0.0
 10
648.582816
 20
731.032969
 30
0.0
 10
648.582816
 20
717.153289
 30
0.0
 10
593.067184
 20
717.153289
 30
0.0
 10
537.553128
 20
717.153289
 30
0.0
 10
537.553128
 20
659.268889
 30
0.0
 10
537.553128
 20
601.382969
 30
0.0
 10
491.176560
 20
601.382969
 30
0.0
 10
439.900000
 20
601.429849
 30
0.0
 10
440.060936
 20
571.253289
 30
0.0
 10
440.060936
 20
545.864249
 30
0.0
 10
532.812496
 20
545.864249
 30
0.0
 10
625.564064
 20
545.864249
 30
0.0
 10
625.564064
 20
487.640809
 30
0.0
 10
625.564064
 20
429.417369
 30
0.0
 10
715.946872
 20
429.417369
 30
0.0
 10
806.328160
 20
429.417369
 30
0.0
 10
806.328160
 20
404.029849
 30
0.0
 10
806.328160
 20
378.640809
 30
0.0
 10
922.437520
 20
378.640809
 30
0.0
 10
1038.545280
 20
378.640809
 30
0.0
 10
1038.545280
 20
450.404809
 30
0.0
 10
1038.545280
 20
522.168889
 30
0.0
 10
1075.781280
 20
522.168889
 30
0.0
 10
1113.017200
 20
522.168889
 30
0.0
 10
1113.017200
 20
469.023609
 30
0.0
 10
1113.017200
 20
415.876729
 30
0.0
 10
1136.375040
 20
415.876729
 30
0.0
 10
1159.731280
 20
415.876729
 30
0.0
 10
1159.731280
 20
438.895449
 30
0.0
 10
1159.731280
 20
461.914249
 30
0.0
 10
1178.010960
 20
461.914249
 30
0.0
 10
1196.290640
 20
461.914249
 30
0.0
 10
1196.290640
 20
503.889209
 30
0.0
 10
1196.290640
 20
545.864249
 30
0.0
 10
1212.539040
 20
545.864249
 30
0.0
 10
1228.787520
 20
545.864249
 30
0.0
 10
1228.787520
 20
448.373609
 30
0.0
 10
1228.787520
 20
350.882969
 30
0.0
 10
1252.145280
 20
350.882969
 30
0.0
 10
1275.501600
 20
350.882969
 30
0.0
 10
1275.501600
 20
432.125129
 30
0.0
 10
1275.501600
 20
513.367369
 30
0.0
 10
1310.368720
 20
513.367369
 30
0.0
 10
1345.234400
 20
513.367369
 30
0.0
 10
1345.234400
 20
452.775129
 30
0.0
 10
1345.234400
 20
392.181369
 30
0.0
 10
1384.501600
 20
392.181369
 30
0.0
 10
1423.768720
 20
392.181369
 30
0.0
 10
1423.768720
 20
436.526729
 30
0.0
 10
1423.768720
 20
480.870489
 30
0.0
 10
1468.114080
 20
480.870489
 30
0.0
 10
1512.457840
 20
480.870489
 30
0.0
 10
1512.457840
 20
422.647049
 30
0.0
 10
1512.457840
 20
364.423609
 30
0.0
 10
1554.095280
 20
364.423609
 30
0.0
 10
1595.731280
 20
364.423609
 30
0.0
 10
1595.731280
 20
455.143929
 30
0.0
 10
1595.731280
 20
545.864249
 30
0.0
 10
1672.234400
 20
545.864249
 30
0.0
 10
1748.737520
 20
545.864249
 30
0.0
 10
1748.737520
 20
503.889209
 30
0.0
 10
1748.737520
 20
461.914249
 30
0.0
 10
1799.853120
 20
461.914249
 30
0.0
 10
1850.967200
 20
461.914249
 30
0.0
 10
1850.967200
 20
440.926729
 30
0.0
 10
1851.045280
 20
415.939209
 30
0.0
 10
1892.939040
 20
415.878249
 30
0.0
 10
1934.903120
 20
415.925129
 30
0.0
 10
1934.914080
 20
450.411129
 30
0.0
 10
1934.914080
 20
480.876729
 30
0.0
 10
2057.793760
 20
480.876729
 30
0.0
 10
2180.671840
 20
480.876729
 30
0.0
 10
2180.671840
 20
408.773609
 30
0.0
 10
2180.671840
 20
336.672009
 30
0.0
 10
2266.653120
 20
336.672009
 30
0.0
 10
2352.634400
 20
336.672009
 30
0.0
 10
2352.634400
 20
455.150169
 30
0.0
 10
2352.634400
 20
573.628249
 30
0.0
 10
2422.029680
 20
573.628249
 30
0.0
 10
2491.423440
 20
573.628249
 30
0.0
 10
2491.423440
 20
503.895449
 30
0.0
 10
2491.423440
 20
434.162649
 30
0.0
 10
2531.029680
 20
434.162649
 30
0.0
 10
2570.634400
 20
434.162649
 30
0.0
 10
2570.634400
 20
490.015769
 30
0.0
 10
2570.634400
 20
545.870489
 30
0.0
 10
2619.379680
 20
545.870489
 30
0.0
 10
2668.124960
 20
545.870489
 30
0.0
 10
2668.124960
 20
471.398569
 30
0.0
 10
2668.124960
 20
396.926729
 30
0.0
 10
2691.482800
 20
396.926729
 30
0.0
 10
2714.839040
 20
396.926729
 30
0.0
 10
2714.839040
 20
485.276729
 30
0.0
 10
2714.839040
 20
573.628249
 30
0.0
 10
2865.476560
 20
573.628249
 30
0.0
 10
3016.112480
 20
573.628249
 30
0.0
 10
3016.112480
 20
480.537689
 30
0.0
 10
3016.112480
 20
387.447049
 30
0.0
 10
3039.470320
 20
387.447049
 30
0.0
 10
3062.826560
 20
387.447049
 30
0.0
 10
3062.826560
 20
450.411129
 30
0.0
 10
3062.826560
 20
513.373609
 30
0.0
 10
3104.464080
 20
513.373609
 30
0.0
 10
3146.100000
 20
513.373609
 30
0.0
 10
3146.100000
 20
450.411129
 30
0.0
 10
3146.100000
 20
387.447049
 30
0.0
 10
3185.706240
 20
387.447049
 30
0.0
 10
3225.310960
 20
387.447049
 30
0.0
 10
3225.310960
 20
466.659529
 30
0.0
 10
3225.310960
 20
545.870489
 30
0.0
 10
3322.801600
 20
545.870489
 30
0.0
 10
3420.292160
 20
545.870489
 30
0.0
 10
3420.292160
 20
517.773609
 30
0.0
 10
3420.292160
 20
489.676729
 30
0.0
 10
3501.534400
 20
489.676729
 30
0.0
 10
3582.776560
 20
489.676729
 30
0.0
 10
3582.776560
 20
448.040809
 30
0.0
 10
3582.776560
 20
406.404809
 30
0.0
 10
3622.043760
 20
406.404809
 30
0.0
 10
3661.310960
 20
406.404809
 30
0.0
 10
3661.310960
 20
480.537689
 30
0.0
 10
3661.310960
 20
554.670489
 30
0.0
 10
3819.395280
 20
554.670489
 30
0.0
 10
3977.478160
 20
554.670489
 30
0.0
 10
3977.478160
 20
552.301689
 30
0.0
 10
3979.509360
 20
549.931369
 30
0.0
 10
3981.540640
 20
549.931369
 30
0.0
 10
3981.540640
 20
468.689209
 30
0.0
 10
3981.540640
 20
387.447049
 30
0.0
 10
4065.151600
 20
387.447049
 30
0.0
 10
4148.764080
 20
387.447049
 30
0.0
 10
4148.764080
 20
496.786089
 30
0.0
 10
4148.764080
 20
606.125129
 30
0.0
 10
4269.612480
 20
606.125129
 30
0.0
 10
4390.459360
 20
606.125129
 30
0.0
 10
4390.459360
 20
550.270489
 30
0.0
 10
4390.459360
 20
494.417369
 30
0.0
 10
4392.829680
 20
494.417369
 30
0.0
 10
4395.198400
 20
492.047049
 30
0.0
 10
4395.198400
 20
489.676729
 30
0.0
 10
4510.968720
 20
489.676729
 30
0.0
 10
4626.739040
 20
489.676729
 30
0.0
 10
4626.739040
 20
469.028249
 30
0.0
 10
4626.739040
 20
448.379849
 30
0.0
 10
4710.350000
 20
448.379849
 30
0.0
 10
4793.962480
 20
448.379849
 30
0.0
 10
4793.962480
 20
469.028249
 30
0.0
 10
4793.962480
 20
489.676729
 30
0.0
 10
4868.434400
 20
489.676729
 30
0.0
 10
4942.906240
 20
489.676729
 30
0.0
 10
4942.906240
 20
422.314249
 30
0.0
 10
4942.906240
 20
354.950169
 30
0.0
 10
5059.015600
 20
354.950169
 30
0.0
 10
5175.123440
 20
354.950169
 30
0.0
 10
5175.123440
 20
450.411129
 30
0.0
 10
5175.123440
 20
545.870489
 30
0.0
 10
5305.110960
 20
545.870489
 30
0.0
 10
5435.098400
 20
545.870489
 30
0.0
 10
5435.098400
 20
573.628249
 30
0.0
 10
5435.098400
 20
601.386089
 30
0.0
 10
5481.475040
 20
601.386089
 30
0.0
 10
5527.850000
 20
601.386089
 30
0.0
 10
5527.850000
 20
659.270489
 30
0.0
 10
5527.850000
 20
717.154809
 30
0.0
 10
5400.231280
 20
717.154809
 30
0.0
 10
5272.614080
 20
717.154809
 30
0.0
 10
5272.614080
 20
742.882969
 30
0.0
 10
5272.614080
 20
768.609529
 30
0.0
 10
5305.110960
 20
768.609529
 30
0.0
 10
5337.607840
 20
768.609529
 30
0.0
 10
5337.607840
 20
793.997049
 30
0.0
 10
5337.607840
 20
819.386089
 30
0.0
 10
5400.231280
 20
819.386089
 30
0.0
 10
5467.632800
 20
819.447049
 30
0.0
 10
5467.601600
 20
879.976729
 30
0.0
 10
5467.601600
 20
935.829849
 30
0.0
 10
5386.359360
 20
935.829849
 30
0.0
 10
5300.389040
 20
935.722009
 30
0.0
 10
5300.378160
 20
970.357929
 30
0.0
 10
5300.378160
 20
1000.823609
 30
0.0
 10
5335.243760
 20
1000.823609
 30
0.0
 10
5370.110960
 20
1000.823609
 30
0.0
 10
5370.110960
 20
1058.709529
 30
0.0
 10
5370.110960
 20
1116.593929
 30
0.0
 10
5395.498400
 20
1116.593929
 30
0.0
 10
5425.585920
 20
1116.562649
 30
0.0
 10
5425.631280
 20
1176.848569
 30
0.0
 10
5425.631280
 20
1232.364249
 30
0.0
 10
5321.032800
 20
1232.364249
 30
0.0
 10
5216.432800
 20
1232.364249
 30
0.0
 10
5216.432800
 20
1269.600169
 30
0.0
 10
5216.432800
 20
1306.836089
 30
0.0
 10
5281.426560
 20
1306.836089
 30
0.0
 10
5346.420320
 20
1306.836089
 30
0.0
 10
5346.404720
 20
1455.742329
 30
0.0
 10
5560.360960
 20
1455.773609
 30
0.0
 10
5560.360960
 20
1536.676713
 30
0.0
 10
5560.360960
 20
1617.581401
 30
0.0
 10
5367.750000
 20
1617.581401
 30
0.0
 10
5175.137520
 20
1617.581401
 30
0.0
 10
5175.137520
 20
1633.829841
 30
0.0
 10
5175.137520
 20
1650.078281
 30
0.0
 10
5279.398400
 20
1650.078281
 30
0.0
 10
5388.368720
 20
1650.068905
 30
0.0
 10
5388.400000
 20
1710.667345
 30
0.0
 10
5388.384400
 20
1771.284529
 30
0.0
 10
5279.406240
 20
1771.253281
 30
0.0
 10
5175.145280
 20
1771.253281
 30
0.0
 10
5175.145280
 20
1815.259529
 30
0.0
 10
5175.145280
 20
1859.265777
 30
0.0
 10
5059.037520
 20
1859.265777
 30
0.0
 10
4942.928160
 20
1859.265777
 30
0.0
 10
4942.928160
 20
1815.259529
 30
0.0
 10
4942.928160
 20
1771.253281
 30
0.0
 10
4868.456240
 20
1771.253281
 30
0.0
 10
4793.984400
 20
1771.253281
 30
0.0
 10
4793.984400
 20
1847.756401
 30
0.0
 10
4793.984400
 20
1924.259529
 30
0.0
 10
4710.373440
 20
1924.259529
 30
0.0
 10
4626.760960
 20
1924.259529
 30
0.0
 10
4626.760960
 20
1847.756401
 30
0.0
 10
4626.760960
 20
1771.253281
 30
0.0
 10
4543.487520
 20
1771.253281
 30
0.0
 10
4460.215600
 20
1771.253281
 30
0.0
 10
4460.215600
 20
1856.895465
 30
0.0
 10
4460.215600
 20
1942.539217
 30
0.0
 10
4441.596880
 20
1942.539217
 30
0.0
 10
4422.978160
 20
1942.539217
 30
0.0
 10
4422.978160
 20
1942.539217
 30
0.0
  0
SPLINE
  5
105
100
AcDbEntity
  8
Taso_1
 62
7
100
AcDbSpline
 70
8
 71
3
 72
8
 73
4
 74
0
 40
0
 40
0
 40
0
 40
0
 40
1
 40
1
 40
1
 40
1
 10
4655.496880
 20
1380.151689
 30
0.0
 10
4647.092800
 20
1383.133769
 30
0.0
 10
4638.283040
 20
1385.844649
 30
0.0
 10
4629.065600
 20
1388.284569
 30
0.0
  0
SPLINE
  5
106
100
AcDbEntity
  8
Taso_1
 62
7
100
AcDbSpline
 70
8
 71
3
 72
8
 73
4
 74
0
 40
0
 40
0
 40
0
 40
0
 40
1
 40
1
 40
1
 40
1
 10
4629.065600
 20
1388.284569
 30
0.0
 10
4619.848240
 20
1390.724329
 30
0.0
 10
4609.003440
 20
1391.945449
 30
0.0
 10
4596.532800
 20
1391.945449
 30
0.0
  0
SPLINE
  5
107
100
AcDbEntity
  8
Taso_1
 62
7
100
AcDbSpline
 70
8
 71
3
 72
8
 73
4
 74
0
 40
0
 40
0
 40
0
 40
0
 40
1
 40
1
 40
1
 40
1
 10
4596.532800
 20
1391.945449
 30
0.0
 10
4580.266880
 20
1391.945449
 30
0.0
 10
4568.744640
 20
1386.658969
 30
0.0
 10
4561.967200
 20
1376.086089
 30
0.0
  0
SPLINE
  5
108
100
AcDbEntity
  8
Taso_1
 62
7
100
AcDbSpline
 70
8
 71
3
 72
8
 73
4
 74
0
 40
0
 40
0
 40
0
 40
0
 40
1
 40
1
 40
1
 40
1
 10
4561.967200
 20
1376.086089
 30
0.0
 10
4555.460800
 20
1365.784329
 30
0.0
 10
4552.207840
 20
1352.500489
 30
0.0
 10
4552.207840
 20
1336.234489
 30
0.0
  0
LWPOLYLINE
  5
109
100
AcDbEntity
  8
Taso_1
 62
7
100
AcDbPolyline
 90
2
 70
0
 10
4684.776560
 20
1471.242329
 30
0.0
 10
4655.496880
 20
1380.151689
 30
0.0
  0
SPLINE
  5
10a
100
AcDbEntity
  8
Taso_1
 62
7
100
AcDbSpline
 70
8
 71
3
 72
8
 73
4
 74
0
 40
0
 40
0
 40
0
 40
0
 40
1
 40
1
 40
1
 40
1
 10
4428.179680
 20
1341.114249
 30
0.0
 10
4428.179680
 20
1370.121849
 30
0.0
 10
4431.704560
 20
1394.113849
 30
0.0
 10
4438.753120
 20
1413.090809
 30
0.0
  0
SPLINE
  5
10b
100
AcDbEntity
  8
Taso_1
 62
7
100
AcDbSpline
 70
8
 71
3
 72
8
 73
4
 74
0
 40
0
 40
0
 40
0
 40
0
 40
1
 40
1
 40
1
 40
1
 10
4438.753120
 20
1413.090809
 30
0.0
 10
4445.801680
 20
1432.338809
 30
0.0
 10
4455.832560
 20
1447.656169
 30
0.0
 10
4468.845280
 20
1459.042329
 30
0.0
  0
SPLINE
  5
10c
100
AcDbEntity
  8
Taso_1
 62
7
100
AcDbSpline
 70
8
 71
3
 72
8
 73
4
 74
0
 40
0
 40
0
 40
0
 40
0
 40
1
 40
1
 40
1
 40
1
 10
4468.845280
 20
1459.042329
 30
0.0
 10
4481.858080
 20
1470.428489
 30
0.0
 10
4497.582400
 20
1478.425929
 30
0.0
 10
4516.017200
 20
1483.034489
 30
0.0
  0
SPLINE
  5
10d
100
AcDbEntity
  8
Taso_1
 62
7
100
AcDbSpline
 70
8
 71
3
 72
8
 73
4
 74
0
 40
0
 40
0
 40
0
 40
0
 40
1
 40
1
 40
1
 40
1
 10
4516.017200
 20
1483.034489
 30
0.0
 10
4534.451920
 20
1487.914329
 30
0.0
 10
4555.190880
 20
1490.354809
 30
0.0
 10
4578.234400
 20
1490.354809
 30
0.0
  0
LWPOLYLINE
  5
10e
100
AcDbEntity
  8
Taso_1
 62
7
100
AcDbPolyline
 90
12
 70
0
 10
4552.207840
 20
1336.234489
 30
0.0
 10
4552.207840
 20
1307.768889
 30
0.0
 10
4644.517200
 20
1307.768889
 30
0.0
 10
4644.517200
 20
1214.645449
 30
0.0
 10
4552.207840
 20
1214.645449
 30
0.0
 10
4552.207840
 20
853.134489
 30
0.0
 10
4428.179680
 20
853.134489
 30
0.0
 10
4428.179680
 20
1214.645449
 30
0.0
 10
4359.862480
 20
1214.645449
 30
0.0
 10
4359.862480
 20
1274.423609
 30
0.0
 10
4428.179680
 20
1307.768889
 30
0.0
 10
4428.179680
 20
1341.114249
 30
0.0
  0
LWPOLYLINE
  5
10f
100
AcDbEntity
  8
Taso_1
 62
7
100
AcDbPolyline
 90
2
 70
0
 10
4578.234400
 20
1490.354809
 30
0.0
 10
4578.234400
 20
1490.354809
 30
0.0
  0
SPLINE
  5
110
100
AcDbEntity
  8
Taso_1
 62
7
100
AcDbSpline
 70
8
 71
3
 72
8
 73
4
 74
0
 40
0
 40
0
 40
0
 40
0
 40
1
 40
1
 40
1
 40
1
 10
1150.589040
 20
1356.973609
 30
0.0
 10
1150.589040
 20
1345.587449
 30
0.0
 10
1150.317120
 20
1333.523049
 30
0.0
 10
1149.775040
 20
1320.781369
 30
0.0
  0
SPLINE
  5
111
100
AcDbEntity
  8
Taso_1
 62
7
100
AcDbSpline
 70
8
 71
3
 72
8
 73
4
 74
0
 40
0
 40
0
 40
0
 40
0
 40
1
 40
1
 40
1
 40
1
 10
1149.775040
 20
1320.781369
 30
0.0
 10
1149.232800
 20
1308.310809
 30
0.0
 10
1148.555440
 20
1296.788649
 30
0.0
 10
1147.742160
 20
1286.215769
 30
0.0
  0
SPLINE
  5
112
100
AcDbEntity
  8
Taso_1
 62
7
100
AcDbSpline
 70
8
 71
3
 72
8
 73
4
 74
0
 40
0
 40
0
 40
0
 40
0
 40
1
 40
1
 40
1
 40
1
 10
1147.742160
 20
1286.215769
 30
0.0
 10
1146.657760
 20
1273.745209
 30
0.0
 10
1145.708560
 20
1261.545689
 30
0.0
 10
1144.895280
 20
1249.617369
 30
0.0
  0
LWPOLYLINE
  5
113
100
AcDbEntity
  8
Taso_1
 62
7
100
AcDbPolyline
 90
3
 70
0
 10
1026.560960
 20
1485.881369
 30
0.0
 10
1150.589040
 20
1485.881369
 30
0.0
 10
1150.589040
 20
1356.973609
 30
0.0
  0
SPLINE
  5
114
100
AcDbEntity
  8
Taso_1
 62
7
100
AcDbSpline
 70
8
 71
3
 72
8
 73
4
 74
0
 40
0
 40
0
 40
0
 40
0
 40
1
 40
1
 40
1
 40
1
 10
1151.401600
 20
1249.617369
 30
0.0
 10
1164.685440
 20
1273.202969
 30
0.0
 10
1181.629280
 20
1290.146809
 30
0.0
 10
1202.232800
 20
1300.448569
 30
0.0
  0
SPLINE
  5
115
100
AcDbEntity
  8
Taso_1
 62
7
100
AcDbSpline
 70
8
 71
3
 72
8
 73
4
 74
0
 40
0
 40
0
 40
0
 40
0
 40
1
 40
1
 40
1
 40
1
 10
1202.232800
 20
1300.448569
 30
0.0
 10
1222.836320
 20
1311.021449
 30
0.0
 10
1246.151040
 20
1316.307929
 30
0.0
 10
1272.176560
 20
1316.307929
 30
0.0
  0
SPLINE
  5
116
100
AcDbEntity
  8
Taso_1
 62
7
100
AcDbSpline
 70
8
 71
3
 72
8
 73
4
 74
0
 40
0
 40
0
 40
0
 40
0
 40
1
 40
1
 40
1
 40
1
 10
1272.176560
 20
1316.307929
 30
0.0
 10
1294.677760
 20
1316.307929
 30
0.0
 10
1315.011360
 20
1313.054969
 30
0.0
 10
1333.175040
 20
1306.548569
 30
0.0
  0
SPLINE
  5
117
100
AcDbEntity
  8
Taso_1
 62
7
100
AcDbSpline
 70
8
 71
3
 72
8
 73
4
 74
0
 40
0
 40
0
 40
0
 40
0
 40
1
 40
1
 40
1
 40
1
 10
1333.175040
 20
1306.548569
 30
0.0
 10
1351.609680
 20
1300.313289
 30
0.0
 10
1367.332480
 20
1290.419209
 30
0.0
 10
1380.345280
 20
1276.864249
 30
0.0
  0
SPLINE
  5
118
100
AcDbEntity
  8
Taso_1
 62
7
100
AcDbSpline
 70
8
 71
3
 72
8
 73
4
 74
0
 40
0
 40
0
 40
0
 40
0
 40
1
 40
1
 40
1
 40
1
 10
1380.345280
 20
1276.864249
 30
0.0
 10
1393.358080
 20
1263.309289
 30
0.0
 10
1403.388880
 20
1245.958409
 30
0.0
 10
1410.437520
 20
1224.812649
 30
0.0
  0
SPLINE
  5
119
100
AcDbEntity
  8
Taso_1
 62
7
100
AcDbSpline
 70
8
 71
3
 72
8
 73
4
 74
0
 40
0
 40
0
 40
0
 40
0
 40
1
 40
1
 40
1
 40
1
 10
1410.437520
 20
1224.812649
 30
0.0
 10
1417.486080
 20
1203.938009
 30
0.0
 10
1421.010960
 20
1178.861689
 30
0.0
 10
1421.010960
 20
1149.582969
 30
0.0
  0
LWPOLYLINE
  5
11a
100
AcDbEntity
  8
Taso_1
 62
7
100
AcDbPolyline
 90
2
 70
0
 10
1144.895280
 20
1249.617369
 30
0.0
 10
1151.401600
 20
1249.617369
 30
0.0
  0
SPLINE
  5
11b
100
AcDbEntity
  8
Taso_1
 62
7
100
AcDbSpline
 70
8
 71
3
 72
8
 73
4
 74
0
 40
0
 40
0
 40
0
 40
0
 40
1
 40
1
 40
1
 40
1
 10
1296.982800
 20
1118.676729
 30
0.0
 10
1296.982800
 20
1151.479769
 30
0.0
 10
1291.831440
 20
1176.013849
 30
0.0
 10
1281.529680
 20
1192.279849
 30
0.0
  0
SPLINE
  5
11c
100
AcDbEntity
  8
Taso_1
 62
7
100
AcDbSpline
 70
8
 71
3
 72
8
 73
4
 74
0
 40
0
 40
0
 40
0
 40
0
 40
1
 40
1
 40
1
 40
1
 10
1281.529680
 20
1192.279849
 30
0.0
 10
1271.499040
 20
1208.816889
 30
0.0
 10
1255.911440
 20
1217.086089
 30
0.0
 10
1234.765600
 20
1217.086089
 30
0.0
  0
SPLINE
  5
11d
100
AcDbEntity
  8
Taso_1
 62
7
100
AcDbSpline
 70
8
 71
3
 72
8
 73
4
 74
0
 40
0
 40
0
 40
0
 40
0
 40
1
 40
1
 40
1
 40
1
 10
1234.765600
 20
1217.086089
 30
0.0
 10
1218.770800
 20
1217.086089
 30
0.0
 10
1205.350240
 20
1213.833129
 30
0.0
 10
1194.506240
 20
1207.326729
 30
0.0
  0
SPLINE
  5
11e
100
AcDbEntity
  8
Taso_1
 62
7
100
AcDbSpline
 70
8
 71
3
 72
8
 73
4
 74
0
 40
0
 40
0
 40
0
 40
0
 40
1
 40
1
 40
1
 40
1
 10
1194.506240
 20
1207.326729
 30
0.0
 10
1183.662320
 20
1200.820329
 30
0.0
 10
1174.987680
 20
1191.196489
 30
0.0
 10
1168.481280
 20
1178.454809
 30
0.0
  0
SPLINE
  5
11f
100
AcDbEntity
  8
Taso_1
 62
7
100
AcDbSpline
 70
8
 71
3
 72
8
 73
4
 74
0
 40
0
 40
0
 40
0
 40
0
 40
1
 40
1
 40
1
 40
1
 10
1168.481280
 20
1178.454809
 30
0.0
 10
1161.974880
 20
1165.713209
 30
0.0
 10
1157.365760
 20
1149.988809
 30
0.0
 10
1154.654720
 20
1131.282969
 30
0.0
  0
SPLINE
  5
120
100
AcDbEntity
  8
Taso_1
 62
7
100
AcDbSpline
 70
8
 71
3
 72
8
 73
4
 74
0
 40
0
 40
0
 40
0
 40
0
 40
1
 40
1
 40
1
 40
1
 10
1154.654720
 20
1131.282969
 30
0.0
 10
1151.943680
 20
1112.577129
 30
0.0
 10
1150.589040
 20
1091.160809
 30
0.0
 10
1150.589040
 20
1067.032969
 30
0.0
  0
LWPOLYLINE
  5
121
100
AcDbEntity
  8
Taso_1
 62
7
100
AcDbPolyline
 90
4
 70
0
 10
1421.010960
 20
1149.582969
 30
0.0
 10
1421.010960
 20
853.134489
 30
0.0
 10
1296.982800
 20
853.134489
 30
0.0
 10
1296.982800
 20
1118.676729
 30
0.0
  0
LWPOLYLINE
  5
122
100
AcDbEntity
  8
Taso_1
 62
7
100
AcDbPolyline
 90
5
 70
0
 10
1150.589040
 20
1067.032969
 30
0.0
 10
1150.589040
 20
853.134489
 30
0.0
 10
1026.560960
 20
853.134489
 30
0.0
 10
1026.560960
 20
1485.881369
 30
0.0
 10
1026.560960
 20
1485.881369
 30
0.0
  0
LWPOLYLINE
  5
123
100
AcDbEntity
  8
Taso_1
 62
7
100
AcDbPolyline
 90
17
 70
0
 10
2441.700000
 20
1485.881369
 30
0.0
 10
2565.728160
 20
1485.881369
 30
0.0
 10
2565.728160
 20
1203.667369
 30
0.0
 10
2559.221840
 20
1100.378249
 30
0.0
 10
2560.848400
 20
1100.378249
 30
0.0
 10
2606.392160
 20
1169.507929
 30
0.0
 10
2717.407840
 20
1307.768889
 30
0.0
 10
2857.295280
 20
1307.768889
 30
0.0
 10
2693.009360
 20
1110.543929
 30
0.0
 10
2867.867200
 20
853.134489
 30
0.0
 10
2724.728160
 20
853.134489
 30
0.0
 10
2614.118720
 20
1027.993929
 30
0.0
 10
2565.728160
 20
994.648569
 30
0.0
 10
2565.728160
 20
853.134489
 30
0.0
 10
2441.700000
 20
853.134489
 30
0.0
 10
2441.700000
 20
1485.881369
 30
0.0
 10
2441.700000
 20
1485.881369
 30
0.0
  0
LWPOLYLINE
  5
124
100
AcDbEntity
  8
Taso_1
 62
7
100
AcDbPolyline
 90
6
 70
0
 10
2932.931280
 20
1485.881369
 30
0.0
 10
3056.959360
 20
1485.881369
 30
0.0
 10
3056.959360
 20
853.134489
 30
0.0
 10
2932.931280
 20
853.134489
 30
0.0
 10
2932.931280
 20
1485.881369
 30
0.0
 10
2932.931280
 20
1485.881369
 30
0.0
  0
SPLINE
  5
125
100
AcDbEntity
  8
Taso_1
 62
7
100
AcDbSpline
 70
8
 71
3
 72
8
 73
4
 74
0
 40
0
 40
0
 40
0
 40
0
 40
1
 40
1
 40
1
 40
1
 10
3788.928160
 20
1338.673609
 30
0.0
 10
3788.928160
 20
1329.727289
 30
0.0
 10
3788.656320
 20
1319.968329
 30
0.0
 10
3788.114080
 20
1309.395449
 30
0.0
  0
SPLINE
  5
126
100
AcDbEntity
  8
Taso_1
 62
7
100
AcDbSpline
 70
8
 71
3
 72
8
 73
4
 74
0
 40
0
 40
0
 40
0
 40
0
 40
1
 40
1
 40
1
 40
1
 10
3788.114080
 20
1309.395449
 30
0.0
 10
3787.571760
 20
1299.093689
 30
0.0
 10
3787.029600
 20
1289.469849
 30
0.0
 10
3786.487520
 20
1280.523609
 30
0.0
  0
SPLINE
  5
127
100
AcDbEntity
  8
Taso_1
 62
7
100
AcDbSpline
 70
8
 71
3
 72
8
 73
4
 74
0
 40
0
 40
0
 40
0
 40
0
 40
1
 40
1
 40
1
 40
1
 10
3786.487520
 20
1280.523609
 30
0.0
 10
3785.674160
 20
1269.950729
 30
0.0
 10
3784.861680
 20
1259.377689
 30
0.0
 10
3784.048400
 20
1248.804809
 30
0.0
  0
LWPOLYLINE
  5
128
100
AcDbEntity
  8
Taso_1
 62
7
100
AcDbPolyline
 90
3
 70
0
 10
3664.900000
 20
1485.881369
 30
0.0
 10
3788.928160
 20
1485.881369
 30
0.0
 10
3788.928160
 20
1338.673609
 30
0.0
  0
SPLINE
  5
129
100
AcDbEntity
  8
Taso_1
 62
7
100
AcDbSpline
 70
8
 71
3
 72
8
 73
4
 74
0
 40
0
 40
0
 40
0
 40
0
 40
1
 40
1
 40
1
 40
1
 10
3788.928160
 20
1248.804809
 30
0.0
 10
3794.621200
 20
1258.293289
 30
0.0
 10
3801.127120
 20
1267.103129
 30
0.0
 10
3808.446880
 20
1275.236089
 30
0.0
  0
SPLINE
  5
12a
100
AcDbEntity
  8
Taso_1
 62
7
100
AcDbSpline
 70
8
 71
3
 72
8
 73
4
 74
0
 40
0
 40
0
 40
0
 40
0
 40
1
 40
1
 40
1
 40
1
 10
3808.446880
 20
1275.236089
 30
0.0
 10
3815.766480
 20
1283.369049
 30
0.0
 10
3824.170880
 20
1290.418809
 30
0.0
 10
3833.659360
 20
1296.382969
 30
0.0
  0
SPLINE
  5
12b
100
AcDbEntity
  8
Taso_1
 62
7
100
AcDbSpline
 70
8
 71
3
 72
8
 73
4
 74
0
 40
0
 40
0
 40
0
 40
0
 40
1
 40
1
 40
1
 40
1
 10
3833.659360
 20
1296.382969
 30
0.0
 10
3843.418960
 20
1302.618249
 30
0.0
 10
3854.398960
 20
1307.497769
 30
0.0
 10
3866.598400
 20
1311.022009
 30
0.0
  0
SPLINE
  5
12c
100
AcDbEntity
  8
Taso_1
 62
7
100
AcDbSpline
 70
8
 71
3
 72
8
 73
4
 74
0
 40
0
 40
0
 40
0
 40
0
 40
1
 40
1
 40
1
 40
1
 10
3866.598400
 20
1311.022009
 30
0.0
 10
3878.797920
 20
1314.546329
 30
0.0
 10
3892.352080
 20
1316.307929
 30
0.0
 10
3907.262480
 20
1316.307929
 30
0.0
  0
SPLINE
  5
12d
100
AcDbEntity
  8
Taso_1
 62
7
100
AcDbSpline
 70
8
 71
3
 72
8
 73
4
 74
0
 40
0
 40
0
 40
0
 40
0
 40
1
 40
1
 40
1
 40
1
 10
3907.262480
 20
1316.307929
 30
0.0
 10
3930.577040
 20
1316.307929
 30
0.0
 10
3951.858160
 20
1311.293369
 30
0.0
 10
3971.106240
 20
1301.262649
 30
0.0
  0
SPLINE
  5
12e
100
AcDbEntity
  8
Taso_1
 62
7
100
AcDbSpline
 70
8
 71
3
 72
8
 73
4
 74
0
 40
0
 40
0
 40
0
 40
0
 40
1
 40
1
 40
1
 40
1
 10
3971.106240
 20
1301.262649
 30
0.0
 10
3990.354320
 20
1291.232009
 30
0.0
 10
4006.891120
 20
1276.321689
 30
0.0
 10
4020.717200
 20
1256.531369
 30
0.0
  0
SPLINE
  5
12f
100
AcDbEntity
  8
Taso_1
 62
7
100
AcDbSpline
 70
8
 71
3
 72
8
 73
4
 74
0
 40
0
 40
0
 40
0
 40
0
 40
1
 40
1
 40
1
 40
1
 10
4020.717200
 20
1256.531369
 30
0.0
 10
4034.543200
 20
1236.741129
 30
0.0
 10
4045.252960
 20
1212.207049
 30
0.0
 10
4052.843760
 20
1182.928249
 30
0.0
  0
SPLINE
  5
130
100
AcDbEntity
  8
Taso_1
 62
7
100
AcDbSpline
 70
8
 71
3
 72
8
 73
4
 74
0
 40
0
 40
0
 40
0
 40
0
 40
1
 40
1
 40
1
 40
1
 10
4052.843760
 20
1182.928249
 30
0.0
 10
4060.705600
 20
1153.649529
 30
0.0
 10
4064.635920
 20
1119.761929
 30
0.0
 10
4064.635920
 20
1081.265769
 30
0.0
  0
SPLINE
  5
131
100
AcDbEntity
  8
Taso_1
 62
7
100
AcDbSpline
 70
8
 71
3
 72
8
 73
4
 74
0
 40
0
 40
0
 40
0
 40
0
 40
1
 40
1
 40
1
 40
1
 10
4064.635920
 20
1081.265769
 30
0.0
 10
4064.635920
 20
1042.227529
 30
0.0
 10
4060.705600
 20
1007.932809
 30
0.0
 10
4052.843760
 20
978.382969
 30
0.0
  0
SPLINE
  5
132
100
AcDbEntity
  8
Taso_1
 62
7
100
AcDbSpline
 70
8
 71
3
 72
8
 73
4
 74
0
 40
0
 40
0
 40
0
 40
0
 40
1
 40
1
 40
1
 40
1
 10
4052.843760
 20
978.382969
 30
0.0
 10
4045.252960
 20
949.104249
 30
0.0
 10
4034.408080
 20
924.570089
 30
0.0
 10
4020.310960
 20
904.779849
 30
0.0
  0
SPLINE
  5
133
100
AcDbEntity
  8
Taso_1
 62
7
100
AcDbSpline
 70
8
 71
3
 72
8
 73
4
 74
0
 40
0
 40
0
 40
0
 40
0
 40
1
 40
1
 40
1
 40
1
 10
4020.310960
 20
904.779849
 30
0.0
 10
4006.213840
 20
884.989609
 30
0.0
 10
3989.270000
 20
870.079289
 30
0.0
 10
3969.479680
 20
860.048569
 30
0.0
  0
SPLINE
  5
134
100
AcDbEntity
  8
Taso_1
 62
7
100
AcDbSpline
 70
8
 71
3
 72
8
 73
4
 74
0
 40
0
 40
0
 40
0
 40
0
 40
1
 40
1
 40
1
 40
1
 10
3969.479680
 20
860.048569
 30
0.0
 10
3949.689440
 20
850.017929
 30
0.0
 10
3927.866080
 20
845.001689
 30
0.0
 10
3904.009360
 20
845.001689
 30
0.0
  0
SPLINE
  5
135
100
AcDbEntity
  8
Taso_1
 62
7
100
AcDbSpline
 70
8
 71
3
 72
8
 73
4
 74
0
 40
0
 40
0
 40
0
 40
0
 40
1
 40
1
 40
1
 40
1
 10
3904.009360
 20
845.001689
 30
0.0
 10
3888.827760
 20
845.001689
 30
0.0
 10
3875.273760
 20
846.628249
 30
0.0
 10
3863.345280
 20
849.881369
 30
0.0
  0
SPLINE
  5
136
100
AcDbEntity
  8
Taso_1
 62
7
100
AcDbSpline
 70
8
 71
3
 72
8
 73
4
 74
0
 40
0
 40
0
 40
0
 40
0
 40
1
 40
1
 40
1
 40
1
 10
3863.345280
 20
849.881369
 30
0.0
 10
3851.688160
 20
853.134569
 30
0.0
 10
3841.250160
 20
857.473449
 30
0.0
 10
3832.032800
 20
862.895449
 30
0.0
  0
SPLINE
  5
137
100
AcDbEntity
  8
Taso_1
 62
7
100
AcDbSpline
 70
8
 71
3
 72
8
 73
4
 74
0
 40
0
 40
0
 40
0
 40
0
 40
1
 40
1
 40
1
 40
1
 10
3832.032800
 20
862.895449
 30
0.0
 10
3822.815360
 20
868.317449
 30
0.0
 10
3814.682880
 20
874.416409
 30
0.0
 10
3807.634400
 20
881.193929
 30
0.0
  0
SPLINE
  5
138
100
AcDbEntity
  8
Taso_1
 62
7
100
AcDbSpline
 70
8
 71
3
 72
8
 73
4
 74
0
 40
0
 40
0
 40
0
 40
0
 40
1
 40
1
 40
1
 40
1
 10
3807.634400
 20
881.193929
 30
0.0
 10
3800.856800
 20
888.242489
 30
0.0
 10
3794.621200
 20
895.562489
 30
0.0
 10
3788.928160
 20
903.153289
 30
0.0
  0
LWPOLYLINE
  5
139
100
AcDbEntity
  8
Taso_1
 62
7
100
AcDbPolyline
 90
2
 70
0
 10
3784.048400
 20
1248.804809
 30
0.0
 10
3788.928160
 20
1248.804809
 30
0.0
  0
SPLINE
  5
13a
100
AcDbEntity
  8
Taso_1
 62
7
100
AcDbSpline
 70
8
 71
3
 72
8
 73
4
 74
0
 40
0
 40
0
 40
0
 40
0
 40
1
 40
1
 40
1
 40
1
 10
4792.537520
 20
1485.881369
 30
0.0
 10
4801.754800
 20
1485.881369
 30
0.0
 10
4810.431040
 20
1484.932249
 30
0.0
 10
4818.564080
 20
1483.034489
 30
0.0
  0
SPLINE
  5
13b
100
AcDbEntity
  8
Taso_1
 62
7
100
AcDbSpline
 70
8
 71
3
 72
8
 73
4
 74
0
 40
0
 40
0
 40
0
 40
0
 40
1
 40
1
 40
1
 40
1
 10
4818.564080
 20
1483.034489
 30
0.0
 10
4826.697040
 20
1481.136889
 30
0.0
 10
4833.745200
 20
1477.748729
 30
0.0
 10
4839.709360
 20
1472.868889
 30
0.0
  0
SPLINE
  5
13c
100
AcDbEntity
  8
Taso_1
 62
7
100
AcDbSpline
 70
8
 71
3
 72
8
 73
4
 74
0
 40
0
 40
0
 40
0
 40
0
 40
1
 40
1
 40
1
 40
1
 10
4839.709360
 20
1472.868889
 30
0.0
 10
4845.944720
 20
1468.260249
 30
0.0
 10
4850.824160
 20
1462.024569
 30
0.0
 10
4854.348400
 20
1454.162649
 30
0.0
  0
SPLINE
  5
13d
100
AcDbEntity
  8
Taso_1
 62
7
100
AcDbSpline
 70
8
 71
3
 72
8
 73
4
 74
0
 40
0
 40
0
 40
0
 40
0
 40
1
 40
1
 40
1
 40
1
 10
4854.348400
 20
1454.162649
 30
0.0
 10
4858.143840
 20
1446.571849
 30
0.0
 10
4860.042160
 20
1436.948089
 30
0.0
 10
4860.042160
 20
1425.290809
 30
0.0
  0
SPLINE
  5
13e
100
AcDbEntity
  8
Taso_1
 62
7
100
AcDbSpline
 70
8
 71
3
 72
8
 73
4
 74
0
 40
0
 40
0
 40
0
 40
0
 40
1
 40
1
 40
1
 40
1
 10
4860.042160
 20
1425.290809
 30
0.0
 10
4860.042160
 20
1413.904649
 30
0.0
 10
4858.143840
 20
1404.280809
 30
0.0
 10
4854.348400
 20
1396.418889
 30
0.0
  0
SPLINE
  5
13f
100
AcDbEntity
  8
Taso_1
 62
7
100
AcDbSpline
 70
8
 71
3
 72
8
 73
4
 74
0
 40
0
 40
0
 40
0
 40
0
 40
1
 40
1
 40
1
 40
1
 10
4854.348400
 20
1396.418889
 30
0.0
 10
4850.824160
 20
1388.557049
 30
0.0
 10
4845.944720
 20
1382.186169
 30
0.0
 10
4839.709360
 20
1377.306409
 30
0.0
  0
SPLINE
  5
140
100
AcDbEntity
  8
Taso_1
 62
7
100
AcDbSpline
 70
8
 71
3
 72
8
 73
4
 74
0
 40
0
 40
0
 40
0
 40
0
 40
1
 40
1
 40
1
 40
1
 10
4839.709360
 20
1377.306409
 30
0.0
 10
4833.745200
 20
1372.697689
 30
0.0
 10
4826.697040
 20
1369.308009
 30
0.0
 10
4818.564080
 20
1367.139209
 30
0.0
  0
SPLINE
  5
141
100
AcDbEntity
  8
Taso_1
 62
7
100
AcDbSpline
 70
8
 71
3
 72
8
 73
4
 74
0
 40
0
 40
0
 40
0
 40
0
 40
1
 40
1
 40
1
 40
1
 10
4818.564080
 20
1367.139209
 30
0.0
 10
4810.431040
 20
1365.241529
 30
0.0
 10
4801.754800
 20
1364.292329
 30
0.0
 10
4792.537520
 20
1364.292329
 30
0.0
  0
SPLINE
  5
142
100
AcDbEntity
  8
Taso_1
 62
7
100
AcDbSpline
 70
8
 71
3
 72
8
 73
4
 74
0
 40
0
 40
0
 40
0
 40
0
 40
1
 40
1
 40
1
 40
1
 10
4792.537520
 20
1364.292329
 30
0.0
 10
4783.320080
 20
1364.292329
 30
0.0
 10
4774.510320
 20
1365.241529
 30
0.0
 10
4766.106240
 20
1367.139209
 30
0.0
  0
SPLINE
  5
143
100
AcDbEntity
  8
Taso_1
 62
7
100
AcDbSpline
 70
8
 71
3
 72
8
 73
4
 74
0
 40
0
 40
0
 40
0
 40
0
 40
1
 40
1
 40
1
 40
1
 10
4766.106240
 20
1367.139209
 30
0.0
 10
4757.973200
 20
1369.308009
 30
0.0
 10
4750.788400
 20
1372.697689
 30
0.0
 10
4744.553120
 20
1377.306409
 30
0.0
  0
SPLINE
  5
144
100
AcDbEntity
  8
Taso_1
 62
7
100
AcDbSpline
 70
8
 71
3
 72
8
 73
4
 74
0
 40
0
 40
0
 40
0
 40
0
 40
1
 40
1
 40
1
 40
1
 10
4744.553120
 20
1377.306409
 30
0.0
 10
4738.588880
 20
1382.186169
 30
0.0
 10
4733.844560
 20
1388.557049
 30
0.0
 10
4730.320320
 20
1396.418889
 30
0.0
  0
SPLINE
  5
145
100
AcDbEntity
  8
Taso_1
 62
7
100
AcDbSpline
 70
8
 71
3
 72
8
 73
4
 74
0
 40
0
 40
0
 40
0
 40
0
 40
1
 40
1
 40
1
 40
1
 10
4730.320320
 20
1396.418889
 30
0.0
 10
4726.796000
 20
1404.280809
 30
0.0
 10
4725.034400
 20
1413.904649
 30
0.0
 10
4725.034400
 20
1425.290809
 30
0.0
  0
SPLINE
  5
146
100
AcDbEntity
  8
Taso_1
 62
7
100
AcDbSpline
 70
8
 71
3
 72
8
 73
4
 74
0
 40
0
 40
0
 40
0
 40
0
 40
1
 40
1
 40
1
 40
1
 10
4725.034400
 20
1425.290809
 30
0.0
 10
4725.034400
 20
1436.948089
 30
0.0
 10
4726.796000
 20
1446.571849
 30
0.0
 10
4730.320320
 20
1454.162649
 30
0.0
  0
SPLINE
  5
147
100
AcDbEntity
  8
Taso_1
 62
7
100
AcDbSpline
 70
8
 71
3
 72
8
 73
4
 74
0
 40
0
 40
0
 40
0
 40
0
 40
1
 40
1
 40
1
 40
1
 10
4730.320320
 20
1454.162649
 30
0.0
 10
4733.844560
 20
1462.024569
 30
0.0
 10
4738.588880
 20
1468.260249
 30
0.0
 10
4744.553120
 20
1472.868889
 30
0.0
  0
SPLINE
  5
148
100
AcDbEntity
  8
Taso_1
 62
7
100
AcDbSpline
 70
8
 71
3
 72
8
 73
4
 74
0
 40
0
 40
0
 40
0
 40
0
 40
1
 40
1
 40
1
 40
1
 10
4744.553120
 20
1472.868889
 30
0.0
 10
4750.788400
 20
1477.748729
 30
0.0
 10
4757.973200
 20
1481.136889
 30
0.0
 10
4766.106240
 20
1483.034489
 30
0.0
  0
SPLINE
  5
149
100
AcDbEntity
  8
Taso_1
 62
7
100
AcDbSpline
 70
8
 71
3
 72
8
 73
4
 74
0
 40
0
 40
0
 40
0
 40
0
 40
1
 40
1
 40
1
 40
1
 10
4766.106240
 20
1483.034489
 30
0.0
 10
4774.510320
 20
1484.932249
 30
0.0
 10
4783.320080
 20
1485.881369
 30
0.0
 10
4792.537520
 20
1485.881369
 30
0.0
  0
LWPOLYLINE
  5
14a
100
AcDbEntity
  8
Taso_1
 62
7
100
AcDbPolyline
 90
6
 70
0
 10
3788.928160
 20
903.153289
 30
0.0
 10
3780.389040
 20
903.153289
 30
0.0
 10
3759.648400
 20
853.134489
 30
0.0
 10
3664.900000
 20
853.134489
 30
0.0
 10
3664.900000
 20
1485.881369
 30
0.0
 10
3664.900000
 20
1485.881369
 30
0.0
  0
SPLINE
  5
14b
100
AcDbEntity
  8
Taso_1
 62
7
100
AcDbSpline
 70
8
 71
3
 72
8
 73
4
 74
0
 40
0
 40
0
 40
0
 40
0
 40
1
 40
1
 40
1
 40
1
 10
1723.557840
 20
1317.122009
 30
0.0
 10
1780.217600
 20
1317.122009
 30
0.0
 10
1823.592400
 20
1303.838169
 30
0.0
 10
1853.684400
 20
1277.270489
 30
0.0
  0
SPLINE
  5
14c
100
AcDbEntity
  8
Taso_1
 62
7
100
AcDbSpline
 70
8
 71
3
 72
8
 73
4
 74
0
 40
0
 40
0
 40
0
 40
0
 40
1
 40
1
 40
1
 40
1
 10
1853.684400
 20
1277.270489
 30
0.0
 10
1884.047440
 20
1250.702729
 30
0.0
 10
1899.229680
 20
1210.309129
 30
0.0
 10
1899.229680
 20
1156.089209
 30
0.0
  0
LWPOLYLINE
  5
14d
100
AcDbEntity
  8
Taso_1
 62
7
100
AcDbPolyline
 90
2
 70
0
 10
4792.537520
 20
1485.881369
 30
0.0
 10
4792.537520
 20
1485.881369
 30
0.0
  0
SPLINE
  5
14e
100
AcDbEntity
  8
Taso_1
 62
7
100
AcDbSpline
 70
8
 71
3
 72
8
 73
4
 74
0
 40
0
 40
0
 40
0
 40
0
 40
1
 40
1
 40
1
 40
1
 10
1784.960960
 20
914.945449
 30
0.0
 10
1776.014720
 20
902.746009
 30
0.0
 10
1767.068160
 20
892.172969
 30
0.0
 10
1758.121840
 20
883.226729
 30
0.0
  0
SPLINE
  5
14f
100
AcDbEntity
  8
Taso_1
 62
7
100
AcDbSpline
 70
8
 71
3
 72
8
 73
4
 74
0
 40
0
 40
0
 40
0
 40
0
 40
1
 40
1
 40
1
 40
1
 10
1758.121840
 20
883.226729
 30
0.0
 10
1749.175600
 20
874.551529
 30
0.0
 10
1739.416640
 20
867.368249
 30
0.0
 10
1728.843760
 20
861.675129
 30
0.0
  0
SPLINE
  5
150
100
AcDbEntity
  8
Taso_1
 62
7
100
AcDbSpline
 70
8
 71
3
 72
8
 73
4
 74
0
 40
0
 40
0
 40
0
 40
0
 40
1
 40
1
 40
1
 40
1
 10
1728.843760
 20
861.675129
 30
0.0
 10
1718.270880
 20
855.982009
 30
0.0
 10
1706.343280
 20
851.779849
 30
0.0
 10
1693.059360
 20
849.068889
 30
0.0
  0
SPLINE
  5
151
100
AcDbEntity
  8
Taso_1
 62
7
100
AcDbSpline
 70
8
 71
3
 72
8
 73
4
 74
0
 40
0
 40
0
 40
0
 40
0
 40
1
 40
1
 40
1
 40
1
 10
1693.059360
 20
849.068889
 30
0.0
 10
1680.046720
 20
846.357929
 30
0.0
 10
1664.864480
 20
845.001689
 30
0.0
 10
1647.514080
 20
845.001689
 30
0.0
  0
SPLINE
  5
152
100
AcDbEntity
  8
Taso_1
 62
7
100
AcDbSpline
 70
8
 71
3
 72
8
 73
4
 74
0
 40
0
 40
0
 40
0
 40
0
 40
1
 40
1
 40
1
 40
1
 10
1647.514080
 20
845.001689
 30
0.0
 10
1629.079360
 20
845.001689
 30
0.0
 10
1612.000320
 20
847.849289
 30
0.0
 10
1596.276560
 20
853.542329
 30
0.0
  0
SPLINE
  5
153
100
AcDbEntity
  8
Taso_1
 62
7
100
AcDbSpline
 70
8
 71
3
 72
8
 73
4
 74
0
 40
0
 40
0
 40
0
 40
0
 40
1
 40
1
 40
1
 40
1
 10
1596.276560
 20
853.542329
 30
0.0
 10
1580.552800
 20
859.506569
 30
0.0
 10
1566.862000
 20
868.316409
 30
0.0
 10
1555.204720
 20
879.973609
 30
0.0
  0
SPLINE
  5
154
100
AcDbEntity
  8
Taso_1
 62
7
100
AcDbSpline
 70
8
 71
3
 72
8
 73
4
 74
0
 40
0
 40
0
 40
0
 40
0
 40
1
 40
1
 40
1
 40
1
 10
1555.204720
 20
879.973609
 30
0.0
 10
1543.818560
 20
891.902009
 30
0.0
 10
1534.872000
 20
906.812249
 30
0.0
 10
1528.365600
 20
924.704809
 30
0.0
  0
SPLINE
  5
155
100
AcDbEntity
  8
Taso_1
 62
7
100
AcDbSpline
 70
8
 71
3
 72
8
 73
4
 74
0
 40
0
 40
0
 40
0
 40
0
 40
1
 40
1
 40
1
 40
1
 10
1528.365600
 20
924.704809
 30
0.0
 10
1521.859200
 20
942.868489
 30
0.0
 10
1518.606240
 20
964.286329
 30
0.0
 10
1518.606240
 20
988.956409
 30
0.0
  0
SPLINE
  5
156
100
AcDbEntity
  8
Taso_1
 62
7
100
AcDbSpline
 70
8
 71
3
 72
8
 73
4
 74
0
 40
0
 40
0
 40
0
 40
0
 40
1
 40
1
 40
1
 40
1
 10
1518.606240
 20
988.956409
 30
0.0
 10
1518.606240
 20
1037.212089
 30
0.0
 10
1534.058720
 20
1072.726249
 30
0.0
 10
1564.964080
 20
1095.498569
 30
0.0
  0
SPLINE
  5
157
100
AcDbEntity
  8
Taso_1
 62
7
100
AcDbSpline
 70
8
 71
3
 72
8
 73
4
 74
0
 40
0
 40
0
 40
0
 40
0
 40
1
 40
1
 40
1
 40
1
 10
1564.964080
 20
1095.498569
 30
0.0
 10
1595.869360
 20
1118.542009
 30
0.0
 10
1642.091600
 20
1131.283689
 30
0.0
 10
1703.631280
 20
1133.723609
 30
0.0
  0
LWPOLYLINE
  5
158
100
AcDbEntity
  8
Taso_1
 62
7
100
AcDbPolyline
 90
5
 70
0
 10
1899.229680
 20
1156.089209
 30
0.0
 10
1899.229680
 20
853.134489
 30
0.0
 10
1812.614080
 20
853.134489
 30
0.0
 10
1788.621840
 20
914.945449
 30
0.0
 10
1784.960960
 20
914.945449
 30
0.0
  0
SPLINE
  5
159
100
AcDbEntity
  8
Taso_1
 62
7
100
AcDbSpline
 70
8
 71
3
 72
8
 73
4
 74
0
 40
0
 40
0
 40
0
 40
0
 40
1
 40
1
 40
1
 40
1
 10
1776.015600
 20
1170.322009
 30
0.0
 10
1776.015600
 20
1189.027929
 30
0.0
 10
1770.592400
 20
1202.853849
 30
0.0
 10
1759.748400
 20
1211.800169
 30
0.0
  0
SPLINE
  5
15a
100
AcDbEntity
  8
Taso_1
 62
7
100
AcDbSpline
 70
8
 71
3
 72
8
 73
4
 74
0
 40
0
 40
0
 40
0
 40
0
 40
1
 40
1
 40
1
 40
1
 10
1759.748400
 20
1211.800169
 30
0.0
 10
1748.904480
 20
1220.746409
 30
0.0
 10
1733.723840
 20
1225.218889
 30
0.0
 10
1714.204720
 20
1225.218889
 30
0.0
  0
SPLINE
  5
15b
100
AcDbEntity
  8
Taso_1
 62
7
100
AcDbSpline
 70
8
 71
3
 72
8
 73
4
 74
0
 40
0
 40
0
 40
0
 40
0
 40
1
 40
1
 40
1
 40
1
 10
1714.204720
 20
1225.218889
 30
0.0
 10
1694.685520
 20
1225.218889
 30
0.0
 10
1675.573040
 20
1222.372969
 30
0.0
 10
1656.867200
 20
1216.679849
 30
0.0
  0
SPLINE
  5
15c
100
AcDbEntity
  8
Taso_1
 62
7
100
AcDbSpline
 70
8
 71
3
 72
8
 73
4
 74
0
 40
0
 40
0
 40
0
 40
0
 40
1
 40
1
 40
1
 40
1
 10
1656.867200
 20
1216.679849
 30
0.0
 10
1638.432400
 20
1210.986729
 30
0.0
 10
1619.862080
 20
1203.394889
 30
0.0
 10
1601.156240
 20
1193.906409
 30
0.0
  0
LWPOLYLINE
  5
15d
100
AcDbEntity
  8
Taso_1
 62
7
100
AcDbPolyline
 90
3
 70
0
 10
1703.631280
 20
1133.723609
 30
0.0
 10
1776.015600
 20
1136.162649
 30
0.0
 10
1776.015600
 20
1170.322009
 30
0.0
  0
SPLINE
  5
15e
100
AcDbEntity
  8
Taso_1
 62
7
100
AcDbSpline
 70
8
 71
3
 72
8
 73
4
 74
0
 40
0
 40
0
 40
0
 40
0
 40
1
 40
1
 40
1
 40
1
 10
1560.898400
 20
1276.050169
 30
0.0
 10
1583.670800
 20
1288.791849
 30
0.0
 10
1608.882240
 20
1298.822649
 30
0.0
 10
1636.534400
 20
1306.142329
 30
0.0
  0
SPLINE
  5
15f
100
AcDbEntity
  8
Taso_1
 62
7
100
AcDbSpline
 70
8
 71
3
 72
8
 73
4
 74
0
 40
0
 40
0
 40
0
 40
0
 40
1
 40
1
 40
1
 40
1
 10
1636.534400
 20
1306.142329
 30
0.0
 10
1664.186560
 20
1313.462009
 30
0.0
 10
1693.194640
 20
1317.122009
 30
0.0
 10
1723.557840
 20
1317.122009
 30
0.0
  0
LWPOLYLINE
  5
160
100
AcDbEntity
  8
Taso_1
 62
7
100
AcDbPolyline
 90
2
 70
0
 10
1601.156240
 20
1193.906409
 30
0.0
 10
1560.898400
 20
1276.050169
 30
0.0
  0
SPLINE
  5
161
100
AcDbEntity
  8
Taso_1
 62
7
100
AcDbSpline
 70
8
 71
3
 72
8
 73
4
 74
0
 40
0
 40
0
 40
0
 40
0
 40
1
 40
1
 40
1
 40
1
 10
3361.539040
 20
1317.122009
 30
0.0
 10
3418.198880
 20
1317.122009
 30
0.0
 10
3461.575200
 20
1303.838169
 30
0.0
 10
3491.667200
 20
1277.270489
 30
0.0
  0
SPLINE
  5
162
100
AcDbEntity
  8
Taso_1
 62
7
100
AcDbSpline
 70
8
 71
3
 72
8
 73
4
 74
0
 40
0
 40
0
 40
0
 40
0
 40
1
 40
1
 40
1
 40
1
 10
3491.667200
 20
1277.270489
 30
0.0
 10
3522.030320
 20
1250.702729
 30
0.0
 10
3537.212480
 20
1210.309129
 30
0.0
 10
3537.212480
 20
1156.089209
 30
0.0
  0
LWPOLYLINE
  5
163
100
AcDbEntity
  8
Taso_1
 62
7
100
AcDbPolyline
 90
2
 70
0
 10
1723.557840
 20
1317.122009
 30
0.0
 10
1723.557840
 20
1317.122009
 30
0.0
  0
SPLINE
  5
164
100
AcDbEntity
  8
Taso_1
 62
7
100
AcDbSpline
 70
8
 71
3
 72
8
 73
4
 74
0
 40
0
 40
0
 40
0
 40
0
 40
1
 40
1
 40
1
 40
1
 10
3422.943760
 20
914.945449
 30
0.0
 10
3413.997520
 20
902.746009
 30
0.0
 10
3405.050960
 20
892.172969
 30
0.0
 10
3396.104720
 20
883.226729
 30
0.0
  0
SPLINE
  5
165
100
AcDbEntity
  8
Taso_1
 62
7
100
AcDbSpline
 70
8
 71
3
 72
8
 73
4
 74
0
 40
0
 40
0
 40
0
 40
0
 40
1
 40
1
 40
1
 40
1
 10
3396.104720
 20
883.226729
 30
0.0
 10
3387.158320
 20
874.551529
 30
0.0
 10
3377.399360
 20
867.368249
 30
0.0
 10
3366.826560
 20
861.675129
 30
0.0
  0
SPLINE
  5
166
100
AcDbEntity
  8
Taso_1
 62
7
100
AcDbSpline
 70
8
 71
3
 72
8
 73
4
 74
0
 40
0
 40
0
 40
0
 40
0
 40
1
 40
1
 40
1
 40
1
 10
3366.826560
 20
861.675129
 30
0.0
 10
3356.253680
 20
855.982009
 30
0.0
 10
3344.324480
 20
851.779849
 30
0.0
 10
3331.040640
 20
849.068889
 30
0.0
  0
SPLINE
  5
167
100
AcDbEntity
  8
Taso_1
 62
7
100
AcDbSpline
 70
8
 71
3
 72
8
 73
4
 74
0
 40
0
 40
0
 40
0
 40
0
 40
1
 40
1
 40
1
 40
1
 10
3331.040640
 20
849.068889
 30
0.0
 10
3318.027920
 20
846.357929
 30
0.0
 10
3302.847280
 20
845.001689
 30
0.0
 10
3285.496880
 20
845.001689
 30
0.0
  0
SPLINE
  5
168
100
AcDbEntity
  8
Taso_1
 62
7
100
AcDbSpline
 70
8
 71
3
 72
8
 73
4
 74
0
 40
0
 40
0
 40
0
 40
0
 40
1
 40
1
 40
1
 40
1
 10
3285.496880
 20
845.001689
 30
0.0
 10
3267.062080
 20
845.001689
 30
0.0
 10
3249.983120
 20
847.849289
 30
0.0
 10
3234.259360
 20
853.542329
 30
0.0
  0
SPLINE
  5
169
100
AcDbEntity
  8
Taso_1
 62
7
100
AcDbSpline
 70
8
 71
3
 72
8
 73
4
 74
0
 40
0
 40
0
 40
0
 40
0
 40
1
 40
1
 40
1
 40
1
 10
3234.259360
 20
853.542329
 30
0.0
 10
3218.535600
 20
859.506569
 30
0.0
 10
3204.844800
 20
868.316409
 30
0.0
 10
3193.187520
 20
879.973609
 30
0.0
  0
SPLINE
  5
16a
100
AcDbEntity
  8
Taso_1
 62
7
100
AcDbSpline
 70
8
 71
3
 72
8
 73
4
 74
0
 40
0
 40
0
 40
0
 40
0
 40
1
 40
1
 40
1
 40
1
 10
3193.187520
 20
879.973609
 30
0.0
 10
3181.801360
 20
891.902009
 30
0.0
 10
3172.854800
 20
906.812249
 30
0.0
 10
3166.348400
 20
924.704809
 30
0.0
  0
SPLINE
  5
16b
100
AcDbEntity
  8
Taso_1
 62
7
100
AcDbSpline
 70
8
 71
3
 72
8
 73
4
 74
0
 40
0
 40
0
 40
0
 40
0
 40
1
 40
1
 40
1
 40
1
 10
3166.348400
 20
924.704809
 30
0.0
 10
3159.842000
 20
942.868489
 30
0.0
 10
3156.589040
 20
964.286329
 30
0.0
 10
3156.589040
 20
988.956409
 30
0.0
  0
SPLINE
  5
16c
100
AcDbEntity
  8
Taso_1
 62
7
100
AcDbSpline
 70
8
 71
3
 72
8
 73
4
 74
0
 40
0
 40
0
 40
0
 40
0
 40
1
 40
1
 40
1
 40
1
 10
3156.589040
 20
988.956409
 30
0.0
 10
3156.589040
 20
1037.212089
 30
0.0
 10
3172.041520
 20
1072.726249
 30
0.0
 10
3202.946880
 20
1095.498569
 30
0.0
  0
SPLINE
  5
16d
100
AcDbEntity
  8
Taso_1
 62
7
100
AcDbSpline
 70
8
 71
3
 72
8
 73
4
 74
0
 40
0
 40
0
 40
0
 40
0
 40
1
 40
1
 40
1
 40
1
 10
3202.946880
 20
1095.498569
 30
0.0
 10
3233.852160
 20
1118.542009
 30
0.0
 10
3280.074400
 20
1131.283689
 30
0.0
 10
3341.614080
 20
1133.723609
 30
0.0
  0
LWPOLYLINE
  5
16e
100
AcDbEntity
  8
Taso_1
 62
7
100
AcDbPolyline
 90
5
 70
0
 10
3537.212480
 20
1156.089209
 30
0.0
 10
3537.212480
 20
853.134489
 30
0.0
 10
3450.595280
 20
853.134489
 30
0.0
 10
3426.603120
 20
914.945449
 30
0.0
 10
3422.943760
 20
914.945449
 30
0.0
  0
SPLINE
  5
16f
100
AcDbEntity
  8
Taso_1
 62
7
100
AcDbSpline
 70
8
 71
3
 72
8
 73
4
 74
0
 40
0
 40
0
 40
0
 40
0
 40
1
 40
1
 40
1
 40
1
 10
3413.996880
 20
1170.322009
 30
0.0
 10
3413.996880
 20
1189.027929
 30
0.0
 10
3408.575200
 20
1202.853849
 30
0.0
 10
3397.731280
 20
1211.800169
 30
0.0
  0
SPLINE
  5
170
100
AcDbEntity
  8
Taso_1
 62
7
100
AcDbSpline
 70
8
 71
3
 72
8
 73
4
 74
0
 40
0
 40
0
 40
0
 40
0
 40
1
 40
1
 40
1
 40
1
 10
3397.731280
 20
1211.800169
 30
0.0
 10
3386.887280
 20
1220.746409
 30
0.0
 10
3371.706640
 20
1225.218889
 30
0.0
 10
3352.187520
 20
1225.218889
 30
0.0
  0
SPLINE
  5
171
100
AcDbEntity
  8
Taso_1
 62
7
100
AcDbSpline
 70
8
 71
3
 72
8
 73
4
 74
0
 40
0
 40
0
 40
0
 40
0
 40
1
 40
1
 40
1
 40
1
 10
3352.187520
 20
1225.218889
 30
0.0
 10
3332.668320
 20
1225.218889
 30
0.0
 10
3313.555840
 20
1222.372969
 30
0.0
 10
3294.850000
 20
1216.679849
 30
0.0
  0
SPLINE
  5
172
100
AcDbEntity
  8
Taso_1
 62
7
100
AcDbSpline
 70
8
 71
3
 72
8
 73
4
 74
0
 40
0
 40
0
 40
0
 40
0
 40
1
 40
1
 40
1
 40
1
 10
3294.850000
 20
1216.679849
 30
0.0
 10
3276.415200
 20
1210.986729
 30
0.0
 10
3257.844960
 20
1203.394889
 30
0.0
 10
3239.139040
 20
1193.906409
 30
0.0
  0
LWPOLYLINE
  5
173
100
AcDbEntity
  8
Taso_1
 62
7
100
AcDbPolyline
 90
3
 70
0
 10
3341.614080
 20
1133.723609
 30
0.0
 10
3413.996880
 20
1136.162649
 30
0.0
 10
3413.996880
 20
1170.322009
 30
0.0
  0
SPLINE
  5
174
100
AcDbEntity
  8
Taso_1
 62
7
100
AcDbSpline
 70
8
 71
3
 72
8
 73
4
 74
0
 40
0
 40
0
 40
0
 40
0
 40
1
 40
1
 40
1
 40
1
 10
3198.879680
 20
1276.050169
 30
0.0
 10
3221.652080
 20
1288.791849
 30
0.0
 10
3246.865120
 20
1298.822649
 30
0.0
 10
3274.517200
 20
1306.142329
 30
0.0
  0
SPLINE
  5
175
100
AcDbEntity
  8
Taso_1
 62
7
100
AcDbSpline
 70
8
 71
3
 72
8
 73
4
 74
0
 40
0
 40
0
 40
0
 40
0
 40
1
 40
1
 40
1
 40
1
 10
3274.517200
 20
1306.142329
 30
0.0
 10
3302.169360
 20
1313.462009
 30
0.0
 10
3331.175920
 20
1317.122009
 30
0.0
 10
3361.539040
 20
1317.122009
 30
0.0
  0
LWPOLYLINE
  5
176
100
AcDbEntity
  8
Taso_1
 62
7
100
AcDbPolyline
 90
2
 70
0
 10
3239.139040
 20
1193.906409
 30
0.0
 10
3198.879680
 20
1276.050169
 30
0.0
  0
SPLINE
  5
177
100
AcDbEntity
  8
Taso_1
 62
7
100
AcDbSpline
 70
8
 71
3
 72
8
 73
4
 74
0
 40
0
 40
0
 40
0
 40
0
 40
1
 40
1
 40
1
 40
1
 10
2216.009360
 20
1316.307929
 30
0.0
 10
2239.323920
 20
1316.307929
 30
0.0
 10
2262.503440
 20
1313.462009
 30
0.0
 10
2285.546880
 20
1307.768889
 30
0.0
  0
SPLINE
  5
178
100
AcDbEntity
  8
Taso_1
 62
7
100
AcDbSpline
 70
8
 71
3
 72
8
 73
4
 74
0
 40
0
 40
0
 40
0
 40
0
 40
1
 40
1
 40
1
 40
1
 10
2285.546880
 20
1307.768889
 30
0.0
 10
2308.590320
 20
1302.075849
 30
0.0
 10
2330.278480
 20
1294.078489
 30
0.0
 10
2350.610960
 20
1283.776729
 30
0.0
  0
LWPOLYLINE
  5
179
100
AcDbEntity
  8
Taso_1
 62
7
100
AcDbPolyline
 90
2
 70
0
 10
3361.539040
 20
1317.122009
 30
0.0
 10
3361.539040
 20
1317.122009
 30
0.0
  0
SPLINE
  5
17a
100
AcDbEntity
  8
Taso_1
 62
7
100
AcDbSpline
 70
8
 71
3
 72
8
 73
4
 74
0
 40
0
 40
0
 40
0
 40
0
 40
1
 40
1
 40
1
 40
1
 10
2314.824960
 20
1189.434489
 30
0.0
 10
2296.932560
 20
1197.296409
 30
0.0
 10
2279.718240
 20
1203.667209
 30
0.0
 10
2263.181280
 20
1208.547049
 30
0.0
  0
SPLINE
  5
17b
100
AcDbEntity
  8
Taso_1
 62
7
100
AcDbSpline
 70
8
 71
3
 72
8
 73
4
 74
0
 40
0
 40
0
 40
0
 40
0
 40
1
 40
1
 40
1
 40
1
 10
2263.181280
 20
1208.547049
 30
0.0
 10
2246.644160
 20
1213.697929
 30
0.0
 10
2230.919920
 20
1216.272009
 30
0.0
 10
2216.009360
 20
1216.272009
 30
0.0
  0
SPLINE
  5
17c
100
AcDbEntity
  8
Taso_1
 62
7
100
AcDbSpline
 70
8
 71
3
 72
8
 73
4
 74
0
 40
0
 40
0
 40
0
 40
0
 40
1
 40
1
 40
1
 40
1
 10
2216.009360
 20
1216.272009
 30
0.0
 10
2185.917360
 20
1216.272009
 30
0.0
 10
2164.094000
 20
1204.751449
 30
0.0
 10
2150.539040
 20
1181.707929
 30
0.0
  0
SPLINE
  5
17d
100
AcDbEntity
  8
Taso_1
 62
7
100
AcDbSpline
 70
8
 71
3
 72
8
 73
4
 74
0
 40
0
 40
0
 40
0
 40
0
 40
1
 40
1
 40
1
 40
1
 10
2150.539040
 20
1181.707929
 30
0.0
 10
2136.984080
 20
1158.935609
 30
0.0
 10
2130.206240
 20
1124.640969
 30
0.0
 10
2130.206240
 20
1078.825129
 30
0.0
  0
SPLINE
  5
17e
100
AcDbEntity
  8
Taso_1
 62
7
100
AcDbSpline
 70
8
 71
3
 72
8
 73
4
 74
0
 40
0
 40
0
 40
0
 40
0
 40
1
 40
1
 40
1
 40
1
 10
2130.206240
 20
1078.825129
 30
0.0
 10
2130.206240
 20
1033.280489
 30
0.0
 10
2136.984080
 20
999.664729
 30
0.0
 10
2150.539040
 20
977.976729
 30
0.0
  0
SPLINE
  5
17f
100
AcDbEntity
  8
Taso_1
 62
7
100
AcDbSpline
 70
8
 71
3
 72
8
 73
4
 74
0
 40
0
 40
0
 40
0
 40
0
 40
1
 40
1
 40
1
 40
1
 10
2150.539040
 20
977.976729
 30
0.0
 10
2164.094000
 20
956.288809
 30
0.0
 10
2185.375120
 20
945.443929
 30
0.0
 10
2214.382800
 20
945.443929
 30
0.0
  0
SPLINE
  5
180
100
AcDbEntity
  8
Taso_1
 62
7
100
AcDbSpline
 70
8
 71
3
 72
8
 73
4
 74
0
 40
0
 40
0
 40
0
 40
0
 40
1
 40
1
 40
1
 40
1
 10
2214.382800
 20
945.443929
 30
0.0
 10
2237.968400
 20
945.443929
 30
0.0
 10
2259.384720
 20
948.426569
 30
0.0
 10
2278.632800
 20
954.390809
 30
0.0
  0
SPLINE
  5
181
100
AcDbEntity
  8
Taso_1
 62
7
100
AcDbSpline
 70
8
 71
3
 72
8
 73
4
 74
0
 40
0
 40
0
 40
0
 40
0
 40
1
 40
1
 40
1
 40
1
 10
2278.632800
 20
954.390809
 30
0.0
 10
2297.880880
 20
960.626089
 30
0.0
 10
2317.535520
 20
968.488249
 30
0.0
 10
2337.596880
 20
977.976729
 30
0.0
  0
LWPOLYLINE
  5
182
100
AcDbEntity
  8
Taso_1
 62
7
100
AcDbPolyline
 90
2
 70
0
 10
2350.610960
 20
1283.776729
 30
0.0
 10
2314.824960
 20
1189.434489
 30
0.0
  0
SPLINE
  5
183
100
AcDbEntity
  8
Taso_1
 62
7
100
AcDbSpline
 70
8
 71
3
 72
8
 73
4
 74
0
 40
0
 40
0
 40
0
 40
0
 40
1
 40
1
 40
1
 40
1
 10
2337.596880
 20
874.687689
 30
0.0
 10
2327.566240
 20
869.807849
 30
0.0
 10
2317.807280
 20
865.470489
 30
0.0
 10
2308.318720
 20
861.675129
 30
0.0
  0
SPLINE
  5
184
100
AcDbEntity
  8
Taso_1
 62
7
100
AcDbSpline
 70
8
 71
3
 72
8
 73
4
 74
0
 40
0
 40
0
 40
0
 40
0
 40
1
 40
1
 40
1
 40
1
 10
2308.318720
 20
861.675129
 30
0.0
 10
2298.830240
 20
857.879689
 30
0.0
 10
2289.206480
 20
854.761929
 30
0.0
 10
2279.446880
 20
852.322009
 30
0.0
  0
SPLINE
  5
185
100
AcDbEntity
  8
Taso_1
 62
7
100
AcDbSpline
 70
8
 71
3
 72
8
 73
4
 74
0
 40
0
 40
0
 40
0
 40
0
 40
1
 40
1
 40
1
 40
1
 10
2279.446880
 20
852.322009
 30
0.0
 10
2269.958480
 20
849.882169
 30
0.0
 10
2259.927600
 20
848.120569
 30
0.0
 10
2249.354720
 20
847.036089
 30
0.0
  0
SPLINE
  5
186
100
AcDbEntity
  8
Taso_1
 62
7
100
AcDbSpline
 70
8
 71
3
 72
8
 73
4
 74
0
 40
0
 40
0
 40
0
 40
0
 40
1
 40
1
 40
1
 40
1
 10
2249.354720
 20
847.036089
 30
0.0
 10
2239.052960
 20
845.680649
 30
0.0
 10
2227.937840
 20
845.001689
 30
0.0
 10
2216.009360
 20
845.001689
 30
0.0
  0
SPLINE
  5
187
100
AcDbEntity
  8
Taso_1
 62
7
100
AcDbSpline
 70
8
 71
3
 72
8
 73
4
 74
0
 40
0
 40
0
 40
0
 40
0
 40
1
 40
1
 40
1
 40
1
 10
2216.009360
 20
845.001689
 30
0.0
 10
2183.477520
 20
845.001689
 30
0.0
 10
2154.063840
 20
849.475769
 30
0.0
 10
2127.767200
 20
858.422009
 30
0.0
  0
SPLINE
  5
188
100
AcDbEntity
  8
Taso_1
 62
7
100
AcDbSpline
 70
8
 71
3
 72
8
 73
4
 74
0
 40
0
 40
0
 40
0
 40
0
 40
1
 40
1
 40
1
 40
1
 10
2127.767200
 20
858.422009
 30
0.0
 10
2101.741680
 20
867.368329
 30
0.0
 10
2079.374640
 20
881.194329
 30
0.0
 10
2060.668720
 20
899.900169
 30
0.0
  0
SPLINE
  5
189
100
AcDbEntity
  8
Taso_1
 62
7
100
AcDbSpline
 70
8
 71
3
 72
8
 73
4
 74
0
 40
0
 40
0
 40
0
 40
0
 40
1
 40
1
 40
1
 40
1
 10
2060.668720
 20
899.900169
 30
0.0
 10
2042.234000
 20
918.877129
 30
0.0
 10
2028.002480
 20
943.004249
 30
0.0
 10
2017.971840
 20
972.282969
 30
0.0
  0
SPLINE
  5
18a
100
AcDbEntity
  8
Taso_1
 62
7
100
AcDbSpline
 70
8
 71
3
 72
8
 73
4
 74
0
 40
0
 40
0
 40
0
 40
0
 40
1
 40
1
 40
1
 40
1
 10
2017.971840
 20
972.282969
 30
0.0
 10
2008.212240
 20
1001.832809
 30
0.0
 10
2003.331280
 20
1037.076649
 30
0.0
 10
2003.331280
 20
1078.012649
 30
0.0
  0
SPLINE
  5
18b
100
AcDbEntity
  8
Taso_1
 62
7
100
AcDbSpline
 70
8
 71
3
 72
8
 73
4
 74
0
 40
0
 40
0
 40
0
 40
0
 40
1
 40
1
 40
1
 40
1
 10
2003.331280
 20
1078.012649
 30
0.0
 10
2003.331280
 20
1123.286249
 30
0.0
 10
2008.347440
 20
1161.104249
 30
0.0
 10
2018.378160
 20
1191.467369
 30
0.0
  0
SPLINE
  5
18c
100
AcDbEntity
  8
Taso_1
 62
7
100
AcDbSpline
 70
8
 71
3
 72
8
 73
4
 74
0
 40
0
 40
0
 40
0
 40
0
 40
1
 40
1
 40
1
 40
1
 10
2018.378160
 20
1191.467369
 30
0.0
 10
2028.679920
 20
1222.101529
 30
0.0
 10
2043.048080
 20
1246.635689
 30
0.0
 10
2061.482800
 20
1265.070489
 30
0.0
  0
SPLINE
  5
18d
100
AcDbEntity
  8
Taso_1
 62
7
100
AcDbSpline
 70
8
 71
3
 72
8
 73
4
 74
0
 40
0
 40
0
 40
0
 40
0
 40
1
 40
1
 40
1
 40
1
 10
2061.482800
 20
1265.070489
 30
0.0
 10
2080.188640
 20
1283.505209
 30
0.0
 10
2102.554160
 20
1296.653929
 30
0.0
 10
2128.579680
 20
1304.515769
 30
0.0
  0
SPLINE
  5
18e
100
AcDbEntity
  8
Taso_1
 62
7
100
AcDbSpline
 70
8
 71
3
 72
8
 73
4
 74
0
 40
0
 40
0
 40
0
 40
0
 40
1
 40
1
 40
1
 40
1
 10
2128.579680
 20
1304.515769
 30
0.0
 10
2154.876320
 20
1312.377689
 30
0.0
 10
2184.019680
 20
1316.307929
 30
0.0
 10
2216.009360
 20
1316.307929
 30
0.0
  0
LWPOLYLINE
  5
18f
100
AcDbEntity
  8
Taso_1
 62
7
100
AcDbPolyline
 90
2
 70
0
 10
2337.596880
 20
977.976729
 30
0.0
 10
2337.596880
 20
874.687689
 30
0.0
  0
LWPOLYLINE
  5
190
100
AcDbEntity
  8
Taso_1
 62
7
100
AcDbPolyline
 90
2
 70
0
 10
2216.009360
 20
1316.307929
 30
0.0
 10
2216.009360
 20
1316.307929
 30
0.0
  0
SPLINE
  5
191
100
AcDbEntity
  8
Taso_1
 62
7
100
AcDbSpline
 70
8
 71
3
 72
8
 73
4
 74
0
 40
0
 40
0
 40
0
 40
0
 40
1
 40
1
 40
1
 40
1
 10
3865.378160
 20
1217.086089
 30
0.0
 10
3851.552080
 20
1217.086089
 30
0.0
 10
3839.759600
 20
1214.510409
 30
0.0
 10
3830.000000
 20
1209.359529
 30
0.0
  0
SPLINE
  5
192
100
AcDbEntity
  8
Taso_1
 62
7
100
AcDbSpline
 70
8
 71
3
 72
8
 73
4
 74
0
 40
0
 40
0
 40
0
 40
0
 40
1
 40
1
 40
1
 40
1
 10
3830.000000
 20
1209.359529
 30
0.0
 10
3820.511440
 20
1204.479769
 30
0.0
 10
3812.784400
 20
1197.024569
 30
0.0
 10
3806.820320
 20
1186.993929
 30
0.0
  0
SPLINE
  5
193
100
AcDbEntity
  8
Taso_1
 62
7
100
AcDbSpline
 70
8
 71
3
 72
8
 73
4
 74
0
 40
0
 40
0
 40
0
 40
0
 40
1
 40
1
 40
1
 40
1
 10
3806.820320
 20
1186.993929
 30
0.0
 10
3800.856080
 20
1176.963209
 30
0.0
 10
3796.518800
 20
1164.221609
 30
0.0
 10
3793.807840
 20
1148.768889
 30
0.0
  0
SPLINE
  5
194
100
AcDbEntity
  8
Taso_1
 62
7
100
AcDbSpline
 70
8
 71
3
 72
8
 73
4
 74
0
 40
0
 40
0
 40
0
 40
0
 40
1
 40
1
 40
1
 40
1
 10
3793.807840
 20
1148.768889
 30
0.0
 10
3791.096800
 20
1133.587369
 30
0.0
 10
3789.470320
 20
1115.831049
 30
0.0
 10
3788.928160
 20
1095.498569
 30
0.0
  0
LWPOLYLINE
  5
195
100
AcDbEntity
  8
Taso_1
 62
7
100
AcDbPolyline
 90
6
 70
0
 10
4730.320320
 20
1307.768889
 30
0.0
 10
4854.348400
 20
1307.768889
 30
0.0
 10
4854.348400
 20
853.134489
 30
0.0
 10
4730.320320
 20
853.134489
 30
0.0
 10
4730.320320
 20
1307.768889
 30
0.0
 10
4730.320320
 20
1307.768889
 30
0.0
  0
SPLINE
  5
196
100
AcDbEntity
  8
Taso_1
 62
7
100
AcDbSpline
 70
8
 71
3
 72
8
 73
4
 74
0
 40
0
 40
0
 40
0
 40
0
 40
1
 40
1
 40
1
 40
1
 10
3788.928160
 20
1082.078249
 30
0.0
 10
3788.928160
 20
1060.119209
 30
0.0
 10
3790.147600
 20
1040.599689
 30
0.0
 10
3792.587520
 20
1023.520489
 30
0.0
  0
SPLINE
  5
197
100
AcDbEntity
  8
Taso_1
 62
7
100
AcDbSpline
 70
8
 71
3
 72
8
 73
4
 74
0
 40
0
 40
0
 40
0
 40
0
 40
1
 40
1
 40
1
 40
1
 10
3792.587520
 20
1023.520489
 30
0.0
 10
3795.298480
 20
1006.441209
 30
0.0
 10
3799.635760
 20
992.072969
 30
0.0
 10
3805.600000
 20
980.415769
 30
0.0
  0
SPLINE
  5
198
100
AcDbEntity
  8
Taso_1
 62
7
100
AcDbSpline
 70
8
 71
3
 72
8
 73
4
 74
0
 40
0
 40
0
 40
0
 40
0
 40
1
 40
1
 40
1
 40
1
 10
3805.600000
 20
980.415769
 30
0.0
 10
3811.564240
 20
969.029529
 30
0.0
 10
3819.426400
 20
960.354889
 30
0.0
 10
3829.185920
 20
954.390809
 30
0.0
  0
SPLINE
  5
199
100
AcDbEntity
  8
Taso_1
 62
7
100
AcDbSpline
 70
8
 71
3
 72
8
 73
4
 74
0
 40
0
 40
0
 40
0
 40
0
 40
1
 40
1
 40
1
 40
1
 10
3829.185920
 20
954.390809
 30
0.0
 10
3839.216560
 20
948.426569
 30
0.0
 10
3851.551200
 20
945.443929
 30
0.0
 10
3866.190640
 20
945.443929
 30
0.0
  0
SPLINE
  5
19a
100
AcDbEntity
  8
Taso_1
 62
7
100
AcDbSpline
 70
8
 71
3
 72
8
 73
4
 74
0
 40
0
 40
0
 40
0
 40
0
 40
1
 40
1
 40
1
 40
1
 10
3866.190640
 20
945.443929
 30
0.0
 10
3890.860560
 20
945.443929
 30
0.0
 10
3908.888800
 20
957.101209
 30
0.0
 10
3920.275040
 20
980.415769
 30
0.0
  0
SPLINE
  5
19b
100
AcDbEntity
  8
Taso_1
 62
7
100
AcDbSpline
 70
8
 71
3
 72
8
 73
4
 74
0
 40
0
 40
0
 40
0
 40
0
 40
1
 40
1
 40
1
 40
1
 10
3920.275040
 20
980.415769
 30
0.0
 10
3931.932160
 20
1004.001449
 30
0.0
 10
3937.760960
 20
1038.160889
 30
0.0
 10
3937.760960
 20
1082.892329
 30
0.0
  0
SPLINE
  5
19c
100
AcDbEntity
  8
Taso_1
 62
7
100
AcDbSpline
 70
8
 71
3
 72
8
 73
4
 74
0
 40
0
 40
0
 40
0
 40
0
 40
1
 40
1
 40
1
 40
1
 10
3937.760960
 20
1082.892329
 30
0.0
 10
3937.760960
 20
1127.623689
 30
0.0
 10
3931.932160
 20
1161.104489
 30
0.0
 10
3920.275040
 20
1183.334489
 30
0.0
  0
SPLINE
  5
19d
100
AcDbEntity
  8
Taso_1
 62
7
100
AcDbSpline
 70
8
 71
3
 72
8
 73
4
 74
0
 40
0
 40
0
 40
0
 40
0
 40
1
 40
1
 40
1
 40
1
 10
3920.275040
 20
1183.334489
 30
0.0
 10
3908.888800
 20
1205.835769
 30
0.0
 10
3890.590320
 20
1217.086089
 30
0.0
 10
3865.378160
 20
1217.086089
 30
0.0
  0
LWPOLYLINE
  5
19e
100
AcDbEntity
  8
Taso_1
 62
7
100
AcDbPolyline
 90
2
 70
0
 10
3788.928160
 20
1095.498569
 30
0.0
 10
3788.928160
 20
1082.078249
 30
0.0
  0
LWPOLYLINE
  5
19f
100
AcDbEntity
  8
Taso_1
 62
7
100
AcDbPolyline
 90
2
 70
0
 10
3865.378160
 20
1217.086089
 30
0.0
 10
3865.378160
 20
1217.086089
 30
0.0
  0
SPLINE
  5
1a0
100
AcDbEntity
  8
Taso_1
 62
7
100
AcDbSpline
 70
8
 71
3
 72
8
 73
4
 74
0
 40
0
 40
0
 40
0
 40
0
 40
1
 40
1
 40
1
 40
1
 10
1734.943760
 20
1062.153289
 30
0.0
 10
1718.406720
 20
1061.611049
 30
0.0
 10
1704.445600
 20
1059.442329
 30
0.0
 10
1693.059360
 20
1055.647049
 30
0.0
  0
SPLINE
  5
1a1
100
AcDbEntity
  8
Taso_1
 62
7
100
AcDbSpline
 70
8
 71
3
 72
8
 73
4
 74
0
 40
0
 40
0
 40
0
 40
0
 40
1
 40
1
 40
1
 40
1
 10
1693.059360
 20
1055.647049
 30
0.0
 10
1681.673280
 20
1051.851609
 30
0.0
 10
1672.454800
 20
1046.700249
 30
0.0
 10
1665.406240
 20
1040.193929
 30
0.0
  0
SPLINE
  5
1a2
100
AcDbEntity
  8
Taso_1
 62
7
100
AcDbSpline
 70
8
 71
3
 72
8
 73
4
 74
0
 40
0
 40
0
 40
0
 40
0
 40
1
 40
1
 40
1
 40
1
 10
1665.406240
 20
1040.193929
 30
0.0
 10
1658.628720
 20
1033.958649
 30
0.0
 10
1653.614160
 20
1026.368329
 30
0.0
 10
1650.360960
 20
1017.422009
 30
0.0
  0
SPLINE
  5
1a3
100
AcDbEntity
  8
Taso_1
 62
7
100
AcDbSpline
 70
8
 71
3
 72
8
 73
4
 74
0
 40
0
 40
0
 40
0
 40
0
 40
1
 40
1
 40
1
 40
1
 10
1650.360960
 20
1017.422009
 30
0.0
 10
1647.378880
 20
1008.746889
 30
0.0
 10
1645.887520
 20
998.986329
 30
0.0
 10
1645.887520
 20
988.142329
 30
0.0
  0
SPLINE
  5
1a4
100
AcDbEntity
  8
Taso_1
 62
7
100
AcDbSpline
 70
8
 71
3
 72
8
 73
4
 74
0
 40
0
 40
0
 40
0
 40
0
 40
1
 40
1
 40
1
 40
1
 10
1645.887520
 20
988.142329
 30
0.0
 10
1645.887520
 20
969.165369
 30
0.0
 10
1650.496640
 20
955.611289
 30
0.0
 10
1659.714080
 20
947.478249
 30
0.0
  0
SPLINE
  5
1a5
100
AcDbEntity
  8
Taso_1
 62
7
100
AcDbSpline
 70
8
 71
3
 72
8
 73
4
 74
0
 40
0
 40
0
 40
0
 40
0
 40
1
 40
1
 40
1
 40
1
 10
1659.714080
 20
947.478249
 30
0.0
 10
1668.931440
 20
939.616329
 30
0.0
 10
1680.994240
 20
935.684489
 30
0.0
 10
1695.904720
 20
935.684569
 30
0.0
  0
SPLINE
  5
1a6
100
AcDbEntity
  8
Taso_1
 62
7
100
AcDbSpline
 70
8
 71
3
 72
8
 73
4
 74
0
 40
0
 40
0
 40
0
 40
0
 40
1
 40
1
 40
1
 40
1
 10
1695.904720
 20
935.684569
 30
0.0
 10
1707.290800
 20
935.684489
 30
0.0
 10
1717.863840
 20
937.582889
 30
0.0
 10
1727.623440
 20
941.378249
 30
0.0
  0
SPLINE
  5
1a7
100
AcDbEntity
  8
Taso_1
 62
7
100
AcDbSpline
 70
8
 71
3
 72
8
 73
4
 74
0
 40
0
 40
0
 40
0
 40
0
 40
1
 40
1
 40
1
 40
1
 10
1727.623440
 20
941.378249
 30
0.0
 10
1737.383040
 20
945.444809
 30
0.0
 10
1745.787360
 20
951.273449
 30
0.0
 10
1752.835920
 20
958.864249
 30
0.0
  0
SPLINE
  5
1a8
100
AcDbEntity
  8
Taso_1
 62
7
100
AcDbSpline
 70
8
 71
3
 72
8
 73
4
 74
0
 40
0
 40
0
 40
0
 40
0
 40
1
 40
1
 40
1
 40
1
 10
1752.835920
 20
958.864249
 30
0.0
 10
1760.155680
 20
966.726169
 30
0.0
 10
1765.849120
 20
976.214729
 30
0.0
 10
1769.915600
 20
987.329849
 30
0.0
  0
SPLINE
  5
1a9
100
AcDbEntity
  8
Taso_1
 62
7
100
AcDbSpline
 70
8
 71
3
 72
8
 73
4
 74
0
 40
0
 40
0
 40
0
 40
0
 40
1
 40
1
 40
1
 40
1
 10
1769.915600
 20
987.329849
 30
0.0
 10
1773.982080
 20
998.716009
 30
0.0
 10
1776.015600
 20
1011.727929
 30
0.0
 10
1776.015600
 20
1026.367369
 30
0.0
  0
LWPOLYLINE
  5
1aa
100
AcDbEntity
  8
Taso_1
 62
7
100
AcDbPolyline
 90
2
 70
0
 10
1776.015600
 20
1063.779849
 30
0.0
 10
1734.943760
 20
1062.153289
 30
0.0
  0
LWPOLYLINE
  5
1ab
100
AcDbEntity
  8
Taso_1
 62
7
100
AcDbPolyline
 90
3
 70
0
 10
1776.015600
 20
1026.367369
 30
0.0
 10
1776.015600
 20
1063.779849
 30
0.0
 10
1776.015600
 20
1063.779849
 30
0.0
  0
SPLINE
  5
1ac
100
AcDbEntity
  8
Taso_1
 62
7
100
AcDbSpline
 70
8
 71
3
 72
8
 73
4
 74
0
 40
0
 40
0
 40
0
 40
0
 40
1
 40
1
 40
1
 40
1
 10
3372.926560
 20
1062.153289
 30
0.0
 10
3356.389520
 20
1061.611049
 30
0.0
 10
3342.426800
 20
1059.442329
 30
0.0
 10
3331.040640
 20
1055.647049
 30
0.0
  0
SPLINE
  5
1ad
100
AcDbEntity
  8
Taso_1
 62
7
100
AcDbSpline
 70
8
 71
3
 72
8
 73
4
 74
0
 40
0
 40
0
 40
0
 40
0
 40
1
 40
1
 40
1
 40
1
 10
3331.040640
 20
1055.647049
 30
0.0
 10
3319.654480
 20
1051.851609
 30
0.0
 10
3310.437680
 20
1046.700249
 30
0.0
 10
3303.389040
 20
1040.193929
 30
0.0
  0
SPLINE
  5
1ae
100
AcDbEntity
  8
Taso_1
 62
7
100
AcDbSpline
 70
8
 71
3
 72
8
 73
4
 74
0
 40
0
 40
0
 40
0
 40
0
 40
1
 40
1
 40
1
 40
1
 10
3303.389040
 20
1040.193929
 30
0.0
 10
3296.611600
 20
1033.958649
 30
0.0
 10
3291.595440
 20
1026.368329
 30
0.0
 10
3288.342160
 20
1017.422009
 30
0.0
  0
SPLINE
  5
1af
100
AcDbEntity
  8
Taso_1
 62
7
100
AcDbSpline
 70
8
 71
3
 72
8
 73
4
 74
0
 40
0
 40
0
 40
0
 40
0
 40
1
 40
1
 40
1
 40
1
 10
3288.342160
 20
1017.422009
 30
0.0
 10
3285.360080
 20
1008.746889
 30
0.0
 10
3283.870320
 20
998.986329
 30
0.0
 10
3283.870320
 20
988.142329
 30
0.0
  0
SPLINE
  5
1b0
100
AcDbEntity
  8
Taso_1
 62
7
100
AcDbSpline
 70
8
 71
3
 72
8
 73
4
 74
0
 40
0
 40
0
 40
0
 40
0
 40
1
 40
1
 40
1
 40
1
 10
3283.870320
 20
988.142329
 30
0.0
 10
3283.870320
 20
969.165369
 30
0.0
 10
3288.477920
 20
955.611289
 30
0.0
 10
3297.695280
 20
947.478249
 30
0.0
  0
SPLINE
  5
1b1
100
AcDbEntity
  8
Taso_1
 62
7
100
AcDbSpline
 70
8
 71
3
 72
8
 73
4
 74
0
 40
0
 40
0
 40
0
 40
0
 40
1
 40
1
 40
1
 40
1
 10
3297.695280
 20
947.478249
 30
0.0
 10
3306.912720
 20
939.616329
 30
0.0
 10
3318.977040
 20
935.684489
 30
0.0
 10
3333.887520
 20
935.684569
 30
0.0
  0
SPLINE
  5
1b2
100
AcDbEntity
  8
Taso_1
 62
7
100
AcDbSpline
 70
8
 71
3
 72
8
 73
4
 74
0
 40
0
 40
0
 40
0
 40
0
 40
1
 40
1
 40
1
 40
1
 10
3333.887520
 20
935.684569
 30
0.0
 10
3345.273600
 20
935.684489
 30
0.0
 10
3355.846640
 20
937.582889
 30
0.0
 10
3365.606240
 20
941.378249
 30
0.0
  0
SPLINE
  5
1b3
100
AcDbEntity
  8
Taso_1
 62
7
100
AcDbSpline
 70
8
 71
3
 72
8
 73
4
 74
0
 40
0
 40
0
 40
0
 40
0
 40
1
 40
1
 40
1
 40
1
 10
3365.606240
 20
941.378249
 30
0.0
 10
3375.365840
 20
945.444809
 30
0.0
 10
3383.770160
 20
951.273449
 30
0.0
 10
3390.818720
 20
958.864249
 30
0.0
  0
SPLINE
  5
1b4
100
AcDbEntity
  8
Taso_1
 62
7
100
AcDbSpline
 70
8
 71
3
 72
8
 73
4
 74
0
 40
0
 40
0
 40
0
 40
0
 40
1
 40
1
 40
1
 40
1
 10
3390.818720
 20
958.864249
 30
0.0
 10
3398.138400
 20
966.726169
 30
0.0
 10
3403.832000
 20
976.214729
 30
0.0
 10
3407.898400
 20
987.329849
 30
0.0
  0
SPLINE
  5
1b5
100
AcDbEntity
  8
Taso_1
 62
7
100
AcDbSpline
 70
8
 71
3
 72
8
 73
4
 74
0
 40
0
 40
0
 40
0
 40
0
 40
1
 40
1
 40
1
 40
1
 10
3407.898400
 20
987.329849
 30
0.0
 10
3411.964960
 20
998.716009
 30
0.0
 10
3413.996880
 20
1011.727929
 30
0.0
 10
3413.996880
 20
1026.367369
 30
0.0
  0
LWPOLYLINE
  5
1b6
100
AcDbEntity
  8
Taso_1
 62
7
100
AcDbPolyline
 90
2
 70
0
 10
3413.996880
 20
1063.779849
 30
0.0
 10
3372.926560
 20
1062.153289
 30
0.0
  0
SPLINE
  5
1b7
100
AcDbEntity
  8
Taso_1
 62
7
100
AcDbSpline
 70
8
 71
3
 72
8
 73
4
 74
0
 40
0
 40
0
 40
0
 40
0
 40
1
 40
1
 40
1
 40
1
 10
4224.856240
 20
980.415769
 30
0.0
 10
4234.344640
 20
980.415769
 30
0.0
 10
4243.291120
 20
979.196329
 30
0.0
 10
4251.695280
 20
976.756409
 30
0.0
  0
SPLINE
  5
1b8
100
AcDbEntity
  8
Taso_1
 62
7
100
AcDbSpline
 70
8
 71
3
 72
8
 73
4
 74
0
 40
0
 40
0
 40
0
 40
0
 40
1
 40
1
 40
1
 40
1
 10
4251.695280
 20
976.756409
 30
0.0
 10
4260.370480
 20
974.316489
 30
0.0
 10
4267.960800
 20
970.386249
 30
0.0
 10
4274.467200
 20
964.964249
 30
0.0
  0
SPLINE
  5
1b9
100
AcDbEntity
  8
Taso_1
 62
7
100
AcDbSpline
 70
8
 71
3
 72
8
 73
4
 74
0
 40
0
 40
0
 40
0
 40
0
 40
1
 40
1
 40
1
 40
1
 10
4274.467200
 20
964.964249
 30
0.0
 10
4280.973520
 20
959.542249
 30
0.0
 10
4286.124880
 20
952.357369
 30
0.0
 10
4289.920320
 20
943.411129
 30
0.0
  0
SPLINE
  5
1ba
100
AcDbEntity
  8
Taso_1
 62
7
100
AcDbSpline
 70
8
 71
3
 72
8
 73
4
 74
0
 40
0
 40
0
 40
0
 40
0
 40
1
 40
1
 40
1
 40
1
 10
4289.920320
 20
943.411129
 30
0.0
 10
4293.715680
 20
934.735929
 30
0.0
 10
4295.612480
 20
924.027769
 30
0.0
 10
4295.612480
 20
911.286089
 30
0.0
  0
SPLINE
  5
1bb
100
AcDbEntity
  8
Taso_1
 62
7
100
AcDbSpline
 70
8
 71
3
 72
8
 73
4
 74
0
 40
0
 40
0
 40
0
 40
0
 40
1
 40
1
 40
1
 40
1
 10
4295.612480
 20
911.286089
 30
0.0
 10
4295.612480
 20
899.086649
 30
0.0
 10
4293.715680
 20
888.648809
 30
0.0
 10
4289.920320
 20
879.973609
 30
0.0
  0
SPLINE
  5
1bc
100
AcDbEntity
  8
Taso_1
 62
7
100
AcDbSpline
 70
8
 71
3
 72
8
 73
4
 74
0
 40
0
 40
0
 40
0
 40
0
 40
1
 40
1
 40
1
 40
1
 10
4289.920320
 20
879.973609
 30
0.0
 10
4286.124880
 20
871.298409
 30
0.0
 10
4280.973520
 20
864.115129
 30
0.0
 10
4274.467200
 20
858.422009
 30
0.0
  0
SPLINE
  5
1bd
100
AcDbEntity
  8
Taso_1
 62
7
100
AcDbSpline
 70
8
 71
3
 72
8
 73
4
 74
0
 40
0
 40
0
 40
0
 40
0
 40
1
 40
1
 40
1
 40
1
 10
4274.467200
 20
858.422009
 30
0.0
 10
4267.960800
 20
852.728969
 30
0.0
 10
4260.370480
 20
848.661929
 30
0.0
 10
4251.695280
 20
846.222009
 30
0.0
  0
SPLINE
  5
1be
100
AcDbEntity
  8
Taso_1
 62
7
100
AcDbSpline
 70
8
 71
3
 72
8
 73
4
 74
0
 40
0
 40
0
 40
0
 40
0
 40
1
 40
1
 40
1
 40
1
 10
4251.695280
 20
846.222009
 30
0.0
 10
4243.291120
 20
843.511049
 30
0.0
 10
4234.344640
 20
842.154809
 30
0.0
 10
4224.856240
 20
842.154809
 30
0.0
  0
SPLINE
  5
1bf
100
AcDbEntity
  8
Taso_1
 62
7
100
AcDbSpline
 70
8
 71
3
 72
8
 73
4
 74
0
 40
0
 40
0
 40
0
 40
0
 40
1
 40
1
 40
1
 40
1
 10
4224.856240
 20
842.154809
 30
0.0
 10
4214.825520
 20
842.154809
 30
0.0
 10
4205.472000
 20
843.511049
 30
0.0
 10
4196.796880
 20
846.222009
 30
0.0
  0
SPLINE
  5
1c0
100
AcDbEntity
  8
Taso_1
 62
7
100
AcDbSpline
 70
8
 71
3
 72
8
 73
4
 74
0
 40
0
 40
0
 40
0
 40
0
 40
1
 40
1
 40
1
 40
1
 10
4196.796880
 20
846.222009
 30
0.0
 10
4188.121680
 20
848.661929
 30
0.0
 10
4180.531360
 20
852.728969
 30
0.0
 10
4174.024960
 20
858.422009
 30
0.0
  0
SPLINE
  5
1c1
100
AcDbEntity
  8
Taso_1
 62
7
100
AcDbSpline
 70
8
 71
3
 72
8
 73
4
 74
0
 40
0
 40
0
 40
0
 40
0
 40
1
 40
1
 40
1
 40
1
 10
4174.024960
 20
858.422009
 30
0.0
 10
4167.518720
 20
864.115129
 30
0.0
 10
4162.367280
 20
871.298409
 30
0.0
 10
4158.571840
 20
879.973609
 30
0.0
  0
SPLINE
  5
1c2
100
AcDbEntity
  8
Taso_1
 62
7
100
AcDbSpline
 70
8
 71
3
 72
8
 73
4
 74
0
 40
0
 40
0
 40
0
 40
0
 40
1
 40
1
 40
1
 40
1
 10
4158.571840
 20
879.973609
 30
0.0
 10
4155.047600
 20
888.648809
 30
0.0
 10
4153.285920
 20
899.086649
 30
0.0
 10
4153.285920
 20
911.286089
 30
0.0
  0
SPLINE
  5
1c3
100
AcDbEntity
  8
Taso_1
 62
7
100
AcDbSpline
 70
8
 71
3
 72
8
 73
4
 74
0
 40
0
 40
0
 40
0
 40
0
 40
1
 40
1
 40
1
 40
1
 10
4153.285920
 20
911.286089
 30
0.0
 10
4153.285920
 20
924.027769
 30
0.0
 10
4155.047600
 20
934.735929
 30
0.0
 10
4158.571840
 20
943.411129
 30
0.0
  0
SPLINE
  5
1c4
100
AcDbEntity
  8
Taso_1
 62
7
100
AcDbSpline
 70
8
 71
3
 72
8
 73
4
 74
0
 40
0
 40
0
 40
0
 40
0
 40
1
 40
1
 40
1
 40
1
 10
4158.571840
 20
943.411129
 30
0.0
 10
4162.367280
 20
952.357369
 30
0.0
 10
4167.518720
 20
959.542249
 30
0.0
 10
4174.024960
 20
964.964249
 30
0.0
  0
SPLINE
  5
1c5
100
AcDbEntity
  8
Taso_1
 62
7
100
AcDbSpline
 70
8
 71
3
 72
8
 73
4
 74
0
 40
0
 40
0
 40
0
 40
0
 40
1
 40
1
 40
1
 40
1
 10
4174.024960
 20
964.964249
 30
0.0
 10
4180.531360
 20
970.386249
 30
0.0
 10
4188.121680
 20
974.316489
 30
0.0
 10
4196.796880
 20
976.756409
 30
0.0
  0
SPLINE
  5
1c6
100
AcDbEntity
  8
Taso_1
 62
7
100
AcDbSpline
 70
8
 71
3
 72
8
 73
4
 74
0
 40
0
 40
0
 40
0
 40
0
 40
1
 40
1
 40
1
 40
1
 10
4196.796880
 20
976.756409
 30
0.0
 10
4205.472000
 20
979.196329
 30
0.0
 10
4214.825520
 20
980.415769
 30
0.0
 10
4224.856240
 20
980.415769
 30
0.0
  0
LWPOLYLINE
  5
1c7
100
AcDbEntity
  8
Taso_1
 62
7
100
AcDbPolyline
 90
3
 70
0
 10
3413.996880
 20
1026.367369
 30
0.0
 10
3413.996880
 20
1063.779849
 30
0.0
 10
3413.996880
 20
1063.779849
 30
0.0
  0
LWPOLYLINE
  5
1c8
100
AcDbEntity
  8
Taso_1
 62
7
100
AcDbPolyline
 90
2
 70
0
 10
4224.856240
 20
980.415769
 30
0.0
 10
4224.856240
 20
980.415769
 30
0.0
  0
ENDSEC
  0
SECTION
  2
OBJECTS
  0
DICTIONARY
  5
C
330
0
100
AcDbDictionary
  3
ACAD_GROUP
350
D
  3
ACAD_MLINESTYLE
350
17
  0
DICTIONARY
  5
D
330
C
100
AcDbDictionary
  0
DICTIONARY
  5
1A
330
C
100
AcDbDictionary
  0
DICTIONARY
  5
17
330
C
100
AcDbDictionary
  3
STANDARD
350
18
  0
DICTIONARY
  5
19
330
C
100
AcDbDictionary
  0
ENDSEC
  0
EOF
