<?xml version="1.0" encoding="utf-8"?>
<!-- Generator: Adobe Illustrator 19.1.0, SVG Export Plug-In . SVG Version: 6.00 Build 0)  -->
<svg version="1.1" id="Layer_1" xmlns="http://www.w3.org/2000/svg" xmlns:xlink="http://www.w3.org/1999/xlink" x="0px" y="0px"
	 viewBox="0 0 244 66" style="enable-background:new 0 0 244 66;" xml:space="preserve">
<g>
	<path d="M28.2,51.8h-7.7V35.5c0-2-0.3-3.5-0.9-4.6c-0.6-1-1.6-1.5-2.9-1.5c-1,0-1.8,0.2-2.5,0.6s-1.2,1-1.6,1.8
		c-0.4,0.8-0.7,1.8-0.9,2.9c-0.2,1.2-0.3,2.5-0.3,4v13.2H3.9v-39h7.7v8c0,0.7,0,1.4,0,2.2c0,0.8-0.1,1.5-0.1,2.1
		c-0.1,0.8-0.1,1.5-0.2,2.3h0.4c0.8-1.5,1.9-2.5,3.1-3.1s2.7-1,4.3-1c1.4,0,2.6,0.2,3.8,0.6c1.1,0.4,2.1,1,2.9,1.8
		c0.8,0.8,1.4,1.9,1.9,3.2c0.4,1.3,0.7,2.8,0.7,4.7V51.8z"/>
	<path d="M52.4,51.8L50.9,48h-0.2c-0.6,0.8-1.1,1.4-1.7,1.9c-0.6,0.5-1.2,1-1.8,1.3c-0.7,0.4-1.4,0.6-2.2,0.8
		c-0.8,0.2-1.8,0.3-2.8,0.3c-1.1,0-2.2-0.2-3.2-0.5c-1-0.4-1.8-0.9-2.5-1.6c-0.7-0.7-1.3-1.6-1.7-2.8s-0.6-2.4-0.6-4
		c0-3,1-5.2,2.9-6.6c1.9-1.4,4.8-2.2,8.6-2.3l4.5-0.2v-2.1c0-1.2-0.3-2-1-2.6c-0.7-0.6-1.6-0.8-2.8-0.8s-2.4,0.2-3.5,0.5
		s-2.3,0.8-3.4,1.4l-2.5-5.1c1.4-0.8,3-1.4,4.7-1.9c1.7-0.5,3.5-0.7,5.4-0.7c3.5,0,6.2,0.8,8,2.5c1.9,1.6,2.8,4.1,2.8,7.5v18.7H52.4
		z M50.1,38.8l-2.5,0.1c-1,0-1.9,0.2-2.6,0.4c-0.7,0.2-1.3,0.5-1.7,0.9c-0.4,0.4-0.7,0.9-0.9,1.4c-0.2,0.5-0.3,1.2-0.3,1.8
		c0,1.2,0.3,2,0.9,2.5c0.6,0.5,1.3,0.7,2.2,0.7c0.7,0,1.4-0.1,2-0.4s1.1-0.6,1.6-1.1c0.4-0.5,0.8-1.1,1-1.8c0.3-0.7,0.4-1.5,0.4-2.4
		V38.8z"/>
	<path d="M77.2,52.3c-2,0-3.8-0.3-5.4-0.8s-3-1.4-4.1-2.6s-2-2.7-2.6-4.5c-0.6-1.8-0.9-4-0.9-6.5c0-2.8,0.3-5.1,0.9-7
		c0.6-1.9,1.5-3.4,2.7-4.5c1.1-1.1,2.5-1.9,4.1-2.4c1.6-0.5,3.4-0.7,5.4-0.7c1.4,0,2.9,0.2,4.3,0.5c1.4,0.4,2.8,0.8,4,1.5l-2.2,5.8
		c-1.1-0.5-2.2-0.9-3.2-1.2s-2-0.5-2.9-0.5c-1.9,0-3.2,0.7-4,2.1C72.4,33,72,35.1,72,37.9c0,2.8,0.4,4.9,1.3,6.2
		c0.8,1.3,2.1,2,3.9,2c1.5,0,2.8-0.2,4-0.6c1.2-0.4,2.4-0.9,3.6-1.4v6.4c-0.6,0.3-1.2,0.6-1.8,0.8s-1.2,0.4-1.8,0.6
		c-0.6,0.2-1.2,0.3-1.9,0.3C78.7,52.3,78,52.3,77.2,52.3z"/>
	<path d="M98.6,36.6l2.8-4.3l6.8-8.5h8.6L106.7,36l10.8,15.9h-8.8l-6.8-10.8l-3,2.1v8.7h-7.7v-39h7.7v17.4l-0.4,6.4H98.6z"/>
	<path d="M129.2,51.8h-7.7v-39h7.7V51.8z"/>
	<path d="M153.5,51.8L152,48h-0.2c-0.6,0.8-1.1,1.4-1.7,1.9c-0.6,0.5-1.2,1-1.8,1.3c-0.7,0.4-1.4,0.6-2.2,0.8
		c-0.8,0.2-1.8,0.3-2.8,0.3c-1.1,0-2.2-0.2-3.2-0.5c-1-0.4-1.8-0.9-2.5-1.6s-1.3-1.6-1.7-2.8s-0.6-2.4-0.6-4c0-3,1-5.2,2.9-6.6
		c1.9-1.4,4.8-2.2,8.6-2.3l4.5-0.2v-2.1c0-1.2-0.3-2-1-2.6c-0.7-0.6-1.6-0.8-2.8-0.8s-2.4,0.2-3.5,0.5s-2.3,0.8-3.4,1.4l-2.5-5.1
		c1.4-0.8,3-1.4,4.7-1.9s3.5-0.7,5.4-0.7c3.5,0,6.2,0.8,8,2.5c1.9,1.6,2.8,4.1,2.8,7.5v18.7H153.5z M151.2,38.8l-2.5,0.1
		c-1,0-1.9,0.2-2.6,0.4c-0.7,0.2-1.3,0.5-1.7,0.9c-0.4,0.4-0.7,0.9-0.9,1.4c-0.2,0.5-0.3,1.2-0.3,1.8c0,1.2,0.3,2,0.9,2.5
		c0.6,0.5,1.3,0.7,2.2,0.7c0.7,0,1.4-0.1,2-0.4c0.6-0.2,1.1-0.6,1.6-1.1c0.4-0.5,0.8-1.1,1-1.8c0.3-0.7,0.4-1.5,0.4-2.4V38.8z"/>
	<path d="M181.7,23.3c1.4,0,2.8,0.3,3.9,0.9c1.2,0.6,2.2,1.5,3.1,2.8c0.9,1.2,1.5,2.7,2,4.5s0.7,3.9,0.7,6.3c0,2.4-0.2,4.5-0.7,6.3
		c-0.5,1.8-1.2,3.3-2,4.6c-0.9,1.2-1.9,2.1-3.1,2.8c-1.2,0.6-2.6,0.9-4,0.9c-0.9,0-1.8-0.1-2.5-0.3c-0.7-0.2-1.4-0.5-1.9-0.8
		c-0.6-0.3-1.1-0.7-1.5-1.1c-0.4-0.4-0.8-0.9-1.2-1.3h-0.5l-1.3,3.1h-5.8v-39h7.7v9.1c0,0.6,0,1.1,0,1.8c0,0.6-0.1,1.2-0.1,1.8
		c0,0.7-0.1,1.3-0.2,2h0.3c0.4-0.6,0.8-1.1,1.2-1.6c0.5-0.5,1-0.9,1.6-1.3c0.6-0.4,1.3-0.7,2-0.9C179.9,23.4,180.7,23.3,181.7,23.3z
		 M179.1,29.4c-0.9,0-1.6,0.2-2.2,0.5c-0.6,0.3-1.1,0.8-1.4,1.4c-0.4,0.6-0.6,1.4-0.8,2.3c-0.2,0.9-0.3,2-0.3,3.3v0.8
		c0,1.4,0.1,2.6,0.2,3.6s0.4,1.9,0.8,2.6s0.9,1.2,1.5,1.6c0.6,0.4,1.4,0.6,2.3,0.6c1.5,0,2.6-0.7,3.3-2.2s1.1-3.5,1.1-6.3
		c0-2.8-0.4-4.8-1.1-6.2S180.6,29.4,179.1,29.4z"/>
	<path d="M196.9,48.3c0-0.8,0.1-1.5,0.3-2c0.2-0.5,0.5-1,0.9-1.3c0.4-0.3,0.9-0.6,1.4-0.7s1.1-0.2,1.7-0.2c0.6,0,1.1,0.1,1.7,0.2
		s1,0.4,1.4,0.7c0.4,0.3,0.7,0.8,1,1.3c0.2,0.5,0.4,1.2,0.4,2c0,0.8-0.1,1.4-0.4,1.9s-0.6,1-1,1.3s-0.9,0.6-1.4,0.8
		c-0.5,0.2-1.1,0.2-1.7,0.2c-0.6,0-1.2-0.1-1.7-0.2c-0.5-0.2-1-0.4-1.4-0.8s-0.7-0.8-0.9-1.3C197,49.7,196.9,49,196.9,48.3z"/>
	<path d="M227.2,29.5h-5.7v22.3h-7.7V29.5h-4.2v-3.7l4.2-2.1v-2.1c0-1.8,0.2-3.3,0.7-4.5c0.4-1.2,1.1-2.1,1.9-2.8
		c0.8-0.7,1.8-1.2,2.9-1.5c1.1-0.3,2.4-0.4,3.8-0.4c1.5,0,2.8,0.1,3.9,0.4c1.1,0.2,1.9,0.5,2.7,0.8l-1.8,5.6
		c-0.5-0.2-1.1-0.4-1.6-0.5s-1.2-0.2-2-0.2c-1,0-1.7,0.3-2.1,1c-0.4,0.6-0.6,1.5-0.6,2.5v1.8h5.7V29.5z"/>
	<path d="M232.2,16.5c0-0.7,0.1-1.3,0.3-1.8s0.5-0.9,0.9-1.2s0.8-0.5,1.3-0.6c0.5-0.1,1-0.2,1.6-0.2c0.6,0,1.1,0.1,1.6,0.2
		c0.5,0.1,0.9,0.3,1.3,0.6c0.4,0.3,0.7,0.7,0.9,1.2s0.3,1.1,0.3,1.8c0,0.7-0.1,1.3-0.3,1.8c-0.2,0.5-0.5,0.9-0.9,1.2
		c-0.4,0.3-0.8,0.5-1.3,0.6c-0.5,0.1-1,0.2-1.6,0.2c-0.6,0-1.1-0.1-1.6-0.2c-0.5-0.1-1-0.3-1.3-0.6c-0.4-0.3-0.7-0.7-0.9-1.2
		C232.3,17.8,232.2,17.2,232.2,16.5z M240.1,51.8h-7.7v-28h7.7V51.8z"/>
</g>
</svg>
