<?xml version="1.0" encoding="UTF-8" standalone="no"?>
<!-- Created with Inkscape (http://www.inkscape.org/) -->

<svg
   xmlns:dc="http://purl.org/dc/elements/1.1/"
   xmlns:cc="http://creativecommons.org/ns#"
   xmlns:rdf="http://www.w3.org/1999/02/22-rdf-syntax-ns#"
   xmlns:svg="http://www.w3.org/2000/svg"
   xmlns="http://www.w3.org/2000/svg"
   xmlns:sodipodi="http://sodipodi.sourceforge.net/DTD/sodipodi-0.dtd"
   xmlns:inkscape="http://www.inkscape.org/namespaces/inkscape"
   width="207cm"
   height="82cm"
   viewBox="0 0 7334.6458 2905.5117"
   id="svg4633"
   version="1.1"
   inkscape:version="0.91 r13725"
   sodipodi:docname="Hacklab-fi-banner.svg">
  <defs
     id="defs4635">
    <style
       type="text/css"
       id="style6">
   
    .str3 {stroke:#C7C7A2;stroke-width:0.797991}
    .str1 {stroke:#8C8C60;stroke-width:1.70998}
    .str2 {stroke:#636347;stroke-width:2.27997}
    .str0 {stroke:#1F1A17;stroke-width:3.98996}
    .fil1 {fill:none}
    .fil0 {fill:#EEEED4}
   
  </style>
  </defs>
  <sodipodi:namedview
     id="base"
     pagecolor="#ffffff"
     bordercolor="#666666"
     borderopacity="1.0"
     inkscape:pageopacity="0.0"
     inkscape:pageshadow="2"
     inkscape:zoom="0.08"
     inkscape:cx="2826.8369"
     inkscape:cy="310.70267"
     inkscape:document-units="cm"
     inkscape:current-layer="layer1"
     showgrid="false"
     inkscape:window-width="1680"
     inkscape:window-height="952"
     inkscape:window-x="39"
     inkscape:window-y="5"
     inkscape:window-maximized="0"
     units="cm"
     showguides="true"
     inkscape:guide-bbox="true">
    <sodipodi:guide
       position="0,212.59842"
       orientation="0,1"
       id="guide6598"
       inkscape:label=""
       inkscape:color="rgb(0,0,255)" />
    <sodipodi:guide
       position="0,2692.9134"
       orientation="0,1"
       id="guide6600"
       inkscape:label=""
       inkscape:color="rgb(0,0,255)" />
    <sodipodi:guide
       position="35.433072,0"
       orientation="1,0"
       id="guide6602"
       inkscape:label=""
       inkscape:color="rgb(0,0,255)" />
    <sodipodi:guide
       position="7299.2129,0"
       orientation="1,0"
       id="guide6604"
       inkscape:label=""
       inkscape:color="rgb(0,0,255)" />
    <sodipodi:guide
       position="0,106.29921"
       orientation="0,1"
       id="guide4175"
       inkscape:label=""
       inkscape:color="rgb(0,0,255)" />
    <sodipodi:guide
       position="0,2799.2126"
       orientation="0,1"
       id="guide4177"
       inkscape:label=""
       inkscape:color="rgb(0,0,255)" />
  </sodipodi:namedview>
  <metadata
     id="metadata4638">
    <rdf:RDF>
      <cc:Work
         rdf:about="">
        <dc:format>image/svg+xml</dc:format>
        <dc:type
           rdf:resource="http://purl.org/dc/dcmitype/StillImage" />
        <dc:title />
      </cc:Work>
    </rdf:RDF>
  </metadata>
  <g
     inkscape:label="Taso 1"
     inkscape:groupmode="layer"
     id="layer1"
     transform="translate(0,1853.1497)">
    <rect
       style="opacity:1;fill:#ffffff;fill-opacity:1;stroke:none;stroke-width:0.70866144;stroke-linecap:butt;stroke-linejoin:miter;stroke-miterlimit:4;stroke-dasharray:none;stroke-dashoffset:0;stroke-opacity:1"
       id="taustavari"
       width="7263.7793"
       height="2480.3149"
       x="35.433071"
       y="-1640.5514" />
    <g
       id="reunat"
       transform="matrix(0,19.342034,-19.342034,0,15305.545,-5325.2148)">
      <path
         style="fill:#65d0c4"
         d="m 179.50878,412.1024 150.2175,0 0,379.2076 -150.2175,0 z m 102.0768,347.02724 0,-9.73505 0.89694,0 0.89693,0 0,3.58775 0,3.58775 3.74089,0 3.74088,0 0,2.99708 -0.003,3.31377 1.95024,-0.0104 1.64074,0 0,-5.99416 0,-5.99417 3.76276,0 3.76276,0 0,-5.84103 0,-5.84103 1.64074,0 1.64074,0 0,-7.50365 0,-7.50364 -4.63782,0 -4.63782,0 0,-2.40642 0,-2.40642 3.43461,0 3.43461,0 0,-1.50948 0,-1.50948 -1.4876,0 -1.4876,0 0,-1.18133 0,-1.18133 -2.71269,0 -2.71269,0 0,-1.05007 0,-1.05008 6.30044,0 6.30044,0 0,-1.50948 0,-1.50948 -5.25037,0 -5.25036,0 0,-2.25328 0,-2.25328 3.91589,0 3.9159,0 0,-2.53768 0,-2.53767 -2.86582,0 -2.86583,0 0,-2.86583 0,-2.86582 3.76276,0 3.76277,0 0,-2.69081 0,-2.69081 -5.86291,0 -5.86291,0 0,-4.9441 0,-4.94409 2.71269,0 2.71269,0 0,-3.30336 0,-3.30335 1.35634,0 1.61479,-0.005 0.004,-2.70748 -0.003,-2.7119 -2.22869,-7.9e-4 -1.96889,0 0,-7.94117 0,-7.94118 4.6597,0 4.6597,0 0,-5.55664 0,-5.55663 -7.65678,0 -7.65678,0 0,-4.48469 0,-4.48469 4.50656,0 4.50656,0 0,-2.55955 0,-2.55955 -3.60962,0 -3.60963,0 0,-3.15022 0,-3.15022 4.81284,0 4.81283,0 0,-1.50948 0,-1.50948 -5.70977,0 -5.70977,0 0,-9.73505 0,-9.73505 6.01604,0 6.01604,0 0,-1.50948 0,-1.50948 -4.06903,0 -4.06903,0 0,-2.69081 0,-2.69082 4.06903,0 4.06903,0 0,-2.55955 0,-2.55955 -5.1191,0 -5.11911,0 0,-6.30044 0,-6.30044 1.81575,0 1.81575,0 0,-5.25036 0,-5.25037 2.69082,0 2.69081,0 0,-2.53767 0,-2.53768 -4.79096,0 -4.79096,0 0,-10.21633 0,-10.21634 0.15314,0 0.15313,-0.13126 0,-0.13126 5.25037,0 5.25036,0 0,-5.4035 0,-5.4035 -7.06611,0 -7.06612,0 0,-7.80992 0,-7.80991 3.60963,0 3.60962,0 0,-0.15314 0.15314,-0.15313 0.15313,0 0,-7.48177 0,-7.48177 1.33447,0 1.33447,0 0,-5.4035 0,-5.4035 -1.33447,0 -1.33447,0 0,-4.81284 0,-4.81283 4.35343,0 4.35343,0 0,-7.50365 0,-7.50365 -6.16918,0 -6.16918,0 0,-8.40058 0,-8.40058 -1.79387,0 -1.79388,0 0,-2.99709 0,-2.99708 -3.74088,0 -3.74089,0 0,8.24745 0,8.24745 -1.66261,0 -1.66262,0 0,-2.10015 0,-2.10015 -1.64074,0 -1.64074,0 0,-4.04715 -0.004,-4.35586 -3.91177,0.002 -3.60963,0 0,5.25037 0.007,5.55593 -2.23837,7e-4 -1.96889,0 0,-2.25328 0,-2.25328 -3.74088,0 -3.74089,0 0,-1.64074 0.002,-1.94437 -3.89607,-0.003 -3.58775,0 0,6.75984 0,6.75985 -2.40642,0 -2.40641,0 0,-4.20029 0,-4.20029 -9.62319,10e-4 -0.002,-13.82716 -5.22849,0 -5.22849,0 0,12.44774 0,12.44774 -1.05007,0 -1.05007,0 0,-6.73796 3.3e-4,-7.04227 -3.91623,-0.002 -3.91741,0.001 0.002,7.0428 0,6.73796 -2.84394,0 -2.84395,0 0,7.50365 0,7.50365 2.84395,0 2.84394,0 0,4.81283 0,4.81284 -4.94409,0 -4.94409,0 0,5.4035 0,5.4035 4.94409,0 4.94409,0 0,5.38162 0,5.38162 -5.53476,0 -5.53476,0 0,1.20321 0,1.20321 3.58775,0 3.58775,0 0,8.85999 0,8.85999 -1.94701,0 -1.94701,0 0,5.4035 0,5.4035 4.6597,0 4.6597,0 0.26302,6e-5 -5e-4,0.26246 0,4.20029 0,4.2003 -2.38454,0 -2.38454,0 0,6.01604 0,6.01604 -1.94701,0 -1.94701,0 0,2.53768 0,2.53767 3.28147,0 3.28148,0 0,5.70978 0,5.70977 3.9159,0 3.9159,0 0,5.84103 0,5.84103 -6.60671,0 -6.60671,0 0,2.55955 0,2.55955 2.99708,0 2.99708,0 0,2.69082 0,2.69081 -3.45649,0 -3.45649,0 0,1.50948 0,1.50948 2.55956,0 2.55955,0 0,2.84395 0,2.84394 2.69081,0 2.69081,0 0.30557,-3.1e-4 7e-4,0.30658 0,6.73797 0,6.73797 -5.84103,0 -5.84103,0 0,1.50948 0,1.50948 3.74089,0 3.74088,0 0,3.15022 0,3.15022 -4.35342,0 -4.35343,0 0,2.55955 0,2.55955 4.35343,0 4.35342,0 0,4.2003 0,4.20029 -2.10014,0 -2.10015,0 0,1.33447 0,1.33446 -3.15022,0 -3.15022,0 0,4.50657 0,4.50656 6.14731,0 6.1473,0 0,7.94118 0,7.94117 -4.63782,0 -4.94061,0.003 -0.004,2.71015 -3.5e-4,2.71154 1.94736,10e-4 1.64074,0 0,4.63782 0,4.63782 2.10015,0 2.10014,0 0,3.60963 0,3.60963 -2.10014,0 -2.10015,0 0,2.69081 0,2.69081 3.15022,0 3.15022,0 0,2.86582 0,2.86583 -4.04716,0 -4.04715,0 0,2.53767 0,2.53768 5.99416,0 5.99417,0 0,2.25328 0,2.25328 -5.09723,0 -5.09723,0 0,1.50948 0,1.50948 2.10015,0 2.10014,0 0,2.23141 0,2.2314 -5.4035,0 -5.4035,0 0,1.50948 0,1.50948 4.50657,0 4.50656,0 0,2.40642 0,2.40642 -3.58775,0 -3.58775,0 0,7.50364 0,7.50365 4.48469,0 4.48468,0 0,12.2946 0,12.29461 3.9159,0 3.9159,0 0,-12.29461 0,-12.2946 1.05007,0 1.05007,0 0,7.63491 0,7.6349 5.22849,0 5.22849,0 0,4.35343 0,4.35343 4.81283,0 4.81284,0 0,-7.19738 0,-7.19737 2.40641,0 2.40642,0 0,7.35051 0,7.35051 3.74089,0 3.74088,0 0,1.64074 0,1.64073 3.74089,0 3.74088,0 0,-7.6349 0,-7.63491 1.96889,0 2.235,8.6e-4 -0.004,4.7901 0,4.48469 2.71269,0 2.71269,0 0,4.04715 0,4.04716 3.45649,0 3.45649,0 z"
         id="path5248"
         inkscape:connector-curvature="0"
         sodipodi:nodetypes="cccccccccccccccccccccccccccccccccccccccccccccccccccccccccccccccccccccccccccccccccccccccccccccccccccccccccccccccccccccccccccccccccccccccccccccccccccccccccccccccccccccccccccccccccccccccccccccccccccccccccccccccccccccccccccccccccccccccccccccccccccccccccccccccccccccccccccccccccccccccccccccccccccccccccccccccccccccccccccccccccccccccccccccccccccccccccccccccccccccccccccccccccccccccccccccccccccccccccccccccccccccc" />
    </g>
    <g
       transform="matrix(11.566907,0,0,11.566907,375.67349,-1492.1177)"
       inkscape:transform-center-x="-2395.7441"
       inkscape:transform-center-y="-390.89933"
       style="font-style:normal;font-weight:normal;font-size:10px;line-height:125%;font-family:Sans;letter-spacing:0px;word-spacing:0px;fill:#000000;fill-opacity:1;stroke:none;stroke-width:1px;stroke-linecap:butt;stroke-linejoin:miter;stroke-opacity:1"
       id="teksti">
      <path
         d="m 121.08594,127.7836 -13.40332,0 0,-28.696293 q 0,-5.317383 -1.66992,-7.954101 -1.62598,-2.680664 -5.05372,-2.680664 -2.592769,0 -4.350582,1.054687 -1.757812,1.054688 -2.8125,3.120117 -1.054687,2.06543 -1.49414,5.097657 -0.439453,3.032227 -0.439453,6.943357 l 0,23.11524 -13.403321,0 0,-68.37891 13.403321,0 0,13.930664 q 0,1.845703 -0.08789,3.911133 -0.08789,2.021484 -0.219727,3.735352 -0.175781,2.021484 -0.307617,3.955078 l 0.703125,0 q 2.153321,-3.823243 5.493164,-5.493164 3.33984,-1.713868 7.55859,-1.713868 3.64746,0 6.5918,1.054688 2.98828,1.010742 5.09766,3.208008 2.10937,2.197265 3.25195,5.625 1.14258,3.383789 1.14258,8.129883 l 0,32.036136 z"
         style="font-style:normal;font-variant:normal;font-weight:bold;font-stretch:normal;font-size:90px;font-family:'Droid Sans';-inkscape-font-specification:'Droid Sans Bold'"
         id="path6607"
         inkscape:connector-curvature="0" />
      <path
         d="m 163.40527,127.7836 -2.59277,-6.67969 -0.39551,0 q -1.45019,1.97754 -2.90039,3.42773 -1.45019,1.40625 -3.16406,2.3291 -1.71387,0.92286 -3.86719,1.36231 -2.10937,0.43945 -4.92187,0.43945 -2.98828,0 -5.53711,-0.92285 -2.54883,-0.9668 -4.43848,-2.85644 -1.8457,-1.9336 -2.90039,-4.83399 -1.05469,-2.94433 -1.05469,-6.94336 0,-7.82226 5.00977,-11.51367 5.00976,-3.735351 14.98535,-4.130859 l 7.82227,-0.263672 0,-3.691406 q 0,-3.032227 -1.75782,-4.482422 -1.75781,-1.450196 -4.92187,-1.450196 -3.16406,0 -6.19629,0.922852 -2.98828,0.922852 -6.02051,2.460937 l -4.35059,-8.876953 q 3.69141,-2.065429 8.17383,-3.251953 4.48242,-1.186523 9.4043,-1.186523 9.18457,0 14.0625,4.30664 4.92187,4.306641 4.92187,13.095704 l 0,32.739261 -9.36035,0 z m -3.95507,-22.76368 -4.43848,0.17579 q -2.68067,0.0879 -4.52637,0.70312 -1.8457,0.61524 -2.98828,1.66992 -1.09863,1.01074 -1.62598,2.46094 -0.48339,1.40625 -0.48339,3.16406 0,3.07617 1.49414,4.39453 1.49414,1.27442 3.91113,1.27442 1.8457,0 3.42773,-0.61524 1.58203,-0.65918 2.72461,-1.88964 1.18653,-1.27442 1.84571,-3.07618 0.65918,-1.8457 0.65918,-4.21875 l 0,-4.04297 z"
         style="font-style:normal;font-variant:normal;font-weight:bold;font-stretch:normal;font-size:90px;font-family:'Droid Sans';-inkscape-font-specification:'Droid Sans Bold'"
         id="path6609"
         inkscape:connector-curvature="0" />
      <path
         d="m 206.99902,128.6625 q -5.27343,0 -9.53613,-1.45019 -4.21875,-1.4502 -7.25098,-4.48242 -2.98828,-3.07618 -4.61425,-7.82227 -1.58204,-4.79004 -1.58204,-11.42578 0,-7.338869 1.62598,-12.260744 1.66992,-4.96582 4.6582,-7.954101 3.03223,-2.988281 7.25098,-4.262696 4.2627,-1.274414 9.44824,-1.274414 3.7793,0 7.51465,0.922852 3.73535,0.922852 7.03125,2.592773 l -3.86719,10.195313 q -2.90039,-1.274414 -5.58105,-2.06543 -2.68066,-0.834961 -5.09766,-0.834961 -4.87793,0 -7.07519,3.735352 -2.19727,3.691406 -2.19727,11.118166 0,7.38281 2.19727,10.89844 2.19726,3.51562 6.89941,3.51562 3.82324,0 6.94336,-0.9668 3.12012,-1.01074 6.37207,-2.54882 l 0,11.1621 q -1.62597,0.79102 -3.16406,1.40625 -1.53809,0.61524 -3.12012,1.01075 -1.53808,0.3955 -3.25195,0.57129 -1.66992,0.21972 -3.60352,0.21972 z"
         style="font-style:normal;font-variant:normal;font-weight:bold;font-stretch:normal;font-size:90px;font-family:'Droid Sans';-inkscape-font-specification:'Droid Sans Bold'"
         id="path6611"
         inkscape:connector-curvature="0" />
      <path
         d="m 244.26465,101.06485 4.92187,-7.470707 11.99707,-14.941406 15.11719,0 -17.75391,21.313477 18.89649,27.817386 -15.46875,0 -11.95313,-18.89649 -5.22949,3.60352 0,15.29297 -13.40332,0 0,-68.37891 13.40332,0 0,30.498047 -0.70312,11.162113 0.17578,0 z"
         style="font-style:normal;font-variant:normal;font-weight:bold;font-stretch:normal;font-size:90px;font-family:'Droid Sans';-inkscape-font-specification:'Droid Sans Bold'"
         id="path6613"
         inkscape:connector-curvature="0" />
      <path
         d="m 297.87793,127.7836 -13.40332,0 0,-68.37891 13.40332,0 0,68.37891 z"
         style="font-style:normal;font-variant:normal;font-weight:bold;font-stretch:normal;font-size:90px;font-family:'Droid Sans';-inkscape-font-specification:'Droid Sans Bold'"
         id="path6615"
         inkscape:connector-curvature="0" />
      <path
         d="m 340.41699,127.7836 -2.59277,-6.67969 -0.39551,0 q -1.45019,1.97754 -2.90039,3.42773 -1.4502,1.40625 -3.16406,2.3291 -1.71387,0.92286 -3.86719,1.36231 -2.10937,0.43945 -4.92187,0.43945 -2.98829,0 -5.53711,-0.92285 -2.54883,-0.9668 -4.43848,-2.85644 -1.8457,-1.9336 -2.90039,-4.83399 -1.05469,-2.94433 -1.05469,-6.94336 0,-7.82226 5.00977,-11.51367 5.00976,-3.735351 14.98535,-4.130859 l 7.82226,-0.263672 0,-3.691406 q 0,-3.032227 -1.75781,-4.482422 -1.75781,-1.450196 -4.92187,-1.450196 -3.16407,0 -6.19629,0.922852 -2.98828,0.922852 -6.02051,2.460937 l -4.35059,-8.876953 q 3.69141,-2.065429 8.17383,-3.251953 4.48242,-1.186523 9.4043,-1.186523 9.18457,0 14.0625,4.30664 4.92187,4.306641 4.92187,13.095704 l 0,32.739261 -9.36035,0 z m -3.95508,-22.76368 -4.43847,0.17579 q -2.68067,0.0879 -4.52637,0.70312 -1.8457,0.61524 -2.98828,1.66992 -1.09863,1.01074 -1.62598,2.46094 -0.4834,1.40625 -0.4834,3.16406 0,3.07617 1.49414,4.39453 1.49415,1.27442 3.91114,1.27442 1.8457,0 3.42773,-0.61524 1.58203,-0.65918 2.72461,-1.88964 1.18652,-1.27442 1.8457,-3.07618 0.65918,-1.8457 0.65918,-4.21875 l 0,-4.04297 z"
         style="font-style:normal;font-variant:normal;font-weight:bold;font-stretch:normal;font-size:90px;font-family:'Droid Sans';-inkscape-font-specification:'Droid Sans Bold'"
         id="path6617"
         inkscape:connector-curvature="0" />
      <path
         d="m 389.76758,77.729885 q 3.77929,0 6.89941,1.625977 3.12012,1.625977 5.36133,4.833984 2.24121,3.208008 3.47168,7.954102 1.27441,4.746094 1.27441,10.986332 0,6.32812 -1.27441,11.11816 -1.23047,4.74609 -3.51563,7.9541 -2.28515,3.20801 -5.49316,4.83399 -3.20801,1.62597 -7.07519,1.62597 -2.46094,0 -4.39454,-0.52734 -1.88964,-0.52734 -3.38378,-1.40625 -1.49415,-0.87891 -2.63672,-1.97754 -1.09864,-1.14258 -2.02149,-2.37305 l -0.92285,0 -2.24121,5.40528 -10.23926,0 0,-68.37891 13.40332,0 0,15.908203 q 0,1.450196 -0.0879,3.164063 -0.0879,1.669922 -0.17578,3.120117 -0.13184,1.713867 -0.26367,3.427734 l 0.52734,0 q 0.92285,-1.538086 2.10938,-2.856445 1.18652,-1.318359 2.72461,-2.285156 1.58203,-1.010742 3.55957,-1.582032 1.97754,-0.571289 4.39453,-0.571289 z m -4.52637,10.722657 q -2.24121,0 -3.82324,0.834961 -1.53809,0.791015 -2.50488,2.416992 -0.9668,1.625976 -1.40625,4.130859 -0.43946,2.460938 -0.52735,5.756836 l 0,1.4502 q 0,3.55957 0.39551,6.32812 0.43945,2.76856 1.40625,4.6582 0.9668,1.84571 2.54883,2.8125 1.62597,0.9668 3.99902,0.9668 3.99902,0 5.84473,-3.7793 1.88965,-3.82324 1.88965,-11.07422 0,-7.250972 -1.88965,-10.854487 -1.84571,-3.647461 -5.93262,-3.647461 z"
         style="font-style:normal;font-variant:normal;font-weight:bold;font-stretch:normal;font-size:90px;font-family:'Droid Sans';-inkscape-font-specification:'Droid Sans Bold'"
         id="path6619"
         inkscape:connector-curvature="0" />
      <path
         d="m 416.35449,121.49942 q 0,-2.06543 0.57129,-3.47168 0.61524,-1.4502 1.66992,-2.3291 1.05469,-0.87891 2.46094,-1.27442 1.40625,-0.39551 3.03223,-0.39551 1.53808,0 2.90039,0.39551 1.40625,0.39551 2.46094,1.27442 1.05468,0.8789 1.66992,2.3291 0.61523,1.40625 0.61523,3.47168 0,1.97754 -0.61523,3.38379 -0.61524,1.40625 -1.66992,2.3291 -1.05469,0.92285 -2.46094,1.31836 -1.36231,0.43945 -2.90039,0.43945 -1.62598,0 -3.03223,-0.43945 -1.40625,-0.39551 -2.46094,-1.31836 -1.05468,-0.92285 -1.66992,-2.3291 -0.57129,-1.40625 -0.57129,-3.38379 z"
         style="font-style:normal;font-variant:normal;font-weight:bold;font-stretch:normal;font-size:90px;font-family:'Droid Sans';-inkscape-font-specification:'Droid Sans Bold'"
         id="path6621"
         inkscape:connector-curvature="0" />
      <path
         d="m 469.44043,88.716214 -9.97559,0 0,39.067386 -13.40332,0 0,-39.067386 -7.38281,0 0,-6.459961 7.38281,-3.603516 0,-3.603516 q 0,-4.702148 1.14258,-7.77832 1.14258,-3.120117 3.25195,-4.96582 2.10938,-1.845703 5.09766,-2.592774 2.98828,-0.791015 6.72363,-0.791015 4.04297,0 6.81153,0.659179 2.76855,0.615235 4.70215,1.40625 l -3.16407,9.84375 q -1.3623,-0.483398 -2.85644,-0.878906 -1.49414,-0.395508 -3.51563,-0.395508 -2.63672,0 -3.73535,1.713867 -1.05469,1.669922 -1.05469,4.306641 l 0,3.076172 9.97559,0 0,10.063477 z"
         style="font-style:normal;font-variant:normal;font-weight:bold;font-stretch:normal;font-size:90px;font-family:'Droid Sans';-inkscape-font-specification:'Droid Sans Bold'"
         id="path6623"
         inkscape:connector-curvature="0" />
      <path
         d="m 478.1416,65.952542 q 0,-1.889649 0.57129,-3.120118 0.57129,-1.274414 1.53809,-2.021484 1.01074,-0.791016 2.3291,-1.098633 1.3623,-0.307617 2.85644,-0.307617 1.49414,0 2.8125,0.307617 1.31836,0.307617 2.28516,1.098633 1.01074,0.74707 1.58203,2.021484 0.61524,1.230469 0.61524,3.120118 0,1.845703 -0.61524,3.120117 -0.57129,1.274414 -1.58203,2.06543 -0.9668,0.74707 -2.28516,1.098632 -1.31836,0.307618 -2.8125,0.307618 -1.49414,0 -2.85644,-0.307618 -1.31836,-0.351562 -2.3291,-1.098632 -0.9668,-0.791016 -1.53809,-2.06543 -0.57129,-1.274414 -0.57129,-3.120117 z m 13.97461,61.831058 -13.40332,0 0,-49.130863 13.40332,0 0,49.130863 z"
         style="font-style:normal;font-variant:normal;font-weight:bold;font-stretch:normal;font-size:90px;font-family:'Droid Sans';-inkscape-font-specification:'Droid Sans Bold'"
         id="path6625"
         inkscape:connector-curvature="0" />
    </g>
  </g>
</svg>
