<?xml version="1.0" encoding="UTF-8" standalone="no"?>
<!-- Created with Inkscape (http://www.inkscape.org/) -->

<svg
   xmlns:dc="http://purl.org/dc/elements/1.1/"
   xmlns:cc="http://creativecommons.org/ns#"
   xmlns:rdf="http://www.w3.org/1999/02/22-rdf-syntax-ns#"
   xmlns:svg="http://www.w3.org/2000/svg"
   xmlns="http://www.w3.org/2000/svg"
   xmlns:sodipodi="http://sodipodi.sourceforge.net/DTD/sodipodi-0.dtd"
   xmlns:inkscape="http://www.inkscape.org/namespaces/inkscape"
   width="50mm"
   height="76mm"
   viewBox="0 0 177.16535 269.29134"
   id="svg2"
   version="1.1"
   inkscape:version="0.91 r13725"
   sodipodi:docname="kartta_ja_paikkamerkit.svg">
  <defs
     id="defs4">
    <inkscape:perspective
       id="perspective611"
       inkscape:persp3d-origin="924.99994 : 1073.3333 : 1"
       inkscape:vp_z="1849.9999 : 1609.9999 : 1"
       inkscape:vp_y="0 : 999.99994 : 0"
       inkscape:vp_x="0 : 1609.9999 : 1"
       sodipodi:type="inkscape:persp3d" />
    <style
       id="style6"
       type="text/css">
   
    .str3 {stroke:#C7C7A2;stroke-width:0.797991}
    .str1 {stroke:#8C8C60;stroke-width:1.70998}
    .str2 {stroke:#636347;stroke-width:2.27997}
    .str0 {stroke:#1F1A17;stroke-width:3.98996}
    .fil1 {fill:none}
    .fil0 {fill:#EEEED4}
   
  </style>
    <inkscape:perspective
       sodipodi:type="inkscape:persp3d"
       inkscape:vp_x="0 : 0.49999997 : 1"
       inkscape:vp_y="0 : 999.99994 : 0"
       inkscape:vp_z="0.9999999 : 0.49999997 : 1"
       inkscape:persp3d-origin="0.49999997 : 0.33333331 : 1"
       id="perspective3574" />
  </defs>
  <sodipodi:namedview
     id="base"
     pagecolor="#ffffff"
     bordercolor="#666666"
     borderopacity="1.0"
     inkscape:pageopacity="0.0"
     inkscape:pageshadow="2"
     inkscape:zoom="1"
     inkscape:cx="171.86836"
     inkscape:cy="54.476051"
     inkscape:document-units="mm"
     inkscape:current-layer="layer1"
     showgrid="false"
     inkscape:window-width="1280"
     inkscape:window-height="701"
     inkscape:window-x="139"
     inkscape:window-y="0"
     inkscape:window-maximized="0"
     showguides="false"
     inkscape:guide-bbox="true">
    <sodipodi:guide
       position="372.04725,991.42859"
       orientation="1,0"
       id="guide4177"
       inkscape:label=""
       inkscape:color="rgb(0,0,255)" />
    <sodipodi:guide
       position="908.8393,172.41072"
       orientation="0,1"
       id="guide7587" />
    <sodipodi:guide
       position="105,617.00001"
       orientation="1,0"
       id="guide6267" />
  </sodipodi:namedview>
  <metadata
     id="metadata7">
    <rdf:RDF>
      <cc:Work
         rdf:about="">
        <dc:format>image/svg+xml</dc:format>
        <dc:type
           rdf:resource="http://purl.org/dc/dcmitype/StillImage" />
        <dc:title />
      </cc:Work>
    </rdf:RDF>
  </metadata>
  <g
     inkscape:label="Taso 1"
     inkscape:groupmode="layer"
     id="layer1"
     transform="translate(0,-783.07087)">
    <g
       style="fill:#000000;fill-rule:evenodd;stroke:none;stroke-width:4.32607672;stroke-linecap:round;stroke-linejoin:round;stroke-miterlimit:4;stroke-dasharray:none;stroke-opacity:1;fill-opacity:1"
       id="_91105008"
       transform="matrix(0.08190578,0,0,0.08190579,9.5832055,785.99404)">
      <path
         style="color:#000000;font-style:normal;font-variant:normal;font-weight:normal;font-stretch:normal;font-size:medium;line-height:normal;font-family:sans-serif;text-indent:0;text-align:start;text-decoration:none;text-decoration-line:none;text-decoration-style:solid;text-decoration-color:#000000;letter-spacing:normal;word-spacing:normal;text-transform:none;direction:ltr;block-progression:tb;writing-mode:lr-tb;baseline-shift:baseline;text-anchor:start;white-space:normal;clip-rule:nonzero;display:inline;overflow:visible;visibility:visible;opacity:1;isolation:auto;mix-blend-mode:normal;color-interpolation:sRGB;color-interpolation-filters:linearRGB;solid-color:#000000;solid-opacity:1;fill:#000000;fill-opacity:1;fill-rule:nonzero;stroke:none;stroke-width:4.32607672;stroke-linecap:round;stroke-linejoin:round;stroke-miterlimit:4;stroke-dasharray:none;stroke-dashoffset:0;stroke-opacity:1;color-rendering:auto;image-rendering:auto;shape-rendering:auto;text-rendering:auto;enable-background:accumulate"
         d="m 86.681641,2984.6426 c -7.352089,-0.1499 -14.922502,0.5282 -22.650391,2.0586 -30.911555,6.1213 -64.64612768,28.238 -82.349609,68.4472 -1.698832,3.8576 -2.62006,8.0125 -2.710938,12.2266 -0.348983,16.2953 1.990685,32.9394 14.8183595,45.7773 11.3142243,11.3233 23.8119315,13.0116 30.7617185,13.6622 1.158571,9.8799 5.556017,13.3229 7.767578,16.0175 2.686101,3.2728 4.773449,5.0378 6.835938,6.7266 8.249956,6.7552 16.947272,11.4711 27.919922,16.25 10.97265,4.7789 23.133682,9.1605 38.128901,9.8223 7.49762,0.3309 16.11553,-0.2443 25.51758,-4.4219 9.40206,-4.1776 18.96298,-13.2171 23.5,-23.7305 1.49976,-3.5106 2.36029,-7.2609 2.54102,-11.0742 1.01721,-1.1732 2.45023,-2.7265 4.51758,-4.6367 7.26732,-6.7148 19.36584,-15.1085 30.79492,-27.6367 5.71454,-6.2642 11.99193,-13.9563 15.24414,-26.2305 3.25221,-12.2742 0.17321,-29.1979 -7.74805,-40.0762 -14.27888,-19.6093 -34.05097,-27.4552 -63.74804,-36.125 -8.30362,-7.7583 -18.14633,-11.6288 -27.80079,-14.1426 -6.85487,-1.7848 -13.987751,-2.7641 -21.339839,-2.914 z m -1.279297,64.166 c 2.670791,0.059 4.933434,0.3751 6.470703,0.7754 0.494846,0.1288 0.694402,0.2722 0.966797,0.414 4.153379,5.0773 9.764626,8.7579 16.076176,10.545 11.46643,3.2219 19.40327,6.5277 25.71093,9.4336 -4.94952,4.1909 -10.7781,9.1066 -16.8457,14.7129 -5.73026,5.2946 -11.73147,11.2223 -17.04102,19.8535 -0.82268,1.3373 -1.564264,2.9601 -2.33398,4.5 -1.92595,-0.6293 -3.799695,-1.1529 -5.740234,-1.9981 -1.289532,-0.5616 -2.32876,-1.2163 -3.576172,-1.8554 -5.165504,-14.0717 -14.060494,-26.337 -25.494141,-33.2481 -5.086597,-3.0746 -9.847117,-4.7738 -14.25,-5.9961 8.321507,-10.3264 18.015048,-14.5628 27.136719,-16.3691 3.169578,-0.6277 6.249131,-0.8262 8.919922,-0.7676 z m 6.662109,0.2148 c 0.05053,0.065 0.101315,0.1291 0.152344,0.1934 -0.05374,-0.063 -0.0956,-0.124 -0.152344,-0.1934 z m 1.091797,1.1094 c 0.423705,0.2693 0.398392,0.3023 0,0 z"
         id="_91165368"
         inkscape:connector-curvature="0"
         sodipodi:nodetypes="ssccscsssssccsssscsscccccsccccscccccccc" />
      <path
         style="color:#000000;font-style:normal;font-variant:normal;font-weight:normal;font-stretch:normal;font-size:medium;line-height:normal;font-family:sans-serif;text-indent:0;text-align:start;text-decoration:none;text-decoration-line:none;text-decoration-style:solid;text-decoration-color:#000000;letter-spacing:normal;word-spacing:normal;text-transform:none;direction:ltr;block-progression:tb;writing-mode:lr-tb;baseline-shift:baseline;text-anchor:start;white-space:normal;clip-rule:nonzero;display:inline;overflow:visible;visibility:visible;opacity:1;isolation:auto;mix-blend-mode:normal;color-interpolation:sRGB;color-interpolation-filters:linearRGB;solid-color:#000000;solid-opacity:1;fill:#000000;fill-opacity:1;fill-rule:nonzero;stroke:none;stroke-width:4.32607651;stroke-linecap:round;stroke-linejoin:round;stroke-miterlimit:4;stroke-dasharray:none;stroke-dashoffset:0;stroke-opacity:1;color-rendering:auto;image-rendering:auto;shape-rendering:auto;text-rendering:auto;enable-background:accumulate"
         d="m 1265.8887,-18.169922 c -4.2617,-0.04623 -8.6368,0.369319 -13.0645,1.363281 -17.7108,3.975848 -32.2896,16.30213208 -42.8281,31.732422 -4.7287,6.923695 -6.4631,7.255012 -9.3516,8.09961 -2.8884,0.844597 -8.5527,1.105992 -17.3476,0.15625 -8.795,-0.949743 -20.1525,-3.108861 -34.2344,-2.765625 -14.0819,0.343235 -32.0325,4.421639 -46.8086,16.300781 -32.8206,26.385986 -66.0682,64.897653 -78.4551,112.019533 -10.7806,41.01152 -18.0189,89.47116 -22.5898,134.04492 -2.76014,26.91547 2.8542,50.56923 2.0586,64.52539 -0.3978,6.97808 -1.9863,9.6512 -1.6934,9.26758 0.2929,-0.38362 2.076,0.12027 -5.31443,0.8125 -23.89716,2.23832 -43.4773,19.92674 -51.78907,36.4082 -8.31176,16.48147 -10.51781,32.26294 -12.48242,45.33789 -0.24086,1.60301 -0.2781,1.45328 -0.52539,2.98633 -20.62773,-11.80366 -34.80873,-24.46417 -53.63672,-43.86133 -15.52812,-15.99754 -41.77035,-23.77519 -60.60351,-17.71484 -18.83317,6.06035 -28.77563,17.37662 -37.21289,25.94726 -5.83067,5.92284 -10.29044,10.21434 -13.53125,13.17383 -24.49303,-13.64366 -46.77565,-8.80849 -63.21094,-9.23242 -9.05217,-0.23349 -16.33668,-1.13299 -19.66406,-2.16211 -3.32739,-1.02912 -1.81919,-0.42644 -1.83008,-0.44531 -25.80385,-44.73086 -38.60751,-91.2311 -51.91992,-142.64649 -5.61068,-21.66963 -20.76487,-37.71625 -36.92774,-47.11523 -16.16287,-9.39898 -33.73806,-13.52344 -51.03906,-13.67188 -17.301,-0.14843 -35.04522,3.17996 -50.7207,15.61329 -11.82646,9.38038 -19.85078,26.32423 -20.67579,43.35156 -4.55995,-1.19417 -10.23117,-1.92731 -18.84961,-0.17383 -6.76664,1.37673 -15.64716,5.75795 -21.4414,12.83008 -5.79424,7.07213 -7.92772,15.03997 -8.53711,21.15625 -1.21878,12.23256 1.38192,20.24022 4.68164,30.16992 9.2621,27.87204 24.44184,46.72912 36.71875,60.70117 12.27691,13.97206 21.2282,23.39079 28.60156,39.23047 12.07114,25.93159 30.10428,42.71707 44.59766,55.4668 14.49337,12.74973 25.24829,21.9231 32.37305,33.65039 17.7839,29.27216 46.81736,36.7278 67.3164,44.01562 20.49905,7.28783 33.94783,13.54881 40.41602,22.71875 10.63131,15.07201 15.10773,28.74394 21.85351,46.28516 6.74578,17.54122 16.69624,39.45915 37.5,58.1875 4.9816,4.48462 5.04006,5.77887 5.35547,7.12891 0.31541,1.35003 0.48285,4.45689 -0.93164,10.91992 -2.82899,12.92605 -12.74215,36.17541 -13.74023,67.13672 -1.58886,49.28745 -3.44057,122.34177 16.98828,208.50976 12.93996,54.58024 18.50002,66.60674 9.69336,107.81644 -2.26909,10.6179 -9.8816,24.4136 -18.28906,42.9609 -8.40747,18.5473 -16.93834,43.7662 -11.72071,72.8008 5.0945,28.3494 17.4412,50.0039 27.1836,67.9746 9.74239,17.9707 16.87758,32.1393 19.15625,47.7695 2.69564,18.4905 6.56473,32.6829 15.82617,45.1602 9.26144,12.4773 24.56749,18.9747 32.89453,20.9453 16.65408,3.9411 8.72647,-3.843 16.23437,8.5898 10.51811,17.4177 25.97777,27.1303 38.6543,33.7012 12.67653,6.5709 23.63036,10.9395 31.375,15.5957 7.74464,4.6562 12.00789,8.4892 15.50781,15.2403 3.49992,6.751 6.66113,18.0798 5.35157,39.1992 -0.93955,15.1521 -4.45255,33.3606 -4.00586,54.8105 0.30514,14.6532 3.43104,31.3466 11.1582,47.3457 -16.28119,5.2562 -38.33069,13.1925 -64.50586,26.9981 -25.14077,13.2599 -38.52934,36.0161 -47.42773,56.0312 -8.8984,20.0152 -14.8582,39.2103 -22.9629,55.0235 -14.89907,29.0696 -37.02678,60.8799 -58.9746,76.9492 -22.19062,16.247 -30.91658,37.4566 -38.70704,51.5136 -1.49829,2.7036 -2.79994,4.8319 -4.04882,6.879 -4.92096,0.2329 -9.9612,1.0952 -14.86133,3.125 -10.91789,4.5224 -18.25776,13.2419 -22.11524,20.0839 -7.06748,12.5356 -8.02062,21.0483 -9.39843,26.7305 -1.14193,-0.3529 -1.98513,-0.565 -3.64454,-1.1797 -14.71616,-5.4514 -32.28269,-5.9751 -46.36132,0.1934 -14.07864,6.1685 -22.77573,16.4779 -28.86133,25.5781 -12.1712,18.2005 -18.09232,35.703 -23.58594,44.084 -8.38708,12.7951 -15.19169,17.062 -26.43164,25.3222 -11.23995,8.2603 -28.58644,23.567 -35.32812,47.0899 -6.5038,22.6929 -1.84579,40.7243 1.35742,51.8555 -11.15702,-0.9902 -29.32134,-4.5297 -47.70313,-6.252 -11.27031,-1.056 -24.07164,-3.4691 -40.98633,7.0391 -8.45734,5.254 -16.27894,15.6581 -18.85937,25.8398 -2.38229,9.4 -1.55839,17.6514 0.15234,25.2129 -2.4122,1.6279 -5.0607,3.7391 -7.93164,6.6211 -6.12719,6.1508 -10.44087,16.1268 -11.23047,24.1855 -0.78959,8.0588 0.51473,14.4205 2.24805,20.4883 2.03676,7.1301 2.00023,10.2324 1.94141,11.3457 -2.48076,1.8664 -16.83318,8.0192 -35.38672,19.752 -21.10598,13.3468 -22.14737,27.4465 -26.32617,42.7578 -4.17881,15.3113 -6.63729,32.8485 -7.29102,51.5449 -1.29179,36.945 2.07137,78.63 28.81445,110.627 -0.53175,1.5678 -1.47826,4.1891 -3.63671,8.625 -6.4008,13.1544 -21.89562,39.9382 -11.16602,71.8008 13.66812,40.5888 22.21737,61.9038 31.99805,87.0585 4.14258,10.6543 3.97075,14.8951 3.90625,15.752 -0.77855,0.8122 -2.29928,2.0864 -5.33985,5.7422 -3.14185,3.7776 -9.074,11.9684 -9.33593,23.9648 -0.16924,7.7511 2.28993,14.2904 5.24804,19.4961 -5.95932,10.8003 -10.5398,24.6663 -9.2793,39.9492 3.18511,38.6177 4.3645,42.1721 -19.48632,69.4532 -5.54443,6.3418 -9.17502,12.7836 -11.55078,19.0351 -7.05138,2.8852 -13.02912,7.8511 -15.80469,11.8828 -3.94319,5.7279 -4.71517,9.5962 -5.34375,12.4981 -2.51432,11.6074 -0.92289,14.7578 -0.26172,20.6211 1.32233,11.7265 4.02702,25.6201 6.75781,39.0156 1.02146,5.0106 1.57037,7.5325 2.52539,12.0449 -0.006,0.1232 -0.0193,0.2933 -0.0254,0.4121 -0.20567,4.0274 0.15285,6.5337 0.50586,8.8262 0.70603,4.5851 1.70732,8.1683 2.99414,12.4316 0.76606,2.5381 1.35051,4.4221 1.98828,6.2832 0.31889,0.9306 0.58905,1.7566 1.28907,3.4004 0.35001,0.822 0.69238,1.7542 1.98632,3.961 0.64698,1.1034 1.4251,2.5238 3.64454,5.0449 2.21943,2.5211 5.38919,8.0873 18.51171,10.4102 0.52731,0.093 1.15285,0.065 1.71094,0.125 3.13691,4.3566 5.92839,8.2012 9.39844,13.0488 12.85553,17.9588 28.10116,38.9 44.10351,57.7773 16.00236,18.8773 31.38741,35.8908 52.44336,46.8399 13.29936,6.9156 23.91878,10.9561 32.42578,13.334 1.26438,0.3534 2.06076,0.4597 3.24024,0.75 0.0727,0.2153 0.1023,0.2526 0.17578,0.4746 4.84306,14.6283 13.93257,28.025 26.375,34.9629 1.90038,1.0596 3.63132,1.667 5.41992,2.4121 -0.0619,1.1649 -0.0391,2.0559 -0.16406,3.3847 -0.81469,8.6609 1.5436,20.0804 7.53711,28.2637 5.99351,8.1833 13.53848,12.2425 19.24805,14.4883 3.97244,1.5625 7.30607,2.4412 10.38086,3.1055 -0.20207,0.5989 -0.36687,1.1178 -0.57032,1.7207 -2.93817,8.707 -7.89849,14.821 -6.13672,33.248 0.44045,4.6067 1.65685,10.7337 5.9668,17.2969 4.30995,6.5632 12.30739,12.4054 19.60547,14.6015 14.59616,4.3922 22.80526,0.3773 29.79297,-2.4589 13.79945,-5.601 26.61127,-14.4047 46.64453,-29.3497 3.3952,3.1917 8.83785,6.9864 18.95313,9.4649 8.75922,2.1463 19.87292,0.6009 27.48437,-3.0996 7.61145,-3.7005 12.6534,-8.4182 17.23633,-13.4512 -0.97637,1.0723 0.70814,-0.7902 7.39062,-2.0215 6.68248,-1.2312 16.85717,-1.6783 27.87696,-1.8652 11.01978,-0.187 22.71481,-0.028 35.47851,-2.1387 4.81317,-0.796 10.50295,-2.0509 16.25781,-4.3555 0.49385,0.3179 0.86419,0.6366 1.39649,0.9532 7.67629,4.566 21.5254,7.1223 32.24023,3.5761 20.04001,-6.6323 26.09515,-19.0206 33.41211,-33.8906 0.26325,-0.023 0.30018,-0.033 2.25977,-0.4179 5.48385,-1.0763 15.46795,-1.2804 25.27734,-0.9493 9.8094,0.3311 15.06246,3.7663 33.37891,-1.5937 4.57911,-1.34 11.94048,-3.5652 18.8789,-12.8457 6.93843,-9.2806 7.41662,-24.368 4.76172,-31.9317 -0.0461,-0.1313 -0.0944,-0.187 -0.14062,-0.3164 0.9015,-0.4781 1.72716,-0.9785 2.67969,-1.4257 8.29252,-3.894 18.46045,-7.1553 25.94531,-8.4317 7.48486,-1.2764 11.95128,1.791 5.4414,-2.0254 8.38932,4.9183 14.82901,9.1531 25.51368,12.1895 10.68467,3.0363 28.8007,0.5039 38.4609,-6.2735 15.9931,-11.2203 20.7956,-20.9117 31.4688,-35.2226 3.1069,2.7626 6.8585,5.6695 12.1582,8.4629 13.1479,6.93 36.3867,5.7669 50.5527,-3.6172 3.771,-2.498 10.7147,-2.0047 26.1133,1.9512 7.6993,1.9779 15.6895,5.3358 29.9356,4.623 7.123,-0.3564 17.066,-2.5854 25.5039,-9.4941 7.2787,-5.9597 11.6128,-14.2267 13.8203,-21.6993 3.3975,1.4156 7.3059,3.1713 11.8086,5.3555 7.1397,3.4634 13.5039,8.0756 27.8125,9.9961 28.7088,3.8532 53.4021,-10.0715 67.9258,-23.207 14.5236,-13.1355 24.2506,-25.621 28.4531,-28.8711 24.6651,-19.0754 39.2315,-42.2852 52.1504,-60.3145 12.9188,-18.0292 23.4293,-30.2744 36.6543,-36.7441 28.9641,-14.1693 40.5873,-39.7484 48.7578,-54.293 8.1705,-14.5446 10.4048,-19.3886 23.8652,-23.4941 37.1593,-11.3338 59.0544,-39.961 73.2734,-64.9766 14.2191,-25.0155 24.1206,-48.2234 35.6055,-61.8262 32.3644,-38.3323 47.6677,-78.1541 70.4024,-111.0859 35.6481,-51.6372 60.3596,-103.3575 97.2031,-135.5566 64.0269,-55.9559 67.7978,-143.5225 88.4297,-199.7032 6.5562,-17.8525 6.9088,-37.0576 1.6406,-52.5781 -5.2682,-15.5205 -14.3635,-26.4923 -22.3945,-35.2539 -16.0622,-17.5232 -27.7509,-28.116 -31.168,-39.1875 -10.8492,-35.1516 -42.2252,-48.9228 -64.9414,-58.5586 -22.7162,-9.6358 -41.136,-18.1964 -46.4629,-24.3652 -17.5007,-20.2666 -40.0123,-35.0446 -50.918,-47.0684 -1.8425,-2.0314 -3.0116,-3.6881 -3.9316,-5.0996 44.7665,-36.8552 61.8657,-100.1692 50.875,-156.1758 -7.5577,-38.5129 -38.9492,-55.5524 -55.7832,-67.5586 -8.417,-6.003 -14.0745,-11.0674 -16.3262,-14.2441 -2.2517,-3.1767 -2.8299,-3.5218 -2.1074,-9.7129 1.659,-14.2156 8.5322,-35.0604 5.9746,-61.0039 -1.2788,-12.9718 -6.2365,-28.4531 -17.623,-40.5391 -10.9092,-11.5792 -25.9786,-18.5162 -42.6993,-22.0254 -0.052,-1.4192 -0.041,-3.2484 0.3457,-5.748 1.9532,-12.6179 11.6349,-34.323 20.9747,-48.1426 4.9801,-7.3688 9.0525,-15.5521 10.5136,-25.4101 1.4611,-9.8581 -0.7734,-20.9289 -4.8672,-28.6993 -8.1875,-15.5407 -17.8074,-20.218 -22.5703,-24.1132 -3.225,-2.6376 -4.2677,-3.9141 -4.5371,-4.1914 -0.1031,-0.045 -0.2911,-1.4154 3.0117,-8.9161 10.8133,-24.5564 11.652,-42.6544 13.7813,-50.1425 2.1293,-7.4881 3.2579,-11.9193 24.0137,-28.2657 16.2705,-12.8139 24.8961,-33.5415 25.4043,-51.3203 0.5081,-17.7787 -4.3852,-33.3119 -10.4024,-47.8613 -12.0344,-29.0988 -30.3708,-55.8495 -40.3574,-73.7441 -29.8708,-53.5241 -46.4649,-120.2758 -89.2793,-181.7676 -12.0918,-17.3668 -20.2631,-31.827 -22.8379,-43.2324 -2.5748,-11.4055 -2.2575,-20.6431 8.2793,-38.09574 16.3646,-27.10567 46.9979,-61.14697 70.707,-99.05664 11.8546,-18.95484 22.2194,-39.27925 27.0371,-62.13868 4.8178,-22.85942 3.0826,-48.85579 -8.9394,-72.54882 -28.404,-55.97855 -64.5963,-89.54116 -93.2012,-129.2754 -19.3759,-26.91461 -46.0234,-33.92341 -60.0332,-41.05078 -14.0098,-7.12736 -17.7646,-7.36648 -21.0527,-26.58203 -7.8769,-46.0315 -5.0314,-65.4678 13.125,-99.38476 11.645,-21.75345 13.9422,-47.47479 3.3125,-65.69336 -1.9553,-3.35114 -4.0981,-6.17035 -6.2969,-8.75977 10.5535,-9.87678 17.9587,-22.68872 20.1289,-34.56836 3.1294,-17.13064 -0.051,-30.34431 -1.8555,-40.73828 -1.8047,-10.39397 -2.4955,-17.97663 -2.08,-20.86523 0.4154,-2.88861 -1.1008,-1.64465 3.75,-4.9375 31.498,-21.3819 48.2303,-54.70551 47.8164,-86.41016 -0.4139,-31.70465 -14.7022,-60.32926 -34.8692,-83.41016 -19.1465,-21.912954 -42.4717,-31.921661 -60.3027,-40.67773 -17.831,-8.756069 -29.6432,-15.926117 -35.418,-24.068359 -12.1939,-17.193079 -27.0941,-38.7289125 -51.5957,-52.9980472 -9.1881,-5.3509258 -20.9631,-9.6523298 -33.748,-9.7910158 z m 0.6328,64.707031 c 0.3437,0.179414 0.2144,0.09625 0.8574,0.470703 6.5045,3.788052 20.7882,19.486099 31.5723,34.691407 17.1918,24.240051 40.8519,35.390111 59.4472,44.521481 18.5953,9.13138 32.6525,16.57833 40.2891,25.31836 12.367,14.15385 18.8899,30.19751 19.0449,42.07227 0.155,11.87475 -2.7856,21.04293 -19.7265,32.54297 -17.8107,12.09046 -28.7512,31.86368 -31.1934,48.8457 -2.4422,16.98202 0.5749,30.60885 2.3711,40.95312 1.6787,9.66763 2.0083,15.97955 1.9238,17.5254 -0.3489,0.12917 -0.4792,0.1153 -1.0683,0.40625 -9.7738,4.8269 -17.0029,8.75024 -23.7598,13.75585 -6.7569,5.00562 -17.5243,11.84079 -18.5703,31.02344 -0.523,9.59133 3.7194,19.13344 7.8633,24.33985 4.1439,5.20641 7.8329,7.62271 10.7558,9.4707 5.8458,3.69598 9.6626,5.09793 12.836,6.58398 1.7397,0.81472 2.2624,1.26243 3.289,1.90235 -0.5321,1.02794 -0.4262,0.75416 -1.916,3.53711 -23.1942,43.32802 -29.0276,86.48118 -19.793,140.44726 6.6,38.56953 34.27,62.26478 55.168,72.89649 20.8981,10.63171 32.6404,15.20673 37.0781,21.37109 32.9679,45.79479 65.1584,75.6965 88.0606,120.83203 5.1846,10.21787 5.8397,18.652 3.3789,30.32813 -2.4608,11.67612 -9.0432,25.99215 -18.6602,41.36914 -19.2339,30.75398 -49.6389,64.14117 -71.2363,99.91406 -17.2903,28.63896 -21.8151,59.27825 -15.9316,85.33985 5.8834,26.0616 19.4729,46.659 32.7597,65.7422 34.185,49.0978 50.6077,113.1167 85.9121,176.3769 12.3565,22.141 28.9001,47.1845 37.0977,67.0059 4.0988,9.9107 5.6602,18.1185 5.5625,21.5351 -0.098,3.4167 0.861,1.3375 -0.9922,2.7969 -26.8111,21.1153 -40.6968,42.4104 -46.0078,61.0879 -5.3111,18.6775 -4.3379,27.1846 -10.793,41.8438 -8.5213,19.3514 -10.7416,39.5314 -4.7988,56.3437 5.9226,16.7555 17.3794,26.4575 24.3281,32.1426 -12.0208,19.1328 -22.8547,41.9481 -26.7344,67.0117 -2.1823,14.0984 -2.4539,29.7785 5.2168,45.7266 7.6708,15.9481 25.3263,28.7707 43.6719,32.2539 8.622,1.637 10.2247,3.6255 10.1543,3.5508 -0.07,-0.075 0.1397,-0.6615 0.4883,2.875 0.6973,7.073 -3.3312,25.7037 -5.8496,47.2832 -2.3831,20.419 3.7063,40.4223 13.4785,54.2089 9.7722,13.7867 21.4942,22.2996 31.3984,29.3633 19.8086,14.1276 28.8229,21.181 30.1055,27.7168 5.8731,29.9283 -10.9558,80.0518 -29.1601,94.7676 -15.9293,12.8767 -26.8346,34.6295 -24.5059,54.1582 2.3287,19.5288 12.5039,32.4415 22.1426,43.0684 19.2773,21.2538 43.3413,38.323 49.8828,45.8984 21.8397,25.2915 49.9354,32.9946 69.9453,41.4824 20.0099,8.4879 27.5688,14.7019 28.7266,18.4532 10.2805,33.3089 33.8865,51.2944 45.1621,63.5957 5.6378,6.1506 8.2209,10.4013 8.9492,12.5468 0.7283,2.1455 1.3946,3.0498 -1.1133,9.8789 -25.4795,69.3808 -33.3057,141.0844 -70.4394,173.5371 -50.4824,44.1187 -76.3576,101.8976 -107.7735,147.4043 -27.9311,40.4591 -42.7372,77.8554 -66.6269,106.1504 -20.8411,24.6842 -31.1265,51.7486 -42.3555,71.5039 -11.229,19.7553 -20.0427,30.3966 -36.25,35.3399 -33.2155,10.1309 -51.36,36.1628 -61.0488,53.4101 -9.6888,17.2474 -13.4058,24.3762 -21.041,28.1114 -29.1098,14.2406 -46.5399,37.3765 -60.5899,56.9843 -14.05,19.6079 -25.4815,36.2916 -39.2598,46.9473 -15.8526,12.2601 -24.4722,25.0112 -32.2363,32.0332 -7.0175,6.3468 -9.1334,7.7868 -14.6855,7.3223 -0.05,-0.2871 -4.9005,-1.7278 -10.084,-4.2422 -6.9139,-3.3538 -15.842,-7.9964 -27.2363,-11.3027 -11.3944,-3.3064 -27.7064,-5.8872 -44.3379,2.7753 -10.4958,5.4668 -18.1486,14.5112 -23.3184,24.9102 -14.7551,-3.7998 -40.2338,-10.1507 -65.8887,1.709 -4.9656,-5.3955 -13.28,-16.0987 -32.1777,-18.5371 -19.2531,-2.4843 -36.0387,9.2845 -46.6523,21.8554 -8.9916,10.6498 -16.02406,18.8791 -20.97075,24.8594 -0.13305,-0.077 -0.17764,-0.091 -0.3125,-0.1699 -18.60725,-10.9085 -33.93795,-8.3689 -48.63086,-5.8633 -14.6929,2.5056 -29.08378,7.3372 -42.41601,13.5977 -13.33224,6.2604 -25.36673,12.997 -35.95704,25.1972 -3.65066,4.2057 -7.47507,9.5926 -9.88476,16.7032 -7.46141,0.1056 -15.43791,0.584 -24.0957,2.2832 -12.25601,2.4053 -27.80478,8.3049 -38.77344,21.3183 -2.09708,-1.0385 -4.42552,-2.0077 -7.24219,-2.707 -7.14611,-1.7741 -16.55565,-0.848 -23.21289,2.2383 -8.49763,3.9394 -12.71124,8.5902 -15.57227,13.0371 -4.98202,0.6922 -14.16844,1.0118 -24.98632,1.1953 -11.4257,0.1938 -24.4791,0.3542 -38.4043,2.9199 -9.99806,1.8421 -21.20637,5.0665 -31.53125,11.9629 -5.68935,-3.3942 -12.92998,-6.5064 -21.77149,-7.125 -11.40976,-0.7983 -22.08697,2.4852 -32.10351,7.9727 -0.49687,-3.2005 -1.22765,-6.4283 -2.56641,-9.6192 -3.89682,-9.2879 -11.38877,-16.2679 -17.73633,-19.9687 -8.84022,-5.1541 -15.67251,-6.5514 -21.21875,-7.2207 -0.18947,-6.9111 -1.27158,-13.5113 -4.15429,-20.9746 -2.78871,-7.22 -8.83308,-15.4355 -16.125,-20.127 -6.46828,-4.1616 -12.09257,-5.367 -15.96289,-6.0039 -2.38034,-7.3804 -3.71449,-12.6622 -8.6836,-20.6426 -5.31489,-8.5357 -20.65734,-17.2425 -26.85351,-18.5468 -6.19618,-1.3044 -7.1303,-1.1146 -11.00391,-2.1973 -3.8736,-1.0828 -10.04916,-3.2394 -20.10937,-8.4707 -4.77509,-2.483 -19.30477,-15.1194 -33.1211,-31.418 -13.81633,-16.2985 -28.29191,-36.0597 -40.87695,-53.6406 -12.58504,-17.5809 -22.27057,-32.0093 -31.58008,-42.6582 -0.17322,-0.1982 -0.36911,-0.3995 -0.53906,-0.5957 -0.43176,-2.0531 -0.70523,-3.337 -1.14453,-5.4649 0.14796,-0.1028 0.30831,-0.1652 0.45508,-0.2714 11.31123,-8.1871 12.68587,-17.4717 13.43945,-22.0372 1.50715,-9.1308 0.34945,-11.4517 -0.004,-14.5761 -1.41344,-12.4976 2.2207,-19.7052 -2.81836,-13.9414 31.35584,-35.8655 38.70217,-73.3713 35.11133,-116.9082 -0.1487,-1.8029 -0.35191,-2.536 -0.54687,-3.2383 0.18302,-0.047 0.36551,-0.09 0.62695,-0.291 1.39354,-1.0697 6.01779,1.7416 15.47461,-16.0039 4.72841,-8.8728 3.86979,-26.2039 -0.88477,-34.2071 -0.67494,-1.1361 -1.319,-1.9519 -1.97461,-2.8886 2.33833,-4.7791 4.42688,-10.074 5.41993,-16.0821 2.49505,-15.0955 -0.18932,-31.4656 -7.45508,-50.1523 -9.92234,-25.5191 -17.73043,-44.905 -30.99219,-84.2871 -1.29375,-3.8419 0.42707,-7.6211 8.05664,-23.3008 3.81479,-7.8399 8.97808,-17.7935 10.37891,-32.0879 1.40082,-14.2944 -3.90112,-32.4759 -14.8418,-45.1973 -7.4239,-8.6322 -15.28708,-39.3398 -14.29297,-67.7714 0.49706,-14.2158 2.58484,-27.8033 5.07031,-36.9102 1.16161,-4.2561 3.37277,-7.148 4.33203,-8.4551 10.47982,-5.3902 23.53061,-10.0554 38.30665,-22.9922 8.72522,-7.6391 17.18219,-20.0417 20.04882,-34.0312 1.94852,-9.509 1.64354,-19.0507 -0.006,-28.8379 5.73446,-4.4387 11.49268,-10.5062 14.56446,-18.3399 2.93724,-7.4905 3.8748,-14.59 3.62304,-21.7382 13.61227,2.4838 32.1277,6.1502 52.25977,4.8554 17.00149,-1.0934 35.31223,-6.9095 46.30469,-22.1562 10.99246,-15.2467 10.00364,-31.1477 8.61914,-41.7207 -2.769,-21.146 -5.36462,-35.2893 -5.54883,-34.6465 2.03545,-7.102 2.00615,-5.9977 11.66992,-13.0996 9.66378,-7.1019 27.34981,-19.357 42.08203,-41.832 12.16232,-18.5546 18.49714,-36.4729 23.25782,-43.5918 0.38499,-0.5758 0.44099,-0.5503 0.74414,-0.9434 20.50446,7.3873 41.95083,9.0857 59.52148,-1.5 17.87413,-10.7685 23.34242,-27.5274 26.36133,-37.7734 0.6833,-2.3191 1.0891,-3.6394 1.67773,-5.5782 4.72662,-0.6815 9.19298,-1.9918 12.71875,-3.7832 7.55972,-3.8408 12.05542,-8.4849 15.63868,-12.6621 7.16651,-8.3543 11.19937,-16.129 15.4121,-23.7304 8.42548,-15.2029 17.90254,-28.9583 20.50977,-30.8672 36.08236,-26.418 60.69013,-65.3667 78.14844,-99.4297 11.43104,-22.3032 17.86956,-43.3264 24.49219,-58.2227 6.62262,-14.8962 11.87696,-21.7438 18.76171,-25.375 34.75972,-18.3332 57.86931,-23.5297 76.45313,-29.7051 4.64595,-1.5438 9.17623,-3.0432 14.88476,-6.2695 5.70854,-3.2263 14.37745,-9.3828 18.69145,-21.3164 4.314,-11.9335 1.1822,-24.0021 -2.082,-30.7773 -3.2643,-6.7752 -6.78317,-11.0725 -10.63679,-15.6035 -7.9355,-9.3305 -9.52394,-16.2493 -9.7832,-28.6993 -0.25927,-12.4499 2.64109,-29.2641 3.89648,-49.5097 1.80981,-29.1868 -2.38122,-53.3006 -12.42187,-72.668 -10.04065,-19.3674 -25.50502,-32.3271 -39.38477,-40.6719 -13.87975,-8.3448 -26.44874,-13.1854 -34.9043,-17.5683 -8.45555,-4.383 -11.73764,-7.3684 -13.2832,-9.9278 -16.01419,-26.519 -44.31664,-34.7584 -53.29687,-36.9961 -0.84203,-2.411 -2.03451,-6.5065 -3.09961,-13.8125 -4.18378,-28.6981 -16.3261,-50.7936 -26.23438,-69.0703 -9.90828,-18.2767 -17.58602,-32.8525 -20.44531,-48.7637 -2.09999,-11.6858 0.54976,-20.7422 7.01367,-35.0019 6.46392,-14.2597 17.41265,-31.8032 22.58984,-56.0293 10.9483,-51.2312 2.62552,-82.7194 -10.00585,-135.99805 -18.36581,-77.46616 -16.86623,-142.85276 -15.29297,-191.65625 0.55495,-17.21519 7.43144,-33.29594 12.29101,-55.5 2.42979,-11.10203 4.16583,-24.50932 0.73242,-39.20508 -3.4334,-14.69575 -12.44175,-28.97819 -24.88671,-40.18164 -10.8262,-9.74616 -14.66532,-18.23417 -20.5586,-33.55859 -5.89327,-15.32442 -12.90497,-36.97832 -29.30078,-60.22266 -20.31653,-28.80274 -50.21275,-38.6631 -71.32226,-46.16796 -21.10952,-7.50487 -31.9481,-13.51207 -34.00782,-16.90235 -13.85684,-22.80825 -31.51932,-36.79873 -44.8164,-48.49609 -13.29709,-11.69737 -22.42673,-20.64314 -28.82618,-34.39063 -11.86271,-25.48385 -27.40696,-41.79688 -38.55859,-54.48828 -2.88344,-3.28157 -5.48307,-6.30045 -7.87891,-9.26758 4.6673,-0.7496 9.713,-2.36533 14.98633,-5.57812 12.94117,-7.88443 18.99932,-23.49378 19.83203,-34.55469 0.69835,-9.27611 -0.51187,-17.7321 -2.72265,-27.19922 1.67282,-0.357 3.59379,-0.66829 5.9082,-0.64843 6.59529,0.0566 14.47307,2.14031 19.36719,4.98632 4.89412,2.84602 6.40084,5.08218 7.09765,7.77344 13.42663,51.85651 27.65454,105.22354 58.45118,158.60938 9.10571,15.78471 24.81171,25.44453 38.41015,29.65039 13.59845,4.20585 25.96804,4.71865 36.95117,5.00195 21.96627,0.56659 38.38532,4.18717 35.25586,1.96484 9.06796,6.43945 21.32763,10.47647 32.65235,9.91211 11.32471,-0.56436 20.48369,-4.78593 27.38672,-9.14648 13.80605,-8.7211 21.737,-18.62965 28.77539,-25.7793 3.01687,-3.06456 5.68544,-5.27879 7.77148,-6.93164 26.87081,27.45505 53.43879,48.85586 93.73047,67.25977 9.61478,4.39171 24.80889,6.8933 37.90039,0.54882 13.0915,-6.34447 18.84139,-16.99344 21.95703,-24.6289 6.23128,-15.27093 6.57269,-27.36597 8.32813,-39.04883 1.75544,-11.68286 4.30141,-21.98122 6.32818,-26 0.3928,-0.77891 0.4425,-1.12868 0.4922,-1.46875 0.031,-0.002 0.011,0.0188 0.045,0.0156 19.8984,-1.86378 39.098,-11.08676 50.2812,-25.73437 11.1833,-14.64761 13.9572,-30.77858 14.7403,-44.51367 1.566,-27.47019 -3.1869,-52.88008 -2.2891,-61.63477 4.3417,-42.33826 11.4378,-88.60338 20.8184,-124.28906 6.8223,-25.95358 32.3626,-58.85575 56.625,-78.361328 2.1224,-1.706296 2.8155,-2.046226 8.2109,-2.177734 5.3954,-0.131509 14.3491,1.178689 25.7891,2.414062 11.44,1.235373 25.9355,2.399934 42.2187,-2.361328 16.2832,-4.761262 32.7323,-16.544776 44.291,-33.46875 1.7216,-2.520738 2.8126,-3.745864 3.5978,-4.539043 z"
         id="_91167600"
         inkscape:connector-curvature="0"
         sodipodi:nodetypes="sssssssssssssscssscsscsssscssssssssssssssssssssssssssssscsssscccscsssssscssscssscssscssscsscssccsssccscccssccsssccccccsscssssscssccscccsccssscccscsscssssscssssssssssssssssssscssssssccssscccsssssssssssssssccsccsssssssccsssssssccsssscccsssssssssssccssscsssccssssssssssssssssssssssscsssccssccssscsccscsscscsscsscsccsssccccsccsccsscsssssssscsscscssscssccssccssssssssscssssssscssssssssssssssssscsscsssssscssscsssscccsssssssssc" />
    </g>
    <flowRoot
       xml:space="preserve"
       id="flowRoot4160"
       style="font-style:normal;font-weight:normal;font-size:10px;line-height:125%;font-family:Sans;letter-spacing:0px;word-spacing:0px;fill:#000000;fill-opacity:1;stroke:none;stroke-width:1px;stroke-linecap:butt;stroke-linejoin:miter;stroke-opacity:1"><flowRegion
         id="flowRegion4162"><rect
           id="rect4164"
           width="338.57144"
           height="55.714287"
           x="18.571428"
           y="760.93365" /></flowRegion><flowPara
         id="flowPara4167" /><flowPara
         id="flowPara4169" /></flowRoot>    <text
       xml:space="preserve"
       style="font-style:normal;font-weight:normal;font-size:10px;line-height:125%;font-family:Sans;letter-spacing:0px;word-spacing:0px;fill:#000000;fill-opacity:1;stroke:none;stroke-width:1px;stroke-linecap:butt;stroke-linejoin:miter;stroke-opacity:1"
       x="597.85712"
       y="428.79077"
       id="text4188"
       sodipodi:linespacing="125%"><tspan
         sodipodi:role="line"
         id="tspan4190"
         x="597.85712"
         y="428.79077" /></text>
    <flowRoot
       xml:space="preserve"
       id="flowRoot4331"
       style="font-style:normal;font-weight:normal;font-size:10px;line-height:125%;font-family:Sans;letter-spacing:0px;word-spacing:0px;fill:#000000;fill-opacity:1;stroke:none;stroke-width:1px;stroke-linecap:butt;stroke-linejoin:miter;stroke-opacity:1"><flowRegion
         id="flowRegion4333"><rect
           id="rect4335"
           width="3"
           height="11"
           x="1229"
           y="520.36218" /></flowRegion><flowPara
         id="flowPara4337" /></flowRoot>    <g
       id="g7604"
       transform="matrix(1.3625458,0.33028406,-0.33028406,1.3625458,-753.07755,-449.62816)"
       style="fill:#d35f5f">
      <path
         sodipodi:nodetypes="scsss"
         inkscape:connector-curvature="0"
         id="path7606"
         d="m 829.34949,760.7099 c 0,7.81835 -8.51695,29.83638 -14.15637,39.60414 -5.5822,-9.66865 -14.15638,-31.78579 -14.15638,-39.60414 0,-7.81835 6.33803,-14.15638 14.15638,-14.15638 7.81835,0 14.15637,6.33803 14.15637,14.15638 z"
         style="opacity:1;fill:#d35f5f;fill-opacity:1;stroke:#000000;stroke-width:2.97937441;stroke-linecap:round;stroke-linejoin:round;stroke-miterlimit:4;stroke-dasharray:none;stroke-dashoffset:0;stroke-opacity:1" />
      <ellipse
         ry="8.7145271"
         rx="8.5118647"
         cy="760.54138"
         cx="815.19312"
         id="ellipse7608"
         style="opacity:1;fill:#d40000;fill-opacity:1;stroke:#ffffff;stroke-width:3.58284259;stroke-linecap:round;stroke-linejoin:round;stroke-miterlimit:4;stroke-dasharray:none;stroke-dashoffset:0;stroke-opacity:1" />
    </g>
    <g
       style="fill:#dd55ff"
       id="g8561"
       transform="matrix(1.3014945,0.52127809,-0.52127809,1.3014945,-526.93352,-518.15332)">
      <path
         sodipodi:nodetypes="scsss"
         inkscape:connector-curvature="0"
         id="path8563"
         d="m 830.16229,760.22348 c 0,7.81835 -8.51695,29.83638 -14.15637,39.60414 -5.5822,-9.66865 -14.15638,-31.78579 -14.15638,-39.60414 0,-7.81835 6.33803,-14.15638 14.15638,-14.15638 7.81835,0 14.15637,6.33803 14.15637,14.15638 z"
         style="opacity:1;fill:#dd55ff;fill-opacity:1;stroke:#000000;stroke-width:2.97937441;stroke-linecap:round;stroke-linejoin:round;stroke-miterlimit:4;stroke-dasharray:none;stroke-dashoffset:0;stroke-opacity:1" />
      <ellipse
         ry="8.7145271"
         rx="8.5118647"
         cy="760.05499"
         cx="816.00592"
         id="ellipse8565"
         style="opacity:1;fill:#8800aa;fill-opacity:1;stroke:#ffffff;stroke-width:3.58284259;stroke-linecap:round;stroke-linejoin:round;stroke-miterlimit:4;stroke-dasharray:none;stroke-dashoffset:0;stroke-opacity:1" />
    </g>
    <g
       style="fill:#7c6f91"
       id="g7638"
       transform="matrix(1.3554259,-0.35838453,0.35838453,1.3554259,-1284.3067,169.55743)">
      <path
         sodipodi:nodetypes="scsss"
         inkscape:connector-curvature="0"
         id="path7640"
         d="m 829.34949,760.7099 c 0,7.81835 -8.51695,29.83638 -14.15637,39.60414 -5.5822,-9.66865 -14.15638,-31.78579 -14.15638,-39.60414 0,-7.81835 6.33803,-14.15638 14.15638,-14.15638 7.81835,0 14.15637,6.33803 14.15637,14.15638 z"
         style="opacity:1;fill:#aaeeff;fill-opacity:1;stroke:#000000;stroke-width:2.97937441;stroke-linecap:round;stroke-linejoin:round;stroke-miterlimit:4;stroke-dasharray:none;stroke-dashoffset:0;stroke-opacity:1" />
      <ellipse
         ry="8.7145271"
         rx="8.5118647"
         cy="760.54138"
         cx="815.19312"
         id="ellipse7642"
         style="opacity:1;fill:#37abc8;fill-opacity:1;stroke:#ffffff;stroke-width:3.58284259;stroke-linecap:round;stroke-linejoin:round;stroke-miterlimit:4;stroke-dasharray:none;stroke-dashoffset:0;stroke-opacity:1" />
    </g>
    <g
       style="fill:#9955ff"
       id="g7632"
       transform="matrix(1.3679366,-0.30719451,0.30719451,1.3679366,-1298.3343,113.23183)">
      <path
         sodipodi:nodetypes="scsss"
         inkscape:connector-curvature="0"
         id="path7634"
         d="m 828.80704,756.29006 c 0,7.81835 -8.51695,29.83638 -14.15637,39.60414 -5.5822,-9.66865 -14.15638,-31.78579 -14.15638,-39.60414 0,-7.81835 6.33803,-14.15638 14.15638,-14.15638 7.81835,0 14.15637,6.33803 14.15637,14.15638 z"
         style="opacity:1;fill:#9955ff;fill-opacity:1;stroke:#000000;stroke-width:2.97937441;stroke-linecap:round;stroke-linejoin:round;stroke-miterlimit:4;stroke-dasharray:none;stroke-dashoffset:0;stroke-opacity:1" />
      <ellipse
         ry="8.7145271"
         rx="8.5118647"
         cy="756.12152"
         cx="814.65063"
         id="ellipse7636"
         style="opacity:1;fill:#5500d4;fill-opacity:1;stroke:#ffffff;stroke-width:3.58284259;stroke-linecap:round;stroke-linejoin:round;stroke-miterlimit:4;stroke-dasharray:none;stroke-dashoffset:0;stroke-opacity:1" />
    </g>
    <g
       transform="matrix(1.3689671,0.30256892,-0.30256892,1.3689671,-731.83765,-361.22667)"
       id="g7598"
       style="fill:#d4ff2a">
      <path
         style="opacity:1;fill:#d4ff2a;fill-opacity:1;stroke:#000000;stroke-width:2.97937441;stroke-linecap:round;stroke-linejoin:round;stroke-miterlimit:4;stroke-dasharray:none;stroke-dashoffset:0;stroke-opacity:1"
         d="m 830.16229,760.22348 c 0,7.81835 -8.51695,29.83638 -14.15637,39.60414 -5.5822,-9.66865 -14.15638,-31.78579 -14.15638,-39.60414 0,-7.81835 6.33803,-14.15638 14.15638,-14.15638 7.81835,0 14.15637,6.33803 14.15637,14.15638 z"
         id="path7600"
         inkscape:connector-curvature="0"
         sodipodi:nodetypes="scsss" />
      <ellipse
         style="opacity:1;fill:#806600;fill-opacity:1;stroke:#ffffff;stroke-width:3.58284259;stroke-linecap:round;stroke-linejoin:round;stroke-miterlimit:4;stroke-dasharray:none;stroke-dashoffset:0;stroke-opacity:1"
         id="ellipse7602"
         cx="816.00592"
         cy="760.05499"
         rx="8.5118647"
         ry="8.7145271" />
    </g>
    <g
       style="fill:#d35f8d"
       id="g8567"
       transform="matrix(1.3942352,-0.14740068,0.14740068,1.3942352,-1133.1671,2.3013727)">
      <path
         sodipodi:nodetypes="scsss"
         inkscape:connector-curvature="0"
         id="path8569"
         d="m 830.16229,760.22348 c 0,7.81835 -8.51695,29.83638 -14.15637,39.60414 -5.5822,-9.66865 -14.15638,-31.78579 -14.15638,-39.60414 0,-7.81835 6.33803,-14.15638 14.15638,-14.15638 7.81835,0 14.15637,6.33803 14.15637,14.15638 z"
         style="opacity:1;fill:#ff5599;fill-opacity:1;stroke:#000000;stroke-width:2.97937441;stroke-linecap:round;stroke-linejoin:round;stroke-miterlimit:4;stroke-dasharray:none;stroke-dashoffset:0;stroke-opacity:1" />
      <ellipse
         ry="8.7145271"
         rx="8.5118647"
         cy="760.05499"
         cx="816.00592"
         id="ellipse8571"
         style="opacity:1;fill:#ff0066;fill-opacity:1;stroke:#ffffff;stroke-width:3.58284259;stroke-linecap:round;stroke-linejoin:round;stroke-miterlimit:4;stroke-dasharray:none;stroke-dashoffset:0;stroke-opacity:1" />
    </g>
    <g
       transform="matrix(1.3036831,-0.5157802,0.5157802,1.3036831,-1432.8725,370.37998)"
       id="g7622"
       style="fill:#ff7f2a">
      <path
         style="opacity:1;fill:#ff7f2a;fill-opacity:1;stroke:#000000;stroke-width:2.97937441;stroke-linecap:round;stroke-linejoin:round;stroke-miterlimit:4;stroke-dasharray:none;stroke-dashoffset:0;stroke-opacity:1"
         d="m 828.89689,761.26249 c 0,7.81835 -8.51695,29.83638 -14.15637,39.60414 -5.5822,-9.66865 -14.15638,-31.78579 -14.15638,-39.60414 0,-7.81835 6.33803,-14.15638 14.15638,-14.15638 7.81835,0 14.15637,6.33803 14.15637,14.15638 z"
         id="path7624"
         inkscape:connector-curvature="0"
         sodipodi:nodetypes="scsss" />
      <ellipse
         style="opacity:1;fill:#aa4400;fill-opacity:1;stroke:#ffffff;stroke-width:3.58284259;stroke-linecap:round;stroke-linejoin:round;stroke-miterlimit:4;stroke-dasharray:none;stroke-dashoffset:0;stroke-opacity:1"
         id="ellipse7626"
         cx="814.52673"
         cy="761.49591"
         rx="8.5118647"
         ry="8.7145271" />
    </g>
    <g
       transform="matrix(1.3937757,0.15168539,-0.15168539,1.3937757,-940.17954,-239.14255)"
       id="g7610"
       style="fill:#2aff2a">
      <path
         style="opacity:1;fill:#2aff2a;fill-opacity:1;stroke:#000000;stroke-width:2.97937441;stroke-linecap:round;stroke-linejoin:round;stroke-miterlimit:4;stroke-dasharray:none;stroke-dashoffset:0;stroke-opacity:1"
         d="m 829.34949,760.7099 c 0,7.81835 -8.51695,29.83638 -14.15637,39.60414 -5.5822,-9.66865 -14.15638,-31.78579 -14.15638,-39.60414 0,-7.81835 6.33803,-14.15638 14.15638,-14.15638 7.81835,0 14.15637,6.33803 14.15637,14.15638 z"
         id="path7612"
         inkscape:connector-curvature="0"
         sodipodi:nodetypes="scsss" />
      <ellipse
         style="opacity:1;fill:#165016;fill-opacity:1;stroke:#ffffff;stroke-width:3.58284259;stroke-linecap:round;stroke-linejoin:round;stroke-miterlimit:4;stroke-dasharray:none;stroke-dashoffset:0;stroke-opacity:1"
         id="ellipse7614"
         cx="815.19312"
         cy="760.54138"
         rx="8.5118647"
         ry="8.7145271" />
    </g>
    <g
       style="fill:#0000ff"
       id="g7616"
       transform="matrix(1.3988642,0.09379816,-0.09379816,1.3988642,-1015.0603,-160.1519)">
      <path
         sodipodi:nodetypes="scsss"
         inkscape:connector-curvature="0"
         id="path7618"
         d="m 829.34949,760.7099 c 0,7.81835 -8.51695,29.83638 -14.15637,39.60414 -5.5822,-9.66865 -14.15638,-31.78579 -14.15638,-39.60414 0,-7.81835 6.33803,-14.15638 14.15638,-14.15638 7.81835,0 14.15637,6.33803 14.15637,14.15638 z"
         style="opacity:1;fill:#0000ff;fill-opacity:1;stroke:#000000;stroke-width:2.97937441;stroke-linecap:round;stroke-linejoin:round;stroke-miterlimit:4;stroke-dasharray:none;stroke-dashoffset:0;stroke-opacity:1" />
      <ellipse
         ry="8.7145271"
         rx="8.5118647"
         cy="760.54138"
         cx="815.19312"
         id="ellipse7620"
         style="opacity:1;fill:#0000ff;fill-opacity:1;stroke:#ffffff;stroke-width:3.58284259;stroke-linecap:round;stroke-linejoin:round;stroke-miterlimit:4;stroke-dasharray:none;stroke-dashoffset:0;stroke-opacity:1" />
    </g>
    <g
       id="g7594"
       transform="matrix(1.3873514,0.20217548,-0.20217548,1.3873514,-875.39948,-239.47433)">
      <path
         sodipodi:nodetypes="scsss"
         inkscape:connector-curvature="0"
         id="path7589"
         d="m 829.34949,760.7099 c 0,7.81835 -8.51695,29.83638 -14.15637,39.60414 -5.5822,-9.66865 -14.15638,-31.78579 -14.15638,-39.60414 0,-7.81835 6.33803,-14.15638 14.15638,-14.15638 7.81835,0 14.15637,6.33803 14.15637,14.15638 z"
         style="opacity:1;fill:#00ffcc;fill-opacity:1;stroke:#000000;stroke-width:2.97937441;stroke-linecap:round;stroke-linejoin:round;stroke-miterlimit:4;stroke-dasharray:none;stroke-dashoffset:0;stroke-opacity:1" />
      <ellipse
         ry="8.7145271"
         rx="8.5118647"
         cy="760.54138"
         cx="815.19312"
         id="path7592"
         style="opacity:1;fill:#008066;fill-opacity:1;stroke:#ffffff;stroke-width:3.58284259;stroke-linecap:round;stroke-linejoin:round;stroke-miterlimit:4;stroke-dasharray:none;stroke-dashoffset:0;stroke-opacity:1" />
    </g>
  </g>
</svg>
