<?xml version="1.0" encoding="UTF-8" standalone="no"?>
<!-- Created with Inkscape (http://www.inkscape.org/) -->

<svg
   xmlns:dc="http://purl.org/dc/elements/1.1/"
   xmlns:cc="http://creativecommons.org/ns#"
   xmlns:rdf="http://www.w3.org/1999/02/22-rdf-syntax-ns#"
   xmlns:svg="http://www.w3.org/2000/svg"
   xmlns="http://www.w3.org/2000/svg"
   xmlns:sodipodi="http://sodipodi.sourceforge.net/DTD/sodipodi-0.dtd"
   xmlns:inkscape="http://www.inkscape.org/namespaces/inkscape"
   width="210mm"
   height="297mm"
   viewBox="0 0 744.09448819 1052.3622047"
   id="svg4555"
   version="1.1"
   inkscape:version="0.91 r13725"
   sodipodi:docname="kokousnuija.svg">
  <defs
     id="defs4557" />
  <sodipodi:namedview
     id="base"
     pagecolor="#ffffff"
     bordercolor="#666666"
     borderopacity="1.0"
     inkscape:pageopacity="0.0"
     inkscape:pageshadow="2"
     inkscape:zoom="0.35"
     inkscape:cx="-162.14286"
     inkscape:cy="520"
     inkscape:document-units="px"
     inkscape:current-layer="layer1"
     showgrid="false"
     inkscape:window-width="1280"
     inkscape:window-height="701"
     inkscape:window-x="0"
     inkscape:window-y="0"
     inkscape:window-maximized="1" />
  <metadata
     id="metadata4560">
    <rdf:RDF>
      <cc:Work
         rdf:about="">
        <dc:format>image/svg+xml</dc:format>
        <dc:type
           rdf:resource="http://purl.org/dc/dcmitype/StillImage" />
        <dc:title></dc:title>
      </cc:Work>
    </rdf:RDF>
  </metadata>
  <g
     inkscape:label="Taso 1"
     inkscape:groupmode="layer"
     id="layer1">
    <g
       transform="matrix(2.7736712,0,0,2.7736712,-2712.6505,480.57923)"
       id="g4524">
      <path
         style="opacity:1;fill:#522605;fill-opacity:1;stroke:none;stroke-width:1;stroke-linecap:butt;stroke-linejoin:round;stroke-miterlimit:4;stroke-dasharray:none;stroke-dashoffset:0;stroke-opacity:1"
         d="m 982.43492,182.2372 64.73678,-2 c 1.6249,-0.0502 2.9349,1.11234 2.9349,2.49403 l 0,5.01193 c 0,1.3817 -1.31,2.54424 -2.9349,2.49404 l -64.73678,-2 C 980.81005,188.187 979.5,187.12486 979.5,185.74316 l 0,-1.01193 c 0,-1.38169 1.31005,-2.44383 2.93492,-2.49403 z"
         id="path4526"
         inkscape:connector-curvature="0"
         sodipodi:nodetypes="sssssssss" />
      <path
         style="opacity:1;fill:#7a3502;fill-opacity:1;stroke:none;stroke-width:1;stroke-linecap:butt;stroke-linejoin:round;stroke-miterlimit:4;stroke-dasharray:none;stroke-dashoffset:0;stroke-opacity:1"
         d="m 989.25,-143.1875 c -9.3954,0 -11.25,1.9752 -11.25,5.40625 1.45144,2.71726 2.3142,1.20535 1.65625,3.90625 -0.32043,1.31537 0.2314,2.44889 3.1875,2.9375 -1.3517,4.10995 -1.39783,11.34963 0,16.56641 -2.9561,0.48861 -3.50793,1.62213 -3.1875,2.9375 0.65795,2.7009 -0.20481,1.18899 -1.65625,3.90625 0,3.43105 1.8546,5.40625 11.25,5.40625 8.36207,0 10.5,-2.0222 10.5,-5.40625 -1.4514,-2.71726 -2.31422,-1.20535 -1.65625,-3.90625 0.3204,-1.31537 -0.2314,-2.44889 -3.1875,-2.9375 1.1642,-4.29745 0.967,-12.19435 0,-16.56641 2.9561,-0.48861 3.5079,-1.62213 3.1875,-2.9375 -0.65797,-2.7009 0.20485,-1.18899 1.65625,-3.90625 0,-3.3841 -2.13793,-5.40625 -10.5,-5.40625 z"
         transform="translate(0,308.26772)"
         id="path4528"
         inkscape:connector-curvature="0"
         sodipodi:nodetypes="scsccscsccccccs" />
      <path
         style="opacity:1;fill:none;fill-opacity:1;stroke:#522605;stroke-width:0.99921262;stroke-linecap:round;stroke-linejoin:round;stroke-miterlimit:4;stroke-dasharray:none;stroke-dashoffset:0;stroke-opacity:1"
         d="m 979.78484,198.61916 c 8.0634,2.05509 13.11854,1.19375 17.94283,0"
         id="path4530"
         inkscape:connector-curvature="0"
         sodipodi:nodetypes="cc" />
      <path
         sodipodi:nodetypes="cc"
         inkscape:connector-curvature="0"
         id="path4532"
         d="m 979.78484,172.43325 c 8.0634,-2.05509 13.11854,-1.19375 17.94283,0"
         style="opacity:1;fill:none;fill-opacity:1;stroke:#522605;stroke-width:0.99921262;stroke-linecap:round;stroke-linejoin:round;stroke-miterlimit:4;stroke-dasharray:none;stroke-dashoffset:0;stroke-opacity:1" />
      <path
         sodipodi:nodetypes="cc"
         inkscape:connector-curvature="0"
         id="path4534"
         d="m 982.41839,193.98276 c 5.6964,1.81605 9.26761,1.0549 12.67573,0"
         style="opacity:1;fill:none;fill-opacity:1;stroke:#522605;stroke-width:0.78948921;stroke-linecap:round;stroke-linejoin:round;stroke-miterlimit:4;stroke-dasharray:none;stroke-dashoffset:0;stroke-opacity:1" />
      <path
         style="opacity:1;fill:none;fill-opacity:1;stroke:#522605;stroke-width:0.78948921;stroke-linecap:round;stroke-linejoin:round;stroke-miterlimit:4;stroke-dasharray:none;stroke-dashoffset:0;stroke-opacity:1"
         d="m 982.41839,177.29683 c 5.6964,-1.81605 9.26761,-1.0549 12.67573,0"
         id="path4536"
         inkscape:connector-curvature="0"
         sodipodi:nodetypes="cc" />
    </g>
  </g>
</svg>
