<?xml version="1.0" encoding="UTF-8" standalone="no"?>
<!-- Created with Inkscape (http://www.inkscape.org/) -->

<svg
   xmlns:dc="http://purl.org/dc/elements/1.1/"
   xmlns:cc="http://creativecommons.org/ns#"
   xmlns:rdf="http://www.w3.org/1999/02/22-rdf-syntax-ns#"
   xmlns:svg="http://www.w3.org/2000/svg"
   xmlns="http://www.w3.org/2000/svg"
   xmlns:sodipodi="http://sodipodi.sourceforge.net/DTD/sodipodi-0.dtd"
   xmlns:inkscape="http://www.inkscape.org/namespaces/inkscape"
   width="50mm"
   height="28mm"
   viewBox="0 0 177.16535 99.212597"
   id="svg2"
   version="1.1"
   inkscape:version="0.91 r13725"
   sodipodi:docname="saha.svg">
  <defs
     id="defs4">
    <inkscape:perspective
       id="perspective611"
       inkscape:persp3d-origin="924.99994 : 1073.3333 : 1"
       inkscape:vp_z="1849.9999 : 1609.9999 : 1"
       inkscape:vp_y="0 : 999.99995 : 0"
       inkscape:vp_x="0 : 1609.9999 : 1"
       sodipodi:type="inkscape:persp3d" />
    <style
       id="style6"
       type="text/css">
   
    .str3 {stroke:#C7C7A2;stroke-width:0.797991}
    .str1 {stroke:#8C8C60;stroke-width:1.70998}
    .str2 {stroke:#636347;stroke-width:2.27997}
    .str0 {stroke:#1F1A17;stroke-width:3.98996}
    .fil1 {fill:none}
    .fil0 {fill:#EEEED4}
   
  </style>
    <inkscape:perspective
       sodipodi:type="inkscape:persp3d"
       inkscape:vp_x="0 : 0.49999997 : 1"
       inkscape:vp_y="0 : 999.99995 : 0"
       inkscape:vp_z="0.9999999 : 0.49999997 : 1"
       inkscape:persp3d-origin="0.49999997 : 0.33333331 : 1"
       id="perspective3574" />
  </defs>
  <sodipodi:namedview
     id="base"
     pagecolor="#ffffff"
     bordercolor="#666666"
     borderopacity="1.0"
     inkscape:pageopacity="0.0"
     inkscape:pageshadow="2"
     inkscape:zoom="0.5"
     inkscape:cx="202.87064"
     inkscape:cy="291.82748"
     inkscape:document-units="mm"
     inkscape:current-layer="layer1"
     showgrid="false"
     inkscape:window-width="1280"
     inkscape:window-height="701"
     inkscape:window-x="409"
     inkscape:window-y="0"
     inkscape:window-maximized="0"
     showguides="true"
     inkscape:guide-bbox="true">
    <sodipodi:guide
       position="372.04725,991.42859"
       orientation="1,0"
       id="guide4177"
       inkscape:label=""
       inkscape:color="rgb(0,0,255)" />
    <sodipodi:guide
       position="908.8393,172.41072"
       orientation="0,1"
       id="guide7587" />
    <sodipodi:guide
       position="105,617.00001"
       orientation="1,0"
       id="guide6267" />
    <sodipodi:guide
       position="-418.375,98.750002"
       orientation="0,1"
       id="guide4346" />
  </sodipodi:namedview>
  <metadata
     id="metadata7">
    <rdf:RDF>
      <cc:Work
         rdf:about="">
        <dc:format>image/svg+xml</dc:format>
        <dc:type
           rdf:resource="http://purl.org/dc/dcmitype/StillImage" />
        <dc:title></dc:title>
      </cc:Work>
    </rdf:RDF>
  </metadata>
  <g
     inkscape:label="Taso 1"
     inkscape:groupmode="layer"
     id="layer1"
     transform="translate(0,-953.14961)">
    <flowRoot
       xml:space="preserve"
       id="flowRoot4160"
       style="font-style:normal;font-weight:normal;font-size:10px;line-height:125%;font-family:Sans;letter-spacing:0px;word-spacing:0px;fill:#000000;fill-opacity:1;stroke:none;stroke-width:1px;stroke-linecap:butt;stroke-linejoin:miter;stroke-opacity:1"><flowRegion
         id="flowRegion4162"><rect
           id="rect4164"
           width="338.57144"
           height="55.714287"
           x="18.571428"
           y="760.93365" /></flowRegion><flowPara
         id="flowPara4167" /><flowPara
         id="flowPara4169" /></flowRoot>    <text
       xml:space="preserve"
       style="font-style:normal;font-weight:normal;font-size:10px;line-height:125%;font-family:Sans;letter-spacing:0px;word-spacing:0px;fill:#000000;fill-opacity:1;stroke:none;stroke-width:1px;stroke-linecap:butt;stroke-linejoin:miter;stroke-opacity:1"
       x="597.85712"
       y="428.79077"
       id="text4188"
       sodipodi:linespacing="125%"><tspan
         sodipodi:role="line"
         id="tspan4190"
         x="597.85712"
         y="428.79077" /></text>
    <g
       id="g4949"
       transform="matrix(1.1969592,-0.7020713,0.58542103,1.4036725,-416.54022,637.06553)"
       inkscape:export-xdpi="97"
       inkscape:export-ydpi="97">
      <path
         sodipodi:nodetypes="ccccccccccccccccccccccccccccccccccccccccccc"
         inkscape:connector-curvature="0"
         id="path4942"
         d="m 206.42857,359.50506 97.85714,18.39286 0,14.10714 -2.14285,-1.16071 -2.32226,1.17444 -3.03491,-1.25029 -2.40805,1.36125 -2.94911,-1.4305 -2.50008,1.38592 -3.30336,-1.34222 -3.39137,1.37337 -2.63565,-1.52017 -3.1692,1.51555 -3.03609,-1.43154 -2.49981,1.46545 -2.81262,-1.52181 -2.99013,1.47416 -2.99201,-1.52046 -3.35013,1.47326 -2.98908,-1.38678 -3.3913,1.45756 -2.45722,-1.52149 -2.54419,1.45788 -2.72353,-1.38643 -2.89821,1.32542 -2.99457,-1.33906 -3.03643,1.32392 -2.58846,-1.24942 -3.07855,1.32736 -2.76984,-1.25247 -2.67982,1.29727 -2.43172,-1.23319 -2.79019,1.02149 -3.16488,-1.09402 -3.09026,1.18431 -2.76181,-1.28643 -2.7269,1.36114 -3.52526,-1.34645 -2.75054,1.26687 -2.53064,-1.32557 -2.39611,1.35239 -0.17857,-12.32143 z"
         style="opacity:0.98999999;fill:#cccccc;fill-opacity:1;stroke:none;stroke-width:1.39999998;stroke-linecap:round;stroke-linejoin:round;stroke-miterlimit:4;stroke-dasharray:none;stroke-dashoffset:0;stroke-opacity:1" />
      <path
         sodipodi:nodetypes="sssssccssssscss"
         inkscape:connector-curvature="0"
         id="path4944"
         d="m 186.11719,349.24219 c -4.13993,0.0697 -7.38951,0.97656 -8.61719,0.97656 -1.96429,0 -1.07227,2.49973 0.17773,3.39258 1.25,0.89286 -1.78571,13.39453 -3.75,20.89453 -1.96428,7.5 0.8937,10.71289 8.57227,10.71289 7.67857,0 13.92773,-0.35742 13.92773,-0.35742 l 10.35743,-25.35547 c 0,0 -4.82142,-6.60742 -12.5,-9.10742 -2.87947,-0.9375 -5.68402,-1.19811 -8.16797,-1.15625 z m 1.21875,8.22656 c 2.25682,-0.0163 8.0106,3.85463 8.3789,4.71401 0.53571,1.25 -2.50139,11.96512 -4.28711,13.57226 -1.78571,1.60715 -12.67773,3.75 -10.17773,0.17857 0,0 6.60714,-11.07143 5,-16.25 -0.50223,-1.6183 0.0601,-2.20743 1.08594,-2.21484 z"
         style="opacity:0.98999999;fill:#803300;fill-opacity:1;stroke:none;stroke-width:1.39999998;stroke-linecap:round;stroke-linejoin:round;stroke-miterlimit:4;stroke-dasharray:none;stroke-dashoffset:0;stroke-opacity:1" />
    </g>
    <flowRoot
       xml:space="preserve"
       id="flowRoot4331"
       style="font-style:normal;font-weight:normal;font-size:10px;line-height:125%;font-family:Sans;letter-spacing:0px;word-spacing:0px;fill:#000000;fill-opacity:1;stroke:none;stroke-width:1px;stroke-linecap:butt;stroke-linejoin:miter;stroke-opacity:1"><flowRegion
         id="flowRegion4333"><rect
           id="rect4335"
           width="3"
           height="11"
           x="1229"
           y="520.36218" /></flowRegion><flowPara
         id="flowPara4337" /></flowRoot>  </g>
</svg>
