<?xml version="1.0" encoding="UTF-8" standalone="no"?>
<!-- Created with Inkscape (http://www.inkscape.org/) -->

<svg
   xmlns:dc="http://purl.org/dc/elements/1.1/"
   xmlns:cc="http://creativecommons.org/ns#"
   xmlns:rdf="http://www.w3.org/1999/02/22-rdf-syntax-ns#"
   xmlns:svg="http://www.w3.org/2000/svg"
   xmlns="http://www.w3.org/2000/svg"
   xmlns:sodipodi="http://sodipodi.sourceforge.net/DTD/sodipodi-0.dtd"
   xmlns:inkscape="http://www.inkscape.org/namespaces/inkscape"
   width="50mm"
   height="32mm"
   viewBox="0 0 177.16535 113.38583"
   id="svg2"
   version="1.1"
   inkscape:version="0.91 r13725"
   sodipodi:docname="suodatin.svg">
  <defs
     id="defs4">
    <inkscape:perspective
       id="perspective611"
       inkscape:persp3d-origin="925.00004 : 1073.3333 : 1"
       inkscape:vp_z="1850.0001 : 1610.0001 : 1"
       inkscape:vp_y="0 : 1000 : 0"
       inkscape:vp_x="0 : 1610.0002 : 1"
       sodipodi:type="inkscape:persp3d" />
    <style
       id="style6"
       type="text/css">
   
    .str3 {stroke:#C7C7A2;stroke-width:0.797991}
    .str1 {stroke:#8C8C60;stroke-width:1.70998}
    .str2 {stroke:#636347;stroke-width:2.27997}
    .str0 {stroke:#1F1A17;stroke-width:3.98996}
    .fil1 {fill:none}
    .fil0 {fill:#EEEED4}
   
  </style>
    <inkscape:perspective
       sodipodi:type="inkscape:persp3d"
       inkscape:vp_x="0 : 0.50000003 : 1"
       inkscape:vp_y="0 : 1000 : 0"
       inkscape:vp_z="1 : 0.50000001 : 1"
       inkscape:persp3d-origin="0.50000002 : 0.33333333 : 1"
       id="perspective3574" />
  </defs>
  <sodipodi:namedview
     id="base"
     pagecolor="#ffffff"
     bordercolor="#666666"
     borderopacity="1.0"
     inkscape:pageopacity="0.0"
     inkscape:pageshadow="2"
     inkscape:zoom="2"
     inkscape:cx="112.45016"
     inkscape:cy="53.805679"
     inkscape:document-units="mm"
     inkscape:current-layer="layer1"
     showgrid="false"
     inkscape:window-width="1280"
     inkscape:window-height="701"
     inkscape:window-x="409"
     inkscape:window-y="0"
     inkscape:window-maximized="0"
     showguides="true"
     inkscape:guide-bbox="true">
    <sodipodi:guide
       position="372.04725,991.42859"
       orientation="1,0"
       id="guide4177"
       inkscape:label=""
       inkscape:color="rgb(0,0,255)" />
    <sodipodi:guide
       position="908.8393,172.41072"
       orientation="0,1"
       id="guide7587" />
    <sodipodi:guide
       position="105,617.00001"
       orientation="1,0"
       id="guide6267" />
    <sodipodi:guide
       position="-418.375,98.750002"
       orientation="0,1"
       id="guide4346" />
  </sodipodi:namedview>
  <metadata
     id="metadata7">
    <rdf:RDF>
      <cc:Work
         rdf:about="">
        <dc:format>image/svg+xml</dc:format>
        <dc:type
           rdf:resource="http://purl.org/dc/dcmitype/StillImage" />
        <dc:title />
      </cc:Work>
    </rdf:RDF>
  </metadata>
  <g
     inkscape:label="Taso 1"
     inkscape:groupmode="layer"
     id="layer1"
     transform="translate(0,-938.97638)">
    <flowRoot
       xml:space="preserve"
       id="flowRoot4160"
       style="font-style:normal;font-weight:normal;font-size:10px;line-height:125%;font-family:Sans;letter-spacing:0px;word-spacing:0px;fill:#000000;fill-opacity:1;stroke:none;stroke-width:1px;stroke-linecap:butt;stroke-linejoin:miter;stroke-opacity:1"><flowRegion
         id="flowRegion4162"><rect
           id="rect4164"
           width="338.57144"
           height="55.714287"
           x="18.571428"
           y="760.93365" /></flowRegion><flowPara
         id="flowPara4167" /><flowPara
         id="flowPara4169" /></flowRoot>    <text
       xml:space="preserve"
       style="font-style:normal;font-weight:normal;font-size:10px;line-height:125%;font-family:Sans;letter-spacing:0px;word-spacing:0px;fill:#000000;fill-opacity:1;stroke:none;stroke-width:1px;stroke-linecap:butt;stroke-linejoin:miter;stroke-opacity:1"
       x="597.85712"
       y="428.79077"
       id="text4188"
       sodipodi:linespacing="125%"><tspan
         sodipodi:role="line"
         id="tspan4190"
         x="597.85712"
         y="428.79077" /></text>
    <path
       style="color:#000000;font-style:normal;font-variant:normal;font-weight:normal;font-stretch:normal;font-size:medium;line-height:normal;font-family:sans-serif;text-indent:0;text-align:start;text-decoration:none;text-decoration-line:none;text-decoration-style:solid;text-decoration-color:#000000;letter-spacing:normal;word-spacing:normal;text-transform:none;direction:ltr;block-progression:tb;writing-mode:lr-tb;baseline-shift:baseline;text-anchor:start;white-space:normal;clip-rule:nonzero;display:inline;overflow:visible;visibility:visible;opacity:0.98999999;isolation:auto;mix-blend-mode:normal;color-interpolation:sRGB;color-interpolation-filters:linearRGB;solid-color:#000000;solid-opacity:1;fill:#212121;fill-opacity:1;fill-rule:nonzero;stroke:none;stroke-width:5.95514631;stroke-linecap:round;stroke-linejoin:round;stroke-miterlimit:4;stroke-dasharray:none;stroke-dashoffset:0;stroke-opacity:1;color-rendering:auto;image-rendering:auto;shape-rendering:auto;text-rendering:auto;enable-background:accumulate"
       d="M 45.511719 1.6308594 A 2.9778709 2.9778707 0 0 0 42.580078 4.6503906 L 42.580078 19.539062 L 3.0195312 19.539062 A 2.9778709 2.9778707 0 1 0 3.0195312 25.494141 L 42.580078 25.494141 L 42.580078 42.507812 A 2.9778709 2.9778707 0 1 0 48.535156 42.507812 L 48.535156 4.6503906 A 2.9778709 2.9778707 0 0 0 45.511719 1.6308594 z M 55.337891 1.6308594 A 2.9778709 2.9778707 0 0 0 52.40625 4.6503906 L 52.40625 42.507812 A 2.9778709 2.9778707 0 1 0 58.361328 42.507812 L 58.361328 25.494141 L 111.48828 25.494141 L 111.48828 37.404297 L 105.5332 37.404297 C 103.46382 37.404297 101.70508 39.163052 101.70508 41.232422 L 101.70508 76.75 C 101.70508 78.8193 103.46382 80.578125 105.5332 80.578125 L 110.85156 80.578125 L 110.85156 91.425781 L 98.939453 91.425781 A 2.9778709 2.9778707 0 1 0 98.939453 97.380859 L 130.41797 97.380859 A 2.9778709 2.9778707 0 1 0 130.41797 91.425781 L 116.80664 91.425781 L 116.80664 80.578125 L 122.12305 80.578125 C 124.19243 80.578125 125.95117 78.8193 125.95117 76.75 L 125.95117 41.232422 C 125.95117 39.163052 124.19243 37.404297 122.12305 37.404297 L 117.44336 37.404297 L 117.44336 25.494141 L 174.14453 25.494141 A 2.9778709 2.9778707 0 1 0 174.14453 19.539062 L 58.361328 19.539062 L 58.361328 4.6503906 A 2.9778709 2.9778707 0 0 0 55.337891 1.6308594 z M 107.66016 43.359375 L 119.99609 43.359375 L 119.99609 74.623047 L 107.66016 74.623047 L 107.66016 43.359375 z M 103.61914 99.507812 A 2.9778709 2.9778707 0 1 0 103.61914 105.46289 L 124.46289 105.46289 A 2.9778709 2.9778707 0 1 0 124.46289 99.507812 L 103.61914 99.507812 z M 109.41602 107.42969 A 2.9778709 2.9778707 0 1 0 109.41602 113.38477 L 118.34766 113.38477 A 2.9778709 2.9778707 0 1 0 118.34766 107.42969 L 109.41602 107.42969 z "
       transform="translate(-7.6293945e-6,938.97638)"
       id="path5248" />
    <flowRoot
       xml:space="preserve"
       id="flowRoot4331"
       style="font-style:normal;font-weight:normal;font-size:10px;line-height:125%;font-family:Sans;letter-spacing:0px;word-spacing:0px;fill:#000000;fill-opacity:1;stroke:none;stroke-width:1px;stroke-linecap:butt;stroke-linejoin:miter;stroke-opacity:1"><flowRegion
         id="flowRegion4333"><rect
           id="rect4335"
           width="3"
           height="11"
           x="1229"
           y="520.36218" /></flowRegion><flowPara
         id="flowPara4337" /></flowRoot>  </g>
</svg>
