<?xml version="1.0" encoding="UTF-8" standalone="no"?>
<!-- Created with Inkscape (http://www.inkscape.org/) -->

<svg
   xmlns:dc="http://purl.org/dc/elements/1.1/"
   xmlns:cc="http://creativecommons.org/ns#"
   xmlns:rdf="http://www.w3.org/1999/02/22-rdf-syntax-ns#"
   xmlns:svg="http://www.w3.org/2000/svg"
   xmlns="http://www.w3.org/2000/svg"
   xmlns:sodipodi="http://sodipodi.sourceforge.net/DTD/sodipodi-0.dtd"
   xmlns:inkscape="http://www.inkscape.org/namespaces/inkscape"
   id="svg2"
   version="1.1"
   inkscape:version="0.48.4 r9939"
   width="698.92651"
   height="230.38875"
   xml:space="preserve"
   sodipodi:docname="logo.pdf"><metadata
     id="metadata8"><rdf:RDF><cc:Work
         rdf:about=""><dc:format>image/svg+xml</dc:format><dc:type
           rdf:resource="http://purl.org/dc/dcmitype/StillImage" /><dc:title></dc:title></cc:Work></rdf:RDF></metadata><defs
     id="defs6" /><sodipodi:namedview
     pagecolor="#ffffff"
     bordercolor="#666666"
     borderopacity="1"
     objecttolerance="10"
     gridtolerance="10"
     guidetolerance="10"
     inkscape:pageopacity="0"
     inkscape:pageshadow="2"
     inkscape:window-width="1920"
     inkscape:window-height="1030"
     id="namedview4"
     showgrid="false"
     fit-margin-top="0"
     fit-margin-left="0"
     fit-margin-right="0"
     fit-margin-bottom="0"
     inkscape:zoom="1.0300633"
     inkscape:cx="173.25595"
     inkscape:cy="49.69658"
     inkscape:window-x="0"
     inkscape:window-y="0"
     inkscape:window-maximized="1"
     inkscape:current-layer="g10" /><g
     id="g10"
     inkscape:groupmode="layer"
     inkscape:label="logo"
     transform="matrix(1.25,0,0,-1.25,-176.718,484.37025)"><g
       id="g12"
       transform="translate(181.9314,342.6182)"><path
         d="m 0,0 27.696,0 0,-12.098 -68.253,0 0,12.098 27.759,0 0,44.878 83.184,0 0,-184.311 -83.198,0 0,109.751 -19.241,0 0,12.096 51.222,0 -0.01,-12.144 -19.159,0 0,-95.247 55.924,0 0,157.099 L 0,32.122 0,0 z"
         style="fill:#544e4a;fill-opacity:1;fill-rule:nonzero;stroke:none"
         id="path14"
         inkscape:connector-curvature="0" /></g><g
       id="g16"
       transform="translate(305.6636,218.6074)"><path
         d="m 0,0 11.571,0 0,31.235 22.099,0 0,-31.244 11.57,10e-4 0,62.499 -11.57,0 0,-23.44 -22.099,0 0,23.44 L 0,62.491 0,0 z m 69.314,-0.009 0,31.245 23.144,0 0,-31.245 11.573,0 0,57.288 -3.848,5.212 -38.588,0 -3.854,-5.212 0,-57.288 11.573,0 z m 0,54.679 23.145,0 0,-15.623 -23.145,0 0,15.623 z m 220.46,-54.679 0,57.288 3.853,5.212 38.588,0 3.848,-5.212 0,-57.288 -11.572,0 0,31.245 -23.145,0 0,-31.245 -11.572,0 z m 34.717,54.679 -23.145,0 0,-15.623 23.145,0 0,15.623 z m -207.96,-49.489 3.853,-5.19 38.588,0 3.848,5.19 0,10.433 -11.572,0 0,-7.812 -23.145,0 0,46.868 23.145,0 0,-7.811 11.572,0 0,10.42 -3.848,5.212 -38.588,0 -3.853,-5.212 0,-52.098 z m 58.789,57.31 11.572,0 0,-23.443 11.573,0 11.572,15.622 0,7.809 11.572,0.012 0,-7.821 -17.358,-23.434 17.358,-23.434 0,-7.811 -11.572,0 0,7.811 -17.359,23.434 -5.786,0 0,-31.245 -11.572,0 0,62.5 z m 58.789,-62.5 45.248,0 0,15.623 -11.572,0 0,-7.812 -22.103,0 0,54.689 -11.573,0 0,-62.5 z m 160.743,57.288 -3.847,5.212 -42.442,0 0,-62.5 42.442,0 3.847,5.19 0,20.859 -3.847,5.196 3.847,5.202 0,20.841 z m -11.572,-18.231 -23.145,0 0,15.623 23.145,0 0,-15.623 z m 0,-31.246 -23.145,0 0,23.434 23.145,0 0,-23.434 z m -314.517,85.777 0,31.245 23.144,0 0,-31.245 11.573,0 0,57.288 -3.848,5.212 -38.588,0 -3.854,-5.212 0,-57.288 11.573,0 z m 0,54.679 23.145,0 0,-15.623 -23.145,0 0,15.623 z m -72.93,-0.543 20.433,-0.008 0,-54.128 11.573,0 0,54.128 20.527,0 10e-4,8.372 -52.534,0 0,-8.364 z m 132.27,8.364 11.572,-15.632 11.573,15.632 11.572,0 0,-62.5 -11.572,0 0,46.434 -11.573,-15.623 -11.572,15.623 0,-46.434 -11.572,0 0,62.5 11.572,0 z m 48.268,0 0,-62.5 11.572,0 0,31.245 30.87,0 3.847,5.202 0,20.841 -3.847,5.212 -42.442,0 z m 34.717,-23.443 -23.145,0 0,15.623 23.145,0 0,-15.623 z m 66.318,15.622 -31.592,0 0,-15.622 23.145,0 0,-7.812 -23.145,0 0,-23.434 31.592,0 0,-7.811 -43.164,0 0,62.5 43.164,0 0,-7.821 z m 114.577,7.821 -44.206,0 0,-62.5 44.206,0 0,7.811 -32.634,0 0,23.434 23.145,0 0,7.812 -23.145,0 0,15.622 32.634,0 0,7.821 z m -60.37,0 3.848,-5.212 0,-20.841 -3.848,-5.202 -13.511,0 17.359,-23.434 0,-7.811 -11.573,0 0,7.811 -17.358,23.434 -5.786,0 0,-31.245 -11.573,0 0,62.5 42.442,0 z m -30.869,-23.443 23.145,0 0,15.623 -23.145,0 0,-15.623 z"
         style="fill:#544e4a;fill-opacity:1;fill-rule:nonzero;stroke:none"
         id="path18"
         inkscape:connector-curvature="0" /></g></g></svg>