<?xml version="1.0" encoding="UTF-8" standalone="no"?>
<!-- Created with Inkscape (http://www.inkscape.org/) -->

<svg
   xmlns:dc="http://purl.org/dc/elements/1.1/"
   xmlns:cc="http://creativecommons.org/ns#"
   xmlns:rdf="http://www.w3.org/1999/02/22-rdf-syntax-ns#"
   xmlns:svg="http://www.w3.org/2000/svg"
   xmlns="http://www.w3.org/2000/svg"
   xmlns:sodipodi="http://sodipodi.sourceforge.net/DTD/sodipodi-0.dtd"
   xmlns:inkscape="http://www.inkscape.org/namespaces/inkscape"
   width="870mm"
   height="2270mm"
   viewBox="0 0 3082.6771 8043.307"
   id="svg2"
   version="1.1"
   inkscape:version="0.91 r13725"
   sodipodi:docname="rollup85x200_v1.svg"
   inkscape:export-filename="/Users/teppo/Documents/Hacklab-materiaalia/pr-github/hacklab-fi/roll-up/rollup_v1.png"
   inkscape:export-xdpi="11.952941"
   inkscape:export-ydpi="11.952941">
  <defs
     id="defs4">
    <inkscape:perspective
       id="perspective611"
       inkscape:persp3d-origin="924.99995 : 1073.3333 : 1"
       inkscape:vp_z="1849.9999 : 1610 : 1"
       inkscape:vp_y="0 : 999.99997 : 0"
       inkscape:vp_x="0 : 1610 : 1"
       sodipodi:type="inkscape:persp3d" />
    <style
       id="style6"
       type="text/css">
   
    .str3 {stroke:#C7C7A2;stroke-width:0.797991}
    .str1 {stroke:#8C8C60;stroke-width:1.70998}
    .str2 {stroke:#636347;stroke-width:2.27997}
    .str0 {stroke:#1F1A17;stroke-width:3.98996}
    .fil1 {fill:none}
    .fil0 {fill:#EEEED4}
   
  </style>
    <inkscape:perspective
       sodipodi:type="inkscape:persp3d"
       inkscape:vp_x="0 : 0.49999998 : 1"
       inkscape:vp_y="0 : 999.99997 : 0"
       inkscape:vp_z="0.9999999 : 0.49999998 : 1"
       inkscape:persp3d-origin="0.49999997 : 0.33333331 : 1"
       id="perspective3574" />
  </defs>
  <sodipodi:namedview
     id="base"
     pagecolor="#ffffff"
     bordercolor="#666666"
     borderopacity="1.0"
     inkscape:pageopacity="0.0"
     inkscape:pageshadow="2"
     inkscape:zoom="0.04"
     inkscape:cx="-1652.8119"
     inkscape:cy="2473.1657"
     inkscape:document-units="mm"
     inkscape:current-layer="layer1"
     showgrid="false"
     inkscape:window-width="1280"
     inkscape:window-height="701"
     inkscape:window-x="83"
     inkscape:window-y="0"
     inkscape:window-maximized="0"
     showguides="true"
     inkscape:guide-bbox="true">
    <sodipodi:guide
       position="0,885.82676"
       orientation="0,1"
       id="guide4431"
       inkscape:label=""
       inkscape:color="rgb(0,0,255)" />
    <sodipodi:guide
       position="1541.3385,0"
       orientation="1,0"
       id="guide4433"
       inkscape:label=""
       inkscape:color="rgb(0,0,255)" />
    <sodipodi:guide
       position="35.433069,0"
       orientation="1,0"
       id="guide4435"
       inkscape:label=""
       inkscape:color="rgb(0,0,255)" />
    <sodipodi:guide
       position="3047.244,0"
       orientation="1,0"
       id="guide4437"
       inkscape:label=""
       inkscape:color="rgb(0,0,255)" />
  </sodipodi:namedview>
  <metadata
     id="metadata7">
    <rdf:RDF>
      <cc:Work
         rdf:about="">
        <dc:format>image/svg+xml</dc:format>
        <dc:type
           rdf:resource="http://purl.org/dc/dcmitype/StillImage" />
        <dc:title></dc:title>
      </cc:Work>
    </rdf:RDF>
  </metadata>
  <g
     inkscape:label="Taso 1"
     inkscape:groupmode="layer"
     id="layer1"
     transform="translate(0,6990.9449)">
    <rect
       style="opacity:0.98999999;fill:#ffffff;fill-opacity:1;stroke:none;stroke-width:3;stroke-linecap:round;stroke-linejoin:round;stroke-miterlimit:4;stroke-dasharray:none;stroke-dashoffset:0;stroke-opacity:1"
       id="rect4540"
       width="2923.05"
       height="7187.5571"
       x="46.341038"
       y="-6818.3291"
       ry="2.7046609" />
    <flowRoot
       xml:space="preserve"
       id="flowRoot4160"
       style="font-style:normal;font-weight:normal;font-size:10px;line-height:125%;font-family:Sans;letter-spacing:0px;word-spacing:0px;fill:#000000;fill-opacity:1;stroke:none;stroke-width:1px;stroke-linecap:butt;stroke-linejoin:miter;stroke-opacity:1"><flowRegion
         id="flowRegion4162"><rect
           id="rect4164"
           width="338.57144"
           height="55.714287"
           x="18.571428"
           y="760.93365" /></flowRegion><flowPara
         id="flowPara4167" /><flowPara
         id="flowPara4169" /></flowRoot>    <text
       xml:space="preserve"
       style="font-style:normal;font-weight:normal;font-size:10px;line-height:125%;font-family:Sans;letter-spacing:0px;word-spacing:0px;fill:#000000;fill-opacity:1;stroke:none;stroke-width:1px;stroke-linecap:butt;stroke-linejoin:miter;stroke-opacity:1"
       x="597.85712"
       y="428.79077"
       id="text4188"
       sodipodi:linespacing="125%"><tspan
         sodipodi:role="line"
         id="tspan4190"
         x="597.85712"
         y="428.79077" /></text>
    <flowRoot
       xml:space="preserve"
       id="flowRoot4136"
       style="font-style:normal;font-weight:normal;font-size:51.31850815px;line-height:125%;font-family:Sans;letter-spacing:0px;word-spacing:0px;fill:#000000;fill-opacity:1;stroke:none;stroke-width:1px;stroke-linecap:butt;stroke-linejoin:miter;stroke-opacity:1"
       inkscape:export-xdpi="97"
       inkscape:export-ydpi="97"
       transform="translate(35.434886,-708.66293)"><flowRegion
         id="flowRegion4138"><rect
           id="rect4140"
           width="2947.1484"
           height="1085.0198"
           x="406.82724"
           y="-5544.0117" /></flowRegion><flowPara
         id="flowPara4142"
         style="font-style:normal;font-variant:normal;font-weight:bold;font-stretch:normal;font-size:461.86654663px;font-family:'Droid Sans';-inkscape-font-specification:'Droid Sans Bold'">hacklab.fi</flowPara></flowRoot>    <flowRoot
       xml:space="preserve"
       id="flowRoot4331"
       style="font-style:normal;font-weight:normal;font-size:10px;line-height:125%;font-family:Sans;letter-spacing:0px;word-spacing:0px;fill:#000000;fill-opacity:1;stroke:none;stroke-width:1px;stroke-linecap:butt;stroke-linejoin:miter;stroke-opacity:1"><flowRegion
         id="flowRegion4333"><rect
           id="rect4335"
           width="3"
           height="11"
           x="1229"
           y="520.36218" /></flowRegion><flowPara
         id="flowPara4337" /></flowRoot>    <path
       sodipodi:nodetypes="cccccccccccccccccccccccccccccccccccccccccccccccccccccccccccccccccccccccccccccccccccccccccccccccccccccccccccccccccccccccccccccccccccccccccccccccccccccccccccccccccccccccccccccccccccccccccccccccccccccccccccccccccccccccccccccccccccccccccccccccccccccccccccccccccccccccccccccccccccccccccccccccccccccccccccccccccccccccccccccccccccccccccccccccccccccccccccccccccccccccccccccccccccccccccccccccccccccccccccccccccccccccccccccccccccccccccccccccc"
       inkscape:connector-curvature="0"
       id="path8573"
       d="m 0,-6990.9449 0,8043.3071 3082.6772,0 0,-8043.3071 z m 1157.7454,344.9853 95.2557,0 0,86.9428 5.9501,0 0,62.7876 38.7025,0 0,-125.5744 44.6446,0 0,125.5744 53.5813,0 0,-106.2524 26.795,0 0,106.2524 118.6639,0 0,-24.1429 51.0015,0 0,-72.4553 26.795,0 0,72.4553 44.6444,0 0,-57.9667 44.6525,0 0,57.9667 86.3262,0 0,-9.6674 98.2265,0 0,-67.6212 44.6524,0 0,67.6212 178.6024,0 0,-48.2993 95.2551,0 0,48.2993 148.8371,0 0,33.8103 101.2047,0 0,-140.0627 95.2557,0 0,140.0627 83.3473,0 0,-53.1191 95.2551,0 0,53.1191 119.0624,0 0,106.2658 -119.0624,0 0,33.8104 217.2971,0 0,231.8409 -116.0926,0 0,177.6144 -101.2045,0 0,34.4885 95.2467,0 0,64.2657 -95.2467,0 0,36.4886 151.8073,0 0,106.2658 -83.3471,0 0,96.5979 -68.4602,0 0,67.6208 163.7152,0 0,106.2658 -163.7152,0 0,19.3221 133.95,0 0,106.2534 -133.95,0 0,0 14.8788,0 0,106.2523 -14.8788,0 0,48.2991 130.9703,0 0,231.8532 -130.9703,0 0,77.2763 205.3888,0 0,231.84 -205.3888,0 0,28.9904 47.6231,0 0,24.1429 26.7873,0 0,72.4552 -26.7873,0 0,33.8105 20.8371,0 0,62.7867 65.4898,0 0,106.2656 -86.3269,0 0,48.2991 74.4185,0 0,106.2657 -53.5814,0 0,38.6449 -20.8371,0 0,28.9771 136.9287,0 0,231.84 -136.9287,0 0,19.3229 86.3269,0 0,106.2657 -5.9583,0 0,48.2989 -104.1842,0 0,53.1325 181.5813,0 0,72.4418 -181.5813,0 0,67.6211 80.3763,0 0,106.2665 -80.3763,0 0,62.7867 80.3763,0 0,72.4552 -80.3763,0 0,28.9771 23.8156,0 0,72.4553 -23.8156,0 0,33.8106 110.1425,0 0,106.2657 -110.1425,0 0,91.7637 32.7447,0 0,72.4553 -32.7447,0 0,67.6209 41.6735,0 0,231.841 -41.6735,0 0,125.5876 80.3763,0 0,242.2657 -80.3763,0 0,62.7877 92.2763,0 0,111.8408 -92.2763,0 0,48.2981 62.5105,0 0,72.4553 -62.5105,0 0,82.1095 86.3261,0 0,72.4552 -86.3261,0 0,14.4886 169.6734,0 0,72.4552 -169.6734,0 0,96.5982 56.5605,0 0,166.9437 107.1634,0 0,106.2658 -163.7239,0 0,48.2989 83.3472,0 0,111.8401 -83.3472,0 0,67.621 116.0921,0 0,106.2657 -29.766,0 0,106.2532 -38.6942,0 0,57.9667 92.2758,0 0,106.2657 -71.4394,0 0,77.2753 -20.8364,0 0,19.3229 127.9917,0 0,186.26567 -53.5733,0 0,106.25238 -145.8578,0 0,173.88761 -95.2551,0 0,-125.57524 -83.3473,0 0,38.63141 -95.2557,0 0,-38.63141 -130.9787,0 0,-48.31237 -119.0631,0 0,144.91045 -95.2551,0 0,-96.59808 -178.6024,0 0,77.27617 -44.6524,0 0,-77.27617 -92.2763,0 0,-48.31237 -92.2764,0 0,144.91045 -44.6525,0 0,-144.91045 -44.6444,0 0,144.91045 -26.795,0 0,-144.91045 -169.6654,0 0,135.24189 -26.795,0 0,-135.24189 -53.5813,0 0,101.43236 -44.6446,0 0,-101.43236 -44.6526,0 0,77.28952 -95.2557,0 0,-77.28952 -139.9072,0 0,115.93428 -44.6445,0 0,-38.64476 -59.5398,0 0,-77.28952 -86.31805,0 0,164.23236 -44.65267,0 0,-164.23236 -50.60284,0 0,140.07712 -44.65285,0 0,-140.07712 -38.69441,0 0,178.72188 -26.79484,0 0,-178.72188 -35.71589,0 0,19.32285 -2.97851,0 0,96.61143 -26.78657,0 0,-96.61143 -41.67367,0 0,77.28856 -95.25557,0 0,-77.28856 -101.20495,0 0,-19.32285 -104.18371,0 0,-106.25238 53.57322,0 0,-186.26567 44.65279,0 0,-19.3229 -151.80743,0 0,-106.2524 71.43937,0 0,-77.2886 80.36806,0 0,-57.9667 -133.95003,0 0,-106.2532 29.76577,0 0,-106.2657 127.99991,0 0,-67.621 -160.74426,0 0,-111.8401 160.74426,0 0,-48.2989 -80.368,0 0,-86.9438 -107.1629,0 0,-186.2657 187.5309,0 0,-96.5982 -74.41849,0 0,-72.4552 116.09245,0 0,-14.4886 -199.43964,0 0,-72.4552 157.76568,0 0,-82.1095 -181.58134,0 0,-72.4553 181.58134,0 0,-48.2981 -151.81557,0 0,-111.8408 193.48898,0 0,-14.4886 -71.43918,0 0,-48.2991 -133.94942,0 0,-242.2657 133.94942,0 0,-96.5981 -47.6313,0 0,-28.9895 -125.0214,0 0,-231.841 133.35572,0 0,-67.6209 -142.28436,0 0,-72.4553 142.28436,0 0,-91.7637 -64.88667,0 0,-106.2657 64.88667,0 0,-33.8106 -151.21367,0 0,-72.4553 151.21367,0 0,-28.9771 -94.65244,0 0,-72.4552 94.65244,0 0,-62.7867 -94.65244,0 0,-106.2665 142.28435,0 0,-67.6211 -74.41851,0 0,-72.4418 74.41851,0 0,-53.1325 -118.47696,0 0,-106.2656 5.95838,0 0,-48.299 112.51858,0 0,-19.3229 -61.91634,0 0,-231.84 61.91634,0 0,-28.9771 -178.00844,0 0,-72.4553 53.58197,0 0,-72.4553 124.42647,0 0,-48.2991 -112.51858,0 0,-96.5971 -65.48986,0 0,-72.4552 178.00844,0 0,-33.8105 -172.05838,0 0,-72.4552 172.05838,0 0,-53.1333 -41.07928,0 0,-231.84 41.07928,0 0,-77.2763 -115.49833,0 0,-231.8532 115.49833,0 0,-48.2991 -231.589926,0 0,-106.2523 231.589926,0 0,0 -112.51858,0 0,-106.2534 112.51858,0 0,-19.3221 -82.75287,0 0,-106.2658 82.75287,0 0,-67.6208 -178.00844,0 0,-106.2657 83.34712,0 0,-96.598 94.66132,0 0,-14.4886 -151.2213,0 0,-106.2657 151.2213,0 0,-60.4885 -145.26355,0 0,-131.6144 116.09216,0 0,-231.8409 133.94923,0 0,-33.8104 -232.1835,0 0,-106.2658 232.1835,0 0,-130.4087 95.25557,0 0,130.4087 41.67367,0 0,-125.5744 26.78657,0 0,125.5744 38.6944,0 0,-62.7876 26.79484,0 0,62.7876 38.69441,0 0,-86.9305 44.65285,0 0,86.9305 50.60284,0 0,-62.7876 44.65267,0 0,62.7876 62.51005,0 0,-62.7876 83.3478,0 0,-48.2982 44.6445,0 0,48.2982 139.9072,0 z"
       style="opacity:1;fill:#66d1c5;fill-opacity:1;stroke:none;stroke-width:4.3760376;stroke-linecap:round;stroke-linejoin:round;stroke-miterlimit:4;stroke-dasharray:none;stroke-dashoffset:0;stroke-opacity:1"
       inkscape:export-xdpi="97"
       inkscape:export-ydpi="97" />
    <flowRoot
       xml:space="preserve"
       id="flowRoot8772"
       style="font-style:normal;font-weight:normal;font-size:20.0113163px;line-height:125%;font-family:Sans;letter-spacing:0px;word-spacing:0px;fill:#000000;fill-opacity:1;stroke:none;stroke-width:1px;stroke-linecap:butt;stroke-linejoin:miter;stroke-opacity:1"
       inkscape:export-xdpi="97"
       inkscape:export-ydpi="97"
       transform="matrix(5.9855688,0,0,5.9855688,4523.636,-6818.226)"><flowRegion
         id="flowRegion8774"><rect
           id="rect8776"
           width="714.68982"
           height="823.32269"
           x="-677.72968"
           y="197.10733" /></flowRegion><flowPara
         style="font-style:normal;font-variant:normal;font-weight:normal;font-stretch:normal;font-size:45px;font-family:Inconsolata;-inkscape-font-specification:Inconsolata"
         id="flowPara8780">Kaikille avoimia</flowPara><flowPara
         style="font-style:normal;font-variant:normal;font-weight:normal;font-stretch:normal;font-size:45px;font-family:Inconsolata;-inkscape-font-specification:Inconsolata"
         id="flowPara4356">työtiloja joka</flowPara><flowPara
         style="font-style:normal;font-variant:normal;font-weight:normal;font-stretch:normal;font-size:45px;font-family:Inconsolata;-inkscape-font-specification:Inconsolata"
         id="flowPara8784">puolella Suomea!</flowPara></flowRoot>    <g
       id="g4503"
       transform="translate(0,-877.82679)">
      <path
         inkscape:connector-curvature="0"
         id="path4501"
         d="m 2419.7954,-61.7519 161.3197,-151.2372 161.3197,-257.1032 40.3299,-110.9073 -231.8971,-741.0624 z"
         style="opacity:0.98999999;fill:#ffffff;fill-opacity:1;stroke:none;stroke-width:3;stroke-linecap:round;stroke-linejoin:round;stroke-miterlimit:4;stroke-dasharray:none;stroke-dashoffset:0;stroke-opacity:1" />
      <g
         inkscape:export-ydpi="97"
         inkscape:export-xdpi="97"
         transform="matrix(9.625536,0,0,9.625536,-6779.8248,-8415.83)"
         id="g8737">
        <g
           id="g7604"
           transform="matrix(1.158742,0.28088157,-0.28088157,1.158742,216.49654,-393.18241)"
           style="fill:#d35f5f">
          <path
             sodipodi:nodetypes="scsss"
             inkscape:connector-curvature="0"
             id="path7606"
             d="m 829.34949,760.7099 c 0,7.81835 -8.51695,29.83638 -14.15637,39.60414 -5.5822,-9.66865 -14.15638,-31.78579 -14.15638,-39.60414 0,-7.81835 6.33803,-14.15638 14.15638,-14.15638 7.81835,0 14.15637,6.33803 14.15637,14.15638 z"
             style="opacity:1;fill:#d35f5f;fill-opacity:1;stroke:#000000;stroke-width:2.97937441;stroke-linecap:round;stroke-linejoin:round;stroke-miterlimit:4;stroke-dasharray:none;stroke-dashoffset:0;stroke-opacity:1" />
          <ellipse
             ry="8.7145271"
             rx="8.5118647"
             cy="760.54138"
             cx="815.19312"
             id="ellipse7608"
             style="opacity:1;fill:#d40000;fill-opacity:1;stroke:#ffffff;stroke-width:3.58284259;stroke-linecap:round;stroke-linejoin:round;stroke-miterlimit:4;stroke-dasharray:none;stroke-dashoffset:0;stroke-opacity:1" />
        </g>
        <g
           style="fill:none;fill-rule:evenodd;stroke:#000000;stroke-width:64.09573364;stroke-linecap:round;stroke-linejoin:round;stroke-miterlimit:4;stroke-dasharray:none;stroke-opacity:1"
           id="_91105008"
           transform="matrix(0.06965466,0,0,0.06965467,865.08173,657.62066)">
          <path
             style="fill:none;stroke:#000000;stroke-width:64.09573364;stroke-linecap:round;stroke-linejoin:round;stroke-miterlimit:4;stroke-dasharray:none;stroke-opacity:1"
             d="m 940.503,482.635 c 35.60468,16.26304 6.61925,-88.45848 58.74582,-93.34091 54.57778,-5.11202 30.18338,-67.57361 33.84128,-103.24377 4.4563,-43.45601 11.6225,-90.81741 21.7031,-129.16601 9.6046,-36.53773 38.9995,-72.244981 67.541,-95.190765 33.797,-27.170875 81.5509,19.002694 114.1258,-28.692645 30.2627,-44.31 65.6545,-2.239821 88.6325,30.158566 22.9666,32.382292 70.9443,36.639539 97.7275,67.292534 32.534,37.23474 41.6243,89.33521 -6.8146,122.21715 -45.3228,30.76663 15.2599,86.72184 -31.7752,109.95076 -71.3766,35.25026 39.2558,12.19194 4.5617,77.00226 -20.6753,38.62249 -25.015,69.918 -16.4592,119.91679 9.8881,57.78508 62.8529,47.87121 86.6666,80.95018 30.7864,42.76451 64.9776,74.49682 90.6307,125.05386 34.4134,67.82181 -49.6985,139.79893 -87.6605,202.67749 -27.8271,46.09161 -9.6864,79.75491 15.6923,116.20481 38.4997,55.2948 55.0087,120.6809 87.5963,179.073 22.3431,40.0356 69.7593,103.5848 33.5119,132.1317 -47.5669,37.4617 -30.0299,51.4542 -47.2983,90.6698 -25.6512,58.2525 46.7548,48.53 21.2283,86.3002 -23.1209,34.2108 -45.4939,94.6909 -2.898,102.7783 52.4504,9.9584 34.8236,53.1147 30.6461,88.9098 -6.2112,53.2202 65.7594,56.3531 74.5997,101.4018 8.4693,43.1581 -8.6331,100.1327 -40.4609,125.8613 -41.5198,33.5633 27.5849,69.4158 51.6271,97.2578 27.1666,31.4603 93.032,32.5259 105.039,71.4288 13.6976,44.3804 70.5885,57.1574 52.4602,106.5207 -23.0557,62.7807 -28.8544,142.4161 -79.4347,186.6204 -43.6629,38.1589 -68.9565,92.9091 -102.4885,141.4811 -25.3329,36.6954 -40.3876,75.3033 -68.5147,108.617 -32.326,38.2869 -40.3758,100.5466 -93.7424,116.8237 -46.6759,14.2364 -40.7569,61.7498 -77.3562,79.6543 -42.3347,20.7103 -55.8834,70.7639 -94.3267,100.495 -20.0551,15.5102 -36.6964,50.4736 -72.51,45.6668 -18.87,-2.5327 -63.7768,-43.3634 -74.22,6.2632 -5.5782,26.5077 -49.3779,-14.0487 -82.737,8.0497 -29.2234,19.3588 -32.7722,-43.0687 -62.2696,-8.1317 -36.31708,43.0143 -30.0049,50.4065 -61.9784,31.662 -24.19474,-14.1842 -109.97784,24.1311 -87.215,42.92 32.63579,26.9382 -58.03839,-6.0148 -74.64812,27.3727 -26.99872,54.2706 -30.17339,-16.2544 -43.12659,9.469 -11.40677,22.6524 -83.5213,-0.2895 -107.44929,25.9883 -23.14895,25.4222 -19.32946,-26.7507 -58.44674,2.4679 -78.54135,58.6663 -46.07931,10.3187 -39.23715,-22.5153 5.41562,-25.9883 -44.8665,-7.8274 -42.85564,-29.2045 5.54811,-58.9809 -19.82897,-13.7094 -33.11316,-53.8338 -10.57165,-31.9313 -4.76091,-8.6256 -51.48005,-32.9194 -51.66207,-26.8641 -136.00626,-183.4634 -119.18041,-127.718 11.37257,37.6782 -22.53804,-94.1809 -8.7358,-77.3374 35.30157,43.0801 3.86475,-7.8926 22.38364,-29.0749 27.60333,-31.5733 30.68734,-52.1037 27.29937,-93.181 -3.10179,-37.6075 31.3877,-32.0621 15.18394,-43.6736 -33.18199,-23.778 21.22143,-9.3222 -2.453,-70.21 -9.85151,-25.3369 -18.03119,-45.6878 -31.49613,-85.6733 -12.02335,-35.7045 34.43,-61.1246 9.66813,-89.9167 -35.06892,-40.7767 -22.55636,-145.9507 -3.3063,-158.1239 30.15534,-19.0694 60.56261,-19.9702 47.132,-66.9866 -8.39364,-29.3835 29.4312,-0.7281 17.5983,-48.3195 -9.54506,-38.3898 48.51636,-11.3414 84.723,-13.67 48.20706,-3.1005 12.1303,-45.7305 20.625,-75.37 8.77713,-30.6249 34.63637,-28.4015 57.75567,-63.6717 17.65594,-26.9355 24.51068,-70.8416 60.87276,-57.3717 64.6687,23.9557 32.33253,-56.3978 69.58909,-46.0808 16.84136,4.6637 28.45363,-47.1099 53.25148,-65.2658 29.01509,-21.2436 52.38231,-56.6237 68.561,-88.19 19.53574,-38.1163 24.79714,-80.4354 56.82266,-97.3265 75.82989,-39.9948 111.68195,-26.5387 87.84887,-54.5614 -26.29053,-30.9122 -15.65463,-65.557 -13.45969,-100.9548 6.23875,-100.6123 -71.31451,-82.3331 -95.44184,-122.2873 -25.10126,-41.567 -51.44188,0.5927 -60.67662,-62.7519 -6.46244,-44.3283 -38.55568,-72.5288 -46.50947,-116.7893 -7.31762,-40.7204 22.36081,-68.5521 29.8071,-103.3961 9.87748,-46.2204 2.93609,-67.9777 -9.84958,-121.90714 -19.39733,-81.81708 -17.72225,-151.03729 -16.14119,-200.08276 1.55304,-48.1765 33.58019,-78.6604 -1.27293,-110.03654 -31.62996,-28.47452 -27.57953,-60.81037 -54.60665,-99.12671 -26.78472,-37.97269 -86.68767,-32.24051 -106.5313,-64.90295 -20.9816,-34.53554 -56.83643,-46.32242 -75.30701,-86.0015 -19.23607,-41.32353 -48.98977,-51.4633 -63.96049,-96.51404 -21.0626,-63.38279 67.08901,34.17653 46.33405,-45.55402 -12.31139,-47.29442 83.12197,-47.18805 95.73695,1.53374 13.36952,51.63595 26.8859,101.56987 55.18614,150.62822 18.2332,31.60718 77.10281,9.23906 101.41284,26.5024 34.45887,24.47036 58.86076,-71.53004 99.40331,-29.76189 26.16839,26.95946 47.94451,44.82243 85.67285,62.05549 z"
             id="_91167600"
             inkscape:connector-curvature="0"
             sodipodi:nodetypes="sssssssssssssssssssssssssssssssssssssssssssssssssssssssssssssssssssssssssssssssssssss" />
          <path
             style="fill:none;stroke:#000000;stroke-width:64.09573364;stroke-linecap:round;stroke-linejoin:round;stroke-miterlimit:4;stroke-dasharray:none;stroke-opacity:1"
             d="m 124.795,3134.78 c -11.90759,27.5927 -86.386726,-18.3303 -64.516478,-14.6131 -12.83395,-46.4629 -50.3239464,-2.7298 -49.266522,-52.1049 27.337516,-62.0906 95.12399,-58.2465 106.573,-38.372 132.43892,37.2138 0.662,68.6708 7.21,105.09 z"
             id="_91165368"
             inkscape:connector-curvature="0"
             sodipodi:nodetypes="ccccc" />
        </g>
        <g
           style="fill:#dd55ff"
           id="g8561"
           transform="matrix(1.1068225,0.44330752,-0.44330752,1.1068225,408.8149,-451.45787)">
          <path
             sodipodi:nodetypes="scsss"
             inkscape:connector-curvature="0"
             id="path8563"
             d="m 830.16229,760.22348 c 0,7.81835 -8.51695,29.83638 -14.15637,39.60414 -5.5822,-9.66865 -14.15638,-31.78579 -14.15638,-39.60414 0,-7.81835 6.33803,-14.15638 14.15638,-14.15638 7.81835,0 14.15637,6.33803 14.15637,14.15638 z"
             style="opacity:1;fill:#dd55ff;fill-opacity:1;stroke:#000000;stroke-width:2.97937441;stroke-linecap:round;stroke-linejoin:round;stroke-miterlimit:4;stroke-dasharray:none;stroke-dashoffset:0;stroke-opacity:1" />
          <ellipse
             ry="8.7145271"
             rx="8.5118647"
             cy="760.05499"
             cx="816.00592"
             id="ellipse8565"
             style="opacity:1;fill:#8800aa;fill-opacity:1;stroke:#ffffff;stroke-width:3.58284259;stroke-linecap:round;stroke-linejoin:round;stroke-miterlimit:4;stroke-dasharray:none;stroke-dashoffset:0;stroke-opacity:1" />
        </g>
        <g
           style="fill:#7c6f91"
           id="g7638"
           transform="matrix(1.152687,-0.30477889,0.30477889,1.152687,-235.2736,133.38802)">
          <path
             sodipodi:nodetypes="scsss"
             inkscape:connector-curvature="0"
             id="path7640"
             d="m 829.34949,760.7099 c 0,7.81835 -8.51695,29.83638 -14.15637,39.60414 -5.5822,-9.66865 -14.15638,-31.78579 -14.15638,-39.60414 0,-7.81835 6.33803,-14.15638 14.15638,-14.15638 7.81835,0 14.15637,6.33803 14.15637,14.15638 z"
             style="opacity:1;fill:#aaeeff;fill-opacity:1;stroke:#000000;stroke-width:2.97937441;stroke-linecap:round;stroke-linejoin:round;stroke-miterlimit:4;stroke-dasharray:none;stroke-dashoffset:0;stroke-opacity:1" />
          <ellipse
             ry="8.7145271"
             rx="8.5118647"
             cy="760.54138"
             cx="815.19312"
             id="ellipse7642"
             style="opacity:1;fill:#37abc8;fill-opacity:1;stroke:#ffffff;stroke-width:3.58284259;stroke-linecap:round;stroke-linejoin:round;stroke-miterlimit:4;stroke-dasharray:none;stroke-dashoffset:0;stroke-opacity:1" />
        </g>
        <g
           style="fill:#9955ff"
           id="g7632"
           transform="matrix(1.1633264,-0.26124566,0.26124566,1.1633264,-247.20304,85.487363)">
          <path
             sodipodi:nodetypes="scsss"
             inkscape:connector-curvature="0"
             id="path7634"
             d="m 828.80704,756.29006 c 0,7.81835 -8.51695,29.83638 -14.15637,39.60414 -5.5822,-9.66865 -14.15638,-31.78579 -14.15638,-39.60414 0,-7.81835 6.33803,-14.15638 14.15638,-14.15638 7.81835,0 14.15637,6.33803 14.15637,14.15638 z"
             style="opacity:1;fill:#9955ff;fill-opacity:1;stroke:#000000;stroke-width:2.97937441;stroke-linecap:round;stroke-linejoin:round;stroke-miterlimit:4;stroke-dasharray:none;stroke-dashoffset:0;stroke-opacity:1" />
          <ellipse
             ry="8.7145271"
             rx="8.5118647"
             cy="756.12152"
             cx="814.65063"
             id="ellipse7636"
             style="opacity:1;fill:#5500d4;fill-opacity:1;stroke:#ffffff;stroke-width:3.58284259;stroke-linecap:round;stroke-linejoin:round;stroke-miterlimit:4;stroke-dasharray:none;stroke-dashoffset:0;stroke-opacity:1" />
        </g>
        <g
           transform="matrix(1.1642028,0.25731194,-0.25731194,1.1642028,234.55946,-318.00364)"
           id="g7598"
           style="fill:#d4ff2a">
          <path
             style="opacity:1;fill:#d4ff2a;fill-opacity:1;stroke:#000000;stroke-width:2.97937441;stroke-linecap:round;stroke-linejoin:round;stroke-miterlimit:4;stroke-dasharray:none;stroke-dashoffset:0;stroke-opacity:1"
             d="m 830.16229,760.22348 c 0,7.81835 -8.51695,29.83638 -14.15637,39.60414 -5.5822,-9.66865 -14.15638,-31.78579 -14.15638,-39.60414 0,-7.81835 6.33803,-14.15638 14.15638,-14.15638 7.81835,0 14.15637,6.33803 14.15637,14.15638 z"
             id="path7600"
             inkscape:connector-curvature="0"
             sodipodi:nodetypes="scsss" />
          <ellipse
             style="opacity:1;fill:#806600;fill-opacity:1;stroke:#ffffff;stroke-width:3.58284259;stroke-linecap:round;stroke-linejoin:round;stroke-miterlimit:4;stroke-dasharray:none;stroke-dashoffset:0;stroke-opacity:1"
             id="ellipse7602"
             cx="816.00592"
             cy="760.05499"
             rx="8.5118647"
             ry="8.7145271" />
        </g>
        <g
           style="fill:#d35f8d"
           id="g8567"
           transform="matrix(1.1856914,-0.12535311,0.12535311,1.1856914,-106.74079,-8.850583)">
          <path
             sodipodi:nodetypes="scsss"
             inkscape:connector-curvature="0"
             id="path8569"
             d="m 830.16229,760.22348 c 0,7.81835 -8.51695,29.83638 -14.15637,39.60414 -5.5822,-9.66865 -14.15638,-31.78579 -14.15638,-39.60414 0,-7.81835 6.33803,-14.15638 14.15638,-14.15638 7.81835,0 14.15637,6.33803 14.15637,14.15638 z"
             style="opacity:1;fill:#ff5599;fill-opacity:1;stroke:#000000;stroke-width:2.97937441;stroke-linecap:round;stroke-linejoin:round;stroke-miterlimit:4;stroke-dasharray:none;stroke-dashoffset:0;stroke-opacity:1" />
          <ellipse
             ry="8.7145271"
             rx="8.5118647"
             cy="760.05499"
             cx="816.00592"
             id="ellipse8571"
             style="opacity:1;fill:#ff0066;fill-opacity:1;stroke:#ffffff;stroke-width:3.58284259;stroke-linecap:round;stroke-linejoin:round;stroke-miterlimit:4;stroke-dasharray:none;stroke-dashoffset:0;stroke-opacity:1" />
        </g>
        <g
           transform="matrix(1.1086837,-0.43863198,0.43863198,1.1086837,-361.61754,304.17239)"
           id="g7622"
           style="fill:#ff7f2a">
          <path
             style="opacity:1;fill:#ff7f2a;fill-opacity:1;stroke:#000000;stroke-width:2.97937441;stroke-linecap:round;stroke-linejoin:round;stroke-miterlimit:4;stroke-dasharray:none;stroke-dashoffset:0;stroke-opacity:1"
             d="m 828.89689,761.26249 c 0,7.81835 -8.51695,29.83638 -14.15637,39.60414 -5.5822,-9.66865 -14.15638,-31.78579 -14.15638,-39.60414 0,-7.81835 6.33803,-14.15638 14.15638,-14.15638 7.81835,0 14.15637,6.33803 14.15637,14.15638 z"
             id="path7624"
             inkscape:connector-curvature="0"
             sodipodi:nodetypes="scsss" />
          <ellipse
             style="opacity:1;fill:#aa4400;fill-opacity:1;stroke:#ffffff;stroke-width:3.58284259;stroke-linecap:round;stroke-linejoin:round;stroke-miterlimit:4;stroke-dasharray:none;stroke-dashoffset:0;stroke-opacity:1"
             id="ellipse7626"
             cx="814.52673"
             cy="761.49591"
             rx="8.5118647"
             ry="8.7145271" />
        </g>
        <g
           transform="matrix(1.1853006,0.12899693,-0.12899693,1.1853006,57.380469,-214.18035)"
           id="g7610"
           style="fill:#2aff2a">
          <path
             style="opacity:1;fill:#2aff2a;fill-opacity:1;stroke:#000000;stroke-width:2.97937441;stroke-linecap:round;stroke-linejoin:round;stroke-miterlimit:4;stroke-dasharray:none;stroke-dashoffset:0;stroke-opacity:1"
             d="m 829.34949,760.7099 c 0,7.81835 -8.51695,29.83638 -14.15637,39.60414 -5.5822,-9.66865 -14.15638,-31.78579 -14.15638,-39.60414 0,-7.81835 6.33803,-14.15638 14.15638,-14.15638 7.81835,0 14.15637,6.33803 14.15637,14.15638 z"
             id="path7612"
             inkscape:connector-curvature="0"
             sodipodi:nodetypes="scsss" />
          <ellipse
             style="opacity:1;fill:#165016;fill-opacity:1;stroke:#ffffff;stroke-width:3.58284259;stroke-linecap:round;stroke-linejoin:round;stroke-miterlimit:4;stroke-dasharray:none;stroke-dashoffset:0;stroke-opacity:1"
             id="ellipse7614"
             cx="815.19312"
             cy="760.54138"
             rx="8.5118647"
             ry="8.7145271" />
        </g>
        <g
           style="fill:#0000ff"
           id="g7616"
           transform="matrix(1.189628,0.07976823,-0.07976823,1.189628,-6.2999402,-147.00478)">
          <path
             sodipodi:nodetypes="scsss"
             inkscape:connector-curvature="0"
             id="path7618"
             d="m 829.34949,760.7099 c 0,7.81835 -8.51695,29.83638 -14.15637,39.60414 -5.5822,-9.66865 -14.15638,-31.78579 -14.15638,-39.60414 0,-7.81835 6.33803,-14.15638 14.15638,-14.15638 7.81835,0 14.15637,6.33803 14.15637,14.15638 z"
             style="opacity:1;fill:#0000ff;fill-opacity:1;stroke:#000000;stroke-width:2.97937441;stroke-linecap:round;stroke-linejoin:round;stroke-miterlimit:4;stroke-dasharray:none;stroke-dashoffset:0;stroke-opacity:1" />
          <ellipse
             ry="8.7145271"
             rx="8.5118647"
             cy="760.54138"
             cx="815.19312"
             id="ellipse7620"
             style="opacity:1;fill:#0000ff;fill-opacity:1;stroke:#ffffff;stroke-width:3.58284259;stroke-linecap:round;stroke-linejoin:round;stroke-miterlimit:4;stroke-dasharray:none;stroke-dashoffset:0;stroke-opacity:1" />
        </g>
        <g
           id="g7594"
           transform="matrix(1.1798373,0.17193493,-0.17193493,1.1798373,112.471,-214.4625)">
          <path
             sodipodi:nodetypes="scsss"
             inkscape:connector-curvature="0"
             id="path7589"
             d="m 829.34949,760.7099 c 0,7.81835 -8.51695,29.83638 -14.15637,39.60414 -5.5822,-9.66865 -14.15638,-31.78579 -14.15638,-39.60414 0,-7.81835 6.33803,-14.15638 14.15638,-14.15638 7.81835,0 14.15637,6.33803 14.15637,14.15638 z"
             style="opacity:1;fill:#00ffcc;fill-opacity:1;stroke:#000000;stroke-width:2.97937441;stroke-linecap:round;stroke-linejoin:round;stroke-miterlimit:4;stroke-dasharray:none;stroke-dashoffset:0;stroke-opacity:1" />
          <ellipse
             ry="8.7145271"
             rx="8.5118647"
             cy="760.54138"
             cx="815.19312"
             id="path7592"
             style="opacity:1;fill:#008066;fill-opacity:1;stroke:#ffffff;stroke-width:3.58284259;stroke-linecap:round;stroke-linejoin:round;stroke-miterlimit:4;stroke-dasharray:none;stroke-dashoffset:0;stroke-opacity:1" />
        </g>
      </g>
    </g>
    <flowRoot
       xml:space="preserve"
       id="flowRoot4330"
       style="font-style:normal;font-weight:normal;font-size:28.18181801px;line-height:125%;font-family:Sans;letter-spacing:0px;word-spacing:0px;fill:#000000;fill-opacity:1;stroke:none;stroke-width:1px;stroke-linecap:butt;stroke-linejoin:miter;stroke-opacity:1"
       transform="matrix(0.65551154,0,0,0.65551154,759.18011,-1923.3582)"><flowRegion
         id="flowRegion4332"><rect
           id="rect4334"
           width="4633.1567"
           height="1718.7516"
           x="478.78363"
           y="-3191.1382" /></flowRegion><flowPara
         id="flowPara4338"
         style="font-style:normal;font-variant:normal;font-weight:normal;font-stretch:normal;font-size:286.03616333px;font-family:'Noto Sans';-inkscape-font-specification:'Noto Sans'">3D-tulostaminen</flowPara></flowRoot>    <flowRoot
       style="font-style:normal;font-weight:normal;font-size:18.47350693px;line-height:125%;font-family:Sans;letter-spacing:0px;word-spacing:0px;fill:#000000;fill-opacity:1;stroke:none;stroke-width:1px;stroke-linecap:butt;stroke-linejoin:miter;stroke-opacity:1"
       id="flowRoot4342"
       xml:space="preserve"
       transform="translate(672.56433,-761.92312)"><flowRegion
         id="flowRegion4344"><rect
           y="-2871.28"
           x="1004.1998"
           height="1126.6615"
           width="3037.0876"
           id="rect4346" /></flowRegion><flowPara
         style="font-style:normal;font-variant:normal;font-weight:normal;font-stretch:normal;font-size:187.5px;font-family:'Noto Sans';-inkscape-font-specification:'Noto Sans'"
         id="flowPara4348">Käsityöt</flowPara></flowRoot>    <flowRoot
       xml:space="preserve"
       id="flowRoot4350"
       style="font-style:normal;font-weight:normal;font-size:18.47350693px;line-height:125%;font-family:Sans;letter-spacing:0px;word-spacing:0px;fill:#000000;fill-opacity:1;stroke:none;stroke-width:1px;stroke-linecap:butt;stroke-linejoin:miter;stroke-opacity:1"
       transform="translate(-575.48752,-612.41102)"><flowRegion
         id="flowRegion4352"><rect
           id="rect4354"
           width="3037.0876"
           height="1126.6615"
           x="1004.1998"
           y="-2871.28" /></flowRegion><flowPara
         id="flowPara4358"
         style="font-style:normal;font-variant:normal;font-weight:normal;font-stretch:normal;font-size:187.5px;font-family:'Noto Sans';-inkscape-font-specification:'Noto Sans'">Elektroniikka</flowPara></flowRoot>    <flowRoot
       xml:space="preserve"
       id="flowRoot4350-1"
       style="font-style:normal;font-weight:normal;font-size:18.47350693px;line-height:125%;font-family:Sans;letter-spacing:0px;word-spacing:0px;fill:#000000;fill-opacity:1;stroke:none;stroke-width:1px;stroke-linecap:butt;stroke-linejoin:miter;stroke-opacity:1"
       transform="translate(-511.84591,-903.6554)"><flowRegion
         id="flowRegion4352-6"><rect
           id="rect4354-5"
           width="3037.0876"
           height="1126.6615"
           x="1004.1998"
           y="-2871.28" /></flowRegion><flowPara
         id="flowPara4358-4"
         style="font-style:normal;font-variant:normal;font-weight:normal;font-stretch:normal;font-size:187.5px;font-family:'Noto Sans';-inkscape-font-specification:'Noto Sans'">Puutyöt</flowPara></flowRoot>    <flowRoot
       transform="translate(-308.30432,344.28191)"
       style="font-style:normal;font-weight:normal;font-size:18.47350693px;line-height:125%;font-family:Sans;letter-spacing:0px;word-spacing:0px;fill:#000000;fill-opacity:1;stroke:none;stroke-width:1px;stroke-linecap:butt;stroke-linejoin:miter;stroke-opacity:1"
       id="flowRoot4406"
       xml:space="preserve"><flowRegion
         id="flowRegion4408"><rect
           y="-2871.28"
           x="1004.1998"
           height="1126.6615"
           width="3037.0876"
           id="rect4410" /></flowRegion><flowPara
         style="font-style:normal;font-variant:normal;font-weight:normal;font-stretch:normal;font-size:187.5px;font-family:'Noto Sans';-inkscape-font-specification:'Noto Sans'"
         id="flowPara4412">Koulutusta</flowPara></flowRoot>    <flowRoot
       xml:space="preserve"
       id="flowRoot4414"
       style="font-style:normal;font-weight:normal;font-size:18.47350693px;line-height:125%;font-family:Sans;letter-spacing:0px;word-spacing:0px;fill:#000000;fill-opacity:1;stroke:none;stroke-width:1px;stroke-linecap:butt;stroke-linejoin:miter;stroke-opacity:1"
       transform="translate(-486.22161,982.07721)"><flowRegion
         id="flowRegion4416"><rect
           id="rect4418"
           width="3037.0876"
           height="1126.6615"
           x="1004.1998"
           y="-2871.28" /></flowRegion><flowPara
         id="flowPara4420"
         style="font-style:normal;font-variant:normal;font-weight:normal;font-stretch:normal;font-size:187.5px;font-family:'Noto Sans';-inkscape-font-specification:'Noto Sans'">Yhteisö</flowPara></flowRoot>    <flowRoot
       transform="matrix(0.99764902,0,0,0.99764902,-575.58735,11.392485)"
       style="font-style:normal;font-weight:normal;font-size:18.47350693px;line-height:125%;font-family:Sans;letter-spacing:0px;word-spacing:0px;fill:#000000;fill-opacity:1;stroke:none;stroke-width:1px;stroke-linecap:butt;stroke-linejoin:miter;stroke-opacity:1"
       id="flowRoot4422"
       xml:space="preserve"><flowRegion
         id="flowRegion4424"><rect
           y="-2871.28"
           x="1004.1998"
           height="1126.6615"
           width="3037.0876"
           id="rect4426" /></flowRegion><flowPara
         style="font-style:normal;font-variant:normal;font-weight:normal;font-stretch:normal;font-size:187.5px;font-family:'Noto Sans';-inkscape-font-specification:'Noto Sans'"
         id="flowPara4428">Projekteja</flowPara></flowRoot>    <flowRoot
       xml:space="preserve"
       id="flowRoot4430"
       style="font-style:normal;font-weight:normal;font-size:18.4300766px;line-height:125%;font-family:Sans;letter-spacing:0px;word-spacing:0px;fill:#000000;fill-opacity:1;stroke:none;stroke-width:1px;stroke-linecap:butt;stroke-linejoin:miter;stroke-opacity:1"
       transform="translate(-196.05824,-665.26309)"><flowRegion
         id="flowRegion4432"><rect
           id="rect4434"
           width="3029.9475"
           height="1124.0127"
           x="591.24823"
           y="-1550.0784" /></flowRegion><flowPara
         id="flowPara4436"
         style="font-style:normal;font-variant:normal;font-weight:normal;font-stretch:normal;font-size:187.05918884px;font-family:'Noto Sans';-inkscape-font-specification:'Noto Sans'">Työvälineet</flowPara></flowRoot>    <flowRoot
       transform="translate(-55.483402,255.99671)"
       style="font-style:normal;font-weight:normal;font-size:18.4300766px;line-height:125%;font-family:Sans;letter-spacing:0px;word-spacing:0px;fill:#000000;fill-opacity:1;stroke:none;stroke-width:1px;stroke-linecap:butt;stroke-linejoin:miter;stroke-opacity:1"
       id="flowRoot4438"
       xml:space="preserve"><flowRegion
         id="flowRegion4440"><rect
           y="-1550.0784"
           x="591.24823"
           height="1124.0127"
           width="3029.9475"
           id="rect4442" /></flowRegion><flowPara
         style="font-style:normal;font-variant:normal;font-weight:normal;font-stretch:normal;font-size:187.05918884px;font-family:'Noto Sans';-inkscape-font-specification:'Noto Sans'"
         id="flowPara4444">Tapahtumia</flowPara></flowRoot>    <flowRoot
       transform="translate(-620.21954,1293.195)"
       style="font-style:normal;font-weight:normal;font-size:18.47350693px;line-height:125%;font-family:Sans;letter-spacing:0px;word-spacing:0px;fill:#000000;fill-opacity:1;stroke:none;stroke-width:1px;stroke-linecap:butt;stroke-linejoin:miter;stroke-opacity:1"
       id="flowRoot4446"
       xml:space="preserve"><flowRegion
         id="flowRegion4448"><rect
           y="-2871.28"
           x="1004.1998"
           height="1126.6615"
           width="3037.0876"
           id="rect4450" /></flowRegion><flowPara
         style="font-style:normal;font-variant:normal;font-weight:normal;font-stretch:normal;font-size:187.5px;font-family:'Noto Sans';-inkscape-font-specification:'Noto Sans'"
         id="flowPara4452">Metallityöt</flowPara></flowRoot>    <flowRoot
       xml:space="preserve"
       id="flowRoot4485"
       style="font-style:normal;font-weight:normal;font-size:18.47350693px;line-height:125%;font-family:Sans;letter-spacing:0px;word-spacing:0px;fill:#000000;fill-opacity:1;stroke:none;stroke-width:1px;stroke-linecap:butt;stroke-linejoin:miter;stroke-opacity:1"
       transform="translate(-526.94233,-301.2932)"><flowRegion
         id="flowRegion4487"><rect
           id="rect4489"
           width="3037.0876"
           height="1126.6615"
           x="1004.1998"
           y="-2871.28" /></flowRegion><flowPara
         id="flowPara4491"
         style="font-style:normal;font-variant:normal;font-weight:normal;font-stretch:normal;font-size:187.5px;font-family:'Noto Sans';-inkscape-font-specification:'Noto Sans'">Oma avain työtilaan</flowPara></flowRoot>    <flowRoot
       style="font-style:normal;font-weight:normal;font-size:18.47350693px;line-height:125%;font-family:Sans;letter-spacing:0px;word-spacing:0px;fill:#000000;fill-opacity:1;stroke:none;stroke-width:1px;stroke-linecap:butt;stroke-linejoin:miter;stroke-opacity:1"
       id="flowRoot4565"
       xml:space="preserve"
       transform="translate(-213.88172,-833.29014)"><flowRegion
         id="flowRegion4567"><rect
           y="-3429.9285"
           x="641.7002"
           height="1126.6615"
           width="3037.0876"
           id="rect4569" /></flowRegion><flowPara
         style="font-style:normal;font-variant:normal;font-weight:normal;font-stretch:normal;font-size:187.5px;font-family:'Noto Sans';-inkscape-font-specification:'Noto Sans'"
         id="flowPara4571">Itse tekeminen</flowPara></flowRoot>  </g>
</svg>
