<?xml version="1.0" encoding="UTF-8" standalone="no"?>
<!-- Created with Inkscape (http://www.inkscape.org/) -->

<svg
   xmlns:dc="http://purl.org/dc/elements/1.1/"
   xmlns:cc="http://creativecommons.org/ns#"
   xmlns:rdf="http://www.w3.org/1999/02/22-rdf-syntax-ns#"
   xmlns:svg="http://www.w3.org/2000/svg"
   xmlns="http://www.w3.org/2000/svg"
   xmlns:sodipodi="http://sodipodi.sourceforge.net/DTD/sodipodi-0.dtd"
   xmlns:inkscape="http://www.inkscape.org/namespaces/inkscape"
   width="210mm"
   height="297mm"
   viewBox="0 0 744.09448819 1052.3622047"
   id="svg2"
   version="1.1"
   inkscape:version="0.91 r13725"
   sodipodi:docname="hacklab-fi-flaieri.svg">
  <defs
     id="defs4" />
  <sodipodi:namedview
     id="base"
     pagecolor="#ffffff"
     bordercolor="#666666"
     borderopacity="1.0"
     inkscape:pageopacity="0.0"
     inkscape:pageshadow="2"
     inkscape:zoom="0.35"
     inkscape:cx="759.19586"
     inkscape:cy="533.40708"
     inkscape:document-units="px"
     inkscape:current-layer="layer1"
     showgrid="false"
     inkscape:window-width="1280"
     inkscape:window-height="701"
     inkscape:window-x="92"
     inkscape:window-y="0"
     inkscape:window-maximized="0"
     showguides="true"
     inkscape:guide-bbox="true">
    <sodipodi:guide
       position="372.04725,991.42859"
       orientation="1,0"
       id="guide4177"
       inkscape:label=""
       inkscape:color="rgb(0,0,255)" />
  </sodipodi:namedview>
  <metadata
     id="metadata7">
    <rdf:RDF>
      <cc:Work
         rdf:about="">
        <dc:format>image/svg+xml</dc:format>
        <dc:type
           rdf:resource="http://purl.org/dc/dcmitype/StillImage" />
        <dc:title></dc:title>
      </cc:Work>
    </rdf:RDF>
  </metadata>
  <g
     inkscape:label="Taso 1"
     inkscape:groupmode="layer"
     id="layer1">
    <flowRoot
       xml:space="preserve"
       id="flowRoot4136"
       style="font-style:normal;font-weight:normal;font-size:10px;line-height:125%;font-family:Sans;letter-spacing:0px;word-spacing:0px;fill:#000000;fill-opacity:1;stroke:none;stroke-width:1px;stroke-linecap:butt;stroke-linejoin:miter;stroke-opacity:1"
       transform="translate(86.428572,5.428571)"><flowRegion
         id="flowRegion4138"><rect
           id="rect4140"
           width="574.28571"
           height="211.42857"
           x="71.428574"
           y="38.076492" /></flowRegion><flowPara
         id="flowPara4142"
         style="font-style:normal;font-variant:normal;font-weight:bold;font-stretch:normal;font-size:90px;font-family:'Droid Sans';-inkscape-font-specification:'Droid Sans Bold'">hacklab.fi</flowPara></flowRoot>    <flowRoot
       xml:space="preserve"
       id="flowRoot4144"
       style="font-style:normal;font-variant:normal;font-weight:normal;font-stretch:normal;font-size:20px;line-height:125%;font-family:'Noto Sans';-inkscape-font-specification:'Noto Sans';text-align:start;letter-spacing:0px;word-spacing:0px;text-anchor:start;fill:#000000;fill-opacity:1;stroke:none;stroke-width:1px;stroke-linecap:butt;stroke-linejoin:miter;stroke-opacity:1"
       transform="matrix(0.90852106,0,0,1,26.293393,-17.642857)"><flowRegion
         id="flowRegion4146"><rect
           id="rect4148"
           width="657.14288"
           height="788.57141"
           x="52.857143"
           y="205.21935"
           style="font-style:normal;font-variant:normal;font-weight:normal;font-stretch:normal;font-size:20px;font-family:'Noto Sans';-inkscape-font-specification:'Noto Sans';text-align:start;text-anchor:start" /></flowRegion><flowPara
         id="flowPara4150" /><flowPara
         id="flowPara4152"
         style="font-size:5.24568844px;text-align:start;text-anchor:start"><flowSpan
           style="font-size:20.98275375px;text-align:start;text-anchor:start"
           id="flowSpan4183">Hacklab on jäsentensä itse ylläpitämä yhteisöllinen työskentelytila. Hacklab-tilassa on mahdollista toteuttaa omia projektejaan, oppia toisilta jäseniltä ja jakaa osaamistaan. Mukaan pääseminen ei vaadi mitään tiettyjä erityistaitoja, pelkkä kiinnostus riittää.</flowSpan></flowPara><flowPara
         style="font-size:5.24568844px;text-align:start;text-anchor:start"
         id="flowPara4931" /><flowPara
         id="flowPara4154"
         style="font-size:20.98275375px;text-align:start;text-anchor:start" /><flowPara
         id="flowPara4156"
         style="font-style:normal;font-variant:normal;font-weight:bold;font-stretch:normal;font-size:20.98275375px;font-family:'Droid Sans';-inkscape-font-specification:'Droid Sans Bold';text-align:start;text-anchor:start"></flowPara><flowPara
         style="font-style:normal;font-variant:normal;font-weight:bold;font-stretch:normal;font-size:20.98275375px;font-family:'Droid Sans';-inkscape-font-specification:'Droid Sans Bold';text-align:start;text-anchor:start"
         id="flowPara4214"></flowPara><flowPara
         style="font-style:normal;font-variant:normal;font-weight:bold;font-stretch:normal;font-size:20.98275375px;font-family:'Droid Sans';-inkscape-font-specification:'Droid Sans Bold';text-align:start;text-anchor:start"
         id="flowPara4216">Toiminta-ajatus</flowPara><flowPara
         id="flowPara4158"
         style="font-size:20.98275375px;text-align:start;text-anchor:start" /><flowPara
         id="flowPara4160"
         style="font-size:20.98275375px;text-align:start;text-anchor:start">Hacklabissa voi vaikkapa opetella rakentamaan elektronisia laitteita, kuten Arduino-projekteja, tehdä puutöitä, korjata hajonneita esineitä, työstää erilaisia materiaaleja sekä käyttää ompelukonetta — vain noin esimerkiksi. Työskentelylle ei ole rajoituksia, kunhan työvälineet vain löytyvät. Hacklabissa on mahdollista kaikenlaiset projektit, joihin kuuluu elektroniikkaa, ohjelmointia, kädentaitoja, tai ehkä jotain mitä et ole koskaan ennen kokeillut. Jäsenet auttavat ja opettavat toisiaan työn alkuun. Tilojen varustelu ja työkaluvalikoimat vaihtelevat kaupungeittain.</flowPara><flowPara
         id="flowPara4162"
         style="font-size:20.98275375px;text-align:start;text-anchor:start" /><flowPara
         id="flowPara4164"
         style="font-size:5.24568844px;text-align:start;text-anchor:start"><flowSpan
   style="font-size:20.98275375px;text-align:start;text-anchor:start"
   id="flowSpan4181">Hacklab-toimintaa on ollut Helsingissä ja Tampereella vuodesta 2010 alkaen ja uusimmat yhteisöt sijaitsevat Porissa ja Mikkelissä. Turussa, Oulussa, Vaasassa ja Jyväskylässä on myös aktiivista toimintaa. Hacklab.fi toimii Suomen hacklabien yhteistyöverkostona</flowSpan>.</flowPara><flowPara
         id="flowPara4172"
         style="font-size:5.24568844px;text-align:start;text-anchor:start" /></flowRoot>    <flowRoot
       xml:space="preserve"
       id="flowRoot4160"
       style="font-style:normal;font-weight:normal;font-size:10px;line-height:125%;font-family:Sans;letter-spacing:0px;word-spacing:0px;fill:#000000;fill-opacity:1;stroke:none;stroke-width:1px;stroke-linecap:butt;stroke-linejoin:miter;stroke-opacity:1"><flowRegion
         id="flowRegion4162"><rect
           id="rect4164"
           width="338.57144"
           height="55.714287"
           x="18.571428"
           y="760.93365" /></flowRegion><flowPara
         id="flowPara4167"></flowPara><flowPara
         id="flowPara4169" /></flowRoot>    <text
       xml:space="preserve"
       style="font-style:normal;font-weight:normal;font-size:10px;line-height:125%;font-family:Sans;letter-spacing:0px;word-spacing:0px;fill:#000000;fill-opacity:1;stroke:none;stroke-width:1px;stroke-linecap:butt;stroke-linejoin:miter;stroke-opacity:1"
       x="597.85712"
       y="428.79077"
       id="text4188"
       sodipodi:linespacing="125%"><tspan
         sodipodi:role="line"
         id="tspan4190"
         x="597.85712"
         y="428.79077"> </tspan></text>
    <g
       id="g4207"
       transform="matrix(1.1286419,0,0,1.1602447,797.63798,-167.07741)">
      <path
         sodipodi:nodetypes="cccccccscsccccccccc"
         inkscape:connector-curvature="0"
         id="path4194"
         d="m -217.27923,515.98946 1.54599,0.89258 21.07129,-36.49654 2.4746,1.42871 3.71105,2.14257 1.78515,-3.09198 -0.6465,-3.88021 c 0,0 12.95883,-23.50854 20.6323,-41.44322 2.3278,-5.44061 -1.02375,-6.13193 -1.9266,-6.49115 -0.76253,-0.60228 -3.037,-3.15915 -6.58481,1.57709 -11.69515,15.61275 -25.57473,38.5897 -25.57473,38.5897 l -3.68362,1.38022 -1.78515,3.09198 3.71105,2.14257 2.4746,1.42872 -21.07129,36.49654 1.54769,0.89356 -2.74384,7.43018 z"
         style="opacity:0.98999999;fill:#666666;fill-opacity:0.49800798;stroke:none;stroke-width:12.60000038;stroke-linecap:round;stroke-linejoin:round;stroke-miterlimit:4;stroke-dasharray:none;stroke-dashoffset:0;stroke-opacity:1" />
      <path
         sodipodi:nodetypes="csssc"
         inkscape:connector-curvature="0"
         id="path4201"
         d="m -169.64286,428.79078 c 0,0 21.78572,-13.92858 30.35715,-6.42858 8.57142,7.5 0,21.78572 9.28571,32.5 9.28571,10.71429 56.785714,9.64286 49.642857,31.78572 -7.142857,22.14286 -19.999997,41.42857 -33.571427,43.21429"
         style="opacity:0.98999999;fill:none;fill-opacity:0.49800798;stroke:#9a9a9a;stroke-width:4.80000019;stroke-linecap:round;stroke-linejoin:round;stroke-miterlimit:4;stroke-dasharray:none;stroke-dashoffset:0;stroke-opacity:1" />
      <path
         inkscape:connector-curvature="0"
         id="path4203"
         d="m -223.4562,526.24255 c 0,0 -17.24019,-13.85785 0,-9.23836 17.24019,4.6195 19.03832,-3.03851 8.89485,-8.89485 -10.14345,-5.85633 -14.10248,-17.92143 7.07135,-12.24792 21.17382,5.67351 22.93623,-4.70561 7.77164,-13.4609 -15.16459,-8.75528 -10.93854,-2.93098 -10.93854,-2.93098"
         style="opacity:0.98999999;fill:none;fill-opacity:0.49800798;stroke:#424242;stroke-width:1.9342767;stroke-linecap:round;stroke-linejoin:round;stroke-miterlimit:4;stroke-dasharray:none;stroke-dashoffset:0;stroke-opacity:1" />
      <rect
         y="524.14789"
         x="-243.57143"
         height="10.178572"
         width="50.17857"
         id="rect4205"
         style="opacity:0.98999999;fill:#000000;fill-opacity:1;stroke:none;stroke-width:1.39999998;stroke-linecap:round;stroke-linejoin:round;stroke-miterlimit:4;stroke-dasharray:none;stroke-dashoffset:0;stroke-opacity:1" />
      <path
         inkscape:connector-curvature="0"
         id="path4192"
         d="m -179.407,482.3622 71.28032,0 0,55.17858 -93.30189,0 z"
         style="opacity:0.98999999;fill:#565656;fill-opacity:1;stroke:none;stroke-width:12.60000038;stroke-linecap:round;stroke-linejoin:round;stroke-miterlimit:4;stroke-dasharray:none;stroke-dashoffset:0;stroke-opacity:1" />
    </g>
    <g
       id="g4972"
       transform="matrix(1.0646581,0,0,1.0646581,-21.66045,-65.642078)">
      <ellipse
         ry="24.642857"
         rx="26.071428"
         cy="985.93365"
         cx="368.92856"
         id="path4876"
         style="opacity:0.98999999;fill:#666666;fill-opacity:1;stroke:none;stroke-width:1.39999998;stroke-linecap:round;stroke-linejoin:round;stroke-miterlimit:4;stroke-dasharray:none;stroke-dashoffset:0;stroke-opacity:1" />
      <path
         sodipodi:nodetypes="cssc"
         inkscape:connector-curvature="0"
         id="path4874"
         d="m 414.10715,918.25506 c 3.80689,-42.58845 -14.15437,-79.92488 -48.03572,-40.53572 -14.12368,16.41965 -16.79703,31.95149 -6.07143,48.92858 20.71516,32.78914 67.58271,73.45798 1.78571,76.78568"
         style="fill:none;fill-rule:evenodd;stroke:#000000;stroke-width:1px;stroke-linecap:butt;stroke-linejoin:miter;stroke-opacity:1" />
      <rect
         y="912.79077"
         x="342.21429"
         height="1.7857143"
         width="108.21429"
         id="rect4868"
         style="opacity:0.98999999;fill:#000000;fill-opacity:1;stroke:none;stroke-width:1.39999998;stroke-linecap:round;stroke-linejoin:round;stroke-miterlimit:4;stroke-dasharray:none;stroke-dashoffset:0;stroke-opacity:1" />
      <rect
         ry="0"
         y="947.00507"
         x="348.21429"
         height="8.214303"
         width="93.571449"
         id="rect4860"
         style="opacity:0.98999999;fill:#4d4d4d;fill-opacity:1;stroke:none;stroke-width:1.39999998;stroke-linecap:round;stroke-linejoin:round;stroke-miterlimit:4;stroke-dasharray:none;stroke-dashoffset:0;stroke-opacity:1" />
      <path
         id="rect4855"
         d="m 335,877.36133 0,137.85747 121.42773,0 0,-137.85747 -121.42773,0 z m 30,20 62.85742,0 c 6.72714,0 12.14258,5.41739 12.14258,12.14453 l 0,67.14258 c 0,6.72714 -5.41544,12.14258 -12.14258,12.14258 l -62.85742,0 c -6.72714,0 -12.14258,-5.41544 -12.14258,-12.14258 l 0,-67.14258 c 0,-6.72714 5.41544,-12.14453 12.14258,-12.14453 z"
         style="opacity:0.98999999;fill:#b3b3b3;fill-opacity:1;stroke:none;stroke-width:1.39999998;stroke-linecap:round;stroke-linejoin:round;stroke-miterlimit:4;stroke-dasharray:none;stroke-dashoffset:0;stroke-opacity:1"
         inkscape:connector-curvature="0" />
      <circle
         r="5"
         cy="942.00507"
         cx="411.07141"
         id="path4862"
         style="opacity:0.98999999;fill:#000000;fill-opacity:1;stroke:none;stroke-width:1.39999998;stroke-linecap:round;stroke-linejoin:round;stroke-miterlimit:4;stroke-dasharray:none;stroke-dashoffset:0;stroke-opacity:1" />
      <circle
         style="opacity:0.98999999;fill:#000000;fill-opacity:1;stroke:none;stroke-width:1.39999998;stroke-linecap:round;stroke-linejoin:round;stroke-miterlimit:4;stroke-dasharray:none;stroke-dashoffset:0;stroke-opacity:1"
         id="circle4864"
         cx="383.97321"
         cy="942.58545"
         r="4.4642859" />
      <path
         sodipodi:nodetypes="ccccccccccc"
         inkscape:connector-curvature="0"
         id="path4866"
         d="m 384.5,944.3622 -12.41704,0 6.88604,-4.32539 20.62029,-2.05358 0,-4.4246 12.00635,4.4743 -0.0893,-3.13501 9.06508,0 0,2.85714 -6.60714,6.60714 z"
         style="opacity:0.98999999;fill:#000000;fill-opacity:1;stroke:none;stroke-width:1.39999998;stroke-linecap:round;stroke-linejoin:round;stroke-miterlimit:4;stroke-dasharray:none;stroke-dashoffset:0;stroke-opacity:1" />
      <path
         inkscape:connector-curvature="0"
         id="path4872"
         d="m 407.94644,929.68364 5.26785,5.26785 5.58036,-5.58035 z"
         style="opacity:0.98999999;fill:#b3b3b3;fill-opacity:1;stroke:none;stroke-width:1.39999998;stroke-linecap:round;stroke-linejoin:round;stroke-miterlimit:4;stroke-dasharray:none;stroke-dashoffset:0;stroke-opacity:1" />
      <rect
         y="908.34436"
         x="404.73215"
         height="21.964285"
         width="17.678572"
         id="rect4870"
         style="opacity:0.98999999;fill:#4d4d4d;fill-opacity:1;stroke:none;stroke-width:1.39999998;stroke-linecap:round;stroke-linejoin:round;stroke-miterlimit:4;stroke-dasharray:none;stroke-dashoffset:0;stroke-opacity:1" />
      <flowRoot
         transform="translate(1.25,-0.89285714)"
         style="font-style:normal;font-variant:normal;font-weight:bold;font-stretch:normal;font-size:18.02729797px;line-height:125%;font-family:Sans;-inkscape-font-specification:'Sans Bold';letter-spacing:0px;word-spacing:0px;fill:#4d4d4d;fill-opacity:1;stroke:none;stroke-width:1px;stroke-linecap:butt;stroke-linejoin:miter;stroke-opacity:1"
         id="flowRoot4878"
         xml:space="preserve"><flowRegion
           id="flowRegion4880"><rect
             style="font-style:normal;font-variant:normal;font-weight:bold;font-stretch:normal;font-family:Sans;-inkscape-font-specification:'Sans Bold';fill:#4d4d4d"
             y="992.10413"
             x="380.45932"
             height="31.547773"
             width="77.25985"
             id="rect4882" /></flowRegion><flowPara
           id="flowPara4884">3D</flowPara></flowRoot>      <circle
         r="2.9464285"
         cy="937.71936"
         cx="397.5"
         id="path4888"
         style="opacity:0.98999999;fill:#000000;fill-opacity:1;stroke:none;stroke-width:1.39999998;stroke-linecap:round;stroke-linejoin:round;stroke-miterlimit:4;stroke-dasharray:none;stroke-dashoffset:0;stroke-opacity:1" />
    </g>
    <g
       id="g4917"
       transform="matrix(1.2374431,0,0,1.2374431,-119.83926,-230.1109)">
      <g
         transform="matrix(0.69513554,0,0,0.69513554,864.72325,506.60324)"
         id="g4254">
        <rect
           style="opacity:0.98999999;fill:#000000;fill-opacity:1;stroke:none;stroke-width:1.39999998;stroke-linecap:round;stroke-linejoin:round;stroke-miterlimit:4;stroke-dasharray:none;stroke-dashoffset:0;stroke-opacity:1"
           id="rect4252"
           width="39.642857"
           height="3.2142856"
           x="-364.90399"
           y="630.479"
           transform="matrix(0.96942269,0.24539694,-0.24539694,0.96942269,0,0)" />
        <path
           style="opacity:0.98999999;fill:#999999;fill-opacity:1;stroke:none;stroke-width:1.39999998;stroke-linecap:round;stroke-linejoin:round;stroke-miterlimit:4;stroke-dasharray:none;stroke-dashoffset:0;stroke-opacity:1"
           d="m -458.88301,553.23801 c -27.60933,-8.12749 -23.85492,-39.36204 6.99061,-32.00789"
           id="path4250"
           inkscape:connector-curvature="0"
           sodipodi:nodetypes="cc" />
        <rect
           style="opacity:0.98999999;fill:#333333;fill-opacity:1;stroke:none;stroke-width:1.39999998;stroke-linecap:round;stroke-linejoin:round;stroke-miterlimit:4;stroke-dasharray:none;stroke-dashoffset:0;stroke-opacity:1"
           id="rect4244"
           width="18.16741"
           height="37.792118"
           x="-319.00317"
           y="618.37213"
           transform="matrix(0.96543117,0.26065811,-0.23284292,0.97251436,0,0)" />
        <path
           style="opacity:0.98999999;fill:#808080;fill-opacity:1;stroke:none;stroke-width:1.39999998;stroke-linecap:round;stroke-linejoin:round;stroke-miterlimit:4;stroke-dasharray:none;stroke-dashoffset:0;stroke-opacity:1"
           d="m -434.469,519.68207 c 28.41322,3.03096 111.93792,19.20501 115.62892,54.29199 -4.8627,28.59917 -29.01707,16.24528 -31.87421,26.24528 -2.85714,10 6.78572,65.35715 14.64287,78.21429 -6.38249,14.5323 -60.73261,14.63153 -48.92858,-7.5 4.52849,-7.24558 6.32952,-33.5834 3.76492,-54.62291 -0.36415,-2.98742 -10.81632,-5.86802 -11.36119,-8.57197 -1.67051,-8.28994 5.78758,-14.91951 2.23913,-17.87655 -12.85714,-10.71429 -55,-22.49999 -53.57143,-28.21428"
           id="path4240"
           inkscape:connector-curvature="0"
           sodipodi:nodetypes="ccsccsssc" />
        <path
           style="opacity:0.98999999;fill:#333333;fill-opacity:1;stroke:none;stroke-width:1.39999998;stroke-linecap:round;stroke-linejoin:round;stroke-miterlimit:4;stroke-dasharray:none;stroke-dashoffset:0;stroke-opacity:1"
           d="m -387.14286,675.21935 -39.17799,10.49771 0,34.14514 90.96371,0 0,-41.07142 -6.42857,0"
           id="path4246"
           inkscape:connector-curvature="0"
           sodipodi:nodetypes="cccccc" />
        <path
           style="opacity:0.98999999;fill:#000000;fill-opacity:1;stroke:none;stroke-width:1.39999998;stroke-linecap:round;stroke-linejoin:round;stroke-miterlimit:4;stroke-dasharray:none;stroke-dashoffset:0;stroke-opacity:1"
           d="m -393.21429,585.21935 c 0,0 -5.71428,17.5 -4.28571,20.35714 1.42857,2.85714 11.42857,2.85714 11.42857,2.85714 0,0 3.21429,-16.78571 3.21429,-19.64285 0,-2.85715 -10.35715,-3.57143 -10.35715,-3.57143 z"
           id="path4248"
           inkscape:connector-curvature="0" />
      </g>
      <g
         id="g4911">
        <rect
           style="opacity:0.98999999;fill:#000000;fill-opacity:1;stroke:none;stroke-width:1.39999998;stroke-linecap:round;stroke-linejoin:round;stroke-miterlimit:4;stroke-dasharray:none;stroke-dashoffset:0;stroke-opacity:1"
           id="rect4903"
           width="9.6428576"
           height="1.4285715"
           x="844.09338"
           y="715.07996"
           ry="0.71428573"
           transform="matrix(0.96422414,0.2650883,-0.2650883,0.96422414,0,0)" />
        <rect
           transform="matrix(0.90205285,0.4316256,-0.4316256,0.90205285,0,0)"
           ry="0.71428573"
           y="548.46716"
           x="957.20898"
           height="1.4285715"
           width="9.6428576"
           id="rect4905"
           style="opacity:0.98999999;fill:#000000;fill-opacity:1;stroke:none;stroke-width:1.39999998;stroke-linecap:round;stroke-linejoin:round;stroke-miterlimit:4;stroke-dasharray:none;stroke-dashoffset:0;stroke-opacity:1" />
        <rect
           style="opacity:0.98999999;fill:#000000;fill-opacity:1;stroke:none;stroke-width:1.39999998;stroke-linecap:round;stroke-linejoin:round;stroke-miterlimit:4;stroke-dasharray:none;stroke-dashoffset:0;stroke-opacity:1"
           id="rect4907"
           width="9.6428576"
           height="1.4285715"
           x="1017.8771"
           y="415.2128"
           ry="0.71428573"
           transform="matrix(0.84040832,0.54195374,-0.54195374,0.84040832,0,0)" />
        <rect
           transform="matrix(0.75014433,0.66127414,-0.66127414,0.75014433,0,0)"
           ry="0.71428573"
           y="253.11234"
           x="1068.0962"
           height="1.4285715"
           width="9.6428576"
           id="rect4909"
           style="opacity:0.98999999;fill:#000000;fill-opacity:1;stroke:none;stroke-width:1.39999998;stroke-linecap:round;stroke-linejoin:round;stroke-miterlimit:4;stroke-dasharray:none;stroke-dashoffset:0;stroke-opacity:1" />
      </g>
    </g>
    <g
       id="g4989"
       transform="translate(45.714286,1.4285714)">
      <g
         transform="matrix(1.1081729,-0.6224657,0.5864383,1.1762527,-111.15177,102.80352)"
         id="g4949">
        <path
           style="opacity:0.98999999;fill:#cccccc;fill-opacity:1;stroke:none;stroke-width:1.39999998;stroke-linecap:round;stroke-linejoin:round;stroke-miterlimit:4;stroke-dasharray:none;stroke-dashoffset:0;stroke-opacity:1"
           d="m 206.42857,359.50506 97.85714,18.39286 0,14.10714 -2.14285,-1.16071 -2.32226,1.17444 -3.03491,-1.25029 -2.40805,1.36125 -2.94911,-1.4305 -2.50008,1.38592 -3.30336,-1.34222 -3.39137,1.37337 -2.63565,-1.52017 -3.1692,1.51555 -3.03609,-1.43154 -2.49981,1.46545 -2.81262,-1.52181 -2.99013,1.47416 -2.99201,-1.52046 -3.35013,1.47326 -2.98908,-1.38678 -3.3913,1.45756 -2.45722,-1.52149 -2.54419,1.45788 -2.72353,-1.38643 -2.89821,1.32542 -2.99457,-1.33906 -3.03643,1.32392 -2.58846,-1.24942 -3.07855,1.32736 -2.76984,-1.25247 -2.67982,1.29727 -2.43172,-1.23319 -2.79019,1.02149 -3.16488,-1.09402 -3.09026,1.18431 -2.76181,-1.28643 -2.7269,1.36114 -3.52526,-1.34645 -2.75054,1.26687 -2.53064,-1.32557 -2.39611,1.35239 -0.17857,-12.32143 z"
           id="path4942"
           inkscape:connector-curvature="0"
           sodipodi:nodetypes="ccccccccccccccccccccccccccccccccccccccccccc" />
        <path
           style="opacity:0.98999999;fill:#000000;fill-opacity:1;stroke:none;stroke-width:1.39999998;stroke-linecap:round;stroke-linejoin:round;stroke-miterlimit:4;stroke-dasharray:none;stroke-dashoffset:0;stroke-opacity:1"
           d="m 186.11719,349.24219 c -4.13993,0.0697 -7.38951,0.97656 -8.61719,0.97656 -1.96429,0 -1.07227,2.49973 0.17773,3.39258 1.25,0.89286 -1.78571,13.39453 -3.75,20.89453 -1.96428,7.5 0.8937,10.71289 8.57227,10.71289 7.67857,0 13.92773,-0.35742 13.92773,-0.35742 l 10.35743,-25.35547 c 0,0 -4.82142,-6.60742 -12.5,-9.10742 -2.87947,-0.9375 -5.68402,-1.19811 -8.16797,-1.15625 z m 1.21875,8.22656 c 2.25682,-0.0163 8.0106,3.85463 8.3789,4.71401 0.53571,1.25 -2.50139,11.96512 -4.28711,13.57226 -1.78571,1.60715 -12.67773,3.75 -10.17773,0.17857 0,0 6.60714,-11.07143 5,-16.25 -0.50223,-1.6183 0.0601,-2.20743 1.08594,-2.21484 z"
           id="path4944"
           inkscape:connector-curvature="0"
           sodipodi:nodetypes="sssssccssssscss" />
      </g>
      <g
         transform="matrix(0.7389295,0.7389295,-0.7389295,0.7389295,441.65979,-127.22394)"
         id="g4938">
        <path
           style="opacity:0.98999999;fill:#999999;fill-opacity:1;stroke:none;stroke-width:1.39999998;stroke-linecap:round;stroke-linejoin:round;stroke-miterlimit:4;stroke-dasharray:none;stroke-dashoffset:0;stroke-opacity:1"
           d="m 359.61861,385.53139 c 0,0 -89.06478,5.49425 -89.93675,1.95801 -0.87197,-3.53624 8.20818,-26.79991 8.20818,-26.79991 0,0 2.80934,-3.12335 -3.94054,-0.18256 -6.37841,2.77895 -16.17157,14.93195 -19.83356,30.64844 -3.87829,16.64483 -0.33983,23.52746 -0.33983,23.52746 0,0 5.14555,3.16778 1.76769,7.60766 -3.37785,4.43989 -6.55568,9.49057 5.39684,8.95999 10.34696,-0.45931 10.39073,-3.49995 6.39101,-9.04231 -4.93253,-6.83493 -8e-4,-7.92052 -8e-4,-7.92052 2.23303,-0.0991 0.0806,-6.85205 2.09221,-9.82426 3.35424,-4.95605 69.21653,-2.92601 69.21653,-2.92601 z"
           id="path4935"
           inkscape:connector-curvature="0"
           sodipodi:nodetypes="cscsscssscscc" />
        <path
           style="opacity:0.98999999;fill:#000000;fill-opacity:1;stroke:none;stroke-width:1.39999998;stroke-linecap:round;stroke-linejoin:round;stroke-miterlimit:4;stroke-dasharray:none;stroke-dashoffset:0;stroke-opacity:1"
           d="m 316.16605,385.04079 c 22.19653,1.60538 45.12847,-0.72237 67.71349,-1.96429 0.32363,-0.0178 0.58476,0.31857 0.58476,0.71429 l 0,20.35714 c 0,0.39571 -0.2613,0.73633 -0.58476,0.71429 -22.41557,-1.5275 -45.90257,-4.21637 -68.31813,-1.96429 -0.32287,0.0324 -2.20859,-1.56889 -2.19284,-1.96429 l 0.60465,-15.17856 c 0.0157,-0.3954 1.86944,-0.73768 2.19283,-0.71429 z"
           id="rect4933"
           inkscape:connector-curvature="0"
           sodipodi:nodetypes="sssssssss" />
      </g>
    </g>
    <path
       style="opacity:0.98999999;fill:#cccccc;fill-opacity:1;stroke:#717171;stroke-width:5.02101183;stroke-linecap:round;stroke-linejoin:round;stroke-miterlimit:4;stroke-dasharray:none;stroke-dashoffset:0;stroke-opacity:1"
       d="m 75.467828,175.9872 593.528622,0"
       id="path4997"
       inkscape:connector-curvature="0" />
    <g
       id="g5237">
      <rect
         y="963.69696"
         x="131.57413"
         height="13.691834"
         width="2.6715775"
         id="rect4230"
         style="opacity:0.98999999;fill:#b3b3b3;fill-opacity:1;stroke:none;stroke-width:1.39999998;stroke-linecap:round;stroke-linejoin:round;stroke-miterlimit:4;stroke-dasharray:none;stroke-dashoffset:0;stroke-opacity:1" />
      <rect
         y="939.65277"
         x="146.60176"
         height="2.6715775"
         width="13.02394"
         id="rect4226"
         style="opacity:0.98999999;fill:#808080;fill-opacity:1;stroke:none;stroke-width:1.39999998;stroke-linecap:round;stroke-linejoin:round;stroke-miterlimit:4;stroke-dasharray:none;stroke-dashoffset:0;stroke-opacity:1" />
      <rect
         y="951.0069"
         x="123.89336"
         height="13.02394"
         width="12.022098"
         id="rect4228"
         style="opacity:0.98999999;fill:#808080;fill-opacity:1;stroke:none;stroke-width:1.39999998;stroke-linecap:round;stroke-linejoin:round;stroke-miterlimit:4;stroke-dasharray:none;stroke-dashoffset:0;stroke-opacity:1" />
      <rect
         y="925.29297"
         x="108.03087"
         height="28.051561"
         width="44.24799"
         id="rect4224"
         style="opacity:0.98999999;fill:#4d4d4d;fill-opacity:1;stroke:none;stroke-width:1.39999998;stroke-linecap:round;stroke-linejoin:round;stroke-miterlimit:4;stroke-dasharray:none;stroke-dashoffset:0;stroke-opacity:1" />
      <path
         sodipodi:nodetypes="ccscccscsc"
         inkscape:connector-curvature="0"
         id="path4222"
         d="m 192.41824,984.44998 c 13.08966,0 13.38721,-7.72911 13.38721,-7.72911 l 0,-31.81767 c 0,-13.78453 -11.1153,-16.93861 -11.1153,-16.93861 l -88.82995,0 0,-36.0663 c 0,0 0,-6.67894 6.67895,-6.67894 l 142.26149,0 c 0,0 12.0221,0 12.0221,10.68631 0,10.6863 4.67526,68.43675 4.67526,90.83363"
         style="opacity:0.98999999;fill:#808080;fill-opacity:1;stroke:none;stroke-width:1.39999998;stroke-linecap:round;stroke-linejoin:round;stroke-miterlimit:4;stroke-dasharray:none;stroke-dashoffset:0;stroke-opacity:1" />
      <path
         sodipodi:nodetypes="ccccc"
         inkscape:connector-curvature="0"
         id="path4220"
         d="m 271.37572,982.38218 -185.234205,0 c -15.148826,0 -8.480885,26.74732 0,26.74732 l 186.374115,0 z"
         style="opacity:0.98999999;fill:#333333;fill-opacity:1;stroke:none;stroke-width:1.36623013;stroke-linecap:round;stroke-linejoin:round;stroke-miterlimit:4;stroke-dasharray:none;stroke-dashoffset:0;stroke-opacity:1" />
      <circle
         r="9.2857141"
         cy="925.57648"
         cx="235.71428"
         id="path5235"
         style="opacity:0.98999999;fill:#333333;fill-opacity:1;stroke:#717171;stroke-width:5;stroke-linecap:round;stroke-linejoin:round;stroke-miterlimit:4;stroke-dasharray:none;stroke-dashoffset:0;stroke-opacity:1" />
    </g>
    <g
       id="g5272"
       transform="translate(57.142857,20)">
      <path
         inkscape:connector-curvature="0"
         id="path5248"
         d="m 146.42857,330.21935 0,31.78571"
         style="opacity:0.98999999;fill:#333333;fill-opacity:1;stroke:#717171;stroke-width:5;stroke-linecap:round;stroke-linejoin:round;stroke-miterlimit:4;stroke-dasharray:none;stroke-dashoffset:0;stroke-opacity:1" />
      <path
         inkscape:connector-curvature="0"
         id="path5250"
         d="m 145.35714,345.21935 -34.64285,0"
         style="opacity:0.98999999;fill:#333333;fill-opacity:1;stroke:#717171;stroke-width:5;stroke-linecap:round;stroke-linejoin:round;stroke-miterlimit:4;stroke-dasharray:none;stroke-dashoffset:0;stroke-opacity:1" />
      <path
         style="opacity:0.98999999;fill:#333333;fill-opacity:1;stroke:#717171;stroke-width:5;stroke-linecap:round;stroke-linejoin:round;stroke-miterlimit:4;stroke-dasharray:none;stroke-dashoffset:0;stroke-opacity:1"
         d="m 154.67893,330.21935 0,31.78571"
         id="path5252"
         inkscape:connector-curvature="0" />
      <path
         inkscape:connector-curvature="0"
         id="path5258"
         d="m 156.71429,345.21935 97.67857,0"
         style="opacity:0.98999999;fill:#333333;fill-opacity:1;stroke:#717171;stroke-width:5;stroke-linecap:round;stroke-linejoin:round;stroke-miterlimit:4;stroke-dasharray:none;stroke-dashoffset:0;stroke-opacity:1" />
      <rect
         ry="0.71428603"
         y="360.21933"
         x="196.07143"
         height="31.25"
         width="15.357142"
         id="rect5260"
         style="opacity:0.98999999;fill:none;fill-opacity:1;stroke:#717171;stroke-width:5;stroke-linecap:round;stroke-linejoin:round;stroke-miterlimit:4;stroke-dasharray:none;stroke-dashoffset:0;stroke-opacity:1" />
      <path
         inkscape:connector-curvature="0"
         id="path5262"
         d="m 204.28572,360.04078 0,-14.28572"
         style="opacity:0.98999999;fill:#333333;fill-opacity:1;stroke:#717171;stroke-width:5;stroke-linecap:round;stroke-linejoin:round;stroke-miterlimit:4;stroke-dasharray:none;stroke-dashoffset:0;stroke-opacity:1" />
      <path
         inkscape:connector-curvature="0"
         id="path5264"
         d="m 203.75,392.3622 0,11.96429"
         style="opacity:0.98999999;fill:none;fill-opacity:1;stroke:#717171;stroke-width:5;stroke-linecap:round;stroke-linejoin:round;stroke-miterlimit:4;stroke-dasharray:none;stroke-dashoffset:0;stroke-opacity:1" />
      <path
         inkscape:connector-curvature="0"
         id="path5266"
         d="m 191.25,405.57649 26.42857,0"
         style="opacity:0.98999999;fill:none;fill-opacity:1;stroke:#717171;stroke-width:5;stroke-linecap:round;stroke-linejoin:round;stroke-miterlimit:4;stroke-dasharray:none;stroke-dashoffset:0;stroke-opacity:1" />
      <path
         inkscape:connector-curvature="0"
         id="path5268"
         d="m 195.17857,412.3622 17.5,0"
         style="opacity:0.98999999;fill:none;fill-opacity:1;stroke:#717171;stroke-width:5;stroke-linecap:round;stroke-linejoin:round;stroke-miterlimit:4;stroke-dasharray:none;stroke-dashoffset:0;stroke-opacity:1" />
      <path
         inkscape:connector-curvature="0"
         id="path5270"
         d="m 200.04464,419.01399 7.5,0"
         style="opacity:0.98999999;fill:none;fill-opacity:1;stroke:#717171;stroke-width:5;stroke-linecap:round;stroke-linejoin:round;stroke-miterlimit:4;stroke-dasharray:none;stroke-dashoffset:0;stroke-opacity:1" />
    </g>
  </g>
</svg>
