<?xml version="1.0" encoding="UTF-8" standalone="no"?>
<!-- Generator: Adobe Illustrator 19.0.0, SVG Export Plug-In . SVG Version: 6.00 Build 0)  -->

<svg
   xmlns:dc="http://purl.org/dc/elements/1.1/"
   xmlns:cc="http://creativecommons.org/ns#"
   xmlns:rdf="http://www.w3.org/1999/02/22-rdf-syntax-ns#"
   xmlns:svg="http://www.w3.org/2000/svg"
   xmlns="http://www.w3.org/2000/svg"
   xmlns:sodipodi="http://sodipodi.sourceforge.net/DTD/sodipodi-0.dtd"
   xmlns:inkscape="http://www.inkscape.org/namespaces/inkscape"
   version="1.1"
   x="0px"
   y="0px"
   viewBox="0 0 10629.921 3543.3071"
   enable-background="new 0 0 8503.9 2834.6"
   xml:space="preserve"
   id="svg2"
   inkscape:version="0.91 r13725"
   sodipodi:docname="banderolli_3x1.svg"
   width="300cm"
   height="100cm"><metadata
   id="metadata24"><rdf:RDF><cc:Work
       rdf:about=""><dc:format>image/svg+xml</dc:format><dc:type
         rdf:resource="http://purl.org/dc/dcmitype/StillImage" /><dc:title></dc:title></cc:Work></rdf:RDF></metadata><defs
   id="defs22">
	
	

		
		
		
		
		
		
		
		
		
		
	
	
	
</defs><sodipodi:namedview
   pagecolor="#ffffff"
   bordercolor="#666666"
   borderopacity="1"
   objecttolerance="10"
   gridtolerance="10"
   guidetolerance="10"
   inkscape:pageopacity="0"
   inkscape:pageshadow="2"
   inkscape:window-width="1366"
   inkscape:window-height="715"
   id="namedview20"
   showgrid="false"
   inkscape:zoom="0.069615115"
   inkscape:cx="3829.5722"
   inkscape:cy="1417.3"
   inkscape:window-x="-8"
   inkscape:window-y="-8"
   inkscape:window-maximized="1"
   inkscape:current-layer="svg2"
   units="m" />

<g
   id="g3378"
   transform="matrix(1.2500054,0,0,1.2500201,0,-885.89801)"><rect
     id="XMLID_11_"
     x="0"
     width="8503.9004"
     height="2834.6001"
     y="708.70709" /><path
     style="fill:#ffffff"
     inkscape:connector-curvature="0"
     d="m 1347.1,2483.5071 -236.7,0 0,-505.9 c 0,-62.5 -9.7,-109.4 -29.1,-140.6 -19.4,-31.2 -49.3,-46.9 -89.7,-46.9 -30.5,0 -56.2,6.2 -76.9,18.6 -20.7,12.4 -37.3,30.7 -49.7,55 -12.4,24.3 -21.2,54.2 -26.4,89.9 -5.2,35.6 -7.8,76.4 -7.8,122.4 l 0,407.5 -243.8,0 0,-1207.7 243.9,0 0,246.7 c 0,21.8 -0.5,44.8 -1.6,68.9 -1.1,24.1 -2.3,46.3 -3.9,66.5 -2.1,23.9 -3.9,47.2 -5.4,70.1 l 12.4,0 c 25.3,-45.3 57.7,-78 97,-98 39.3,-20 83.8,-30.1 133.5,-30.1 42.9,0 81.9,6.1 116.8,18.2 34.9,12.2 64.8,31.2 89.7,57 24.8,25.9 44,58.8 57.5,98.9 13.4,40.1 20.2,88.1 20.2,143.9 l 0,565.6 z"
     id="XMLID_13_" /><path
     style="fill:#ffffff"
     inkscape:connector-curvature="0"
     d="m 2093.5,2483.5071 -46.1,-119.8 -7,0 c -17.1,23.7 -34.1,44.1 -51.1,61.2 -17,17.1 -35.6,31.2 -55.8,42.3 -20.2,11.1 -42.7,19.2 -67.8,24.5 -25.1,5.3 -54.1,7.9 -87.1,7.9 -35.1,0 -67.7,-5.6 -97.6,-16.7 -30,-11.1 -55.9,-27.9 -77.9,-50.5 -22,-22.5 -39.1,-51 -51.5,-85.4 -12.4,-34.4 -18.6,-75.2 -18.6,-122.3 0,-92.1 29.4,-160 88.3,-203.7 58.9,-43.7 146.9,-67.9 264.1,-72.6 l 137.9,-4.7 0,-65.5 c 0,-35.9 -10.3,-62.4 -31,-79.6 -20.7,-17.2 -49.6,-25.7 -86.9,-25.7 -37.3,0 -73.5,5.4 -108.9,16.3 -35.4,10.9 -71,25.4 -106.6,43.5 l -76.9,-156.9 c 43.5,-24.3 91.8,-43.5 144.6,-57.4 52.8,-13.9 108.4,-21 166.4,-21 108.3,0 191.4,25.4 249.2,76.1 57.8,50.7 86.7,127.9 86.7,231.4 l 0,578.5 -166.4,0 z m -70.2,-401.6 -78.3,3.1 c -31.5,1 -58.2,5.1 -79.9,12.3 -21.7,7.2 -39.2,16.8 -52.3,28.8 -13.2,12.1 -22.8,26.4 -28.7,43.1 -6,16.7 -8.9,35.2 -8.9,55.7 0,35.9 8.8,61.4 26.4,76.5 17.6,15.1 40.6,22.7 69,22.7 21.7,0 41.9,-3.7 60.5,-11.1 18.6,-7.4 34.8,-18.4 48.5,-33.1 13.7,-14.6 24.4,-32.5 32.2,-53.8 7.7,-21.3 11.6,-45.7 11.6,-73.4 l 0,-70.8 z"
     id="XMLID_15_" /><path
     style="fill:#ffffff"
     inkscape:connector-curvature="0"
     d="m 2864.3,2499.5071 c -62.1,0 -118.2,-8.5 -168.1,-25.6 -50,-17.1 -92.7,-43.6 -128.1,-79.6 -35.5,-36 -62.6,-82 -81.5,-138.2 -18.9,-56.1 -28.3,-123.3 -28.3,-201.4 0,-86.4 9.7,-158.7 29.1,-217 19.4,-58.2 46.8,-104.9 82.3,-140.1 35.5,-35.2 78.2,-60.3 128.1,-75.3 49.9,-15 105.5,-22.5 166.6,-22.5 44.5,0 88.8,5.4 132.8,16.2 44,10.8 85.4,26 124.3,45.6 l -68.4,179.6 c -34.2,-15 -67.1,-27.3 -98.6,-36.9 -31.6,-9.6 -61.6,-14.4 -90.1,-14.4 -57.5,0 -99.2,22 -125.1,65.9 -25.9,43.9 -38.8,109.8 -38.8,197.6 0,87.3 12.9,151.8 38.8,193.4 25.9,41.6 66.5,62.4 122,62.4 45,0 85.9,-5.8 122.7,-17.5 36.8,-11.6 74.3,-26.5 112.6,-44.6 l 0,196.1 c -19.2,9.2 -37.8,17.5 -55.9,24.6 -18.1,7.2 -36.4,13.1 -54.7,17.7 -18.4,4.6 -37.5,8.1 -57.5,10.4 -20.1,2.4 -41.5,3.6 -64.2,3.6 z"
     id="XMLID_18_" /><path
     style="fill:#ffffff"
     inkscape:connector-curvature="0"
     d="m 3524.5,2011.7071 87,-131.9 212,-263.8 267,0 -313.7,376.4 333.9,491.2 -273.2,0 -211.3,-333.7 -92.4,63.6 0,270 -236.8,0 0,-1207.7 236.7,0 0,538.7 -12.4,197.2 3.2,0 z"
     id="XMLID_20_" /><path
     style="fill:#ffffff"
     inkscape:connector-curvature="0"
     d="m 4471.5,2483.5071 -236.7,0 0,-1207.7 236.7,0 0,1207.7 z"
     id="XMLID_22_" /><path
     style="fill:#ffffff"
     inkscape:connector-curvature="0"
     d="m 5222.5,2483.5071 -46.1,-119.8 -7,0 c -17.1,23.7 -34.1,44.1 -51.1,61.2 -17,17.1 -35.6,31.2 -55.8,42.3 -20.1,11.1 -42.7,19.2 -67.8,24.5 -25.1,5.3 -54.1,7.9 -87.1,7.9 -35.1,0 -67.7,-5.6 -97.6,-16.7 -30,-11.1 -55.9,-27.9 -77.9,-50.5 -22,-22.5 -39.1,-51 -51.5,-85.4 -12.4,-34.4 -18.6,-75.2 -18.6,-122.3 0,-92.1 29.4,-160 88.3,-203.7 58.9,-43.7 146.9,-67.9 264.1,-72.6 l 137.9,-4.7 0,-65.5 c 0,-35.9 -10.3,-62.4 -31,-79.6 -20.7,-17.2 -49.6,-25.7 -86.9,-25.7 -37.3,0 -73.5,5.4 -108.9,16.3 -35.4,10.9 -71,25.4 -106.6,43.5 l -76.8,-156.8 c 43.5,-24.3 91.8,-43.5 144.6,-57.4 52.9,-14 108.4,-21 166.4,-21 108.3,0 191.4,25.4 249.2,76.1 57.8,50.7 86.7,127.9 86.7,231.4 l 0,578.5 -166.5,0 z m -70.2,-401.6 -78.3,3.1 c -31.5,1 -58.2,5.1 -79.9,12.3 -21.7,7.2 -39.2,16.8 -52.3,28.8 -13.2,12.1 -22.8,26.4 -28.7,43.1 -6,16.7 -8.9,35.2 -8.9,55.7 0,35.9 8.8,61.4 26.4,76.5 17.6,15.1 40.6,22.7 69,22.7 21.7,0 41.9,-3.7 60.5,-11.1 18.6,-7.4 34.8,-18.4 48.5,-33.1 13.7,-14.6 24.4,-32.5 32.2,-53.8 7.7,-21.3 11.6,-45.7 11.6,-73.4 l 0,-70.8 z"
     id="XMLID_24_" /><path
     style="fill:#ffffff"
     inkscape:connector-curvature="0"
     d="m 6095.3,1599.9071 c 44.5,0 85.1,9.6 121.8,28.7 36.7,19.1 68.3,47.6 94.7,85.4 26.4,37.8 46.9,84.6 61.7,140.5 14.7,55.9 22.1,120.6 22.1,194.1 0,74.5 -7.4,139.8 -22.1,196 -14.8,56.1 -35.6,103.1 -62.5,140.9 -26.9,37.8 -59.2,66.2 -97,85.4 -37.8,19.1 -79.4,28.7 -124.9,28.7 -29,0 -54.7,-3.1 -77.2,-9.3 -22.5,-6.2 -42.5,-14.5 -60.1,-24.8 -17.6,-10.3 -33,-22.1 -46.2,-35.3 -13.2,-13.2 -25.2,-27 -36.1,-41.5 l -16.3,0 -39.6,95 -180.9,0 0,-1207.9 236.7,0 0,281.7 c 0,17.1 -0.5,35.7 -1.6,55.6 -1,20 -2.1,38.5 -3.1,55.6 -1.5,20.3 -3.1,40.5 -4.6,60.7 l 9.3,0 c 10.9,-18.2 23.3,-35.1 37.2,-50.8 14,-15.6 30.1,-29.3 48.5,-41 18.4,-11.7 39.2,-21 62.5,-27.7 23.4,-6.6 49.2,-10 77.7,-10 z m -80,190.2 c -26.4,0 -48.7,4.8 -67.1,14.4 -18.4,9.6 -33.2,24 -44.6,43.2 -11.4,19.2 -19.7,43.4 -24.8,72.7 -5.2,29.3 -8.3,63.4 -9.3,102.2 l 0,25.6 c 0,42 2.4,79.3 7.4,111.9 4.9,32.7 13.1,60 24.4,82 11.3,22 26.5,38.7 45.4,50.1 18.9,11.4 42.3,17.1 70.2,17.1 47.1,0 81.6,-22.4 103.6,-67.2 22,-44.8 33,-110 33,-195.5 0,-85.5 -11,-149.6 -33,-192.4 -22.1,-42.7 -57.1,-64.1 -105.2,-64.1 z"
     id="XMLID_27_" /><path
     style="fill:#ffffff"
     inkscape:connector-curvature="0"
     d="m 6565.9,2372.6071 c 0,-24.3 3.5,-44.8 10.5,-61.7 7,-16.8 16.6,-30.4 29,-40.7 12.4,-10.3 26.9,-17.8 43.4,-22.5 16.5,-4.7 34.4,-7 53.5,-7 18.1,0 35.2,2.3 51.5,7 16.3,4.7 30.6,12.2 43,22.5 12.4,10.3 22.2,23.9 29.4,40.7 7.2,16.8 10.8,37.4 10.8,61.7 0,23.3 -3.6,43.2 -10.8,59.7 -7.2,16.6 -17,30.3 -29.4,41.1 -12.4,10.9 -26.7,18.7 -43,23.7 -16.3,4.9 -33.4,7.4 -51.5,7.4 -19.1,0 -36.9,-2.5 -53.5,-7.4 -16.5,-4.9 -31,-12.8 -43.4,-23.7 -12.4,-10.9 -22.1,-24.6 -29,-41.1 -7,-16.5 -10.5,-36.5 -10.5,-59.7 z"
     id="XMLID_30_" /><path
     style="fill:#ffffff"
     inkscape:connector-curvature="0"
     d="m 7503.5,1791.3071 -176.1,0 0,692.1 -236.7,0 0,-692.1 -130.6,0 0,-112.6 130.6,-62.8 0,-63.7 c 0,-55.4 6.7,-101.4 20.2,-137.9 13.5,-36.5 32.6,-65.6 57.5,-87.4 24.9,-21.7 54.9,-37.1 90.2,-46.2 35.2,-9.1 74.9,-13.6 118.9,-13.6 47.7,0 87.8,3.8 120.5,11.4 32.7,7.6 60.4,16.1 83.2,25.5 l -56,175.8 c -16.1,-5.7 -33,-10.9 -50.6,-15.5 -17.6,-4.6 -38.4,-7 -62.3,-7 -31.1,0 -53.1,9.8 -65.8,29.5 -12.7,19.7 -19.1,44.8 -19.1,75.4 l 0,53.6 176.1,0 0,175.5 z"
     id="XMLID_32_" /><path
     style="fill:#ffffff"
     inkscape:connector-curvature="0"
     d="m 7657.9,1391.2071 c 0,-22.2 3.4,-40.7 10.1,-55.4 6.7,-14.7 15.9,-26.6 27.6,-35.6 11.6,-9.1 25.3,-15.4 41.1,-19 15.8,-3.6 32.5,-5.4 50.1,-5.4 17.6,0 34.2,1.8 49.7,5.4 15.5,3.6 29.1,9.9 40.7,19 11.6,9.1 21,20.9 28,35.6 7,14.7 10.5,33.2 10.5,55.4 0,21.7 -3.5,40 -10.5,55 -7,15 -16.3,27 -28,36 -11.6,9.1 -25.2,15.5 -40.7,19.4 -15.5,3.9 -32.1,5.8 -49.7,5.8 -17.6,0 -34.3,-1.9 -50.1,-5.8 -15.8,-3.9 -29.5,-10.3 -41.1,-19.4 -11.6,-9 -20.8,-21 -27.6,-36 -6.7,-14.9 -10.1,-33.3 -10.1,-55 z m 246.9,1092.3 -236.8,0 0,-867.6 236.7,0 0,867.6 z"
     id="XMLID_34_" /><rect
     id="XMLID_10_"
     x="587.59998"
     y="2755.8071"
     width="7324.2002"
     height="230.89999"
     style="fill:#ffffff" /></g>
</svg>