<?xml version="1.0" encoding="utf-8"?>
<!-- Generator: Adobe Illustrator 19.0.0, SVG Export Plug-In . SVG Version: 6.00 Build 0)  -->
<!DOCTYPE svg PUBLIC "-//W3C//DTD SVG 1.1//EN" "http://www.w3.org/Graphics/SVG/1.1/DTD/svg11.dtd">
<svg version="1.1" xmlns="http://www.w3.org/2000/svg" xmlns:xlink="http://www.w3.org/1999/xlink" x="0px" y="0px"
	 viewBox="0 0 8503.9 2834.6" enable-background="new 0 0 8503.9 2834.6" xml:space="preserve">
<g id="Layer_1">
	<rect id="XMLID_11_" x="-2.3" width="8503.9" height="2834.6"/>
	<rect id="XMLID_7_" x="-169.5" y="-144.1" fill="none" width="8838.3" height="3122.8"/>
</g>
<g id="Layer_2">
	<g id="XMLID_12_">
		<path id="XMLID_13_" fill="#FFFFFF" d="M1347.1,1774.8h-236.7v-505.9c0-62.5-9.7-109.4-29.1-140.6s-49.3-46.9-89.7-46.9
			c-30.5,0-56.2,6.2-76.9,18.6c-20.7,12.4-37.3,30.7-49.7,55c-12.4,24.3-21.2,54.2-26.4,89.9c-5.2,35.6-7.8,76.4-7.8,122.4v407.5
			H587V567.1h243.9v246.7c0,21.8-0.5,44.8-1.6,68.9s-2.3,46.3-3.9,66.5c-2.1,23.9-3.9,47.2-5.4,70.1h12.4c25.3-45.3,57.7-78,97-98
			c39.3-20,83.8-30.1,133.5-30.1c42.9,0,81.9,6.1,116.8,18.2c34.9,12.2,64.8,31.2,89.7,57c24.8,25.9,44,58.8,57.5,98.9
			c13.4,40.1,20.2,88.1,20.2,143.9V1774.8z"/>
		<path id="XMLID_15_" fill="#FFFFFF" d="M2093.5,1774.8l-46.1-119.8h-7c-17.1,23.7-34.1,44.1-51.1,61.2
			c-17,17.1-35.6,31.2-55.8,42.3s-42.7,19.2-67.8,24.5c-25.1,5.3-54.1,7.9-87.1,7.9c-35.1,0-67.7-5.6-97.6-16.7
			c-30-11.1-55.9-27.9-77.9-50.5c-22-22.5-39.1-51-51.5-85.4c-12.4-34.4-18.6-75.2-18.6-122.3c0-92.1,29.4-160,88.3-203.7
			c58.9-43.7,146.9-67.9,264.1-72.6l137.9-4.7v-65.5c0-35.9-10.3-62.4-31-79.6c-20.7-17.2-49.6-25.7-86.9-25.7s-73.5,5.4-108.9,16.3
			c-35.4,10.9-71,25.4-106.6,43.5L1613,967.1c43.5-24.3,91.8-43.5,144.6-57.4s108.4-21,166.4-21c108.3,0,191.4,25.4,249.2,76.1
			c57.8,50.7,86.7,127.9,86.7,231.4v578.5H2093.5z M2023.3,1373.2l-78.3,3.1c-31.5,1-58.2,5.1-79.9,12.3
			c-21.7,7.2-39.2,16.8-52.3,28.8c-13.2,12.1-22.8,26.4-28.7,43.1c-6,16.7-8.9,35.2-8.9,55.7c0,35.9,8.8,61.4,26.4,76.5
			c17.6,15.1,40.6,22.7,69,22.7c21.7,0,41.9-3.7,60.5-11.1c18.6-7.4,34.8-18.4,48.5-33.1c13.7-14.6,24.4-32.5,32.2-53.8
			c7.7-21.3,11.6-45.7,11.6-73.4V1373.2z"/>
		<path id="XMLID_18_" fill="#FFFFFF" d="M2864.3,1790.8c-62.1,0-118.2-8.5-168.1-25.6c-50-17.1-92.7-43.6-128.1-79.6
			c-35.5-36-62.6-82-81.5-138.2c-18.9-56.1-28.3-123.3-28.3-201.4c0-86.4,9.7-158.7,29.1-217c19.4-58.2,46.8-104.9,82.3-140.1
			c35.5-35.2,78.2-60.3,128.1-75.3c49.9-15,105.5-22.5,166.6-22.5c44.5,0,88.8,5.4,132.8,16.2c44,10.8,85.4,26,124.3,45.6
			l-68.4,179.6c-34.2-15-67.1-27.3-98.6-36.9c-31.6-9.6-61.6-14.4-90.1-14.4c-57.5,0-99.2,22-125.1,65.9
			c-25.9,43.9-38.8,109.8-38.8,197.6c0,87.3,12.9,151.8,38.8,193.4c25.9,41.6,66.5,62.4,122,62.4c45,0,85.9-5.8,122.7-17.5
			c36.8-11.6,74.3-26.5,112.6-44.6v196.1c-19.2,9.2-37.8,17.5-55.9,24.6c-18.1,7.2-36.4,13.1-54.7,17.7
			c-18.4,4.6-37.5,8.1-57.5,10.4C2908.4,1789.6,2887,1790.8,2864.3,1790.8z"/>
		<path id="XMLID_20_" fill="#FFFFFF" d="M3524.5,1303l87-131.9l212-263.8h267l-313.7,376.4l333.9,491.2h-273.2l-211.3-333.7
			l-92.4,63.6v270H3297V567.1h236.7v538.7l-12.4,197.2H3524.5z"/>
		<path id="XMLID_22_" fill="#FFFFFF" d="M4471.5,1774.8h-236.7V567.1h236.7V1774.8z"/>
		<path id="XMLID_24_" fill="#FFFFFF" d="M5222.5,1774.8l-46.1-119.8h-7c-17.1,23.7-34.1,44.1-51.1,61.2
			c-17,17.1-35.6,31.2-55.8,42.3c-20.1,11.1-42.7,19.2-67.8,24.5c-25.1,5.3-54.1,7.9-87.1,7.9c-35.1,0-67.7-5.6-97.6-16.7
			c-30-11.1-55.9-27.9-77.9-50.5c-22-22.5-39.1-51-51.5-85.4c-12.4-34.4-18.6-75.2-18.6-122.3c0-92.1,29.4-160,88.3-203.7
			c58.9-43.7,146.9-67.9,264.1-72.6l137.9-4.7v-65.5c0-35.9-10.3-62.4-31-79.6c-20.7-17.2-49.6-25.7-86.9-25.7s-73.5,5.4-108.9,16.3
			c-35.4,10.9-71,25.4-106.6,43.5l-76.8-156.8c43.5-24.3,91.8-43.5,144.6-57.4c52.9-14,108.4-21,166.4-21
			c108.3,0,191.4,25.4,249.2,76.1c57.8,50.7,86.7,127.9,86.7,231.4v578.5H5222.5z M5152.3,1373.2l-78.3,3.1
			c-31.5,1-58.2,5.1-79.9,12.3c-21.7,7.2-39.2,16.8-52.3,28.8c-13.2,12.1-22.8,26.4-28.7,43.1c-6,16.7-8.9,35.2-8.9,55.7
			c0,35.9,8.8,61.4,26.4,76.5c17.6,15.1,40.6,22.7,69,22.7c21.7,0,41.9-3.7,60.5-11.1s34.8-18.4,48.5-33.1
			c13.7-14.6,24.4-32.5,32.2-53.8c7.7-21.3,11.6-45.7,11.6-73.4V1373.2z"/>
		<path id="XMLID_27_" fill="#FFFFFF" d="M6095.3,891.2c44.5,0,85.1,9.6,121.8,28.7c36.7,19.1,68.3,47.6,94.7,85.4
			c26.4,37.8,46.9,84.6,61.7,140.5c14.7,55.9,22.1,120.6,22.1,194.1c0,74.5-7.4,139.8-22.1,196c-14.8,56.1-35.6,103.1-62.5,140.9
			c-26.9,37.8-59.2,66.2-97,85.4c-37.8,19.1-79.4,28.7-124.9,28.7c-29,0-54.7-3.1-77.2-9.3c-22.5-6.2-42.5-14.5-60.1-24.8
			s-33-22.1-46.2-35.3c-13.2-13.2-25.2-27-36.1-41.5h-16.3l-39.6,95h-180.9V567.1h236.7v281.7c0,17.1-0.5,35.7-1.6,55.6
			c-1,20-2.1,38.5-3.1,55.6c-1.5,20.3-3.1,40.5-4.6,60.7h9.3c10.9-18.2,23.3-35.1,37.2-50.8c14-15.6,30.1-29.3,48.5-41
			c18.4-11.7,39.2-21,62.5-27.7C6041,894.6,6066.8,891.2,6095.3,891.2z M6015.3,1081.4c-26.4,0-48.7,4.8-67.1,14.4
			c-18.4,9.6-33.2,24-44.6,43.2c-11.4,19.2-19.7,43.4-24.8,72.7c-5.2,29.3-8.3,63.4-9.3,102.2v25.6c0,42,2.4,79.3,7.4,111.9
			c4.9,32.7,13.1,60,24.4,82s26.5,38.7,45.4,50.1c18.9,11.4,42.3,17.1,70.2,17.1c47.1,0,81.6-22.4,103.6-67.2
			c22-44.8,33-110,33-195.5c0-85.5-11-149.6-33-192.4C6098.4,1102.8,6063.4,1081.4,6015.3,1081.4z"/>
		<path id="XMLID_30_" fill="#FFFFFF" d="M6565.9,1663.9c0-24.3,3.5-44.8,10.5-61.7c7-16.8,16.6-30.4,29-40.7
			c12.4-10.3,26.9-17.8,43.4-22.5c16.5-4.7,34.4-7,53.5-7c18.1,0,35.2,2.3,51.5,7c16.3,4.7,30.6,12.2,43,22.5
			c12.4,10.3,22.2,23.9,29.4,40.7c7.2,16.8,10.8,37.4,10.8,61.7c0,23.3-3.6,43.2-10.8,59.7c-7.2,16.6-17,30.3-29.4,41.1
			c-12.4,10.9-26.7,18.7-43,23.7c-16.3,4.9-33.4,7.4-51.5,7.4c-19.1,0-36.9-2.5-53.5-7.4c-16.5-4.9-31-12.8-43.4-23.7
			c-12.4-10.9-22.1-24.6-29-41.1C6569.4,1707.1,6565.9,1687.1,6565.9,1663.9z"/>
		<path id="XMLID_32_" fill="#FFFFFF" d="M7503.5,1082.6h-176.1v692.1h-236.7v-692.1h-130.6V970l130.6-62.8v-63.7
			c0-55.4,6.7-101.4,20.2-137.9c13.5-36.5,32.6-65.6,57.5-87.4c24.9-21.7,54.9-37.1,90.2-46.2c35.2-9.1,74.9-13.6,118.9-13.6
			c47.7,0,87.8,3.8,120.5,11.4c32.7,7.6,60.4,16.1,83.2,25.5l-56,175.8c-16.1-5.7-33-10.9-50.6-15.5s-38.4-7-62.3-7
			c-31.1,0-53.1,9.8-65.8,29.5c-12.7,19.7-19.1,44.8-19.1,75.4v53.6h176.1V1082.6z"/>
		<path id="XMLID_34_" fill="#FFFFFF" d="M7657.9,682.5c0-22.2,3.4-40.7,10.1-55.4c6.7-14.7,15.9-26.6,27.6-35.6
			c11.6-9.1,25.3-15.4,41.1-19s32.5-5.4,50.1-5.4s34.2,1.8,49.7,5.4s29.1,9.9,40.7,19c11.6,9.1,21,20.9,28,35.6
			c7,14.7,10.5,33.2,10.5,55.4c0,21.7-3.5,40-10.5,55c-7,15-16.3,27-28,36c-11.6,9.1-25.2,15.5-40.7,19.4
			c-15.5,3.9-32.1,5.8-49.7,5.8s-34.3-1.9-50.1-5.8c-15.8-3.9-29.5-10.3-41.1-19.4c-11.6-9-20.8-21-27.6-36
			C7661.3,722.6,7657.9,704.2,7657.9,682.5z M7904.8,1774.8H7668V907.2h236.7V1774.8z"/>
	</g>
	<rect id="XMLID_10_" x="587.6" y="2047.1" fill="#FFFFFF" width="7324.2" height="230.9"/>
</g>
</svg>
