<?xml version="1.0" encoding="UTF-8" standalone="no"?>
<!-- Created with Inkscape (http://www.inkscape.org/) -->

<svg
   xmlns:dc="http://purl.org/dc/elements/1.1/"
   xmlns:cc="http://creativecommons.org/ns#"
   xmlns:rdf="http://www.w3.org/1999/02/22-rdf-syntax-ns#"
   xmlns:svg="http://www.w3.org/2000/svg"
   xmlns="http://www.w3.org/2000/svg"
   xmlns:sodipodi="http://sodipodi.sourceforge.net/DTD/sodipodi-0.dtd"
   xmlns:inkscape="http://www.inkscape.org/namespaces/inkscape"
   width="62.372299"
   height="51.083912"
   id="svg3100"
   version="1.1"
   inkscape:version="0.48.3.1 r9886"
   sodipodi:docname="hacklablogo.svg">
  <defs
     id="defs3102" />
  <sodipodi:namedview
     id="base"
     pagecolor="#ffffff"
     bordercolor="#666666"
     borderopacity="1.0"
     inkscape:pageopacity="0.0"
     inkscape:pageshadow="2"
     inkscape:zoom="7.919596"
     inkscape:cx="43.515139"
     inkscape:cy="21.696103"
     inkscape:document-units="px"
     inkscape:current-layer="layer1"
     showgrid="false"
     fit-margin-top="0"
     fit-margin-left="0"
     fit-margin-right="0"
     fit-margin-bottom="0"
     borderlayer="true"
     inkscape:window-width="1364"
     inkscape:window-height="747"
     inkscape:window-x="0"
     inkscape:window-y="19"
     inkscape:window-maximized="0" />
  <metadata
     id="metadata3105">
    <rdf:RDF>
      <cc:Work
         rdf:about="">
        <dc:format>image/svg+xml</dc:format>
        <dc:type
           rdf:resource="http://purl.org/dc/dcmitype/StillImage" />
        <dc:title></dc:title>
      </cc:Work>
    </rdf:RDF>
  </metadata>
  <g
     inkscape:label="Layer 1"
     inkscape:groupmode="layer"
     id="layer1"
     transform="translate(-343.07535,-329.77701)">
    <rect
       style="fill:#1a1a1a;fill-opacity:1;fill-rule:nonzero;stroke:none"
       id="rect3773"
       width="62.372299"
       height="51.083912"
       x="343.07535"
       y="329.77701"
       inkscape:export-filename="/home/marant/hacklab/hacklablogo.png"
       inkscape:export-xdpi="1154.36"
       inkscape:export-ydpi="1154.36" />
    <path
       inkscape:connector-curvature="0"
       id="path3121"
       style="font-size:22px;font-style:normal;font-variant:normal;font-weight:normal;font-stretch:normal;line-height:69.99999880999999391%;letter-spacing:0px;word-spacing:0px;fill:#4d4d4d;fill-opacity:1;stroke:none;font-family:imagine font;-inkscape-font-specification:imagine font"
       d="m 345.36072,346.00436 0,-13.75 2.75,0 0,5.5 8.25,0 0,-5.5 2.75,0 0,13.75 -2.75,0 0,-5.5 -8.25,0 0,5.5 -2.75,0" />
    <path
       inkscape:connector-curvature="0"
       id="path3123"
       style="font-size:22px;font-style:normal;font-variant:normal;font-weight:normal;font-stretch:normal;line-height:69.99999880999999391%;letter-spacing:0px;word-spacing:0px;fill:#999999;fill-opacity:1;stroke:none;font-family:imagine font;-inkscape-font-specification:imagine font"
       d="m 371.06072,337.75436 0,-2.75 -8.25,0 0,2.75 8.25,0 m -11,8.25 0,-13.75 13.75,0 0,13.75 -2.75,0 0,-5.5 -8.25,0 0,5.5 -2.75,0" />
    <path
       inkscape:connector-curvature="0"
       id="path3125"
       style="font-size:22px;font-style:normal;font-variant:normal;font-weight:normal;font-stretch:normal;line-height:69.99999880999999391%;letter-spacing:0px;word-spacing:0px;fill:#4d4d4d;fill-opacity:1;stroke:none;font-family:imagine font;-inkscape-font-specification:imagine font"
       d="m 374.76072,346.00436 0,-13.75 13.75,0 0,2.75 -11,0 0,8.25 11,0 0,2.75 -13.75,0" />
    <path
       inkscape:connector-curvature="0"
       id="path3127"
       style="font-size:22px;font-style:normal;font-variant:normal;font-weight:normal;font-stretch:normal;line-height:69.99999880999999391%;letter-spacing:0px;word-spacing:0px;fill:#4d4d4d;fill-opacity:1;stroke:none;font-family:imagine font;-inkscape-font-specification:imagine font"
       d="m 389.46072,346.00436 0,-13.75 2.75,0 0,5.5 1.93359,0 5.5,-5.5 1.7832,1.80469 -5.09179,5.07031 0,0 5.13476,5.04883 -1.82617,1.82617 -5.5,-5.5 -1.93359,0 0,5.5 -2.75,0" />
    <path
       inkscape:connector-curvature="0"
       id="path3129"
       style="font-size:22px;font-style:normal;font-variant:normal;font-weight:normal;font-stretch:normal;line-height:69.99999880999999391%;letter-spacing:0px;word-spacing:0px;fill:#4d4d4d;fill-opacity:1;stroke:none;font-family:imagine font;-inkscape-font-specification:imagine font"
       d="m 345.36072,361.40436 0,-13.75 2.75,0 0,11 11,0 0,2.75 -13.75,0" />
    <path
       inkscape:connector-curvature="0"
       id="path3131"
       style="font-size:22px;font-style:normal;font-variant:normal;font-weight:normal;font-stretch:normal;line-height:69.99999880999999391%;letter-spacing:0px;word-spacing:0px;fill:#4d4d4d;fill-opacity:1;stroke:none;font-family:imagine font;-inkscape-font-specification:imagine font"
       d="m 371.06072,353.15436 0,-2.75 -8.25,0 0,2.75 8.25,0 m -11,8.25 0,-13.75 13.75,0 0,13.75 -2.75,0 0,-5.5 -8.25,0 0,5.5 -2.75,0" />
    <path
       inkscape:connector-curvature="0"
       id="path3133"
       style="font-size:22px;font-style:normal;font-variant:normal;font-weight:normal;font-stretch:normal;line-height:69.99999880999999391%;letter-spacing:0px;word-spacing:0px;fill:#999999;fill-opacity:1;stroke:none;font-family:imagine font;-inkscape-font-specification:imagine font"
       d="m 385.76072,358.65436 0,-2.75 -8.25,0 0,2.75 8.25,0 m 0,-5.5 0,-2.75 -8.25,0 0,2.75 8.25,0 m -11,8.25 0,-13.75 13.75,0 0,13.75 -13.75,0" />
    <path
       inkscape:connector-curvature="0"
       id="path3135"
       style="font-size:22px;font-style:normal;font-variant:normal;font-weight:normal;font-stretch:normal;line-height:69.99999880999997970%;letter-spacing:-1.79999994999999990px;word-spacing:0px;fill:#999999;fill-opacity:1;stroke:none;font-family:imagine font;-inkscape-font-specification:imagine font"
       d="m 345.36072,376.80436 0,-5.5 2.75,0 0,2.75 8.25,0 0,-11 2.75,0 0,13.75 -13.75,0" />
    <path
       inkscape:connector-curvature="0"
       id="path3137"
       style="font-size:22px;font-style:normal;font-variant:normal;font-weight:normal;font-stretch:normal;line-height:69.99999880999997970%;letter-spacing:-1.79999994999999990px;word-spacing:0px;fill:#999999;fill-opacity:1;stroke:none;font-family:imagine font;-inkscape-font-specification:imagine font"
       d="m 360.06072,376.80436 0,-13.75 2.75,0 0,5.5 1.93359,0 5.5,-5.5 1.7832,1.80469 -5.09179,5.07031 0,0 5.13476,5.04883 -1.82617,1.82617 -5.5,-5.5 -1.93359,0 0,5.5 -2.75,0" />
    <path
       inkscape:connector-curvature="0"
       id="path3139"
       style="font-size:22px;font-style:normal;font-variant:normal;font-weight:normal;font-stretch:normal;line-height:69.99999880999997970%;letter-spacing:-1.79999994999999990px;word-spacing:0px;fill:#999999;fill-opacity:1;stroke:none;font-family:imagine font;-inkscape-font-specification:imagine font"
       d="m 372.999,376.80436 0,-13.75 2.75,0 0,11 11,0 0,2.75 -13.75,0" />
    <path
       inkscape:connector-curvature="0"
       id="path3152"
       style="font-size:14px;font-style:normal;font-variant:normal;font-weight:normal;font-stretch:normal;line-height:125%;letter-spacing:-1.92999995000000002px;word-spacing:0px;fill:#8ae234;fill-opacity:1;stroke:none;font-family:Pixel Square;-inkscape-font-specification:Pixel Square"
       d="m 389.52856,347.60712 9.8,0 0,7 -9.8,0 0,-7 m 1.4,5.6 4.158,0 0,-1.358 -1.428,0 0,-1.4 -1.33,0 0,-1.442 -1.4,0 0,4.2 m 7,-4.2 -4.172,0 0,1.344 1.414,0 0,1.4 1.358,0 0,1.456 1.4,0 0,-4.2" />
    <path
       inkscape:connector-curvature="0"
       id="path3154"
       style="font-size:16.83630752999999913px;font-style:normal;font-variant:normal;font-weight:normal;font-stretch:normal;line-height:125%;letter-spacing:-1.92852198999999991px;word-spacing:0px;fill:#808080;fill-opacity:1;stroke:none;font-family:Pixel Square;-inkscape-font-specification:Pixel Square"
       d="m 393.72856,356.86618 0,4.2 2.8,0 0,1.4 -2.8,0 0,-1.4 -1.4,0 0,1.4 -2.8,0 0,-1.4 2.8,0 0,-4.2 -2.8,0 0,-1.4 2.8,0 0,1.4 1.4,0 0,-1.4 2.8,0 0,1.4 -2.8,0" />
    <path
       inkscape:connector-curvature="0"
       id="path3156"
       style="font-size:14px;font-style:normal;font-variant:normal;font-weight:normal;font-stretch:normal;line-height:125%;letter-spacing:-1.92999995000000002px;word-spacing:0px;fill:#8ae234;fill-opacity:1;stroke:none;font-family:Pixel Square;-inkscape-font-specification:Pixel Square"
       d="m 399.32856,370.32524 -4.2,0 0,-1.4 -1.4,0 0,1.4 -4.2,0 0,-7 4.2,0 0,1.4 1.4,0 0,-1.4 4.2,0 0,7 m -8.372,-1.456 2.674,0 0,-4.074 -2.674,0 0,4.074 m 4.312,0 2.66,0 0,-4.074 -2.66,0 0,4.074" />
    <path
       inkscape:connector-curvature="0"
       id="path3158"
       style="font-size:14px;font-style:normal;font-variant:normal;font-weight:normal;font-stretch:normal;line-height:125%;letter-spacing:-1.92999995000000002px;word-spacing:0px;fill:#8ae234;fill-opacity:1;stroke:none;font-family:Pixel Square;-inkscape-font-specification:Pixel Square"
       d="m 389.52856,371.18431 9.8,0 0,7 -1.4,0 0,-5.6 -2.8,0 0,2.8 -1.4,0 0,-2.8 -4.2,0 0,-1.4" />
  </g>
</svg>
