<?xml version="1.0" encoding="UTF-8" standalone="no"?>
<!-- Created with Inkscape (http://www.inkscape.org/) -->

<svg
   xmlns:dc="http://purl.org/dc/elements/1.1/"
   xmlns:cc="http://creativecommons.org/ns#"
   xmlns:rdf="http://www.w3.org/1999/02/22-rdf-syntax-ns#"
   xmlns:svg="http://www.w3.org/2000/svg"
   xmlns="http://www.w3.org/2000/svg"
   version="1.1"
   width="107.45049"
   height="133.04214"
   id="svg2"
   xml:space="preserve"><metadata
     id="metadata8"><rdf:RDF><cc:Work
         rdf:about=""><dc:format>image/svg+xml</dc:format><dc:type
           rdf:resource="http://purl.org/dc/dcmitype/StillImage" /><dc:title></dc:title></cc:Work></rdf:RDF></metadata><defs
     id="defs6" /><g
     transform="matrix(1.25,0,0,-1.25,-1.063379,108.51387)"
     id="g10"><g
       transform="scale(0.1,0.1)"
       id="g12"><path
         d="m 13.4648,13.4648 850.3942,0 M 13.4648,296.93 l 850.3942,0 m -850.3942,283.465 850.3942,0 m -850.3942,283.464 850.3942,0 m -850.3942,0 0,-850.3942 M 296.93,863.859 l 0,-850.3942 m 283.465,850.3942 0,-850.3942 m 283.464,850.3942 0,-850.3942"
         id="path14"
         style="fill:none;stroke:#000000;stroke-width:8.50393963;stroke-linecap:round;stroke-linejoin:miter;stroke-miterlimit:10;stroke-opacity:1;stroke-dasharray:none" /><path
         d="m 333.781,722.125 c 0,-57.922 46.957,-104.883 104.879,-104.883 57.922,0 104.883,46.961 104.883,104.883 0,57.922 -46.961,104.883 -104.883,104.883 -57.922,0 -104.879,-46.961 -104.879,-104.883"
         id="path16"
         style="fill:#000000;fill-opacity:1;fill-rule:nonzero;stroke:none" /><path
         d="m 617.242,438.66 c 0,-57.922 46.961,-104.879 104.883,-104.879 57.922,0 104.883,46.957 104.883,104.879 0,57.922 -46.961,104.883 -104.883,104.883 -57.922,0 -104.883,-46.961 -104.883,-104.883"
         id="path18"
         style="fill:#000000;fill-opacity:1;fill-rule:nonzero;stroke:none" /><path
         d="m 617.242,155.195 c 0,-57.9216 46.961,-104.8786 104.883,-104.8786 57.922,0 104.883,46.957 104.883,104.8786 0,57.922 -46.961,104.883 -104.883,104.883 -57.922,0 -104.883,-46.961 -104.883,-104.883"
         id="path20"
         style="fill:#000000;fill-opacity:1;fill-rule:nonzero;stroke:none" /><path
         d="m 333.781,155.195 c 0,-57.9216 46.957,-104.8786 104.879,-104.8786 57.922,0 104.883,46.957 104.883,104.8786 0,57.922 -46.961,104.883 -104.883,104.883 -57.922,0 -104.879,-46.961 -104.879,-104.883"
         id="path22"
         style="fill:#000000;fill-opacity:1;fill-rule:nonzero;stroke:none" /><path
         d="m 50.3164,155.195 c 0,-57.9216 46.957,-104.8786 104.8786,-104.8786 57.922,0 104.883,46.957 104.883,104.8786 0,57.922 -46.961,104.883 -104.883,104.883 -57.9216,0 -104.8786,-46.961 -104.8786,-104.883"
         id="path24"
         style="fill:#000000;fill-opacity:1;fill-rule:nonzero;stroke:none" /></g><text
       x="38.237762"
       y="-65.493225"
       transform="scale(1,-1)"
       id="text3001"
       xml:space="preserve"
       style="font-size:16.82954407px;font-style:normal;font-weight:normal;line-height:125%;letter-spacing:0px;word-spacing:0px;fill:#ffffff;fill-opacity:1;stroke:none;font-family:Sans"><tspan
         x="38.237762"
         y="-65.493225"
         id="tspan3003">V</tspan></text>
<text
       x="66.133308"
       y="-10.085937"
       transform="scale(1,-1)"
       id="text3001-7-9"
       xml:space="preserve"
       style="font-size:16.82954407px;font-style:normal;font-weight:normal;line-height:125%;letter-spacing:0px;word-spacing:0px;fill:#ffffff;fill-opacity:1;stroke:none;font-family:Sans"><tspan
         x="66.133308"
         y="-10.085937"
         id="tspan3003-0-8">A</tspan></text>
<text
       x="9.7307644"
       y="-10.45458"
       transform="scale(1,-1)"
       id="text3001-7-0"
       xml:space="preserve"
       style="font-size:16.82954407px;font-style:normal;font-weight:normal;line-height:125%;letter-spacing:0px;word-spacing:0px;fill:#ffffff;fill-opacity:1;stroke:none;font-family:Sans"><tspan
         x="9.7307644"
         y="-10.45458"
         id="tspan3003-0-83">A</tspan></text>
<text
       x="66.133308"
       y="-38.840176"
       transform="scale(1,-1)"
       id="text3001-7-2"
       xml:space="preserve"
       style="font-size:16.82954407px;font-style:normal;font-weight:normal;line-height:125%;letter-spacing:0px;word-spacing:0px;fill:#ffffff;fill-opacity:1;stroke:none;font-family:Sans"><tspan
         x="66.133308"
         y="-38.840176"
         id="tspan3003-0-6">A</tspan></text>
<text
       x="38.853645"
       y="-9.7172947"
       transform="scale(1,-1)"
       id="text3001-7-4"
       xml:space="preserve"
       style="font-size:16.82954407px;font-style:normal;font-weight:normal;line-height:125%;letter-spacing:0px;word-spacing:0px;fill:#ffffff;fill-opacity:1;stroke:none;font-family:Sans"><tspan
         x="38.853645"
         y="-9.7172947"
         id="tspan3003-0-2">S</tspan></text>
<text
       x="-0.99835867"
       y="19.355837"
       transform="scale(1,-1)"
       id="text3842"
       xml:space="preserve"
       style="font-size:18.84019279px;font-style:normal;font-weight:normal;line-height:125%;letter-spacing:0px;word-spacing:0px;fill:#000000;fill-opacity:1;stroke:none;font-family:Sans"><tspan
         x="-0.99835867"
         y="19.355837"
         id="tspan3844">HACKLAB</tspan></text>
</g></svg>