<?xml version="1.0" encoding="UTF-8" standalone="no"?>
<!-- Created with Inkscape (http://www.inkscape.org/) -->

<svg
   xmlns:dc="http://purl.org/dc/elements/1.1/"
   xmlns:cc="http://creativecommons.org/ns#"
   xmlns:rdf="http://www.w3.org/1999/02/22-rdf-syntax-ns#"
   xmlns:svg="http://www.w3.org/2000/svg"
   xmlns="http://www.w3.org/2000/svg"
   xmlns:sodipodi="http://sodipodi.sourceforge.net/DTD/sodipodi-0.dtd"
   xmlns:inkscape="http://www.inkscape.org/namespaces/inkscape"
   width="2000"
   height="2500"
   id="svg2"
   version="1.1"
   inkscape:version="0.48.4 r9939"
   sodipodi:docname="TarlabLogo2.svg"
   inkscape:export-filename="C:\Users\n2o\Desktop\TarlabLogo.png"
   inkscape:export-xdpi="200"
   inkscape:export-ydpi="200">
  <defs
     id="defs4">
    <inkscape:path-effect
       effect="spiro"
       id="path-effect3822"
       is_visible="true" />
  </defs>
  <sodipodi:namedview
     id="base"
     pagecolor="#ffffff"
     bordercolor="#666666"
     borderopacity="1.0"
     inkscape:pageopacity="0.0"
     inkscape:pageshadow="2"
     inkscape:zoom="0.12224108"
     inkscape:cx="661.11296"
     inkscape:cy="1450.8248"
     inkscape:document-units="px"
     inkscape:current-layer="layer1"
     showgrid="false"
     inkscape:window-width="1543"
     inkscape:window-height="981"
     inkscape:window-x="2054"
     inkscape:window-y="14"
     inkscape:window-maximized="0"
     objecttolerance="10000"
     guidetolerance="10000"
     inkscape:snap-global="false"
     showguides="true"
     inkscape:guide-bbox="true">
    <inkscape:grid
       type="xygrid"
       id="grid2985"
       empspacing="5"
       visible="true"
       enabled="true"
       snapvisiblegridlinesonly="true"
       units="cm"
       spacingx="0.5cm"
       spacingy="0.5cm" />
    <sodipodi:guide
       orientation="0,1"
       position="-77.715279,1304.7986"
       id="guide3796" />
    <sodipodi:guide
       orientation="0,1"
       position="-53.173612,1173.9097"
       id="guide3798" />
    <sodipodi:guide
       orientation="0,1"
       position="-20.451389,875.31946"
       id="guide3800" />
    <sodipodi:guide
       orientation="0,1"
       position="-204.51389,1705.6459"
       id="guide3802" />
    <sodipodi:guide
       orientation="0,1"
       position="-98.166668,1856.9861"
       id="guide3804" />
    <sodipodi:guide
       orientation="0,1"
       position="20.451389,2118.7639"
       id="guide3806" />
    <sodipodi:guide
       orientation="1,0"
       position="809.87501,1918.3403"
       id="guide3808" />
    <sodipodi:guide
       orientation="1,0"
       position="1190.2709,1901.9792"
       id="guide3810" />
    <sodipodi:guide
       orientation="1,0"
       position="658.53473,1791.5417"
       id="guide3812" />
    <sodipodi:guide
       orientation="1,0"
       position="1353.882,1889.7084"
       id="guide3814" />
    <sodipodi:guide
       orientation="1,0"
       position="396.75695,1771.0903"
       id="guide3816" />
    <sodipodi:guide
       orientation="1,0"
       position="1611.5695,1497.0417"
       id="guide3818" />
    <sodipodi:guide
       orientation="0,1"
       position="-490.83334,589.00001"
       id="guide3825" />
    <sodipodi:guide
       orientation="1,0"
       position="1002.1181,1439.7778"
       id="guide3827" />
  </sodipodi:namedview>
  <metadata
     id="metadata7">
    <rdf:RDF>
      <cc:Work
         rdf:about="">
        <dc:format>image/svg+xml</dc:format>
        <dc:type
           rdf:resource="http://purl.org/dc/dcmitype/StillImage" />
        <dc:title></dc:title>
      </cc:Work>
    </rdf:RDF>
  </metadata>
  <g
     inkscape:label="Pohja"
     inkscape:groupmode="layer"
     id="layer1"
     style="display:inline"
     transform="translate(0,1447.6378)">
    <path
       style="fill:#416cad;fill-opacity:1;stroke:#082754;stroke-width:48.59599999999999700;stroke-miterlimit:4;stroke-opacity:1;stroke-dasharray:none;display:inline;stroke-linejoin:round"
       d="m 1003.2195,-1398.6032 c -36.93535,0 -73.36356,2.176 -109.20386,6.267 l -69.21783,275.0449 c -70.07437,17.8859 -107.51047,33.1917 -168.15433,69.2012 l -245.50624,-144.1696 c -57.16827,45.4116 -108.92694,97.3055 -154.32679,154.4835 l 156.44041,249.59651 c -35.90004,60.52346 -47.25344,81.57055 -65.11091,151.47988 l -291.249309,81.48868 c -4.097615,35.86828 -6.26708,72.23868 -6.26708,109.20384 0,36.9122 2.181041,73.38522 6.26708,109.20385 l 299.429869,73.30816 c 17.86271,69.98503 16.89785,78.78503 52.84007,139.36567 L 256.81045,145.91828 c 45.39985,57.17803 97.15852,109.07191 154.32679,154.48351 L 664.98072,152.14192 c 39.65109,23.52902 61.29437,31.12112 105.20352,47.10973 45.59933,-58.85414 78.81184,-264.22479 109.85801,-363.90882 -149.99232,-75.803 -174.40638,-185.91525 -169.94609,-287.13465 5.89045,-133.67464 110.22707,-268.85669 296.01564,-261.30843 185.7885,7.54826 266.3964,139.23837 272.8775,269.98522 4.9104,99.06153 -30.0141,194.65268 -162.1217,272.67333 31.0462,99.684034 69.6976,319.01977 115.297,377.87391 43.9091,-15.98861 61.462,-23.58072 101.1132,-47.10974 l 261.8673,140.07932 c 57.1978,-45.42574 109.0638,-97.28063 154.4835,-154.48351 L 1601.212,-136.40044 c 35.9622,-60.59958 35.1272,-65.26366 52.9968,-135.27539 l 295.3396,-65.12761 c 4.086,-35.81863 6.2671,-72.29165 6.2671,-109.20385 0,-36.96516 -2.1696,-73.33556 -6.2671,-109.20384 l -303.5202,-81.33206 c -17.8676,-70.00877 -16.8812,-91.19537 -52.8401,-151.79315 l 156.4405,-249.43986 c -45.4197,-57.2029 -97.2857,-109.0578 -154.4835,-154.4835 l -245.5062,144.1696 c -60.6123,-35.976 -102.0581,-55.417 -172.0879,-73.2915 l -65.1277,-270.9546 c -35.8402,-4.091 -72.2684,-6.267 -109.2038,-6.267 z"
       id="path3805"
       inkscape:connector-curvature="0"
       inkscape:export-filename="C:\Users\Jani\Pictures\tarlab.png"
       inkscape:export-xdpi="90"
       inkscape:export-ydpi="90"
       sodipodi:nodetypes="sccccccccsccccccccszsccccccccsccccccccs" />
    <path
       style="fill:#000000;fill-opacity:1;stroke:#000000;stroke-width:1px;stroke-linecap:butt;stroke-linejoin:miter;stroke-opacity:1"
       d="m 998.02778,680.14692 c -101.42424,5.6558 -218.1693,-86.42602 -212.6945,-237.23614 2.8355,-171.0725 151.89396,-223.5342 216.78482,-400.847236 66.8393,183.265486 210.9808,235.293686 216.7847,400.847286 4.3331,164.18393 -131.8866,250.53505 -220.87502,237.23609"
       id="path3820"
       inkscape:connector-curvature="0"
       sodipodi:nodetypes="ccccc"
       inkscape:export-filename="C:\Users\Jani\Pictures\tarlab.png"
       inkscape:export-xdpi="90"
       inkscape:export-ydpi="90" />
  </g>
  <g
     inkscape:groupmode="layer"
     id="layer2"
     inkscape:label="Muodot"
     style="display:none"
     transform="translate(0,1447.6378)">
    <path
       sodipodi:type="arc"
       style="fill:#ffff00;display:inline"
       id="path2991"
       sodipodi:cx="159.44882"
       sodipodi:cy="644.8819"
       sodipodi:rx="88.58268"
       sodipodi:ry="88.58268"
       d="m 248.0315,644.8819 c 0,48.92286 -39.65981,88.58268 -88.58268,88.58268 -48.92286,0 -88.582678,-39.65982 -88.582678,-88.58268 0,-48.92287 39.659818,-88.58268 88.582678,-88.58268 48.92287,0 88.58268,39.65981 88.58268,88.58268 z"
       transform="matrix(2.1448888,0,0,2.1448888,8.1293699,-983.97104)" />
    <path
       sodipodi:type="star"
       style="fill:#808080;display:inline"
       id="path2989-0"
       sodipodi:sides="8"
       sodipodi:cx="88.58268"
       sodipodi:cy="131.10234"
       sodipodi:r1="212.59843"
       sodipodi:r2="106.29921"
       sodipodi:arg1="1.5707963"
       sodipodi:arg2="1.9634954"
       inkscape:flatsided="false"
       inkscape:rounded="0"
       inkscape:randomized="0"
       d="M 88.582685,343.70078 47.903734,229.31001 -61.747111,281.43214 -9.624984,171.78129 -124.01575,131.10235 -9.6249847,90.423395 -61.747119,-19.22745 47.903733,32.894677 88.582674,-81.496094 129.26163,32.894676 238.91247,-19.227458 186.79034,90.423393 301.18111,131.10234 186.79034,171.78129 238.91248,281.43213 129.26163,229.31 z"
       transform="matrix(1.1759259,0,0,1.1759259,245.9627,245.06228)" />
    <path
       transform="matrix(1.6933333,0,0,1.6933333,80.129362,-692.77107)"
       d="m 248.0315,644.8819 c 0,48.92286 -39.65981,88.58268 -88.58268,88.58268 -48.92286,0 -88.582678,-39.65982 -88.582678,-88.58268 0,-48.92287 39.659818,-88.58268 88.582678,-88.58268 48.92287,0 88.58268,39.65981 88.58268,88.58268 z"
       sodipodi:ry="88.58268"
       sodipodi:rx="88.58268"
       sodipodi:cy="644.8819"
       sodipodi:cx="159.44882"
       id="path2993"
       style="fill:#00ffff;display:inline"
       sodipodi:type="arc" />
    <path
       sodipodi:type="arc"
       style="fill:#000080;display:inline"
       id="path2995"
       sodipodi:cx="159.44882"
       sodipodi:cy="644.8819"
       sodipodi:rx="88.58268"
       sodipodi:ry="88.58268"
       d="m 248.0315,644.8819 c 0,48.92286 -39.65981,88.58268 -88.58268,88.58268 -48.92286,0 -88.582678,-39.65982 -88.582678,-88.58268 0,-48.92287 39.659818,-88.58268 88.582678,-88.58268 48.92287,0 88.58268,39.65981 88.58268,88.58268 z"
       transform="matrix(1.1288889,0,0,1.1288889,170.12936,-328.7711)" />
    <text
       xml:space="preserve"
       style="font-size:20px;font-style:normal;font-weight:normal;line-height:125%;letter-spacing:0px;word-spacing:0px;fill:#000000;fill-opacity:1;stroke:none;font-family:Sans"
       x="136.37059"
       y="113.93047"
       id="text4041"
       sodipodi:linespacing="125%"><tspan
         sodipodi:role="line"
         id="tspan4043"
         x="136.37059"
         y="113.93047" /></text>
    <text
       xml:space="preserve"
       style="font-size:20px;font-style:normal;font-weight:normal;line-height:125%;letter-spacing:0px;word-spacing:0px;fill:#000000;fill-opacity:1;stroke:none;font-family:Sans"
       x="139"
       y="104.36218"
       id="text4045"
       sodipodi:linespacing="125%"><tspan
         sodipodi:role="line"
         id="tspan4047"
         x="139"
         y="104.36218" /></text>
    <text
       xml:space="preserve"
       style="font-size:40px;font-style:normal;font-weight:normal;line-height:125%;letter-spacing:0px;word-spacing:0px;fill:#000000;fill-opacity:1;stroke:none;font-family:Sans"
       x="88.58268"
       y="42.519665"
       id="text4049"
       sodipodi:linespacing="125%"><tspan
         sodipodi:role="line"
         id="tspan4051"
         x="88.58268"
         y="42.519665"
         style="font-size:20px">Path -&gt; booleans</tspan><tspan
         sodipodi:role="line"
         x="88.58268"
         y="67.519669"
         style="font-size:20px"
         id="tspan4057">1.intersection with star + yellow</tspan><tspan
         sodipodi:role="line"
         x="88.58268"
         y="92.519669"
         style="font-size:20px"
         id="tspan4053">2.union with created + light blue</tspan><tspan
         sodipodi:role="line"
         x="88.58268"
         y="117.51967"
         style="font-size:20px"
         id="tspan4055">3.difference with created + blue</tspan><tspan
         sodipodi:role="line"
         x="88.58268"
         y="142.51967"
         style="font-size:20px"
         id="tspan4059">4.difference with bloated tardrop</tspan></text>
    <path
       style="fill:#214478;stroke:#000000;stroke-width:7;stroke-miterlimit:4;stroke-opacity:1;stroke-dasharray:none;display:inline"
       d="m -80.371724,436.57122 c -7.36693,0 -14.63273,0.43402 -21.781246,1.25 l -15.4375,43.43751 c -13.97668,3.56742 -27.15428,9.06772 -39.25,16.25 l -41.625,-19.78125 c -11.4025,9.05757 -21.72602,19.40806 -30.78125,30.8125 l 19.78125,41.625 c -7.16044,12.0717 -12.68824,25.24374 -16.25,39.1875 l -43.40625,15.4375 c -0.81729,7.15411 -1.25,14.40836 -1.25,21.78125 0,7.36232 0.43502,14.63705 1.25,21.78125 l 43.40625,15.4375 c 3.56281,13.95887 9.08115,27.13564 16.25,39.21875 l -19.78125,41.625 c 9.05523,11.40444 19.37875,21.75493 30.78125,30.8125 l 41.65625,-19.78125 c 12.08587,7.17177 25.25599,12.6862 39.21875,16.25 l 15.4375,43.4375 c 7.148516,0.81598 14.414316,1.21875 21.781246,1.21875 7.36693,0 14.63273,-0.40277 21.78125,-1.21875 l 15.4375,-43.4375 c 13.96276,-3.5638 27.13288,-9.07823 39.2187496,-16.25 l 41.6249984,19.78125 c 11.40839,-9.06039 21.75333,-19.4031 30.8125,-30.8125 l -19.8125,-41.625 c 7.17285,-12.08689 12.71708,-25.25456 16.28125,-39.21875 l 43.406246,-15.4375 c 0.81498,-7.1442 1.25,-14.41893 1.25,-21.78125 0,-7.37289 -0.43271,-14.62714 -1.25,-21.78125 L 64.972024,589.38373 c -3.56378,-13.9636 -9.07784,-27.16347 -16.25,-39.25 l 19.78125,-41.59375 c -9.05917,-11.4094 -19.40411,-21.75211 -30.8125,-30.8125 l -41.6249984,19.78125 c -12.0894196,-7.17561 -25.2509696,-12.68485 -39.2187496,-16.25 l -15.4375,-43.43751 c -7.14852,-0.81598 -14.41432,-1.25 -21.78125,-1.25 z m 0,90.00001 c 55.22848,0 99.999998,44.77152 99.999998,100 0,55.22848 -44.771518,100 -99.999998,100 -55.228476,0 -99.999996,-44.77152 -99.999996,-100 0,-55.22848 44.77152,-100 99.999996,-100 z"
       id="path2991-1"
       inkscape:connector-curvature="0" />
    <path
       style="fill:none;stroke:#000000;stroke-width:1;stroke-linecap:butt;stroke-linejoin:miter;stroke-miterlimit:4;stroke-opacity:1;stroke-dasharray:none;display:inline"
       d="m 183.21086,733.58867 c 0,88.58268 -53.1496,88.58268 -53.1496,141.73226 0,53.1496 53.1496,53.1496 53.1496,53.1496 0,0 53.14961,0 53.14961,-53.1496 0,-53.14958 -53.14961,-53.14958 -53.14961,-141.73226 z"
       id="path3159-9"
       inkscape:connector-curvature="0"
       sodipodi:nodetypes="cscsc" />
    <path
       inkscape:connector-curvature="0"
       id="path3894"
       d="m 361.79985,757.02427 c 0,88.5827 -53.15625,88.5691 -53.15625,141.7187 0,53.1497 53.15625,53.1563 53.15625,53.1563 0,0 9.23329,-0.029 20,-3.875 10.7667,3.846 20,3.875 20,3.875 0,0 53.15625,-0.01 53.15625,-53.1563 0,-53.1496 -53.15625,-53.136 -53.15625,-141.7187 0,36.9094 -9.23474,58.4083 -20,74.8125 -10.76525,-16.4042 -20,-37.9031 -20,-74.8125 z"
       style="fill:#6f8a91;fill-opacity:1;stroke:none;display:inline" />
    <path
       style="fill:#6f8a91;fill-opacity:1;stroke:none;display:inline"
       d="m 589.21355,725.66385 c 0,88.58268 -53.14961,88.58268 -53.14961,141.73228 0,53.14961 53.14961,53.14961 53.14961,53.14961 0,0 53.1496,0 53.1496,-53.14961 0,-53.1496 -53.1496,-53.1496 -53.1496,-141.73228 z"
       id="path3889"
       inkscape:connector-curvature="0"
       sodipodi:nodetypes="cscsc" />
  </g>
</svg>
